<?xml version="1.0" encoding="UTF-8"?><svg id="Layer_1" xmlns="http://www.w3.org/2000/svg" viewBox="0 0 244.54 236.67"><defs><style>.cls-1{fill:none;}.cls-2{fill:#febc12;}.cls-3{fill:#fdba12;}</style></defs><polygon class="cls-3" points="72.81 79.17 35.93 27.55 39.9 22.44 90.39 62.72 76.21 5.99 83.02 5.99 114.79 53.64 126.42 2.02 131.81 2.02 139.75 55.35 173.79 2.02 181.16 7.69 166.98 62.15 213.5 27.55 221.44 36.06 188.54 79.17 235.06 71.23 239.03 75.77 193.65 108.67 239.03 112.64 242.43 120.02 193.84 134.71 242.43 175.62 236.19 181.86 182.61 162.04 211.8 209.29 205.56 215.33 166.98 178.45 173.22 220.43 166.41 223.84 139.18 190.94 135.21 230.08 128.97 230.08 115.09 187.07 82.45 235.19 74.51 231.78 88.12 179.02 50.11 218.17 42.74 209.29 72.81 158.6 12.67 177.89 8.13 170.87 62.03 137.59 1.32 132.85 1.32 123.22 60.89 106.97 9.27 70.66 10.4 63.86 72.81 79.17"/><path class="cls-1" d="M81.26,21.14c0,.17.47,2.32.57,2.87.02.08.8,2.63.83,2.75,0-.1-.16-.81-.3-1.5-.07-.34-.14-.68-.2-.94-.05-.25-.08-.42-.07-.43,0,0-.07-.18-.15-.45-.08-.27-.18-.63-.29-.99-.2-.71-.4-1.4-.4-1.32Z"/><path class="cls-1" d="M56.26,55.59l1.81,2.37c.44.58,1.26,1.63,1.81,2.39-1.04-1.61-2.08-3.21-3.12-4.82l-3.63-4.77c1.04,1.61,2.08,3.21,3.12,4.82Z"/><path class="cls-1" d="M235.43,180.89c.13-.14.61-.66,1.06-1.15.22-.25.44-.49.6-.67.16-.18.27-.3.27-.31-.02.02-2.04,1.85-2.17,1.97-.02.02-.04.04-.06.07l1.58-.35c-.67-.24-2.12-.62-2.66-.83.45.17,2.02.88,2.56,1.09l-1.29.28s.08-.08.1-.1Z"/><path class="cls-1" d="M225.92,176.46s.14.07.37.17c.22.09.53.22.84.36.63.26,1.3.55,1.49.62.6.25,1.89.83,2.69,1.14.56.22,2.11.63,2.75.86-1.04-.4-1.74-.76-2.69-1.14-.62-.25-2.02-.9-2.7-1.15-.19-.06-2.73-.86-2.75-.86Z"/><path class="cls-1" d="M198.19,169.2s-2.52-1.07-2.7-1.15c-.18-.06-2.73-.86-2.75-.87,0,0,.18.09.45.2.27.11.63.26.98.4.7.29,1.38.57,1.28.54-.1-.05.59.17,1.3.41.35.12.72.23.99.32.27.09.46.14.46.14Z"/><path class="cls-1" d="M84.13,5.32s1.4,2.33,1.51,2.51c.1.14,1.7,2.3,1.71,2.31,0,0-.09-.17-.24-.42-.15-.24-.35-.57-.55-.89-.39-.64-.78-1.26-.72-1.2.05.1-.37-.49-.81-1.09-.22-.3-.44-.61-.61-.84-.17-.23-.29-.38-.29-.38Z"/><path class="cls-1" d="M80.65,202.65c.18-.73.67-2.02.86-2.79.04-.17.58-2.79.58-2.82,0,.01-.07.2-.15.48-.08.28-.19.64-.3,1-.22.72-.42,1.4-.41,1.31,0,0-.52,2.57-.58,2.82Z"/><path class="cls-1" d="M76.55,231.5c-.33-.13-1.05-.4-1.65-.63l.56,1.15c.11-.52.2-.97.21-1.09,0-.08-.15.44-.33,1.06l-.49-1.01c.37.17.77.37,1.09.52.32.15.54.26.55.27.9.34,1.8.67,2.7,1,.16.06.85.32,1.49.56.64.24,1.23.46,1.21.44-.06-.06-2.81-1.33-2.64-1.28,0,0-.15-.04-.37-.13-.22-.08-.52-.2-.84-.31-.63-.24-1.3-.49-1.49-.56Z"/><path class="cls-1" d="M30.54,136.45c-.77-.05-2.09-.3-2.91-.37-.18,0-2.86-.08-2.88-.08.06.03,3.09.36,2.91.37.02,0,.67.02,1.35.03.68.02,1.39.05,1.53.05Z"/><path class="cls-1" d="M41.76,71.32c1.07.26,1.68.32,2.72.56-.94-.24-1.94-.6-2.87-.84-.93-.24-1.79-.33-2.72-.56.78.2,2.13.66,2.87.84Z"/><path class="cls-1" d="M37.97,168.6c-.92.32-1.97.74-2.69,1.01-.71.27-1.78.7-2.7,1.01-.41.14-2.31.6-2.83.76-.66.21-2.09.8-2.7,1.01-.96.34-1.9.72-2.7,1.01l-2.69,1.01c.93-.29,1.91-.47,2.82-.76.93-.3,1.78-.72,2.7-1.02.92-.3,1.91-.47,2.83-.76.91-.29,1.77-.72,2.7-1.01.91-.29,1.77-.72,2.69-1.01.52-.17,2.39-.64,2.82-.76.21-.06,2.77-.75,2.83-.76.18-.06.85-.31,1.48-.55.63-.23,1.21-.47,1.21-.47,0,0-.16.03-.39.09-.23.06-.55.15-.88.24-.66.18-1.36.37-1.55.43-.19.05-2.77.75-2.82.76.53-.19,2.07-.81,2.69-1.01-.49.16-2.46.63-2.83.76Z"/><path class="cls-1" d="M33.21,68.81s-2.76-.82-2.82-.84c.05.03-.64-.12-1.33-.27-.35-.07-.7-.15-.96-.21-.26-.05-.44-.09-.44-.08,0,0,.62.19,1.29.39.66.19,1.37.4,1.54.45.01,0,2.71.55,2.73.55Z"/><path class="cls-1" d="M33.55,113.77c-.75.2-1.95.68-2.74.89.9-.23,1.96-.39,2.86-.64.24-.08,2.65-.86,2.74-.89-.03,0-2.66.59-2.86.64Z"/><path class="cls-1" d="M27.95,115.3c-.96.26-1.91.38-2.85.63-.19.06-2.73.89-2.75.9,0,0,.16-.03.4-.08.24-.05.56-.12.89-.2.66-.15,1.37-.31,1.57-.36.64-.14,2.02-.42,2.86-.64.58-.15,2.13-.74,2.74-.89-.95.26-1.91.38-2.86.64Z"/><path class="cls-1" d="M4.34,132.31s.16.03.4.06c.24.03.56.07.9.11.67.08,1.4.17,1.6.19.92.12,1.98.25,2.91.37.09-.02.81.02,1.51.05.35.01.69.03.95.04.26,0,.42,0,.42,0,0,0-.16-.03-.4-.06-.24-.03-.57-.07-.91-.11-.68-.08-1.4-.17-1.61-.19-.24-.03-2.66-.34-2.9-.37.1.02-.62-.01-1.37-.04-.37-.01-.75-.03-1.04-.04-.28,0-.47,0-.47,0Z"/><path class="cls-2" d="M168.83,182.68c-.07-.06.43.47.96,1.01.52.54,1.06,1.11,1.06,1.11-.03-.02-2.07-1.79-2.18-1.89.22.24,1.69,1.81,2.01,2.12.38.36,1.88,1.63,2.18,1.89.15.13.69.61,1.2,1.05.25.22.5.43.68.59.18.16.3.25.3.25,0,0-.11-.13-.28-.32-.18-.18-.42-.43-.67-.68-.49-.5-1-1.02-1.06-1.11-.7-.68-1.32-1.45-2.02-2.12-.29-.27-1.99-1.73-2.18-1.89Z"/><path class="cls-2" d="M50.19,167.32c-.92.31-1.77.72-2.69,1.01-.4.11-2.56.69-2.83.76-.17.06-.85.31-1.48.55-.63.24-1.22.47-1.22.47,0,0,.63-.16,1.29-.34.67-.18,1.37-.38,1.54-.42.7-.21,2.09-.52,2.82-.76.49-.16,2.32-.87,2.69-1.01.19-.07.86-.32,1.49-.55.31-.12.62-.23.84-.31.22-.09.36-.15.36-.15,0-.01-.17.03-.42.1-.25.07-.58.16-.92.26-.68.19-1.38.39-1.48.4Z"/><path class="cls-2" d="M197.97,75.65s-.16.01-.41.04c-.24.03-.57.07-.91.11-.68.09-1.4.18-1.59.2-.13.03-2.51.56-2.81.62-.76.14-2.11.22-2.9.35-.39.07-.77.15-1.14.24l1.9,3.14c.32-.48.62-.96.97-1.42-.35.42-.74.88-1.11,1.32l-1.73-2.87c.42-.05.83-.1,1.2-.15.2-.03.93-.12,1.6-.2.34-.04.66-.08.9-.11.24-.03.4-.04.4-.04.89-.2,1.92-.43,2.81-.62.19-.04.9-.19,1.55-.33.33-.07.64-.14.88-.19.23-.05.38-.1.38-.1Z"/><path class="cls-2" d="M114.25,189.59s.72,2.65.77,2.83c.29.91.71,1.78,1.02,2.69-.03-.12-.76-2.81-.77-2.83-.01-.04-1.01-2.66-1.02-2.69Z"/><path class="cls-2" d="M226.55,70.76s-2.72.33-2.9.35c-.98.17-1.84.45-2.81.62.16-.02,2.88-.35,2.9-.35.11-.02,2.78-.62,2.81-.62Z"/><path class="cls-2" d="M30.48,68.26c-.78-.19-2.01-.36-2.75-.55-.56-.15-2.34-.73-2.82-.84-.83-.19-2.13-.42-2.77-.54l-2.79-.54-2.8-.54c-.9-.17-1.8-.35-2.81-.55-1.02-.2-1.94-.38-2.83-.55-.09-.02-.29-.05-.55-.1l.23-.15c-.08.76-.22,2.01-.27,2.31-.16.96-.46,1.91-.62,2.85-.09.56-.14,1.1-.19,1.65l-.1-.24c.35.21.69.42,1.03.66.23.18,2.22,1.73,2.31,1.8.82.52,1.62,1.03,2.43,1.54.59.37,2.12,1.37,2.43,1.54.09.05-.49-.39-1.09-.85-.3-.23-.61-.46-.84-.64-.23-.18-.38-.3-.38-.3,0-.01.14.07.36.21.21.14.49.32.78.51.58.38,1.18.77,1.3.83.08.04-.5-.4-1.1-.86-.3-.23-.6-.46-.83-.63-.23-.18-.38-.31-.38-.31,0,0,.14.07.34.2.2.13.47.3.76.48.56.36,1.17.75,1.34.86.77.49,1.67,1.05,2.44,1.54,1.54,1.2,3.08,2.4,4.63,3.59-.09-.03-.69-.43-1.28-.81-.29-.19-.58-.38-.8-.52-.22-.14-.36-.23-.37-.22,0,0,.12.11.31.26.19.15.45.35.72.56.54.41,1.12.86,1.28.98.29.23,1.86,1.48,2.31,1.8.7.5,1.7,1.02,2.43,1.54.44.31,1.95,1.52,2.32,1.8.18.14,2.21,1.71,2.31,1.79.15.1.75.48,1.32.85.57.36,1.11.69,1.11.69,0,0-.12-.1-.31-.25-.19-.15-.45-.35-.72-.56-.54-.41-1.12-.86-1.28-.98-.27-.21-1.96-1.55-2.31-1.8.81.57,1.63.98,2.43,1.54.45.32,1.95,1.52,2.31,1.8.64.5,1.5,1.2,2.31,1.79.83.61,1.43,1.17,2.31,1.8.63.45,1.77,1.07,2.43,1.54.73.51,1.6,1.3,2.31,1.8.51.36,2.03,1.28,2.43,1.54.71.45,1.58.98,2.43,1.54.53.35,1.85,1.13,2.43,1.54.32.25,2.09,1.63,2.31,1.79.88.56,1.69,1.07,2.44,1.55l2.43,1.54.94.59,1.89,1.2-2.23.73-4.42,1.44c-.1,0-.81.17-1.5.34-.34.08-.68.16-.93.22-.25.06-.42.09-.43.08,0,0,.18-.07.45-.16.27-.08.63-.2.98-.31.71-.22,1.4-.43,1.31-.43-.22,0-2.75.66-2.85.63-.05-.01.64-.22,1.34-.44.35-.11.7-.22.96-.3.26-.08.44-.14.43-.15,0,0-.16.02-.4.08-.24.05-.56.13-.89.21-.67.15-1.37.32-1.55.35-.59.1-2.2.51-2.86.64l-2.74.89c-.8.26-2.17.69-2.74.89-.19.06-.87.28-1.51.48-.32.1-.63.2-.86.27-.23.07-.37.13-.37.13-.56.1-2.06.46-2.86.64-.56.12-2.12.44-2.85.63-.93.24-1.95.39-2.86.64-.53.15-2.32.76-2.74.89-.96.31-1.78.58-2.74.89-.96.31-1.83.6-2.74.89-.37.12-2.28.77-2.75.9-.52.14-2.44.54-2.85.63-.17.04-.9.2-1.57.36-.34.08-.66.15-.9.2-.24.05-.39.08-.38.08.03,0,2.73-.89,2.74-.89-.64.16-2.17.45-2.85.63-.53.15-2.32.76-2.75.9-.76.25-1.79.61-2.74.89-.75.22-1.93.67-2.74.89-.41.11-2.57.55-2.85.63-1,.31-1.91.62-2.75.9l-1.83.6.74-.97.05.95.28,5.75-.14,2.93-1.1-1.19,2.89.36c.84.11,2.32.27,2.91.37.1.02-.62-.01-1.37-.04-.37-.01-.75-.03-1.04-.04-.28,0-.47,0-.47,0,0,0,.16.03.4.06.24.03.56.07.9.11.67.08,1.4.17,1.6.19.92.12,1.98.25,2.91.37.09-.02.81.02,1.51.05.35.01.69.03.95.04.26,0,.42,0,.42,0,0,0-.16-.03-.4-.06-.24-.03-.57-.07-.91-.11-.68-.08-1.4-.17-1.61-.19-.24-.03-2.66-.34-2.9-.37.89.06,1.96.01,2.88.08.55.04,2.45.31,2.9.37.35.04,2.52.34,2.91.37.69.05,2.37.07,2.88.08.31,0,2.51.05,2.88.08.69.06,2.39.3,2.91.37.34.04,2.49.34,2.9.37.51.04,2.49.04,2.88.08.97.1,2.13.27,2.91.37.39.05,2.4.33,2.91.37.52.04,2.47.07,2.88.08l2.88.08c.48.01,2.23.04,2.88.08.85.06,2.02.3,2.91.37.8.06,2.11.02,2.88.08,1.12.1,1.79.27,2.9.37.76.07,2.09.02,2.88.08.55.04,2.46.31,2.91.37.39.05,2.29.31,2.83.36l2.41.21-2.05,1.26s-.05.03-.07.04c-.48.3-2.02,1.39-2.37,1.63l-2.37,1.63c-.53.37-1.65,1.17-2.37,1.63-.2.13-2.34,1.29-2.56,1.42-.38.21-2.07,1.12-2.55,1.41-.38.23-2.08,1.43-2.37,1.63-.79.54-1.58,1.09-2.38,1.64-.3.21-1.97,1.39-2.37,1.63-.47.29-2.18,1.21-2.56,1.41-.63.35-2.22,1.26-2.56,1.42-.1.04.5-.36,1.12-.77.31-.21.62-.42.86-.58.24-.16.39-.28.39-.28,0,0-.57.31-1.18.64-.6.34-1.24.69-1.38.77-.66.39-1.87.99-2.56,1.42-.69.43-1.71,1.23-2.38,1.63-.47.28-2.17,1.17-2.55,1.41-.75.48-1.82,1.25-2.38,1.63-.39.27-1.84,1.3-2.38,1.63-.74.46-1.8.95-2.56,1.41-.82.51-1.56,1.13-2.37,1.63-.82.51-1.74.91-2.56,1.42-.81.5-1.58,1.14-2.37,1.63-.84.52-1.73.91-2.56,1.42-.69.43-1.71,1.23-2.37,1.63-.53.32-1.44.78-2.1,1.15l.26-1.16c.11.18.2.33.28.46.37.56,1.39,1.93,1.68,2.34.19.27,1.45,1.99,1.68,2.34.18.28.67,1.16,1.03,1.79l-1.14-.41c.39-.1.7-.19.82-.23.93-.32,1.98-.74,2.71-1.02.5-.19,2.01-.79,2.69-1.01.73-.24,2.05-.51,2.82-.76.77-.25,1.96-.78,2.7-1.01,1-.31,1.82-.44,2.83-.76.86-.27,1.82-.73,2.7-1.01.66-.21,2.23-.56,2.83-.76.78-.26,2.11-.79,2.69-1.01l2.7-1.01,2.7-1.01,5.65-1.52-2.7,1.01c-.32.12-2.3.89-2.69,1.01-.49.16-2.46.63-2.83.76-.92.32-1.97.74-2.69,1.01-.71.27-1.78.7-2.7,1.01-.41.14-2.31.6-2.83.76-.66.21-2.09.8-2.7,1.01-.96.34-1.9.72-2.7,1.01l-2.69,1.01c.93-.29,1.91-.47,2.82-.76.93-.3,1.78-.72,2.7-1.02.92-.3,1.91-.47,2.83-.76.91-.29,1.77-.72,2.7-1.01.91-.29,1.77-.72,2.69-1.01.52-.17,2.39-.64,2.82-.76.21-.06,2.77-.75,2.83-.76.18-.06.85-.31,1.48-.55.63-.23,1.21-.47,1.21-.47,0,0-.16.03-.39.09-.23.06-.55.15-.88.24-.66.18-1.36.37-1.55.43-.19.05-2.77.75-2.82.76.53-.19,2.07-.81,2.69-1.01.52-.17,2.38-.64,2.83-.76.3-.08,2.52-.66,2.82-.76.73-.24,2.16-.81,2.69-1.01.16-.06.85-.31,1.49-.55.64-.24,1.23-.46,1.21-.46-.06,0-.76.2-1.45.39-.35.1-.69.19-.94.27-.26.07-.43.11-.43.1,0-.01.17-.08.42-.17.26-.09.59-.21.93-.34.34-.12.68-.24.93-.33.25-.09.42-.16.41-.17l5.65-1.52c.95-.26,1.89-.51,2.83-.76l5.39-2.02,2.7-1.01c.42-.16,2.13-.83,2.69-1.01.08-.02.74-.2,1.42-.39l3.53-.97-1.96,2.94c-.4.6-.8,1.2-.81,1.21,0,0,.07-.16.2-.41.13-.24.31-.56.48-.88l1.53-2.8-2.92,1.05c-.71.26-1.42.51-1.33.5.1,0,.73-.19,1.37-.37l2.72-.78-1.49,2.33c-.39.61-.78,1.22-.83,1.25-.04.03.34-.66.7-1.33l1.18-2.15-2.25.81c-.33.12-.65.24-.9.32-.24.09-.4.15-.4.16,0,0,.17-.03.42-.1.25-.07.58-.16.92-.25l2.01-.55-1.1,1.69c-.37.56-.75,1.14-.85,1.3-.35.47-1.22,1.89-1.61,2.44-.49.84-.86,1.72-1.35,2.55-.41.7-1.23,1.78-1.62,2.45-.43.74-1,1.91-1.34,2.54.03-.05,1.6-2.43,1.61-2.45,0,.02-1.28,2.42-1.35,2.55-.19.29-1.5,2.28-1.61,2.44-.49.92-.92,1.73-1.35,2.55-.45.86-.9,1.71-1.35,2.55-.45.86-.9,1.71-1.35,2.55l-2.69,5.09c-.07.07-.46.69-.84,1.28-.19.3-.38.59-.52.81-.14.22-.24.36-.25.36,0,0,.06-.14.17-.35.11-.21.26-.5.42-.79.32-.59.66-1.23.76-1.41.23-.43,1.32-2.44,1.35-2.54.01-.06-.38.56-.78,1.19-.2.31-.4.63-.56.87-.15.24-.26.4-.27.39,0,0,.08-.17.21-.42.14-.25.31-.58.49-.9.36-.65.7-1.29.65-1.23-.17.17-1.37,2.15-1.61,2.44-.45.85-.9,1.7-1.35,2.55-.08.15-.42.79-.75,1.39-.16.3-.31.59-.43.81-.11.21-.18.35-.17.35.05-.04,1.69-2.62,1.61-2.45-.2.43-.98,1.86-1.35,2.55-.35.66-.88,1.71-1.35,2.55-.09.14-1.49,2.26-1.61,2.45-.22.33-1.35,2-1.61,2.44-.27.45-1.17,2.2-1.35,2.54-.45.86-.9,1.71-1.35,2.55-.54.82-1.07,1.63-1.61,2.44-.19.3-1.4,2.09-1.61,2.45.09-.17,1.34-2.52,1.35-2.55,0,0-.1.13-.23.33-.13.2-.31.47-.5.76-.37.57-.76,1.17-.88,1.35l-1.28,1.94-.07-.87.37.49,3.89,4.24c.45.49,1.37,1.46,1.95,2.12.28.33.91,1.22,1.38,1.85l-1.54-.06c.18-.17.34-.32.45-.43.57-.58,1.36-1.61,1.9-2.16.34-.35,1.88-1.72,2.14-2,.65-.69,1.41-1.6,1.9-2.16l1.9-2.16c.53-.6,1.22-1.43,1.9-2.16.47-.51,1.38-1.62,1.9-2.16.67-.7,1.46-1.31,2.14-2,0-.01.13-.16.32-.37.19-.21.44-.49.69-.77.5-.55.97-1.08.89-1.02.12-.1.65-.6,1.15-1.08.25-.24.49-.47.67-.64.18-.17.3-.28.31-.27,0,0-.09.12-.25.3-.16.18-.37.42-.59.67-.45.5-.93,1.04-1.06,1.19-.4.46-1.75,1.95-1.9,2.16-.05.08.47-.43,1.02-.95.27-.26.55-.53.76-.73.21-.2.36-.33.36-.33.01,0-.11.14-.29.35-.18.2-.43.47-.67.74-.49.54-.98,1.08-.95,1.08.08-.01,1.94-1.87,2.14-2,1.27-1.44,2.54-2.89,3.81-4.33.53-.6,1.57-1.75,1.9-2.16.12-.14.6-.68,1.05-1.18.22-.25.44-.5.6-.68.16-.18.26-.3.25-.3-.02.02-2.08,1.95-2.14,2,.32-.36,1.5-1.75,1.9-2.16.57-.58,1.61-1.45,2.14-2.01.77-.8,1.13-1.35,1.9-2.16.52-.54,1.58-1.43,2.14-2,.38-.4,1.61-1.83,1.9-2.16.66-.75,1.24-1.41,1.9-2.16l3.47-3.25,4.2-3.94-1.66,5.36-.32,1.04c0-.07.1-.54.22-1.07l1.16-5.21-3.52,3.89c-.27.3-.57.63-.81.89-.23.26-.39.44-.38.45.01,0,.19-.16.44-.39.25-.24.57-.55.86-.83l3.41-3.29-1.33,4.46c-.09.29-.17.57-.23.77-.06.2-.1.33-.11.33,0,0,.01-.13.06-.34.04-.21.11-.48.17-.78l.9-4.13-2.78,3.07c-.27.3-.56.62-.79.87-.22.25-.38.43-.37.44,0,0,.18-.15.42-.38.24-.23.56-.53.85-.81l2.63-2.49-1.03,3.39c-.16.51-.3.98-.34,1.13-.24.78-.62,1.99-.87,2.8l-1.16,5.64-.58,2.82c-.12.57-.4,2.06-.58,2.82-.07.27-.78,2.53-.87,2.8-.12.38-.74,2.3-.86,2.79-.13.49-.5,2.43-.58,2.82-.07.32-.49,2.46-.58,2.82-.17.64-.72,2.32-.87,2.8-.12.39-.73,2.29-.87,2.8-.13.48-.5,2.44-.58,2.82-.07.34-.48,2.42-.58,2.82-.22.85-.66,1.97-.86,2.79-.21.85-.65,1.94-.87,2.8-.24.94-.35,1.89-.58,2.82-.23.94-.34,1.88-.58,2.83-.24.93-.61,1.85-.86,2.79-.09.36-.16.74-.24,1.13l-.72-1.46c.55.19,1.11.38,1.62.6.19.09,2.61,1.27,2.63,1.28,0,0-.15-.04-.37-.13-.22-.08-.52-.2-.84-.31-.63-.24-1.3-.49-1.49-.56-.33-.13-1.05-.4-1.65-.63l.56,1.15c.11-.52.2-.97.21-1.09,0-.08-.15.44-.33,1.06l-.49-1.01c.37.17.77.37,1.09.52.32.15.54.26.55.27.9.34,1.8.67,2.7,1,.16.06.85.32,1.49.56.64.24,1.23.46,1.21.44-.06-.06-2.81-1.33-2.64-1.28.3.08,2.08.77,2.71,1.01.12.05.56.21,1.04.39l-1.7.5c.22-.35.45-.73.63-1.02.18-.29.3-.49.28-.49-.01,0-.15.2-.36.47-.2.27-.46.62-.7.94l1.91-.56c-.6-.29-1.12-.54-1.05-.51.09.03.52.19,1.1.4l-2.05.6c.33-.55.77-1.28.89-1.46.54-.8,1.21-1.55,1.76-2.34.55-.8,1.21-1.54,1.76-2.34.12-.2,1.47-2.41,1.5-2.46.12-.16.56-.75.96-1.3.2-.27.4-.53.54-.73.15-.19.25-.31.25-.31,0,0-.07.13-.19.34-.12.2-.29.48-.47.77-.35.57-.73,1.19-.84,1.35-.37.62-1.3,2.09-1.5,2.46-.08.15-.46.76-.82,1.33-.18.29-.35.57-.48.77-.13.21-.21.35-.2.35,0,0,.13-.15.3-.38.17-.23.39-.54.61-.84.44-.61.87-1.2.84-1.12-.07.19-1.31,2.09-1.5,2.46-.04.08.39-.5.83-1.1.22-.3.45-.61.62-.84.17-.23.29-.39.31-.4.5-.82,1-1.64,1.5-2.46.09-.14.47-.77.83-1.35.36-.58.69-1.12.66-1.11-.01,0-.13.16-.3.4-.17.23-.4.54-.62.84-.44.6-.87,1.18-.83,1.1.28-.5,1.07-1.75,1.5-2.46l1.5-2.46c.32-.53,1.05-1.77,1.5-2.46.05-.07,1.75-2.33,1.76-2.34-.02.03-1.44,2.37-1.5,2.47.23-.31,1.48-1.94,1.76-2.34.54-.8.96-1.67,1.5-2.46.54-.8,1.22-1.54,1.76-2.34.53-.78.97-1.68,1.5-2.46.56-.82,1.2-1.53,1.76-2.34.45-.66,1.05-1.82,1.5-2.46.27-.39,1.55-2.02,1.75-2.34.52-.81,1.11-1.83,1.5-2.46.5-.82,1-1.65,1.5-2.46.5-.83,1-1.65,1.5-2.46.51-.83,1-1.65,1.5-2.47.25-.41,1.14-1.92,1.5-2.46.09-.12,1.74-2.32,1.75-2.34,0,0-.09.17-.24.41-.15.24-.35.56-.55.88-.4.63-.78,1.25-.71,1.17.25-.29,1.33-1.78,1.76-2.34.21-.28.47-.62.76-1l1.65-2.17.66,2.5c.14.53.29,1.1.45,1.61.21.72.52,2.07.76,2.82.17.53.86,2.28,1.02,2.69.35.94.65,1.71,1.02,2.69.37.97.69,1.82,1.02,2.69.34.9.68,1.81,1.02,2.69.08.21.97,2.57,1.02,2.7.04.16.24.86.42,1.53.18.67.34,1.3.34,1.3,0,0-.06-.14-.15-.37-.08-.22-.2-.53-.32-.84-.23-.63-.49-1.31-.55-1.49-.22-.57-.9-2.47-1.02-2.69-.04-.08.16.62.36,1.34.1.36.21.73.29,1.01.08.28.12.47.12.47-.01,0-.08-.17-.17-.43-.09-.26-.22-.6-.34-.94-.25-.69-.49-1.36-.5-1.33-.03.07.74,2.59.77,2.83l1.02,2.69c.14.37.86,2.21,1.02,2.69.16.5.66,2.44.77,2.83.07.25.7,2.6.76,2.82.28.82.79,2.09,1.02,2.7l1.02,2.69c.29.77.68,1.74,1.02,2.69.11.32.62,2.37.76,2.82.17.53.86,2.28,1.02,2.7,0,0,0,.02.01.04l-1.31-.96c.64-.03,2.04-.13,2.84-.14.73,0,2.15.14,2.92.14h.49s-1.39,1.24-1.39,1.24c.05-.8.03-1.6.11-2.39.1-.96.34-1.94.43-2.9.07-.69.08-2.24.15-2.88.1-.83.34-2.27.43-2.9.08-.51.36-2.23.43-2.9.11-.98.33-1.91.43-2.89.06-.55.13-2.44.15-2.87.03-.44.1-2.35.15-2.88.05-.53.37-2.49.43-2.9.05-.34.39-2.48.43-2.89.05-.51.1-2.49.15-2.89.12-.97.32-2.11.43-2.89.05-.31.4-2.53.43-2.89.04-.45.08-1.36.11-2.05l.11-2.51,1.79,1.93c.25.27.45.48.56.61l1.94,2.13c.54.59,1.57,1.75,1.95,2.13.13.14.61.67,1.06,1.17.23.25.44.49.6.67.16.18.27.29.27.28,0,0,.39.53.8,1.08.42.55.86,1.13.96,1.26.48.6,1.24,1.72,1.75,2.34.62.75,1.32,1.39,1.94,2.13.63.74,1.33,1.39,1.95,2.13.31.38,1.51,2.05,1.76,2.34.65.75,1.39,1.52,1.94,2.13.64.7,1.29,1.42,1.94,2.13l1.94,2.13c.27.29,1.61,1.72,1.94,2.12.33.39,1.52,2.02,1.75,2.34.43.57,1.55,2.03,1.76,2.34.06.09-.42-.45-.92-1.01-.25-.28-.5-.56-.69-.77-.19-.21-.33-.35-.33-.35,0,0,.38.52.79,1.07.42.55.86,1.13.97,1.28.22.29.5.67.79,1.06l-1.64-.35c.5-.21,1.03-.44,1.46-.65.7-.34,1.79-1.05,2.51-1.41.61-.3,2.14-.9,2.68-1.19.05-.03.11-.06.19-.1l-.69,1.34c-.14-.81-.41-2.02-.53-2.61l-.56-2.82c-.17-.85-.36-1.81-.56-2.82-.11-.59-.46-2.15-.56-2.82-.12-.8-.17-2.15-.29-2.92-.18-1.1-.38-1.75-.56-2.82-.2-1.94-.39-3.88-.59-5.83-.07-.71-.28-2.53-.29-2.91,0-.11.13.6.27,1.34.07.37.14.74.19,1.02.05.28.1.46.1.46.01,0,0-.16-.03-.41-.03-.25-.06-.58-.1-.92-.08-.68-.16-1.41-.16-1.57-.01-.46-.26-2.36-.29-2.92l-.56-2.82c-.03-.17-.17-.88-.3-1.55-.07-.33-.13-.66-.18-.89-.05-.24-.08-.39-.08-.38,0,.04.28,2.81.29,2.92-.07-.37-.49-2.34-.56-2.82-.14-.96-.15-1.96-.29-2.92-.14-.96-.42-1.88-.56-2.82-.07-.44-.13-1.38-.2-2.1l-.4-4.32,2.85,3.04c.23.25.44.46.57.59.64.59,1.67,1.45,2.18,1.89.21.18,1.96,1.68,2.18,1.89.55.54,1.62,1.7,2.02,2.12.67.7,1.34,1.41,2.01,2.12.32.34,1.58,1.7,2.02,2.12.3.29,1.92,1.66,2.18,1.89.13.11.68.59,1.19,1.04.26.22.51.44.69.6.18.16.3.26.3.24-.02-.02-.46-.49-.94-1-.48-.5-.98-1.02-1.08-1.13.56.54,1.6,1.33,2.18,1.89.4.38,1.71,1.8,2.02,2.12.7.73,1.29,1.35,2.02,2.12.72.75,1.37,1.44,2.01,2.12.68.71,1.34,1.41,2.02,2.12.67.7,1.34,1.41,2.01,2.12.09.05.63.53,1.15,1,.26.23.52.46.71.63.19.17.32.27.33.26,0,0-.1-.12-.27-.3-.17-.18-.39-.41-.63-.66-.47-.49-.98-1.01-1.12-1.16-.39-.41-1.92-1.98-2.02-2.12-.06-.09-.58-.61-1.07-1.12-.25-.25-.49-.5-.67-.69-.18-.19-.29-.31-.28-.32,0,0,.12.09.31.25.18.16.42.37.68.59.5.44,1.04.92,1.19,1.05.69.6,1.48,1.28,2.18,1.89l4.03,4.24c.38.4,1.49,1.61,2.02,2.12.69.67,1.32,1.45,2.01,2.12.71.68,1.48,1.23,2.18,1.89.7.66,1.48,1.22,2.18,1.89.09.09.18.18.28.28h-2.39c.6-.53,1.4-1.16,1.9-1.65.71-.69,1.27-1.42,1.98-2.11.58-.56,1.64-1.39,2.19-1.93.07-.07.15-.15.25-.26l-.25,2c-.43-.63-1.12-1.56-1.43-2.07-.37-.62-1.16-2.09-1.42-2.56-.17-.31-1.2-2.21-1.42-2.56-.26-.42-1.43-2.03-1.63-2.37-.5-.84-1.04-1.87-1.42-2.55-.15-.26-1.25-2.29-1.42-2.56-.07-.11-.48-.7-.86-1.27-.39-.56-.76-1.09-.77-1.1,0,0,.09.18.23.43.14.25.33.59.52.92.37.66.73,1.29.67,1.21-.23-.29-1.24-1.8-1.63-2.37-.41-.6-1.13-1.59-1.63-2.37-.27-.41-1.12-2.07-1.42-2.56-.51-.82-1.11-1.55-1.63-2.37-.04-.1-.4-.73-.75-1.34-.17-.31-.35-.61-.47-.83-.13-.23-.21-.38-.2-.39,0,0,.12.15.28.38.16.24.37.55.57.85.41.62.81,1.21.78,1.13-.03-.1-1.18-2.14-1.42-2.56-.31-.54-1.06-1.97-1.42-2.56-.29-.47-1.38-2-1.63-2.37-.19-.29-1.44-2.05-1.63-2.38-.36-.59-1.17-2.1-1.42-2.56-.14-.26-1.25-2.3-1.42-2.55-.4-.63-1.32-1.92-1.63-2.37-.55-.8-1.09-1.58-1.64-2.38-.47-.68-1.07-1.52-1.63-2.37-.06-.1-.21-.37-.4-.71l-2.45-4.48,4.52,1.96c.69.3,1.64.72,1.93.83.52.19,2.33.73,2.75.86.96.3,1.8.57,2.76.87.89.38,1.8.76,2.69,1.14.16.07.85.35,1.48.62.32.13.63.27.85.36.23.1.37.16.36.16-.04-.01-2.65-.84-2.76-.87.46.2,2.06.9,2.7,1.15.72.27,1.98.58,2.76.87.88.32,1.8.8,2.69,1.14.96.37,1.71.78,2.7,1.15.84.32,1.89.55,2.75.87.9.33,1.78.81,2.69,1.14.9.33,1.83.53,2.75.87.57.21,2.19.97,2.69,1.14.86.3,2.09.66,2.75.86.92.29,1.83.58,2.75.87.91.29,1.83.58,2.75.87.43.14,2.18.66,2.75.87.84.31,1.83.82,2.69,1.14-.19-.06-2.73-.86-2.75-.86,0,0,.14.07.37.17.22.09.53.22.84.36.63.26,1.3.55,1.49.62.6.25,1.89.83,2.69,1.14.56.22,2.11.63,2.75.86.45.17,2.02.88,2.56,1.09l-1.29.28s.08-.08.1-.1c.13-.14.61-.66,1.06-1.15.22-.25.44-.49.6-.67.16-.18.27-.3.27-.31-.02.02-2.04,1.85-2.17,1.97-.02.02-.04.04-.06.07l1.58-.35c-.67-.24-2.12-.62-2.66-.83-1.04-.4-1.74-.76-2.69-1.14-.62-.25-2.02-.9-2.7-1.15.76.28,2.03.59,2.75.87.98.37,1.7.77,2.69,1.14.83.31,1.85.54,2.7.85l-1.88.41.04-.04c.69-.69,1.47-1.27,2.16-1.96.68-.68,1.26-1.46,1.94-2.14.68-.68,1.48-1.28,2.16-1.97l.04-.04.1,2.42c-.73-.61-1.53-1.1-2.25-1.71-.75-.63-1.41-1.37-2.15-1.99-.74-.62-1.4-1.36-2.15-1.99-.42-.36-1.94-1.47-2.29-1.74-.21-.17-2.09-1.57-2.29-1.74-.65-.57-1.66-1.54-2.14-1.98-.64-.59-1.38-1.3-2.15-1.99-.48-.43-1.6-1.53-2.15-1.99-.22-.17-2.2-1.67-2.29-1.74-.15-.13-.68-.63-1.19-1.09-.25-.23-.49-.45-.67-.62-.18-.17-.29-.28-.29-.28,0,0,.16.1.38.28.22.17.52.4.81.63.58.46,1.15.9,1.1.84-.15-.2-1.89-1.7-2.15-1.99l-4.58-3.49-2.29-1.74c-.68-.52-1.48-1.1-2.29-1.75-.49-.38-1.76-1.3-2.29-1.74-.62-.52-1.55-1.5-2.15-1.99-.86-.71-1.45-1.06-2.29-1.74-.72-.67-1.43-1.33-2.15-1.99-.13-.12-.67-.62-1.18-1.08-.25-.23-.5-.46-.68-.63-.18-.17-.29-.28-.28-.27.05,0,.62.46,1.18.9.28.22.56.44.76.6.21.16.35.26.35.25,0-.01-.13-.14-.34-.33-.2-.18-.47-.43-.74-.67-.27-.24-.54-.49-.74-.67-.2-.18-.33-.31-.33-.32,0-.01.15.09.36.25.21.16.49.38.77.6.56.44,1.13.89,1.16.89.08,0-2.06-1.86-2.14-1.98-1.53-1.16-3.06-2.33-4.58-3.49-.56-.42-1.36-1.03-2.07-1.57l-2.03-1.54,2.52-.84c.09-.03.18-.06.26-.09.41-.13,2.33-.56,2.84-.71.93-.28,1.8-.68,2.71-.97.92-.29,1.79-.69,2.72-.97.47-.14,2.48-.59,2.83-.71.95-.31,1.96-.7,2.71-.97l2.71-.97c.45-.16,2.1-.78,2.71-.97.38-.12,2.52-.63,2.84-.71.3-.08,2.49-.61,2.84-.71.24-.07,2.71-.97,2.71-.97.59-.16,2.17-.51,2.84-.71.77-.23,1.97-.75,2.71-.97,1.01-.29,1.82-.41,2.84-.71.86-.26,1.84-.7,2.71-.97.94-.28,1.89-.43,2.84-.71.94-.28,1.9-.43,2.83-.71.53-.16,2.3-.82,2.71-.97.14-.05.61-.22,1.14-.41l-1,2.22c-.32-.61-.68-1.29-.77-1.48-.29-.64-.9-2.23-1.1-2.72-.09-.21-1.03-2.55-1.1-2.72-.04-.07-.14-.27-.27-.54l1.18.83c-.85-.04-2.28-.08-2.28-.08,0,0,.09.02.24.04.15.02.35.05.58.08.46.06,1.02.13,1.44.18l-1.35-.95c.16.39.27.65.24.61-.04-.04-.15-.26-.31-.58l1.42,1c-.71-.03-1.86-.08-2.22-.1-.72-.03-1.99-.08-2.89-.11-.73-.03-1.94-.05-2.88-.11-.17-.02-2.67-.36-2.89-.39-.7-.1-1.99-.3-2.9-.39-.52-.06-2.26-.06-2.88-.11-.95-.08-1.94-.3-2.89-.39.54.05,2.43.09,2.88.11,1,.04,1.88.07,2.88.11-1.93-.26-3.87-.52-5.81-.79-.96-.07-1.91-.03-2.88-.11-.6-.05-2.37-.36-2.89-.39-.92-.06-2.18-.08-2.88-.11-.72-.03-1.95-.05-2.88-.11-.79-.05-2.05-.04-2.87-.11-.82-.07-2.14-.33-2.9-.39-1.07-.08-1.8-.02-2.88-.11-.39-.03-2.57-.35-2.9-.39l-2.66-.36-3.89-.53,3.17-2.08.2-.13c.28-.18,2.11-1.35,2.44-1.6.5-.36,1.89-1.51,2.25-1.8l2.25-1.8c.46-.37,1.61-1.33,2.25-1.8.55-.41,1.85-1.17,2.45-1.61.5-.36,1.82-1.5,2.25-1.8.75-.52,1.86-1.22,2.45-1.61.42-.27,1.91-1.22,2.45-1.61.69-.49,1.54-1.29,2.25-1.8.65-.47,1.82-1.14,2.44-1.6.29-.23,2.07-1.66,2.25-1.8.15-.1.76-.51,1.34-.89.57-.38,1.12-.72,1.12-.72,0,0-.14.13-.36.3-.22.17-.52.41-.81.63-.58.45-1.15.9-1.07.86.03-.02.58-.37,1.15-.75.57-.38,1.17-.78,1.29-.85.36-.26,1.95-1.57,2.24-1.8.35-.28,1.81-1.48,2.25-1.81.25-.16,2.32-1.52,2.44-1.6.15-.12.71-.57,1.24-.98.53-.42,1-.82,1-.82-.02.01-2.3,1.5-2.44,1.6.79-.58,1.45-1.23,2.25-1.8.45-.32,2.07-1.36,2.44-1.6.62-.41,2.1-1.4,2.45-1.61.09-.05-.48.39-1.06.86-.29.23-.59.47-.82.64-.22.18-.37.3-.37.3.02-.01,2.31-1.51,2.44-1.6.5-.36,1.9-1.52,2.25-1.8.07-.06.28-.22.55-.44l-.22,1.97c-.3-.31-.68-.71-.99-1.03-.31-.32-.54-.55-.53-.54.02.02.85,1.07,1.36,1.71l.26-2.29c-.38.25-.61.4-.62.41.13-.1.33-.27.58-.47l-.27,2.39c-.51-.51-1.19-1.21-1.48-1.54-.54-.61-1.31-1.72-1.82-2.29-.22-.24-.44-.47-.67-.7l1.51.53c-.62.15-1.23.31-1.86.42-.95.16-1.95.19-2.9.35-.81.14-2.05.5-2.82.62-.51.08-2.48.27-2.91.36-.89.17-2.12.47-2.81.62-.93.21-1.87.42-2.81.62-.47.1-2.19.51-2.81.62-.85.15-2.03.21-2.9.35-.41.07-2.54.59-2.81.62-.19.02-.91.12-1.59.2-.68.08-1.32.15-1.32.15.02,0,2.8-.62,2.81-.62-.69.1-2.17.23-2.91.36-.79.14-2.04.5-2.81.62-1.1.18-1.8.18-2.9.35-.75.12-2.03.49-2.81.62-.54.09-2.46.3-2.91.36-.34.04-2.52.29-2.9.35-.68.12-2.32.51-2.82.62l-1.72.38-4.12.91,2.49-3.62.63-.92c.21-.31,1.34-1.99,1.63-2.37.6-.78,1.29-1.46,1.88-2.24.49-.65,1.16-1.76,1.64-2.38.56-.72,1.38-1.62,1.88-2.23.68-.8,1.3-1.55,1.89-2.24.25-.3,1.59-1.85,1.88-2.23.33-.43,1.4-2.04,1.63-2.37.55-.8,1.09-1.59,1.63-2.37.21-.3,1.37-2.02,1.64-2.38.35-.45,1.6-1.9,1.88-2.24.17-.2,1.74-2.05,1.89-2.24.51-.69,1.27-1.84,1.63-2.37l1.63-2.37c.24-.35,1.3-1.93,1.63-2.37.28-.37,1.64-1.96,1.89-2.24.22-.26,1.63-1.9,1.88-2.24.59-.78,1.05-1.61,1.63-2.37.59-.78,1.3-1.47,1.89-2.24.14-.19.33-.46.53-.76l.12,2.33c-.52-.49-1.12-1.05-1.4-1.35-.57-.63-1.48-1.74-1.9-2.23-.22-.26-1.6-1.92-1.89-2.23-.31-.33-1.86-1.77-2.07-2.01-.21-.24-.42-.49-.63-.73l2.31.21c-.58.39-1.15.76-1.63,1.08-.81.55-1.62,1.09-2.43,1.64-.81.55-1.62,1.09-2.42,1.63-.06.07-.63.52-1.17.96-.27.22-.54.43-.74.59-.2.16-.32.27-.31.28,0,0,.17-.1.4-.26.23-.16.55-.38.85-.59.61-.43,1.21-.84,1.17-.78-.11.14-1.82,1.48-2.22,1.83-.55.45-1.54,1.27-2.22,1.83-.52.42-1.53,1.29-2.22,1.83-.45.35-1.91,1.24-2.43,1.64-.65.49-1.6,1.37-2.22,1.83-.9.66-1.54,1-2.43,1.64l-2.22,1.83c-.3.25-1.83,1.54-2.22,1.83-.16.11-2.4,1.62-2.42,1.63,0,0,.11-.1.29-.26.18-.15.43-.35.69-.57.52-.42,1.08-.88,1.24-1.01.7-.58,1.52-1.25,2.22-1.83.69-.57,1.48-1.22,2.22-1.83l2.22-1.83-4.85,3.27c-.77.59-1.45,1.26-2.22,1.83-.48.36-2.03,1.32-2.43,1.64-.72.56-1.68,1.38-2.22,1.83l-2.22,1.83-2.22,1.83c-.46.38-1.59,1.35-2.22,1.83-.54.41-1.85,1.2-2.43,1.64-.65.49-1.6,1.38-2.22,1.83-.91.66-1.53.98-2.43,1.64-.61.44-1.58,1.35-2.22,1.83-.15.11-.44.3-.78.54l-4.3,2.97,1.54-4.83c.23-.71.51-1.6.6-1.88.11-.36.77-2.38.87-2.8.16-.62.49-2.35.59-2.82.07-.34.48-2.42.59-2.82.11-.43.8-2.48.87-2.8.23-.98.42-2.01.59-2.82l.59-2.82c.08-.37.47-2.36.59-2.82.14-.52.74-2.39.87-2.8.25-.81.58-1.81.87-2.8.18-.63.69-2.09.87-2.79.14-.53.5-2.39.59-2.82.05-.24.55-2.64.59-2.82.26-.92.65-2.08.87-2.8.05-.16.27-.87.47-1.54.1-.33.2-.65.28-.89.07-.23.12-.38.13-.37,0,.03-.56,2.67-.59,2.83.26-.97.62-1.84.87-2.8.14-.53.5-2.38.59-2.82.12-.54.42-2.13.59-2.82.21-.82.65-1.96.87-2.8.2-.79.39-2.06.59-2.82.08-.28.41-1.29.63-2l.56,1.64c-.31-.26-.55-.47-.64-.53-.14-.1-.72-.51-1.28-.9-.56-.39-1.09-.74-1.09-.74.02.02,2.06,1.74,2.24,1.89-.68-.53-1.66-1.1-2.37-1.64-.44-.34-1.89-1.61-2.24-1.89-.48-.4-1.43-1.25-2.08-1.77l2.45-.43c-.04.06-.07.11-.11.16-.51.78-1.19,1.6-1.69,2.39-.3.47-1.2,2.11-1.43,2.5-.34.6-.97,1.75-1.43,2.5-.35.56-1.31,1.79-1.69,2.39-.26.41-1.22,2.19-1.43,2.5-.57.84-1.22,1.72-1.69,2.38-.57.8-1.13,1.6-1.69,2.39-.41.58-1.45,2.1-1.69,2.39-.07.08.3-.54.68-1.19.19-.32.38-.65.52-.9.14-.25.23-.42.23-.42,0,0-.11.13-.26.34-.15.21-.34.5-.54.79-.4.58-.81,1.18-.89,1.26l-2.86,5-1.43,2.5c-.95,1.67-1.91,3.34-2.86,5.01-.31.54-.98,1.78-1.43,2.5-.13.21-1.54,2.17-1.69,2.38-.52.74-1.09,1.54-1.69,2.39-.45.65-1.19,1.63-1.69,2.39-.42.65-.99,1.81-1.43,2.5-.49.77-1.2,1.62-1.69,2.38-.32.5-1.21,2.12-1.43,2.5-.48.83-.95,1.67-1.43,2.51-.31.55-.69,1.22-1.08,1.91l-2.6,4.59-1-5.35c-.04-.22-.08-.45-.13-.67-.06-.34-.22-2.44-.29-2.91-.08-.55-.48-2.39-.57-2.83-.2-.98-.37-1.84-.56-2.82-.1-.96-.2-1.94-.29-2.91-.07-.72-.28-2.54-.29-2.92,0-.1.13.6.27,1.34.07.37.14.74.19,1.02.05.28.1.47.1.47.01,0,0-.17-.03-.42-.03-.25-.07-.59-.1-.94-.08-.69-.16-1.42-.16-1.55,0-.1.13.61.27,1.34.07.37.14.74.19,1.02.05.28.1.46.1.46,0,0,0-.16-.03-.4-.02-.24-.06-.57-.09-.91-.07-.68-.15-1.41-.17-1.61-.09-.91-.2-1.98-.29-2.91l-1.13-5.65c.1.97.2,1.94.29,2.91.02.17.1.91.17,1.6.04.34.07.68.09.92.02.25.04.4.03.4-.07-.1-.48-2.57-.56-2.82-.13-.82-.45-2.04-.56-2.83-.09-.66-.24-2.41-.29-2.91-.02-.17-.1-.91-.17-1.6-.04-.34-.07-.68-.09-.92-.02-.25-.04-.4-.03-.4,0,.03.54,2.73.56,2.83-.12-.91-.16-2.01-.29-2.92-.1-.7-.45-2.2-.56-2.82-.18-1.02-.4-2-.56-2.83-.09-.46-.47-2.2-.56-2.82-.01-.14-.29-2.89-.29-2.91,0,0,.15.75.29,1.48.14.73.28,1.43.27,1.35-.02-.26-.23-2.51-.29-2.92-.08-.54-.48-2.38-.56-2.82-.05-.23-.53-2.66-.56-2.82-.12-.98-.21-2.12-.29-2.92-.02-.17-.1-.9-.17-1.59-.04-.34-.07-.68-.09-.92-.02-.24-.04-.4-.03-.39,0,.03.52,2.63.56,2.82-.14-.96-.15-1.95-.29-2.91-.03-.18-.09-.5-.16-.88l1.19,1.03c-.74.04-1.68.09-1.98.11-.83.04-1.88.12-2.88.14-.11,0-.3,0-.53-.02l1.4-1.12c-.2.72-.55,1.89-.65,2.3-.03.17-.49,2.81-.49,2.84,0-.03.76-2.77.78-2.82-.16.8-.31,2.02-.5,2.84-.18.79-.62,2.07-.78,2.83-.2.94-.28,1.89-.49,2.84-.21.94-.56,1.88-.78,2.82-.18.79-.32,2.09-.49,2.84-.16.69-.64,2.17-.78,2.83-.15.72-.4,2.29-.49,2.84l-.49,2.84c-.11.66-.32,1.98-.49,2.84-.12.56-.63,2.19-.78,2.83-.18.79-.32,2.09-.49,2.84-.25,1.09-.52,1.76-.78,2.82,0,0-.03.2-.08.49-.05.28-.12.65-.19,1.02-.13.73-.26,1.43-.23,1.34-.06.17-.24.87-.42,1.54-.09.33-.17.65-.24.89-.07.24-.11.39-.12.39-.01,0,.01-.17.06-.42.05-.25.11-.59.17-.93.13-.69.27-1.39.26-1.49,0-.09.13-.8.26-1.49.06-.34.13-.68.17-.93.04-.25.07-.42.06-.42-.01,0-.06.16-.12.39-.06.24-.15.56-.24.89-.18.66-.36,1.37-.42,1.54-.17.52-.59,2.22-.78,2.82-.2.95-.28,1.9-.49,2.84-.14.6-.67,2.32-.78,2.83-.18.89-.37,2.15-.49,2.84-.06.34-.13.77-.21,1.24l-.58,3.45-2.21-2.93c-.32-.42-.66-.89-.96-1.31-.44-.62-1.27-1.65-1.71-2.32-.34-.51-1.21-2.08-1.51-2.51-.52-.74-1.3-1.75-1.71-2.31-.3-.4-1.34-1.76-1.71-2.31-.07-.12-1.5-2.5-1.51-2.51,0,0,.46.62.9,1.22s.86,1.18.81,1.1c-.13-.24-1.23-2.09-1.51-2.51-.42-.65-1.26-1.63-1.72-2.32-.35-.52-1.19-2.06-1.5-2.5-.51-.74-1.31-1.77-1.71-2.31l-1.71-2.31c-.14-.18-1.61-2.18-1.72-2.32-.24-.38-1.4-1.85-1.71-2.31-.09-.16-1.49-2.49-1.51-2.51.1.06,1.61,2.25,1.71,2.31.06.03,1.43,1.94,1.71,2.31.1.14.53.73.94,1.28.2.27.4.54.54.73.14.19.24.31.24.3-.02-.1-1.29-2.12-1.51-2.51-.29-.53-1.07-1.78-1.51-2.51-.5-.83-1-1.67-1.5-2.5l-1.71-2.32c-.42-.57-1.48-2.05-1.72-2.32-.07-.08.32.54.71,1.19.2.32.4.65.55.9.15.25.24.42.24.42,0,0-.11-.12-.26-.32-.15-.2-.34-.47-.55-.75-.4-.56-.82-1.14-.91-1.24-.07-.07.32.55.71,1.19.2.32.4.65.55.89.15.25.24.42.24.42,0,0-.1-.12-.24-.31-.14-.19-.33-.45-.53-.72-.4-.54-.82-1.12-.94-1.28-.54-.73-1.17-1.58-1.71-2.31l-3.01-5.02c.09.12,1.68,2.27,1.71,2.31-.18-.3-1.25-2.12-1.51-2.51-.23-.34-1.57-2.08-1.71-2.31-.09-.16-.47-.78-.83-1.36-.35-.59-.67-1.14-.67-1.14.02.02,1.68,2.27,1.71,2.31-.33-.53-1.1-1.89-1.51-2.51-.09-.12-.17-.25-.27-.39l1.02.55c-.77.03-1.66.13-2.4.13-.55,0-2.47-.12-2.93-.14-.51-.02-1-.05-1.48-.07l1.11-1.43c.09.46.18.92.28,1.41.18.48.69,2.4.83,2.76.06.14.26.83.44,1.49.1.33.19.65.26.88.07.24.12.39.13.38,0-.02-.54-2.72-.57-2.86-.07-.25-.82-2.7-.83-2.76-.04-.18-.16-.77-.28-1.37l-1.37,1.76c.38.02.76.03,1.05.05.29.01.48.03.48.03,0,.01-.19.03-.48.04-.29.01-.67.02-1.05.04l1.53-1.95c.18.62.35,1.21.39,1.29l1.67,5.51c.38,1.91.77,3.83,1.15,5.75.17.86.46,2.19.57,2.86.04.2.19.91.32,1.58.07.33.13.66.18.9.05.24.08.4.07.4,0,0-.07-.18-.15-.45-.08-.27-.18-.63-.29-.99-.2-.71-.4-1.4-.4-1.32,0,.17.47,2.32.57,2.87.02.08.8,2.63.83,2.75,0-.1-.16-.81-.3-1.5-.07-.34-.14-.68-.2-.94-.05-.25-.08-.42-.07-.43,0,0,.05.14.12.37.07.23.16.54.26.86.19.64.4,1.34.45,1.53.2.64.71,2.45.83,2.76.04.09-.11-.62-.27-1.36-.08-.37-.16-.75-.22-1.03-.06-.28-.09-.48-.09-.48,0,0,.05.15.12.37.07.23.16.54.26.86.19.64.4,1.33.45,1.52.2.64.6,1.9.84,2.76.03.17.53,2.64.57,2.87.04.17.18.9.32,1.58.07.34.13.67.18.91.05.24.08.4.07.39,0-.03-.82-2.71-.83-2.76.11.54.42,2.26.57,2.86.13.54.71,2.34.83,2.76.23.78.57,1.81.83,2.76.21.76.63,1.96.84,2.76.2.78.38,2.12.57,2.87.16.63.7,2.17.83,2.76.18.77.46,2.28.57,2.87.04.2.19.91.33,1.58.07.33.13.65.18.89.05.24.07.4.07.4,0,0-.05-.14-.12-.37-.07-.23-.16-.54-.26-.86-.19-.64-.4-1.33-.45-1.52-.07-.22-.78-2.58-.84-2.76.18.78.38,2.08.58,2.87.24.94.6,1.82.83,2.76.24.94.34,1.93.58,2.87.11.44.36,1.23.57,1.88l1.18,3.74-3.31-2.37c-.31-.22-.57-.41-.75-.54-.83-.62-1.64-1.18-2.34-1.68l-2.34-1.68c-.43-.31-1.78-1.25-2.34-1.68-.27-.21-1.97-1.73-2.2-1.93-.26-.23-1.87-1.68-2.2-1.93-.4-.32-2.04-1.44-2.34-1.69-.75-.63-1.61-1.41-2.2-1.93-.31-.28-1.78-1.6-2.2-1.93-.38-.3-2.03-1.46-2.34-1.69-.69-.49-1.51-1.06-2.34-1.68-.51-.38-1.78-1.24-2.34-1.68-.76-.61-1.44-1.32-2.2-1.93-.75-.6-1.58-1.08-2.34-1.68-.42-.34-1.86-1.63-2.19-1.93-.76-.67-1.5-1.32-2.2-1.93.08.06,2.12,1.53,2.34,1.69.48.38,1.78,1.61,2.2,1.93.72.55,1.77,1.27,2.34,1.68l2.34,1.68c-.72-.58-1.48-1.36-2.2-1.93-.73-.58-1.46-1.35-2.2-1.93-.55-.44-1.83-1.3-2.34-1.68-.82-.62-1.65-1.19-2.34-1.69-.72-.52-1.49-1.08-2.34-1.69-.83-.6-1.62-1.16-2.34-1.68-.28-.2-2.01-1.42-2.34-1.68-.82-.66-1.4-1.27-2.19-1.93-.19-.13-2.31-1.66-2.34-1.69-.76-.66-1.47-1.29-2.2-1.93-.62-.54-1.64-1.41-2.1-1.85l2-.24c-.04.05-.07.08-.09.1-.13.15-.6.7-1.04,1.22-.22.26-.43.51-.59.7-.16.18-.26.3-.27.3.01-.02,1.61-2.3,1.65-2.36-.54.67-1.36,1.53-1.9,2.22-.44.56-1.28,1.84-1.66,2.36-.1.14-.2.27-.29.4l.03-1.37c.54.68,1.06,1.34,1.51,1.9.34.43,1.38,1.71,1.82,2.32.06.1,1.6,2.49,1.61,2.51,0,0-.49-.62-.95-1.22-.47-.6-.92-1.18-.87-1.11.14.23,1.36,2.16,1.6,2.49.42.59,1.43,1.8,1.83,2.33.65.83,1.29,1.65,1.82,2.34.19.24,1.64,2.09,1.83,2.36.43.62,1.29,2.03,1.59,2.5.48.76,1.02,1.6,1.58,2.49.33.5,1.18,1.91,1.57,2.46.36.51,1.52,1.95,1.82,2.39.52.78,1.19,1.87,1.57,2.46l1.56,2.44-3.63-4.77c1.04,1.61,2.08,3.21,3.12,4.82l1.81,2.37c.44.58,1.26,1.63,1.81,2.39.27.42,1.23,1.89,1.55,2.38.56.79,1.24,1.62,1.8,2.41.39.59,1.15,1.74,1.56,2.36.6.81,1.2,1.61,1.79,2.42.57.8,1.23,1.63,1.79,2.43.51.77,1.05,1.57,1.56,2.34l3.14,4.65c-.57-.77-1.22-1.66-1.78-2.43-.25-.34-1.75-2.36-1.79-2.41.02.03,1.5,2.19,1.58,2.31-.53-.71-1.21-1.62-1.8-2.41l-1.8-2.39c-.5-.66-1.18-1.55-1.81-2.38-.44-.57-1.34-1.75-1.81-2.36-.21-.31-1.44-2.11-1.58-2.31-.66-.85-1.25-1.61-1.82-2.34l-1.82-2.33-1.82-2.31c-.5-.63-1.19-1.5-1.82-2.29-.24-.31-1.26-1.9-1.56-2.31-.56-.77-1.24-1.51-1.81-2.27-.57-.76-1.25-1.49-1.8-2.25-.42-.57-1.16-1.81-1.55-2.33-.48-.64-1.42-1.77-1.8-2.24-.21-.26-1.55-1.9-1.78-2.22-.2-.31-1.42-2.17-1.55-2.36-.11-.14-.55-.7-.97-1.22-.41-.52-.81-1-.81-1,.01.02,1.46,2.23,1.54,2.36-.57-.78-1.21-1.44-1.77-2.21-.31-.43-1.3-2-1.54-2.37-.54-.83-1-1.55-1.54-2.38-.54-.83-1.04-1.6-1.55-2.4l-1.49-2.31-.48-.74.51-.59.08-.1c.04-.09.46-.67.87-1.23.2-.28.4-.56.55-.77.15-.21.24-.35.23-.36,0,0-.11.12-.27.3-.16.19-.37.43-.59.69-.44.52-.91,1.08-1.04,1.23,0,0-.02.02-.05.06l-.62.75.59.91c.22.34,1.47,2.28,1.51,2.34-.33-.38-1.25-1.57-1.73-2.18l-.73-.92.77-1.07s.01-.02.02-.02c.2-.28,1.4-2.03,1.65-2.36.6-.77,1.32-1.46,1.9-2.22l.38-.52.96-1.31,1.42,1.02c.61.44,1.23.83,1.82,1.3.67.53,1.56,1.43,2.2,1.93.77.6,1.57,1.08,2.34,1.68.64.51,1.59,1.46,2.2,1.93.88.69,1.46,1,2.34,1.68.75.59,1.59,1.09,2.34,1.68.76.6,1.45,1.32,2.2,1.93,0,0,.17.11.4.28.23.17.54.39.83.61.6.44,1.17.86,1.1.79.13.12.68.6,1.2,1.05.26.22.51.44.7.6.18.16.3.27.3.28,0,.01-.14-.08-.35-.23-.21-.15-.48-.35-.76-.56-.56-.42-1.14-.85-1.23-.89-.09-.04-.66-.47-1.22-.89-.28-.21-.56-.41-.76-.56-.21-.15-.35-.25-.35-.24,0,0,.12.12.3.28.19.16.44.38.7.6.52.45,1.07.92,1.21,1.05.39.38,1.74,1.5,2.2,1.93,1.56,1.12,3.11,2.24,4.68,3.37.5.36,1.68,1.17,2.34,1.68.2.15,2,1.76,2.19,1.93.31.27,1.8,1.62,2.2,1.93s2.01,1.45,2.34,1.68c.3.21,1.98,1.4,2.34,1.68.77.62,1.43,1.32,2.2,1.93.64.51,1.74,1.2,2.34,1.68.87.71,1.34,1.23,2.2,1.93.71.58,1.47,1.35,2.2,1.93.63.5,1.74,1.2,2.34,1.68.67.55,1.54,1.41,2.2,1.93.22.17.66.49,1.11.81l-2.34,1.51c-.19-.6-.37-1.2-.45-1.43-.1-.33-.73-2.35-.83-2.76-.12-.49-.47-2.49-.57-2.86-.26-.94-.61-2.03-.84-2.77-.11-.38-.71-2.26-.83-2.76-.04-.18-.57-2.84-.57-2.86,0,.03.8,2.65.83,2.76-.08-.39-.45-2.38-.58-2.87-.13-.53-.71-2.33-.83-2.76-.1-.33-.74-2.39-.83-2.76-.16-.67-.47-2.36-.58-2.87-.08-.4-.45-2.36-.57-2.86-.24-.95-.34-1.93-.58-2.87-.17-.69-.66-2.14-.83-2.76-.28-.99-.59-1.95-.83-2.76-.11-.37-.72-2.29-.84-2.76-.13-.52-.49-2.46-.57-2.87-.05-.25-.53-2.64-.57-2.86-.22-.84-.65-2.14-.84-2.76-.28-.91-.56-1.84-.84-2.76-.09-.31-.74-2.38-.83-2.76-.17-.68-.46-2.32-.57-2.87-.05-.28-.22-1.15-.36-1.87l-.4-2.08,1.97.07c.44.02.82.03,1.02.04.38-.02,2.64-.13,2.88-.14,1.04.05,1.99.09,2.91.14l.92.04.4.66s0,.01,0,.01c.36.61,1.33,2.17,1.51,2.51.05.1-.37-.49-.81-1.09-.22-.3-.44-.61-.61-.84-.17-.23-.29-.38-.29-.38.01.02,1.4,2.33,1.51,2.51.1.14,1.7,2.3,1.71,2.31,0,0-.09-.17-.24-.42-.15-.24-.35-.57-.55-.89-.39-.64-.78-1.26-.72-1.2.13.12,1.39,1.89,1.71,2.32.42.57,1.18,1.59,1.71,2.31.22.29,1.45,1.92,1.71,2.31.31.46,1.28,2.14,1.5,2.5.5.84,1.01,1.68,1.51,2.51l3.01,5.02c.07.06.49.65.9,1.22.2.28.4.56.55.77.15.21.25.34.26.33,0,0-.09-.17-.24-.42-.15-.24-.35-.57-.55-.88-.39-.64-.78-1.26-.72-1.2.15.14,1.62,2.27,1.71,2.31.04.02-.35-.6-.74-1.23-.19-.31-.39-.63-.54-.87-.15-.24-.24-.4-.23-.41,0,0,.11.13.26.33.15.21.35.48.55.77.41.57.82,1.15.9,1.22.05.07,1.63,2.2,1.71,2.31.11.18.48.8.84,1.38.18.29.35.57.47.78.12.21.2.35.2.35,0,0-.12-.14-.29-.37-.17-.23-.38-.53-.6-.83-.43-.6-.85-1.19-.82-1.11.07.19,1.24,2.04,1.51,2.51.33.59,1.05,1.75,1.51,2.51.5.84,1,1.67,1.51,2.51.49.82.97,1.62,1.5,2.5.54.9.98,1.63,1.51,2.51.07.06.49.65.9,1.22.2.28.4.56.55.77.15.21.25.34.26.33,0,0-.09-.17-.25-.42-.15-.25-.35-.58-.55-.9-.4-.64-.78-1.27-.71-1.19.24.28,1.3,1.75,1.72,2.32.46.62,1.15,1.52,1.71,2.31.24.35,1.21,2.07,1.51,2.51.45.68,1.29,1.67,1.71,2.31.27.41.82,1.35,1.13,1.88l-2.96.55c.1-.38.16-.59.2-.71.01-.04-.04.28-.13.73l2.83-.52c-.5-.68-1.27-1.72-1.27-1.72,0,0,.15.28.37.64.22.36.5.82.72,1.19l-2.45.45c.1-.36.17-.64.2-.76.25-.9.53-1.93.78-2.83l.49-2.84c.03-.17.16-.89.28-1.56.06-.34.12-.66.16-.9.04-.24.06-.39.06-.38,0,.01-.06.2-.14.49-.08.28-.17.65-.27,1.01-.19.72-.38,1.42-.37,1.33.06-.47.36-2.09.5-2.85.13-.74.31-1.9.49-2.84.04-.16.72-2.59.78-2.82.11-.39.67-2.33.78-2.83.11-.5.43-2.45.49-2.84l.49-2.84c.52-1.89,1.04-3.77,1.56-5.64.24-.86.58-2.18.78-2.83.05-.19.24-.9.42-1.55.09-.33.17-.65.24-.88.07-.23.11-.39.12-.39,0,0-.02.19-.07.47-.05.28-.12.65-.19,1.01-.14.73-.27,1.44-.24,1.36.1-.22.64-2.46.78-2.82.15-.39.61-2.33.78-2.83,0-.09.13-.8.26-1.49.06-.34.13-.68.17-.93.04-.25.07-.42.06-.42-.01,0-.06.19-.14.46-.07.28-.17.64-.26,1.01-.19.72-.37,1.43-.38,1.36,0-.18.42-2.31.49-2.84.12-.7.34-1.96.49-2.84.14-.83.3-1.84.5-2.84.03-.11.72-2.61.78-2.82.1-.36.64-2.24.76-2.76l.25-1.05h1.06s.05,0,.07,0c.54,0,2.46-.12,2.88-.14.72-.04,1.57-.08,2.45-.13l1.32-.07.27,1.44c.03.14.05.28.08.42.11.63.46,2.12.56,2.82.06.43.24,2.61.29,2.91.18,1.02.4,1.98.56,2.83.19.94.37,1.88.56,2.82l.56,2.82.59,5.82c-.15-.96-.42-1.87-.56-2.82-.09-.61-.21-2.4-.29-2.91-.15-.9-.43-2.14-.56-2.83l-.56-2.82.59,5.82.56,2.82c.07.34.5,2.42.56,2.83.06.44.24,2.6.29,2.91.18,1.01.4,2.02.56,2.82.19.94.38,1.89.56,2.83.08.39.48,2.3.56,2.82.07.49.25,2.51.29,2.91.02.17.1.91.17,1.6.04.35.07.68.09.92.02.24.04.4.03.39,0-.04-.55-2.73-.56-2.82.04.43.21,2.38.29,2.91.12.8.46,2.06.56,2.83.04.35.27,2.71.29,2.91.03.18.17.89.3,1.55.13.66.26,1.28.26,1.28,0-.02-.29-2.89-.29-2.91.11.63.46,2.12.56,2.82.12.8.17,2.14.29,2.91.14.9.42,2.06.56,2.82.09.46.18.9.25,1.27l-3.12-.67c.29-.51.54-.96.78-1.38.19-.33,1.18-2.11,1.43-2.51.11-.16,1.67-2.37,1.69-2.38.01,0-.07.15-.2.37-.13.22-.3.52-.48.82-.36.6-.72,1.22-.75,1.31-.03.09-.4.71-.75,1.31-.18.3-.35.6-.48.82-.13.22-.21.37-.2.37,0,0,.1-.13.24-.33.14-.2.33-.47.53-.75.39-.56.81-1.16.92-1.32.29-.41,1.37-1.88,1.69-2.38.38-.6,1.1-1.95,1.43-2.5.53-.89,1.01-1.77,1.43-2.5.24-.42,1.09-1.96,1.43-2.51.08-.12,1.67-2.37,1.69-2.38,0,.02-1.37,2.39-1.43,2.5.61-.93,1.08-1.46,1.69-2.39.42-.65.99-1.81,1.43-2.5.38-.6,1.35-1.84,1.69-2.38.43-.7,1.12-1.97,1.43-2.5l1.43-2.5c.35-.62.96-1.73,1.43-2.51.27-.44,1.36-1.87,1.69-2.38.49-.76.95-1.76,1.43-2.5.54-.84,1.16-1.56,1.69-2.39.52-.82.91-1.68,1.43-2.5.52-.82,1.17-1.58,1.69-2.39.53-.83.9-1.66,1.43-2.5.1-.14,1.68-2.37,1.69-2.39-.01.02-1.34,2.35-1.43,2.51.53-.83,1.17-1.57,1.69-2.39.44-.69,1.01-1.85,1.43-2.5.57-.88,1.12-1.5,1.69-2.39.48-.75.94-1.73,1.43-2.5.09-.13.23-.33.4-.58l.89-1.28,1.09.94c.6.51,1.41,1.23,1.7,1.45.75.55,1.77,1.23,2.36,1.64l2.36,1.64c.11.08.59.41,1.1.75l.8.55-.23,1.12c-.13.65-.28,1.35-.32,1.51-.19.7-.71,2.27-.87,2.79-.29.93-.58,1.86-.87,2.8-.21.68-.73,2.45-.87,2.79-.04.1.12-.6.28-1.33.08-.36.16-.74.22-1.02.06-.28.09-.47.09-.47-.01,0-.07.16-.14.41-.07.25-.17.58-.27.92-.2.68-.41,1.38-.45,1.47l-.59,2.82c-.04.17-.19.88-.33,1.55-.07.33-.14.66-.19.89-.05.24-.08.39-.07.38.01-.03.85-2.73.87-2.79-.11.5-.44,2.23-.59,2.82-.2.79-.68,2.04-.87,2.79-.27,1.09-.32,1.74-.59,2.83-.18.73-.67,2.01-.87,2.79-.14.53-.5,2.39-.59,2.82-.11.52-.42,2.17-.59,2.82-.1.39-.77,2.47-.87,2.8-.12.38-.74,2.29-.87,2.79-.13.5-.51,2.44-.59,2.83-.07.33-.48,2.42-.59,2.82-.16.6-.73,2.34-.87,2.79-.14.45-.71,2.19-.87,2.8-.25.96-.62,1.84-.87,2.79-.18.69-.45,2.2-.59,2.83-.2.85-.36,1.71-.51,2.43l-2.4-1.62c.11-.09.21-.17.3-.25.27-.22,1.87-1.57,2.22-1.83.8-.59,1.64-1.05,2.42-1.63.66-.49,1.6-1.37,2.22-1.83.74-.54,1.78-1.18,2.43-1.64.87-.59,1.68-1.13,2.43-1.64.3-.2,2.06-1.36,2.42-1.63.46-.34,1.89-1.56,2.22-1.83l2.22-1.83c.75-.62,1.49-1.23,2.23-1.84-.34.25-2.22,1.47-2.43,1.64.49-.39,1.66-1.41,2.22-1.83.44-.33,2.06-1.38,2.43-1.64.77-.52,1.81-1.21,2.43-1.64-.13.11-2.19,1.81-2.23,1.83,0,0,.14-.08.34-.22.2-.14.47-.32.75-.51.56-.38,1.16-.79,1.33-.91.65-.43,1.98-1.36,2.42-1.63.51-.31,1.87-1.29,2.43-1.64.77-.59,1.45-1.26,2.22-1.83.65-.49,1.82-1.17,2.43-1.64.72-.55,1.61-1.34,2.22-1.83.8-.66,1.54-1.27,2.22-1.83.51-.42,1.54-1.3,2.22-1.83.46-.36,1.9-1.24,2.43-1.64.55-.41,1.3-1.1,1.9-1.58l1.07-.86,1.01,1.05c.1.11.2.21.29.29.37.41,1.57,1.9,1.89,2.23.62.64,1.58,1.53,2.07,2.01.22.22,1.8,1.72,2.06,2.01.37.41,1.23,1.44,1.65,1.95l.91,1.1-.81.96c-.11.13-.19.22-.24.28-.58.69-1.21,1.44-1.89,2.24-.38.46-1.48,1.7-1.88,2.24-.37.48-1.31,1.97-1.64,2.38-.57.72-1.42,1.69-1.88,2.24-.63.75-1.26,1.49-1.89,2.24l-1.63,2.37c-.1.14-.52.74-.91,1.3-.19.28-.38.55-.52.75-.14.2-.22.33-.21.32.09-.05,1.92-2.35,1.89-2.24-.02.06.44-.5.91-1.08.24-.29.47-.58.65-.8.18-.22.31-.36.32-.36,0,0-.08.13-.21.33-.14.2-.32.46-.51.74-.38.55-.79,1.14-.91,1.3-.52.75-1.11,1.61-1.63,2.37-1.26,1.49-2.52,2.99-3.77,4.48-.59.76-1.3,1.47-1.88,2.24-.59.77-1.04,1.6-1.63,2.37-.59.77-1.3,1.47-1.89,2.24-.17.25-1.55,2.25-1.63,2.37-.13.15-.59.71-1.03,1.24-.44.52-.85,1-.85,1-.01,0,.08-.14.23-.35.15-.21.34-.49.55-.77.4-.57.82-1.16.86-1.24.04-.09.46-.68.86-1.24.2-.28.4-.56.55-.77.15-.21.24-.35.23-.35-.01,0-.13.14-.31.36-.18.22-.42.51-.65.79-.47.57-.93,1.14-.92,1.09.02-.1-1.77,2.16-1.88,2.23l-3.26,4.74c-.4.58-1.1,1.64-1.64,2.38-.31.42-1.51,1.75-1.89,2.24-.1.14-.55.79-.92,1.33l-1.34-2.22c.63-.14,1.15-.26,1.23-.28.17-.05.88-.19,1.54-.33.33-.07.65-.14.89-.19.24-.05.39-.09.39-.1,1.06-.16,1.81-.18,2.9-.35.97-.16,1.94-.19,2.9-.35.71-.12,2.19-.5,2.82-.62,1-.2,1.99-.44,2.81-.62.36-.08,2.35-.54,2.81-.62.21-.03,2.89-.35,2.91-.36-.01,0-.64.15-1.31.3-.67.15-1.38.3-1.51.33.74-.14,2.11-.22,2.9-.36.54-.09,2.38-.53,2.81-.62.79-.17,1.84-.44,2.81-.62.78-.15,2-.48,2.82-.62.29-.04,2.77-.34,2.9-.36.19-.04.9-.19,1.56-.33.33-.07.64-.14.88-.19.23-.05.38-.09.38-.09.92-.14,1.98-.2,2.91-.36.53-.09,2.38-.53,2.81-.62.39-.08,2.35-.55,2.81-.62.48-.08,1.81-.23,2.49-.31l1.08-.12.56.7c.13.16.21.26.26.33.21.27,1.54,1.97,1.82,2.29.47.53,1.38,1.38,1.88,1.94l1.29,1.43-1.58,1.16c-.06.04-.1.07-.15.11-.79.56-1.68,1.04-2.45,1.61-.66.48-1.62,1.35-2.25,1.8-.77.55-1.68,1.05-2.45,1.61-.77.56-1.67,1.04-2.44,1.6-.45.32-1.9,1.53-2.25,1.8-.26.21-1.97,1.6-2.25,1.8-.22.16-2.45,1.61-2.45,1.61.02-.01,2.13-1.71,2.24-1.8-.8.58-1.65,1.03-2.45,1.6-.58.42-1.74,1.41-2.25,1.81-.81.62-1.59,1.27-2.25,1.8-.35.28-1.77,1.45-2.25,1.8-.35.26-2.15,1.41-2.44,1.6-.3.19-2.12,1.36-2.45,1.61-.36.27-1.99,1.63-2.25,1.81-.84.58-1.74,1.14-2.44,1.6-.82.54-1.63,1.07-2.45,1.61-.26.17-2.16,1.39-2.44,1.6-.1.08-.66.53-1.2.96-.53.43-1.03.84-1.04.85,0,0,.17-.1.41-.25.24-.16.55-.37.86-.58.62-.42,1.23-.83,1.17-.77-.12.14-1.84,1.46-2.24,1.8-.56.45-1.55,1.24-2.25,1.8-.29.23-1.87,1.53-2.25,1.8-.05.03-.23.16-.66.45l-.95-3.43c.63.09,2.1.3,2.11.3,0,0-.08,0-.22,0-.13,0-.32-.01-.54-.02-.43-.02-.96-.05-1.38-.07l.84,3.05c.37-.29.63-.5.57-.47-.05.02-.29.17-.63.4l-.8-2.89c.71.09,1.8.23,2.16.28.4.05,2.4.35,2.9.39.81.07,2.1.03,2.88.11.73.07,2.22.34,2.9.39,1.1.09,1.8.03,2.88.11-.97-.13-1.94-.26-2.9-.39-.7-.1-2.54-.32-2.9-.39-.1-.02.62.01,1.37.05.37.02.75.04,1.04.05.29.01.48.01.48.01,0,0-.77-.11-1.52-.21-.75-.1-1.47-.19-1.38-.19.25,0,2.48.08,2.88.11.96.08,1.94.3,2.9.39.1.03.82.12,1.52.2.35.04.69.09.95.12.26.03.43.06.43.07,0,.01-.19,0-.47,0-.28-.01-.66-.03-1.03-.05-.74-.04-1.46-.08-1.38-.05.16.05,2.36.32,2.9.39.46.07,2.24.33,2.89.39.78.08,2.08.04,2.88.11.65.06,2.32.32,2.9.39,1.1.15,1.82.25,2.9.39.96.07,1.91.03,2.87.11.61.05,2.38.36,2.9.39.91.06,2.18.08,2.89.11.95.04,1.91.07,2.87.11.95.04,1.92.07,2.88.11l2.83.11,1.03.04.56,1.08,1.36,2.6c.02.1.3.77.58,1.42.14.32.27.64.37.88.1.24.16.4.15.41,0,0-.08-.13-.19-.34-.11-.21-.26-.5-.41-.79-.31-.6-.64-1.24-.73-1.42-.29-.54-1.19-2.34-1.33-2.55-.05-.08.23.6.52,1.29.15.35.29.7.41.97.11.27.17.45.17.45,0,0-.1-.17-.23-.42-.13-.25-.3-.59-.47-.92-.34-.66-.67-1.3-.63-1.21.07.2.93,2.34,1.1,2.71.36.8.96,1.75,1.33,2.55.16.35.55,1.34.83,2.03l.57,1.43-1.36.34c-.33.08-.59.15-.72.18-.99.25-1.85.47-2.84.71-.08.05-.76.28-1.42.5-.33.11-.65.22-.89.31-.24.09-.4.14-.39.16,0,0,.2-.04.48-.11.28-.07.65-.17,1.02-.27.73-.19,1.44-.38,1.35-.34-.33.14-2.05.73-2.71.97-.79.28-1.75.65-2.71.97-.11.03-2.63.66-2.84.71-.43.11-2.28.55-2.83.71-.44.13-2.38.85-2.72.97-.9.32-1.81.64-2.71.97-.45.16-2.09.78-2.71.97-.14.04-2.82.71-2.84.71.02,0,2.58-.92,2.71-.97-.94.28-1.9.43-2.83.71-.93.28-1.78.69-2.71.97-.93.28-1.91.43-2.84.71-.91.28-1.81.68-2.72.97-.9.29-1.8.69-2.71.97-.78.24-2.11.48-2.84.71-.95.3-1.74.67-2.71.97-.51.16-2.41.6-2.84.71-.45.12-2.29.55-2.84.71-.15.05-.4.14-.71.24l.51-2.46c.61.46,1.46,1.1,1.71,1.28.32.25,1.92,1.43,2.29,1.74.76.64,1.39,1.35,2.15,1.99.46.39,1.9,1.4,2.29,1.74.69.6,1.62,1.5,2.14,1.98.24.23,1.85,1.74,2.15,1.99.49.41,1.91,1.45,2.29,1.74l2.29,1.74,2.29,1.74c1.53,1.16,3.05,2.33,4.59,3.5l4.29,3.98c-.76-.58-1.53-1.17-2.29-1.74-.56-.42-1.99-1.55-2.29-1.74-.09-.06.45.43,1.01.94.28.25.56.51.78.71.21.2.35.34.35.34,0,0-.61-.46-1.19-.91s-1.16-.9-1.1-.83c.19.18,1.84,1.73,2.15,1.99.73.62,1.54,1.13,2.29,1.74.75.62,1.55,1.12,2.29,1.75.31.26,1.94,1.82,2.15,1.99.14.11.71.55,1.25.96.54.41,1.04.78,1.04.78-.02-.01-2.08-1.93-2.15-1.99.7.57,1.58,1.15,2.29,1.74.42.36,1.82,1.68,2.15,1.99.15.14,2.15,1.99,2.15,1.99.16.12.73.56,1.26.97.27.2.52.4.71.54.19.14.32.23.32.23,0,0-.12-.13-.33-.32-.2-.18-.47-.43-.74-.67s-.54-.49-.74-.67c-.2-.19-.33-.31-.33-.32,0-.01.15.1.36.26.21.17.5.39.78.61.28.22.57.44.78.61.21.16.36.27.36.26,0,0-.14-.14-.35-.34-.21-.2-.5-.45-.78-.71-.56-.51-1.1-1-1.01-.94.11.08,2.05,1.54,2.29,1.74.74.62,1.41,1.35,2.14,1.98.06.08.6.57,1.13,1.04.26.24.52.47.71.64.19.17.31.29.3.3,0,0-.16-.1-.38-.27-.22-.17-.52-.4-.81-.63-.58-.46-1.15-.9-1.1-.84.06.08,1.84,1.72,2.15,1.99.6.53,1.52,1.46,2.15,1.99.11.09.23.18.36.28l1.17.94-1.08,1.18c-.53.57-1.16,1.35-1.62,1.8-.39.39-1.84,1.63-2.16,1.97-.62.64-1.48,1.63-1.94,2.14-.07.08-.21.24-.4.45l-.62.7-1.07-.33c-.71-.22-1.83-.56-2.17-.69-.49-.18-2.31-.98-2.69-1.14-.33-.14-2.31-1-2.7-1.15-.72-.26-2.07-.61-2.75-.87-.9-.34-1.79-.81-2.69-1.14-.77-.29-2.02-.59-2.76-.87-.8-.3-1.9-.86-2.7-1.15-.57-.21-2.31-.73-2.75-.87-.32-.1-2.36-.72-2.75-.86-.72-.27-2.01-.9-2.69-1.14-.9-.32-1.85-.53-2.75-.86-.76-.28-1.97-.89-2.69-1.14-.61-.22-2.2-.65-2.75-.87-.75-.29-2.14-.91-2.7-1.15-.65-.28-2.35-.97-2.69-1.14-.1-.05.59.17,1.3.41.35.12.72.23.99.32.27.09.46.14.46.14-.02,0-2.52-1.07-2.7-1.15-.18-.06-2.73-.86-2.75-.87,0,0,.18.09.45.2.27.11.63.26.98.4.7.29,1.38.57,1.28.54-.36-.09-2.08-.66-2.75-.87-.6-.19-1.96-.59-2.76-.87-.24-.08-2.45-1.04-2.69-1.14-.74-.31-1.77-.78-2.7-1.15-.58-.25-1.7-.73-2.4-1.03l1.58-1.93c.06.11.11.19.16.26.29.47,1.38,2.01,1.63,2.37.42.62,1.13,1.59,1.64,2.38.3.47,1.08,2.01,1.42,2.55.29.47,1.38,2.01,1.63,2.37.19.28,1.43,2.04,1.63,2.37.39.64,1.13,2.05,1.42,2.56.22.39,1.13,2.08,1.42,2.55.18.27,1.55,2.25,1.64,2.38.09.17.45.8.79,1.4.33.6.63,1.16.63,1.16,0,0-.12-.15-.27-.38-.16-.23-.37-.55-.57-.85-.41-.62-.81-1.22-.78-1.14.03.05,1.32,2.38,1.42,2.56.48.78.93,1.77,1.42,2.55.51.82,1.12,1.56,1.64,2.38.51.81,1.12,1.55,1.63,2.37.26.43,1.2,2.23,1.42,2.55.54.83,1.18,1.72,1.63,2.37l1.63,2.37,1.63,2.37c.54.79,1.09,1.59,1.63,2.37.27.39,1.31,1.86,1.63,2.38.08.14,1.41,2.55,1.42,2.57,0,0-.12-.15-.28-.39-.16-.24-.37-.55-.58-.86-.42-.62-.82-1.22-.78-1.12.16.34,1.08,1.94,1.42,2.56.02.03.03.06.08.13l.62,1.09-.85.74c-.42.37-1.67,1.43-2.09,1.83-.29.28-1.73,1.85-1.97,2.1-.11.12-.62.65-1.09,1.15-.23.25-.46.49-.63.67-.16.18-.27.29-.26.29.02-.02,2.18-1.92,2.2-1.94-.51.52-1.41,1.56-1.97,2.1l-.15.14-1.34,1.28-1.29-1.27c-.64-.63-1.22-1.35-1.87-1.98-.69-.68-1.32-1.45-2.01-2.12-.62-.59-1.59-1.31-2.18-1.89-.7-.68-1.3-1.44-2.01-2.12-.59-.56-1.62-1.35-2.18-1.89-.56-.55-1.47-1.61-2.02-2.12-.49-.46-1.8-1.56-2.18-1.89-.26-.23-1.88-1.6-2.18-1.88-.76-.73-1.28-1.39-2.02-2.12-.53-.5-1.68-1.4-2.18-1.89-.19-.19-2.01-2.12-2.01-2.12,0,0,.12.09.3.25.18.16.42.37.68.59.51.44,1.05.92,1.19,1.05.47.38,1.54,1.33,2.18,1.88.73.63,1.45,1.26,2.18,1.89-.7-.68-1.32-1.46-2.02-2.13-.59-.56-1.62-1.34-2.18-1.89-.4-.39-1.66-1.79-2.01-2.12-.64-.59-1.68-1.45-2.18-1.89-.72-.62-1.45-1.26-2.18-1.88-.41-.36-1.64-1.38-2.18-1.89-.55-.51-1.44-1.57-2.01-2.12-.7-.67-1.48-1.22-2.18-1.88-.7-.67-1.32-1.45-2.02-2.12-.68-.65-1.5-1.24-2.18-1.89-.32-.31-.62-.64-.92-.96l2.65-1.37c.04.53.08,1.06.16,1.59.12.8.45,2.05.56,2.82.07.53.22,2.48.29,2.91.15.9.43,2.14.56,2.83.19.93.37,1.88.56,2.82.06.29.52,2.49.56,2.82.1.71.24,2.37.29,2.91.07.71.28,2.54.29,2.92,0,.11-.13-.6-.27-1.34-.07-.37-.14-.74-.19-1.02-.05-.28-.1-.46-.1-.46,0,0,0,.16.03.4.03.24.06.57.1.91.08.68.16,1.41.17,1.59.03.58.25,2.26.29,2.92.37,1.88.75,3.76,1.13,5.66.19.93.37,1.88.56,2.82.11.53.45,2.09.56,2.82.01.11.29,2.89.29,2.91,0,0-.15-.75-.29-1.48-.14-.73-.28-1.44-.27-1.35.02.26.24,2.53.29,2.91.12.81.46,2.06.56,2.82,0,.06.02.13.03.25l.14,1.14-.96.43c-.62.28-2.07.88-2.45,1.08-.78.41-1.94,1.09-2.52,1.42l-1.79,1.01-1.05.59-.92-1.01-.56-.61-1.94-2.13c-.04-.09-.49-.67-.92-1.22-.21-.28-.43-.55-.58-.76-.16-.21-.26-.35-.25-.35,0,0,.13.13.32.34.19.21.44.49.68.77.49.55.97,1.09.94,1.02-.05-.11-1.88-2.46-1.76-2.34.25.23,1.48,1.62,1.94,2.12.44.48,1.74,1.94,1.95,2.13.07.06-.37-.51-.83-1.1-.23-.3-.46-.6-.64-.83-.18-.23-.3-.39-.3-.41l-1.94-2.13c-.57-.62-1.52-1.69-1.94-2.13-.13-.14-.61-.68-1.06-1.18-.23-.25-.44-.49-.6-.67-.16-.18-.27-.29-.27-.28,0,0,.11.16.28.39.18.23.41.53.64.83.46.6.9,1.18.83,1.11-.23-.21-1.48-1.62-1.94-2.13-.12-.13-.61-.67-1.06-1.18-.46-.51-.89-.97-.88-.95,0,.01.12.17.3.41.18.23.41.53.63.83.45.59.89,1.16.82,1.1-.12-.12-1.73-1.87-1.94-2.13-.62-.75-1.14-1.58-1.75-2.34-.05-.09-.49-.67-.92-1.23-.22-.28-.43-.55-.59-.76-.16-.21-.26-.35-.25-.36.02.02,1.89,2.07,1.94,2.13-.3-.39-1.38-1.89-1.75-2.34-.35-.43-1.65-1.8-1.94-2.13-.17-.18-1.83-2-1.95-2.13-.6-.76-1.29-1.72-1.75-2.34-.59-.78-1.17-1.56-1.76-2.34-.58-.78-1.17-1.56-1.75-2.34-.53-.7-1.12-1.52-1.76-2.34-.53-.67-1.16-1.6-1.76-2.34-.21-.25-.49-.56-.8-.88l2.06-.63c-.02.59-.03,1.22-.08,1.69-.06.59-.39,2.38-.43,2.89-.07.91-.11,2.17-.15,2.87,0,.17-.05.9-.09,1.59-.02.34-.04.67-.05.91-.01.24-.02.4-.01.39,0-.04.4-2.67.43-2.9-.1.93-.06,1.94-.15,2.88-.1.96-.33,1.94-.43,2.9-.11.96-.33,1.92-.43,2.89-.07.7-.08,2.23-.15,2.88-.1.82-.34,2.28-.43,2.9-.11.7-.32,1.98-.43,2.9-.06.52-.09,2.26-.15,2.88-.09.85-.36,2.07-.43,2.89-.06.67-.12,2.37-.15,2.87-.02.34-.11,2.47-.15,2.88-.07.44-.38,2.55-.43,2.88l-.19,1.26h-1.22s-.02.01-.02.01c-1.01.03-2.05.1-2.88.14l-2.88.14c-.08,0-.24.01-.47.02l-1.15.06-.48-1.25c-.26-.67-.74-1.92-.85-2.26-.17-.55-.65-2.4-.76-2.82-.21-.79-.48-1.86-.77-2.83-.2-.67-.53-2.1-.76-2.82-.17-.53-.86-2.28-1.02-2.69-.24-.64-.74-1.87-1.02-2.69-.21-.62-.55-2.14-.77-2.82-.15-.47-.91-2.34-1.02-2.7-.29-.97-.55-2.03-.77-2.83-.25-.94-.51-1.88-.77-2.83-.19-.68-.69-2.45-.76-2.82-.02-.1.23.58.48,1.28.13.35.26.71.36.97.1.27.18.44.18.44.01,0-.03-.17-.1-.42-.07-.25-.16-.58-.26-.92-.19-.68-.4-1.38-.41-1.48-.34-.9-.68-1.8-1.02-2.7-.3-.79-.78-2.12-1.02-2.69-.07-.18-.32-.86-.55-1.48-.12-.31-.23-.62-.31-.84-.09-.22-.14-.37-.15-.37-.15-.51-.57-2.23-.76-2.82-.18-.55-.5-1.3-.75-1.95l2.5.36c-.15.25-.29.48-.42.67-.64.93-1.11,1.42-1.75,2.34-.52.75-1.24,1.58-1.76,2.34-.3.45-1.26,2.08-1.5,2.46-.18.29-1.28,2.14-1.5,2.46-.39.57-1.45,1.93-1.75,2.34-.18.23-1.6,2.1-1.76,2.34-.43.65-1.2,1.97-1.5,2.46l-1.5,2.46c-.25.41-1.14,1.93-1.5,2.46-.22.33-1.56,2.08-1.76,2.35-.43.57-1.23,1.6-1.76,2.34-.3.43-1.15,1.95-1.5,2.46-.37.54-1.44,1.86-1.75,2.34-.48.73-1.16,1.9-1.5,2.46-.5.82-1,1.65-1.5,2.46-1,1.65-2,3.29-3,4.93-.59.78-1.17,1.56-1.76,2.34-.43.57-1.5,2.05-1.75,2.34-.07.08.31-.53.71-1.16.2-.32.4-.64.55-.88.15-.24.24-.41.24-.41,0,0-.39.5-.8,1.04-.41.55-.84,1.14-.96,1.3-.28.37-.87,1.15-1.34,1.77l-.62.82-.84-.39c-.24-.11-.46-.21-.63-.29-.72-.31-1.95-.68-2.7-1-.89-.38-1.75-.89-2.64-1.28l-2.01-.75-.97-.36.23-1.14.73-3.54c.19-.9.37-1.8.58-2.82.07-.23.75-2.43.87-2.8.04-.17.58-2.79.58-2.82-.01.04-.86,2.78-.87,2.8.13-.57.42-2.19.58-2.83.2-.78.68-2.04.86-2.79.27-1.08.33-1.77.58-2.82.05-.09.25-.8.45-1.47.1-.34.2-.67.27-.92.08-.25.13-.41.14-.41.01,0-.03.19-.08.46-.06.28-.14.64-.22,1-.16.72-.32,1.43-.28,1.35.07-.12.71-2.28.86-2.79.14-.45.73-2.26.87-2.8.14-.54.49-2.38.58-2.82.06-.28.51-2.56.58-2.82.04-.14.26-.84.46-1.51.2-.66.41-1.29.41-1.29,0,0-.52,2.57-.58,2.82.18-.73.67-2.02.86-2.79.04-.17.58-2.79.58-2.82,0,.01-.07.2-.15.48-.08.28-.19.64-.3,1-.22.72-.42,1.4-.41,1.31.09-.54.42-2.02.58-2.82l.58-2.82c.29-.93.58-1.86.87-2.8.05-.16.27-.87.47-1.54.1-.33.2-.65.27-.88.07-.23.12-.38.12-.37.01.05-.15.76-.3,1.45-.16.69-.31,1.38-.28,1.37.01,0,.07-.18.15-.45.08-.26.18-.61.28-.96.1-.35.21-.7.28-.96.08-.26.14-.43.15-.43,0,0-.15.75-.31,1.48s-.31,1.43-.28,1.35c.11-.35.72-2.25.87-2.8.2-.74.38-2.03.58-2.82.24-.94.62-1.86.87-2.8l.58-2.82c.04-.19.18-.84.31-1.48l1.89,1.06c-.23.26-.46.52-.63.71-.17.19-.27.32-.27.32,0,0,.13-.11.31-.28.19-.17.44-.41.69-.65l-2.15-1.21c-.19.64-.39,1.3-.45,1.49-.29.93-.58,1.86-.86,2.79l.58-2.82c.05-.27.19-.93.31-1.57l2.88,1.62c-.33.38-.66.75-.85.95-.27.29-1.89,1.77-2.14,2-.71.66-1.42,1.33-2.13,2-.72.67-1.42,1.33-2.14,2-.24.22-1.88,1.73-2.13,2-.08.09-.56.63-1.02,1.15-.45.52-.87,1-.88,1.01,0,0,.15-.13.36-.33.21-.2.49-.46.76-.72.55-.52,1.07-1.03,1.01-.95-.21.29-1.44,1.64-1.9,2.16-.5.56-1.26,1.47-1.9,2.16-.31.34-1.75,1.6-2.14,2-.57.58-1.35,1.61-1.9,2.16-.79.8-1.35,1.2-2.13,2-.68.68-1.47,1.32-2.14,2-.24.27-1.76,2-1.9,2.16-.77.72-1.45,1.36-2.14,2-.52.48-1.85,1.77-2.13,2-.09.07.4-.47.89-1.02.25-.28.5-.56.69-.77.19-.21.31-.37.31-.37-.01,0-.14.11-.33.29-.19.18-.44.42-.69.66-.51.49-1.03,1-1.12,1.06l-1.9,2.16c-.11.13-.6.67-1.05,1.18-.23.26-.44.5-.6.68-.16.18-.26.3-.25.3.02-.02,2.06-1.93,2.14-2-.64.67-1.26,1.5-1.91,2.17-.67.69-1.46,1.3-2.14,2-.67.69-1.23,1.47-1.9,2.16-.65.67-1.48,1.34-2.13,2-.23.24-.49.47-.76.71l-1.26,1.15-.9-1.23c-.37-.51-.75-1.05-1.13-1.51-.39-.46-1.62-1.71-1.95-2.12-.57-.72-1.33-1.77-1.76-2.33-.18-.23-1.57-2.11-1.76-2.34-.16-.18-.38-.43-.62-.7l-.55-.61.43-.83c.34-.64.72-1.39.9-1.73l1.35-2.55c.9-1.7,1.79-3.39,2.7-5.1.53-.81,1.07-1.63,1.61-2.44.1-.15.5-.77.88-1.35.19-.29.37-.57.51-.77.14-.2.22-.33.23-.33,0,.01-.09.19-.23.44-.14.25-.32.59-.49.91-.35.65-.69,1.27-.63,1.2.29-.4,1.18-1.79,1.61-2.45.52-.78,1.17-1.77,1.61-2.45.46-.69,1.14-1.72,1.61-2.44.9-1.7,1.79-3.39,2.7-5.1.38-.71,1.12-2.06,1.35-2.54.09-.16.43-.8.75-1.39.16-.3.31-.58.43-.8.11-.21.18-.35.17-.36-.02.03-1.53,2.32-1.61,2.45.14-.27,1.12-2.17,1.35-2.55.49-.83,1.11-1.61,1.61-2.44.48-.83.85-1.71,1.35-2.55.1-.15,1.59-2.42,1.61-2.44,0,.05-.35.69-.69,1.31-.17.31-.34.62-.46.85-.12.23-.2.38-.19.39.01,0,.12-.15.27-.39.15-.23.35-.54.54-.84.2-.31.39-.61.54-.84.15-.23.25-.38.26-.38,0,.02-1.33,2.52-1.35,2.54.41-.66,1.19-1.74,1.61-2.45.41-.69.94-1.88,1.35-2.55.42-.69,1.22-1.77,1.61-2.44.33-.57,1.12-2.11,1.35-2.55.16-.3,1.14-2.2,1.35-2.55.45-.75,1.18-1.7,1.61-2.44.33-.56.59-1.11.87-1.66l1.57,1.97c-.31.12-.62.24-.94.34-.77.25-2.1.52-2.83.76-.99.33-1.69.69-2.7,1.01-.85.28-1.96.48-2.82.76-.74.24-2.01.8-2.7,1.02-.13.04-.83.23-1.51.41-.67.18-1.31.34-1.32.35.02,0,2.51-.94,2.7-1.02-.9.29-1.92.47-2.83.76-.53.17-2.28.86-2.69,1.01-.52.19-2.02.79-2.7,1.01-.8.26-2,.49-2.82.76-.77.25-1.96.78-2.69,1.01-.63.19-2.28.58-2.83.76-.76.25-2.14.8-2.7,1.02-.31.12-2.29.88-2.7,1.01-.48.15-2.46.63-2.82.76-.92.32-1.97.74-2.7,1.01-.43.16-2.12.83-2.7,1.01-.85.28-1.97.49-2.83.76-.58.18-2.2.86-2.69,1.01-.88.26-2.14.58-2.83.76-.3.08-2.47.64-2.82.76-.64.21-2.23.84-2.7,1.01-.9.34-1.8.67-2.7,1.02-.17.07-.66.25-1.18.45l-1.07.41-.78-1.07c-.38-.51-.78-1.08-.93-1.31-.52-.8-.95-1.72-1.47-2.52-.33-.52-1.41-1.9-1.68-2.34-.15-.24-.31-.52-.49-.82l-.92-1.53,1.44-.79c.62-.34,1.31-.71,1.73-.95.54-.3,1.86-1,2.55-1.41.79-.47,1.78-.93,2.56-1.42.69-.43,1.71-1.23,2.37-1.63.47-.29,2.18-1.17,2.56-1.42.74-.48,1.81-1.24,2.37-1.63.2-.14,2.22-1.52,2.37-1.63.8-.47,1.92-1.07,2.56-1.42.17-.1.81-.45,1.4-.79.3-.17.58-.32.8-.44.21-.12.36-.19.36-.19,0,0-.12.09-.32.23-.2.14-.46.32-.74.51-.56.38-1.15.78-1.32.89-.18.12-2.31,1.59-2.37,1.63.54-.27,1.95-1.1,2.56-1.42,1.58-1.09,3.16-2.17,4.75-3.26l2.37-1.63,2.37-1.63c.55-.38,1.64-1.16,2.37-1.63.19-.11,2.34-1.29,2.56-1.42.37-.21,2.09-1.13,2.55-1.41.41-.25,2.07-1.42,2.38-1.64.27-.19,2.02-1.41,2.37-1.63.66-.4,1.95-1.03,2.55-1.41.81-.51,1.56-1.13,2.37-1.63.69-.43,1.91-1.01,2.56-1.42.93-.59,1.43-1.04,2.37-1.63.67-.42,1.85-.98,2.56-1.42.08-.05.2-.13.37-.24l.65,2.68c-.73-.02-2.07-.05-2.44-.06-.68-.02-2-.03-2.88-.08-.64-.04-2.19-.31-2.9-.37-.54-.04-2.45-.04-2.89-.08-.17-.02-.89-.11-1.57-.19-.68-.09-1.32-.18-1.32-.18,0-.01.17-.01.42,0,.26.01.6.02.95.04.7.03,1.42.06,1.51.05.1-.02.82.02,1.51.05.35.01.69.03.94.04.25,0,.42,0,.42,0,0,0-.16-.03-.41-.06-.25-.03-.57-.07-.91-.11-.68-.08-1.41-.16-1.59-.19-.54-.1-2.28-.26-2.9-.37-1.92-.06-3.84-.11-5.77-.17-.95-.03-1.91-.06-2.88-.08-.96-.03-1.91-.06-2.88-.08-.35-.01-2.44-.05-2.88-.08-.59-.05-2.45-.31-2.9-.37-.18-.02-.91-.11-1.6-.19-.34-.04-.68-.08-.92-.11-.24-.03-.4-.05-.39-.06.02,0,.67.02,1.35.03.68.02,1.39.05,1.53.05-.77-.05-2.09-.3-2.91-.37-.18,0-2.86-.08-2.88-.08.06.03,3.09.36,2.91.37-.54,0-2.07-.06-2.88-.08l-2.88-.08c-.96-.08-1.94-.29-2.91-.37-.81-.06-2.1-.02-2.88-.08-.49-.04-2.65-.32-2.91-.37-.1-.02.62.01,1.37.04.37.01.75.03,1.04.04.28,0,.47,0,.47,0,0,0-.19-.04-.47-.07-.28-.03-.66-.08-1.03-.12-.74-.08-1.47-.16-1.39-.18.21-.04,2.75.13,2.88.08.1-.03-2.79-.32-2.9-.37-1.93-.06-3.85-.11-5.76-.17-.28,0-2.6-.06-2.88-.08-.14-.02-.86-.1-1.55-.19-.69-.09-1.34-.18-1.34-.18.03,0,2.76.08,2.88.08-.39-.05-2.4-.33-2.91-.37-.08,0-.19-.01-.36-.02l-.92-.05-.05-.99c-.04-.7-.11-2.13-.13-2.51-.02-.34-.14-2.49-.14-2.88,0-.7.11-2.4.14-2.93.01-.22.04-.75.07-1.31l.05-.91.77-.17c.6-.13,1.25-.27,1.56-.36.97-.26,1.91-.38,2.86-.64.53-.15,2.32-.76,2.74-.89.52-.17,2.06-.7,2.74-.89.81-.23,2.03-.41,2.86-.64.78-.21,1.99-.7,2.74-.89.48-.13,2.48-.52,2.86-.64.9-.27,2.03-.66,2.74-.89.9-.29,1.82-.6,2.74-.89.91-.3,1.82-.6,2.74-.89.95-.21,1.9-.42,2.86-.64.19-.04.9-.21,1.57-.36.33-.07.65-.15.89-.2.24-.05.39-.08.39-.08,0,0-.15.06-.37.13-.23.07-.53.17-.85.28-.64.2-1.32.42-1.51.48-.66.22-2.41.76-2.74.89-.09.04.61-.13,1.34-.3.37-.08.74-.17,1.02-.24.28-.06.48-.11.49-.1,1.82-.59,3.66-1.19,5.48-1.79.78-.26,1.77-.6,2.73-.89.33-.1,2.4-.51,2.86-.64.53-.15,2.32-.76,2.74-.89.44-.14,2.19-.74,2.74-.89.48-.13,2.48-.55,2.86-.64.78-.17,1.89-.4,2.86-.64.7-.17,2.11-.43,2.85-.63.78-.21,1.99-.7,2.74-.89.81-.21,1.4-.31,2.1-.46l-.3,1.71c-.2-.15-.4-.3-.63-.47-.61-.44-1.78-1.08-2.43-1.54-.45-.31-1.96-1.52-2.31-1.8-.27-.21-2-1.58-2.31-1.79-.21-.14-2.44-1.54-2.44-1.54,0,0,.15.13.38.3.23.17.53.4.83.63.6.45,1.18.89,1.11.86-.09-.03-2.05-1.29-2.43-1.54-.28-.18-1.93-1.53-2.31-1.8-.72-.5-1.74-1.04-2.43-1.54-.53-.37-1.92-1.49-2.31-1.79-.77-.6-1.54-1.2-2.31-1.79-.58-.45-1.55-1.24-2.31-1.79-.65-.47-1.64-1.32-2.31-1.8-.45-.32-2.06-1.3-2.43-1.54-.18-.11-2.42-1.53-2.43-1.54-.16-.12-.74-.57-1.28-.98-.27-.21-.53-.41-.72-.56-.19-.15-.31-.25-.31-.25,0,0,.14.07.34.2.2.13.47.3.76.48.56.36,1.17.75,1.34.86.42.27,2.34,1.51,2.43,1.54.06.02-.52-.42-1.12-.87-.3-.22-.6-.45-.82-.62-.22-.17-.37-.29-.37-.3,0,0,.16.09.4.24.24.15.55.36.86.56.62.4,1.22.8,1.17.74-.15-.17-1.95-1.48-2.31-1.8-.43-.37-1.81-1.38-2.31-1.79-.09-.03-.69-.43-1.28-.81-.29-.19-.58-.38-.79-.51-.21-.14-.36-.22-.36-.21,0,0,.14.13.37.3.23.17.53.4.83.63.6.45,1.18.89,1.11.86-.17-.07-1.98-1.26-2.43-1.54-.6-.38-1.68-1.06-2.43-1.54-.7-.45-1.93-1.24-2.43-1.54-.16-.11-.77-.49-1.34-.86-.28-.18-.56-.36-.76-.49-.2-.13-.34-.21-.34-.2,0,.01.13.12.34.28.21.16.48.37.77.58.56.42,1.15.86,1.21.94-1.62-1.02-3.24-2.05-4.87-3.08-1.54-1.19-3.08-2.39-4.62-3.59l2.43,1.54c.14.09.76.48,1.33.85.29.18.57.36.77.49.21.13.34.21.33.2-.04-.07-1.94-1.5-2.32-1.8-.71-.55-1.59-1.23-2.31-1.79l-3.59-2.27-.29-.19.05-.41.18-1.5c.06-.53.22-2.16.34-2.87.02-.1.45-2.11.54-2.45l.19-.73.65.18c.34.09.4.11.4.11,0,0-.16-.02-.41-.07l-.71-.14-.08.67c-.1.8-.35,2.57-.3,2.45.03-.09.37-1.65.53-2.41l.09-.45.41.12c.22.06.36.1.44.12.33.09,2.36.44,2.81.55.44.11,2.45.76,2.79.83.17.03.87.17,1.53.31.65.13,1.26.24,1.26.24,0,0-.18-.07-.46-.15-.27-.08-.64-.18-1-.28-.72-.2-1.42-.4-1.34-.4.18,0,2.27.45,2.77.54.69.14,1.91.38,2.76.54l2.74.54c.14,0,2.79.61,2.72.55.03.03.72.23,1.41.43.34.1.69.2.94.27.26.08.43.13.43.14,0,.01-.17-.02-.44-.08-.27-.06-.62-.13-.97-.21-.7-.15-1.39-.3-1.31-.26.21.1,2.7.77,2.8.84.05.03-.64-.12-1.33-.27-.35-.07-.7-.15-.96-.21-.26-.05-.44-.09-.44-.08,0,0,.62.19,1.29.39.66.19,1.37.4,1.54.45ZM36.41,113.13s-2.66.59-2.86.64c-.75.2-1.95.68-2.74.89-.95.26-1.91.38-2.86.64-.96.26-1.91.38-2.85.63-.19.06-2.73.89-2.75.9,0,0,.16-.03.4-.08.24-.05.56-.12.89-.2.66-.15,1.37-.31,1.57-.36.64-.14,2.02-.42,2.86-.64.58-.15,2.13-.74,2.74-.89.9-.23,1.96-.39,2.86-.64.24-.08,2.65-.86,2.74-.89Z"/><path class="cls-2" d="M69.52,78.14c-.41-.11-2.42-.66-2.93-.81-.18-.04-2.65-.61-2.67-.62.01,0,.18.06.44.13.26.07.6.16.95.26.7.19,1.42.39,1.54.42-.42-.1-2.38-.54-2.68-.61.98.26,1.97.53,2.94.8l2.67.61c.39.09,2.61.6,2.67.62-.06-.02-2.55-.69-2.93-.79Z"/><path class="cls-2" d="M61.24,76.11c-.7-.2-2-.56-2.91-.82-.51-.14-2.09-.45-2.68-.6-.64-.16-2.31-.66-2.89-.82-1.03-.3-2-.58-2.89-.83-.64-.19-2.02-.59-2.86-.84-.58-.16-2.06-.42-2.69-.58-.95-.24-1.91-.6-2.85-.84-.89-.23-1.8-.34-2.7-.57-.93-.23-1.91-.6-2.84-.84-.93-.24-1.9-.61-2.82-.85-.81-.21-1.91-.37-2.72-.55.06.02,2.8.84,2.82.84-.02,0-2.72-.55-2.73-.55.94.23,1.88.6,2.84.84.89.22,1.83.33,2.73.55.92.23,1.91.6,2.84.84.93.23,1.79.33,2.72.56.93.23,1.93.6,2.87.84-1.04-.25-1.64-.31-2.72-.56-.74-.18-2.09-.64-2.87-.84-.49-.12-2.35-.48-2.73-.56-.51-.1-2.62-.55-2.75-.55-.07,0,.64.2,1.37.4.37.1.74.21,1.01.28.28.08.47.15.47.15,0,0-.6-.11-1.25-.24-.66-.13-1.35-.27-1.51-.31-.14-.04-2.63-.77-2.86-.83-.37-.11-2.4-.73-2.85-.84-.54-.13-2.37-.46-2.78-.54-.82-.16-1.8-.33-2.8-.55-.63-.14-2.13-.38-2.81-.55-.29-.09-2.7-.8-2.84-.84-.97-.19-1.89-.37-2.83-.55-.67-.13-2.5-.51-2.84-.55-.18-.02,2.73.78,2.83.84.08.04-.63-.11-1.36-.26-.37-.08-.74-.15-1.02-.21-.28-.06-.47-.09-.47-.08,0,.01.17.06.42.14.25.07.59.17.94.26.69.19,1.4.39,1.5.44l5.69,1.1c.94.18,1.9.37,2.83.55.61.12,2.02.36,2.81.55.63.14,2.17.67,2.87.83.6.15,2.29.41,2.8.54.9.23,2.18.63,2.89.83.22.06,2.77.79,2.9.83.97.21,2.01.39,2.78.54.73.14,2.33.48,2.77.55.17.03-2.85-.79-2.91-.83-.01,0,.14.02.37.07.23.05.55.11.87.18.65.13,1.35.28,1.51.31l2.73.56c.91.26,2.01.57,2.9.82.47.14,2.82.77,2.92.82.05.03-2.41-.49-2.73-.56-.93-.19-1.84-.37-2.76-.55l5.87,1.6c.92.18,1.83.37,2.75.55l2.73.56c.78.16,2.17.45,2.72.57-.18-.05-2.87-.78-2.94-.8-.05-.03,2.38.51,2.7.58.89.19,1.74.38,2.69.59.46.1,2.15.48,2.68.6-1.01-.28-2.09-.57-2.93-.8Z"/><path class="cls-2" d="M148.34,199.36c-.14-.2-1.51-2.04-1.75-2.34-.63-.76-1.31-1.37-1.94-2.13.09.12,1.74,2.32,1.75,2.34,0,0,.52.56,1.02,1.12.5.55.98,1.09.92,1.01Z"/><path class="cls-2" d="M43.88,209.08c.12.13.61.67,1.06,1.17.45.5.89.95.89.95,0,0-.09-.13-.23-.33-.15-.19-.35-.46-.55-.73-.41-.54-.86-1.13-.98-1.28-.02-.02-.15-.17-.35-.38l.12,1.46c.35-.67,1-1.9,1.1-2.09-.15.26-.88,1.33-1.31,1.97l-.09-1.19c.17.23.3.4.35.45Z"/><path class="cls-2" d="M54.41,163.03s-2.65.71-2.83.76c-.3.1-2.55.95-2.7,1.01-.09.04.61-.16,1.34-.36.36-.1.73-.2,1.01-.28.28-.08.48-.12.48-.12.25-.13,2.6-.93,2.69-1.01Z"/><path class="cls-2" d="M39.85,113.78s2.68-.6,2.86-.64c.92-.25,1.82-.63,2.74-.89-.11.02-2.83.63-2.85.63.09-.02-.59.2-1.29.42-.35.11-.71.23-.98.31-.27.09-.46.15-.47.16Z"/><path class="cls-2" d="M61.67,62.77s-.08-.15-.23-.37c-.15-.23-.35-.53-.55-.83-.2-.3-.4-.6-.55-.83-.15-.23-.24-.38-.23-.38.01,0,.13.15.29.38.17.23.39.53.61.83.22.3.44.61.61.83.17.23.28.38.29.38.01,0-.08-.14-.21-.35-.14-.21-.33-.5-.52-.79-.38-.58-.78-1.19-.82-1.27-1.2-1.61-2.41-3.22-3.61-4.84,1.04,1.61,2.08,3.22,3.12,4.82.08.08.52.68.94,1.26.21.29.42.58.58.79.16.21.27.35.28.35Z"/><path class="cls-2" d="M216.42,112.37c-1-.04-2.05-.08-2.88-.11-.2,0-.92-.04-1.59-.07-.33-.01-.66-.03-.89-.04-.24,0-.39,0-.39,0,.02,0,2.69.36,2.89.39.47.04,2.51.1,2.88.11.97.04,1.92.07,2.89.11-.38-.05-2.68-.36-2.9-.39Z"/><path class="cls-2" d="M224.06,123.68s-2.66.67-2.84.71c-.94.28-1.77.67-2.71.97.14-.04,2.82-.71,2.84-.71.02,0,2.67-.95,2.71-.97Z"/></svg>