<?xml version="1.0" encoding="UTF-8"?><svg id="Layer_1" xmlns="http://www.w3.org/2000/svg" viewBox="0 0 233.67 217.71"><defs><style>.cls-1{fill:none;}.cls-2{fill:#375d96;}.cls-3{fill:#385f97;}</style></defs><path class="cls-3" d="M80.32,5.21l34.71-3.31c5.54-.53,11.12-.21,16.56.95l29.49,6.29c10.97,2.34,20.96,8,28.6,16.21l16.4,17.64c5.03,5.41,8.92,11.79,11.41,18.75l11.12,30.99c3.69,10.28,4.21,21.44,1.5,32.02l-5.26,20.51c-2.04,7.93-5.83,15.3-11.1,21.57l-24.82,29.52c-10.38,12.34-25.67,19.46-41.79,19.46h-24.53c-3.06,0-6.11-.26-9.12-.77l-39.43-6.68c-8.72-1.48-16.95-5.05-23.99-10.42l-12.14-9.26c-6.74-5.14-12.18-11.77-15.91-19.37l-12.87-26.23c-3.11-6.35-4.97-13.24-5.45-20.29l-1.9-27.5c-.62-8.99.99-17.99,4.7-26.21l8.32-18.44c4.32-9.57,11.3-17.69,20.11-23.4l20.91-13.53c7.36-4.76,15.76-7.68,24.49-8.51Z"/><path class="cls-1" d="M144.88,6.94c-.05-.05-.83-.29-1.03-.36-.03,0-1.01-.08-1.07-.08.06.06,1.03.31,1.02.36,0-.04,1.12.13,1.07.08Z"/><path class="cls-1" d="M91.01,4.49l-1.04.24c-.25.06-.71.19-1.04.24l2.18.07,2.09-.48-2.18-.07Z"/><path class="cls-1" d="M169.28,209.78c.13-.05.88-.54.88-.57,0,0-.95.31-1.01.32-.22.1-.69.46-.89.54.17-.07.89-.22,1.02-.29Z"/><path class="cls-1" d="M165.29,211.1s.89-.2,1.04-.24c.23-.05.75-.13,1.03-.25.2-.08.67-.45.9-.54-.38.14-.67.17-1.02.29-.22.09-.79.16-1.03.25-.07.02-.92.49-.92.49Z"/><path class="cls-1" d="M155.82,216.43s-1.04,0-1.12.01c-.07,0-1.06.29-1.06.29,0,.03,1.19-.05,1.12-.01-.08-.01,1.06-.26,1.06-.29Z"/><path class="cls-1" d="M153.63,6.22s.95.34,1.03.36c.06.01,1.07.08,1.07.08,0-.04-1.09-.34-1.03-.36.07.04-1.06-.11-1.07-.08Z"/><path class="cls-1" d="M19.09,166.37c-.13-.25-.22-.77-.35-1.03-.03-.06-.59-.89-.59-.89-.01.03.39,1.08.35,1.03,0,0,.55.81.59.89Z"/><path class="cls-1" d="M26.76,175.37c-.16-.17-.6-.73-.69-.79-.06-.04.49.93.47.96l.71.78c.08.09.71.79.72.76,0-.03-.57-.98-.51-.94-.02.02-.62-.66-.71-.77Z"/><path class="cls-1" d="M11.8,54.13c.11-.26.45-.65.57-.93.03-.06.31-1.03.31-1.03-.03.01-.58.99-.57.93,0,0-.06.24-.14.48-.08.24-.16.49-.17.54Z"/><path class="cls-1" d="M68.74,7.32c.39-.15.6-.31.98-.45-.35.1-.74.07-1.08.19-.34.11-.63.36-.97.47.29-.1.81-.11,1.08-.21Z"/><path class="cls-1" d="M3.28,100.53c-.05-.36-.16-.77-.21-1.05-.06-.28-.17-.69-.21-1.05-.02-.16.08-.89.06-1.09-.02-.26-.18-.81-.21-1.05-.06-.37-.15-.74-.21-1.05l-.2-1.04c.01.35-.1.72-.08,1.07.02.36.19.7.21,1.05.03.36-.09.73-.06,1.09.03.35.19.69.21,1.05.02.35.19.69.21,1.05.01.2-.06.92-.06,1.08,0,.08-.06,1.06-.06,1.09.01.07.06.33.11.58.05.25.1.47.11.47.03,0,.05-.94.06-1.08,0-.07.06-1.06.06-1.09.03.21.2.81.21,1.05-.01-.19.08-.94.06-1.09Z"/><path class="cls-1" d="M65.52,8.01s-1.05.27-1.07.28c.05.02-.95.51-.94.55,0,0,.24-.06.49-.13.25-.07.51-.15.57-.17l.95-.53Z"/><path class="cls-1" d="M27.47,32.2c-.22.19-.48.62-.7.83.26-.23.64-.4.9-.63.07-.06.68-.79.7-.82,0,0-.21.14-.43.29-.22.16-.44.32-.48.34Z"/><path class="cls-1" d="M25.89,33.69c-.27.26-.62.4-.87.67-.05.05-.64.88-.64.88.02.01.74-.6.85-.69.19-.16.63-.46.87-.67.17-.15.5-.69.67-.85-.26.26-.61.41-.88.66Z"/><path class="cls-1" d="M17.92,46.28s-.55.74-.64.86c-.21.27-.42.6-.62.88.01.08-.4.98-.36,1,.02.01.53-.76.61-.88.05-.07.57-.8.62-.87-.05.06.41-.97.39-.98Z"/><path class="cls-2" d="M107.33,215.81s.23.07.49.15c.27.08.55.17.55.17,0,0-.28,0-.56-.02-.27-.01-.54-.03-.52-.02.11.04.88.29,1.04.32.19.03.93.03,1.07.04.15,0,1.07.06,1.07.04,0-.05-.97-.26-1.04-.32-.35-.07-.69-.26-1.04-.32-.14-.02-.98-.04-1.07-.04Z"/><path class="cls-2" d="M1.08,105.13c-.03-.36-.19-.69-.21-1.05-.01-.15.08-.99.06-1.09-.01-.07-.06-.33-.11-.58-.05-.25-.11-.47-.11-.47,0,0-.02.24-.04.5-.01.26-.02.53-.03.59,0,.27-.08.8-.06,1.08.01.19.18.9.21,1.05.03.14.19,1.05.21,1.05.05,0,.02-1.01.06-1.09Z"/><path class="cls-2" d="M230.32,131.57s.35-.88.4-1.01c0-.05.11-.95.13-1.06.06-.28.33-.72.4-1.01.09-.35.05-.72.13-1.07-.13.33-.28.69-.4,1.01-.06.14-.38,1.02-.4,1.01-.04.34-.09.72-.13,1.06-.02.15-.15,1.06-.13,1.06Z"/><path class="cls-2" d="M42.7,194.3s.72.72.78.77c.28.21.64.33.93.53-.04-.03-.78-.77-.78-.77,0,0-.22-.13-.46-.26-.23-.13-.47-.27-.47-.27Z"/><path class="cls-2" d="M227.67,141.94s.39-.95.4-1.01c.09-.35.04-.71.13-1.06-.01.06-.4,1.01-.4,1.01,0,.02-.04.28-.07.54-.03.26-.06.52-.06.52Z"/><path class="cls-2" d="M64.58,8.54c-.28.11-.66.44-.93.55-.2.08-.89.22-1.05.31-.29.15-.7.45-.91.58-.3.19-.6.4-.9.6l-.88.61c-.28.2-.55.42-.87.63-.32.21-.59.44-.85.65-.1.08-.71.58-.84.66-.3.19-.68.26-.98.45-.31.19-.52.49-.82.69-.09.06-.95.44-.98.47-.27.23-.54.46-.81.7-.2.17-.73.59-.81.7-.05.06.96-.49.98-.47.03.04-.76.61-.81.7-.04.06.96-.5.98-.47.01.02-.7.6-.81.7-.26.22-.56.47-.82.7l-1.96.94c.03-.08.84-.66.82-.7-.02-.02-.84.41-.98.47-.13.06-.81.36-.98.47-.27.17-.54.52-.81.7-.17.11-.83.4-.98.47-.08.04-.94.44-.98.47-.05.04-.26.21-.45.37-.19.16-.36.32-.36.32.01.02.84-.41.98-.47.12-.05.85-.38.98-.47-.3.2-.51.5-.81.69-.17.11-.83.39-.98.47-.27.13-.66.28-.98.47-.33.19-.64.26-.98.47-.24.15-.56.53-.81.7-.28.18-.71.29-.98.47-.19.13-.68.58-.81.69-.24.2-.51.46-.81.69-.19.14-.6.55-.81.7-.13.08-.9.41-.98.47-.3.24-.57.48-.82.7l-.81.7-1.62,1.39c-.08,0-.92.51-.95.47-.02-.03.85-.7.78-.7-.09,0-.9.5-.95.48-.05-.02.82-.67.79-.7-.02-.03-.83.43-.96.48-.21.07-.73.39-.96.5l-.77.73c-.23.21-.61.57-.75.75-.09.11-.76.73-.74.75-.2.08-.65.41-.91.57-.18.11-.69.41-.9.58-.27.22-.63.38-.89.61-.15.14-.58.69-.68.81-.23.29-.43.54-.65.83-.23.29-.44.55-.64.83-.08.11-.5.73-.62.85-.14.14-.71.58-.82.68-.1.08-.81.73-.81.7,0,0,.15-.23.29-.44.15-.22.3-.43.3-.43-.17.17-.64.51-.81.7-.14.15-.49.75-.58.89-.16.25-.35.61-.56.9-.17.23-.35.67-.53.91-.09.12-.7.67-.76.76-.2.33-.35.65-.5.94-.16.31-.32.62-.49.93-.3.63-.62,1.25-.9,1.89-.44.55-.91,1.09-1.32,1.67-.18.25-.49.69-.64.86-.05.06.41-.97.39-.98-.02-.01-.55.74-.64.86-.21.27-.42.6-.62.88.01.08-.4.98-.36,1,.02.01.53-.76.61-.88.05-.07.57-.8.62-.87-.15.29-.21.69-.37.99-.09.18-.52.74-.61.88-.08.1-.53.77-.59.9-.1.23-.26.83-.32,1-.03.11-.25.9-.31,1.03-.11.23-.47.76-.57.93-.07.11-.51.79-.57.92-.08.17-.24.9-.31,1.03-.17.32-.42.68-.57.93-.08.13-.49.76-.57.93-.08.18-.26.88-.31,1.03l-.31,1.03c-.05.17-.21.81-.31,1.03-.12.29-.44.63-.57.93-.12.27-.18.77-.31,1.03-.18.37-.39.55-.57.92-.12.25-.19.76-.31,1.03-.08.19-.49.79-.57.93-.08.13-.5.76-.57.93-.08.19-.26.87-.31,1.03l-.31,1.03c-.07.23-.19.73-.31,1.03-.03.08-.52.85-.57.93-.08.14-.46.72-.55.91-.07.15-.24.89-.27,1.02-.08.34-.17.68-.25,1.02-.03.13-.16.87-.22,1.02-.07.19-.42.8-.48.95-.11.24-.38.85-.46.96-.05.06.22-1.03.19-1.03,0,0-.11.21-.22.44-.11.23-.22.47-.24.53-.11.26-.35.7-.44.98-.08.29-.08.77-.15,1.05-.05.19-.37.83-.4.99-.07.32-.08.81-.11,1.05-.01.17-.05.82-.09,1.05-.06.31-.28.7-.34,1.01-.07.35,0,.71-.04,1.05-.06.35-.25.68-.31,1.03-.05.34.05.72,0,1.05-.05.36-.23.68-.26,1.04-.03.29.07.78.04,1.05-.04.28-.2.78-.22,1.05-.01.24.05.87.08,1.05.01.12.11.9.1,1.05-.02.18-.17.91-.16,1.05.02.36.09.77.14,1.05.03.19.15.78.16,1.04,0,.28-.12.76-.1,1.06.02.29.19.75.2,1.03.02.39-.09.7-.06,1.09.02.33.19.71.21,1.05.02.26-.09.85-.06,1.09.03.3.17.82.21,1.05l.21,1.05.21,1.05-.13,2.17-.21-1.05c-.03-.13-.2-.9-.21-1.05-.01-.19.08-.94.06-1.09-.05-.36-.16-.77-.21-1.05-.06-.28-.17-.69-.21-1.05-.02-.16.08-.89.06-1.09-.02-.26-.18-.81-.21-1.05-.06-.37-.15-.74-.21-1.05l-.2-1.04c.01.35-.1.72-.08,1.07.02.36.19.7.21,1.05.03.36-.09.73-.06,1.09.03.35.19.69.21,1.05.02.35.19.69.21,1.05.01.2-.06.92-.06,1.08,0,.08-.06,1.06-.06,1.09.01.07.06.33.11.58.05.25.1.47.11.47.03,0,.05-.94.06-1.08,0-.07.06-1.06.06-1.09.03.21.2.81.21,1.05.01.2-.06.92-.06,1.09,0,.12-.08.97-.06,1.08.03.28.17.84.21,1.05.03.13.19,1.07.21,1.05.04-.04.02-1.08.06-1.08.05,0,.17,1.06.21,1.05l-.13,2.17-.06,1.09.43,2.1.21,1.05c.03.16.2.83.21,1.05,0,.06-.06,1.09-.06,1.09-.04,0-.18-1.11-.21-1.05-.05.08-.02,1.05-.06,1.08-.04.03-.17-1.05-.21-1.05-.04,0-.04.95-.06,1.09-.04.22-.03.83-.06,1.08.03.36.19.7.21,1.05.02.3-.09.8-.06,1.09.03.32.17.78.21,1.05,0-.02.06-1.06.06-1.09,0,0,.21,1,.21,1.05,0,.13-.08,1.02-.06,1.08.06.38.15.71.21,1.05.07.35.14.7.21,1.05.07.35.14.7.22,1.05.14.68.3,1.36.47,2.03-.05.08.04,1.05,0,1.06-.03,0-.24-.87-.27-1.01-.05-.17-.21-.98-.25-1.02-.05-.04.01,1.06-.03,1.07-.04,0-.22-1.09-.25-1.03-.04.09.01.93-.03,1.07.09.34.18.68.27,1.02.03.12.27,1.03.29,1.01.01-.03-.05-1.13-.01-1.07.07.16.2.74.29,1.01.08.26.22.66.3,1,.01.06.04.98.05,1.06,0,.14.04.88.08,1.06.03.19.32.85.37.98.12.33.25.65.38.98.05.35.09.7.13,1.05.02.13.11.91.16,1.05-.02-.06-.42-.96-.42-.96-.02.01.13.91.16,1.06l.18,1.06c.31.63.61,1.27.94,1.89.11.22.36.64.5.93.09.19.16.82.26,1.04.11.27.43.65.53.91.07.16.24.9.3,1.02.16.31.42.66.57.88l.58.88c.17.25.41.57.59.89.13.22.47.64.59.89.16.32.2.71.35,1.03.03,0,.6.97.59.89.01.12.39,1.01.35,1.03-.02.02-.51-.77-.59-.89-.13-.19-.51-.83-.59-.89-.06-.05.38,1.01.35,1.03-.04.02-.56-.93-.6-.89-.03.04.36.93.35,1.03l1.19,1.79c.17.25.46.74.59.89.09.11.56.91.59.89,0,0-.09-.27-.18-.53-.09-.26-.17-.49-.17-.5.1.15.5.7.59.89.13.27.22.78.35,1.03.19.36.4.53.59.89.13.24.22.77.35,1.03.09.18.5.75.59.89.2.31.39.58.59.89l.7,2.06c-.07-.04-.55-.92-.59-.89-.04.02.39,1.01.35,1.03-.04.02-.55-.91-.6-.89-.03.02.31.88.35,1.03.1.3.25.73.35,1.03l1.19,1.78.59.89c.12.18.46.64.59.89.05.09.32.93.35,1.03.05.14.27.86.35,1.03.08.17.51.77.59.89.07.1.54.77.59.89.1.22.29.86.35,1.03.05.14.27.86.35,1.03.08.16.51.78.59.89.07.1.53.73.6.86.14.29.22.73.37.99.16.27.23.72.39.99.18.3.46.53.65.83.18.3.48.51.66.81.19.29.26.67.45.96.19.28.51.51.69.79.03.07.49.94.49.94-.02.02-.62-.66-.71-.77-.16-.17-.6-.73-.69-.79-.06-.04.49.93.47.96l.71.78c.08.09.71.79.72.76,0-.03-.57-.98-.51-.94.1.07.55.59.72.76.09.09.73.77.73.74,0-.02-.57-.96-.52-.92.06.06.65.63.73.74.21.28.33.63.54.91.21.28.33.64.56.9.06.06.76.68.77.7.07.13.61.85.59.87-.02.02-.69-.58-.79-.68-.2-.17-.64-.62-.78-.7-.11-.06-.74-.74-.77-.72-.03.03.62.93.56.91-.09-.02-.64-.63-.77-.72-.06-.04.57.89.57.91l.78.71c.09.08.8.71.8.68,0-.03-.66-.92-.6-.88.17.13.57.49.8.68.26.23.53.45.8.67.17.14.6.45.81.65.02.02.65.84.65.84,0,0-.22-.16-.43-.33-.21-.16-.42-.33-.41-.31.08.11.53.72.65.84.25.25.59.39.85.62.26.24.42.59.68.83.25.22.62.36.87.58.26.24.44.57.71.79.22.19.68.37.89.56.13.11.63.68.74.76.28.2.68.39.92.53.31.18.62.36.93.53.31.18.62.36.93.53.31.18.62.36.93.53.16.09.74.39.93.53.04.03.77.76.77.76-.02.03-.98-.6-.93-.53.08.12.59.58.78.77.2.2.5.53.78.77.21.18.54.59.77.76.16.12.79.45.93.53.32.18.59.34.93.53.33.2.63.36.93.53.31.18.62.36.93.53.07.04.89.5.93.53.04.04.24.23.43.41.18.18.35.36.35.36-.02.02-.8-.46-.93-.53-.2-.11-.83-.51-.93-.53-.07-.02.79.74.78.77-.03.04-.92-.58-.93-.53-.01.05.73.67.78.77l.93.53c.13.07.78.42.93.52.15.11.66.64.77.74.06.07.71.68.78.72.27.16.72.38.94.47l.95.45c.27.13.63.26.95.43.11.05.68.58.83.66.17.1.83.33.97.39.21.09.71.25.98.37.24.11.62.48.86.61.31.15.68.18.99.33.31.16.57.43.89.57.23.1.8.19,1,.3.27.13.72.42.92.53.16.09.7.44.93.52.33.13.6.38.94.51.19.07.87.18,1.03.21.16.03.84.15,1.03.2.18.06.83.38.96.45.11.06.83.38.97.42.18.05.9.1,1.04.14.34.11.72.28.99.39.11.05.87.34,1,.37.24.04.86.07,1.05.08l1.05.05c.29.02.86.06,1.06.04.14-.01,1.07.08,1.07.04,0,0,.23.08.48.15.25.07.51.15.57.16.28.06.75.27,1.04.32.35.06.72-.01,1.07.04.35.05.72-.02,1.07.04.18.03.9.3,1.04.32.36.04.77.03,1.07.04.35.01.71.03,1.07.04l1.07.04c.15,0,.88,0,1.07.04.19.03.9.27,1.04.32.25.08.91.25,1.04.32.07.04-1.07-.07-1.07-.04,0,0,.23.08.47.15.25.07.51.15.57.16.28.07.71.25,1.04.32.28.05.78-.01,1.07.04.25.04.82.29,1.04.32.31.04.83.03,1.07.04l1.07.04c.32.01.69,0,1.07.04.22.02.82,0,1.07.04.3.05.76.28,1.04.32.41.06.67-.01,1.07.04l2.08.63c.25.08.91.25,1.04.32.07.04-1.07-.07-1.07-.04,0,.04.93.26,1.04.32.16.08.85.23,1.04.32l1.07.04c.13,0,1.08.06,1.07.04-.03,0-1-.31-1.04-.32.14,0,.89,0,1.07.04.35.06.69.26,1.04.32.35.06.72-.02,1.07.04.24.04.83.29,1.04.32.32.04.82.03,1.07.04.1,0,.96.02,1.07.04.28.06.83.25,1.04.32l1.04.32c.17.05.82.28,1.04.32.15.03.94.03,1.07.04.13,0,1.08.06,1.06.04,0,0-.23-.08-.48-.15-.25-.07-.51-.15-.56-.16.28.05.79,0,1.06.04.19.03.85.26,1.01.3.35.09.65.19,1.02.28.36.09.7.17,1.02.26l1.04.24,1.04.22c.07-.04,1.05-.04,1.05-.08,0-.02-.9-.16-1.04-.2-.2-.04-.98-.17-1.04-.22-.07-.05-1.04-.19-1.03-.24,0-.02.89-.03,1.04-.04.33-.02.7-.04,1.03-.06.69.14,1.38.26,2.07.37.2.03.78.15,1.05.16.34.01.72.14,1.07.14.36,0,.71-.13,1.07-.14.35,0,.7-.14,1.06-.14.32,0,.77.14,1.08.14.37,0,.7-.14,1.07-.14.3,0,.79.15,1.08.14.27,0,.8-.15,1.06-.14.27,0,.88.11,1.08.14.13.02.93.14,1.08.14.18,0,.92-.15,1.06-.14.36.02.79.1,1.08.14.11.01.96.14,1.08.14.05,0,.31-.04.57-.07.25-.03.49-.07.49-.07,0-.03-1.15-.11-1.08-.14.13-.04.8-.11,1.06-.14.27-.04.72-.12,1.06-.14.18-.01.87.14,1.08.14.36,0,.7-.13,1.06-.14.08.05,1.08.09,1.08.14,0,.04-1.12.1-1.06.14.04.02.9.12,1.08.14.23.02.83.14,1.08.14.2,0,.9-.12,1.06-.14.13-.01.92-.14,1.06-.14.26,0,.89.11,1.08.14.11.01.97.14,1.08.14.28,0,.86-.11,1.06-.14.36-.04.69-.11,1.04-.16.29-.05.66-.13,1.02-.17.12-.01.88.12,1.05.11.2-.01.86-.19,1.02-.22.35-.08.67-.15,1.01-.23.35.01.7.04,1.05.04.13,0,1.06-.03,1.05,0,0,0-.27.08-.52.15-.26.07-.51.14-.49.14.18,0,.82.02,1.06,0,.28-.03.72-.24,1.01-.28.33-.05.72.03,1.06-.03.37-.06.69,0,1.06-.07.32-.06.67-.27.99-.34.34-.06.72-.01,1.06-.1.34-.09.63-.3.97-.39.21-.05.87-.07,1.06-.12.31-.1.73-.33.95-.43l.95-.44c.31-.15.62-.29.94-.44.15-.08.72-.41.92-.49.3-.11.72-.12,1.03-.23-.07.02-.92.49-.92.49,0,.02.89-.2,1.04-.24.23-.05.75-.13,1.03-.25.2-.08.67-.45.9-.54.17-.07.89-.22,1.02-.29.13-.05.88-.54.88-.57,0,0-.95.31-1.01.32-.22.1-.69.46-.89.54-.38.14-.67.17-1.02.29-.22.09-.79.16-1.03.25.27-.1.66-.39.91-.5.35-.14.66-.14,1.01-.29.3-.13.59-.41.89-.54.32-.13.69-.16,1-.32.31-.15.56-.43.86-.59.31-.15.69-.19,1-.34.31-.15.53-.46.83-.62.3-.17.68-.23.98-.4.3-.17.68-.22.98-.4.17-.11.67-.57.79-.68.08-.06.71-.63.79-.67.27-.16.74-.34.95-.46.27-.15.61-.31.93-.5.2-.12.73-.35.94-.5.09-.05.71-.71.73-.74.12-.07.89-.57.9-.55.03.03-.79.77-.72.76.1-.01.77-.51.91-.56.48-.51.97-1.01,1.41-1.55l.67-.8c.2-.24.42-.52.67-.79.15-.17.45-.65.63-.83.2-.2.64-.44.83-.64.27-.29.37-.53.62-.83l.8-.69c.09-.08.79-.71.8-.69.02.05-.62.84-.58.87.04.02.77-.72.8-.7.04.03-.61.82-.58.87.02.05.74-.69.81-.7.39-.57.77-1.19,1.16-1.78.15-.24.36-.61.58-.9.09-.13.68-.59.8-.74.23-.27.35-.63.58-.9.22-.28.35-.63.58-.91.12-.14.72-.62.8-.74.22-.3.41-.65.58-.9l.58-.9c.1-.15.43-.72.58-.9.09-.11.71-.65.8-.74.09-.08.72-.63.8-.74.06-.07.58-.9.58-.9.16-.16.64-.54.8-.74.19-.23.39-.69.58-.9.26-.29.55-.44.8-.74.22-.25.36-.65.58-.9.23-.28.56-.46.8-.74.24-.27.57-.46.8-.73.13-.16.49-.77.58-.9.07-.11.48-.8.58-.9.17-.19.66-.61.8-.74.06-.06.76-.69.8-.74.03-.05.18-.27.32-.48.14-.21.26-.42.26-.42-.03-.02-.81.8-.8.74,0-.08.48-.73.58-.9.13-.24.4-.63.58-.91.15-.23.37-.62.58-.9.04-.05.74-.68.8-.73.19-.18.57-.49.8-.74.13-.14.43-.73.58-.9.23-.27.56-.47.8-.73-.13.15-.48.76-.58.9-.2.31-.38.59-.58.9.53-.49,1.07-.98,1.6-1.48.22-.28.35-.63.58-.9.14-.17.68-.58.8-.73.2-.27.44-.68.58-.9.14-.23.37-.63.58-.9.17-.23.38-.67.57-.9.2-.23.62-.52.8-.74.24-.31.33-.6.57-.9.09-.11.68-.64.77-.72.25-.25.5-.5.75-.74.09-.08.66-.63.74-.76.13-.18.42-.77.49-.92l.47-.93c.1-.19.31-.69.45-.94.12-.21.55-.58.68-.81.11-.19.31-.8.41-.95.19-.27.49-.63.64-.84.11-.14.52-.64.63-.85.15-.27.21-.7.36-.98.13-.25.47-.62.59-.87.06-.12.29-.92.32-.99.03-.06.17-.28.3-.49.13-.21.26-.4.26-.4.04.02-.36,1.04-.31,1,.02-.01.53-.8.57-.9.06-.15.24-.88.28-1.01.05-.15.19-.83.26-1.01.04-.1.51-.87.51-.93.03-.14.24-1.01.22-1.02,0,0-.47.88-.49.94.12-.33.1-.69.22-1.02.07-.18.4-.8.47-.94.12-.24.38-.83.45-.96.05-.06-.21,1.02-.18,1.03,0,0,.45-.9.46-.96.06-.21.14-.87.17-1.03.02-.12.16-1.05.14-1.04-.01.02-.41.96-.41.98.04-.2.08-.82.14-1.03.08-.28.34-.71.41-.99.08-.35.04-.72.13-1.06.09-.35.31-.67.4-1.01.08-.29.05-.79.13-1.07.05-.18.37-.85.4-1.01.07-.33.1-.8.13-1.06.04-.35.08-.71.13-1.06.02-.18.07-.84.13-1.06.07-.31.32-.69.4-1.01.04-.15.09-.97.13-1.06.02-.06.12-.32.21-.56.09-.24.19-.46.19-.46l-.13,1.06c.08-.25.33-.74.4-1.01.07-.29.05-.79.13-1.06.11-.4.29-.61.4-1.01.08-.27.06-.78.13-1.06.05-.2.34-.86.4-1.01.05-.12.37-.87.4-1.01.06-.25.11-.88.13-1.07l.13-1.06c.02-.14.08-.89.13-1.06.09-.35.31-.66.4-1.01.08-.3.04-.78.11-1.05.08-.31.28-.71.37-.98.12-.35.24-.69.35-1,.04-.13.31-.83.34-1,.04-.19.02-.9.03-1.04,0-.35.01-.69.02-1.04,0-.13-.04-.88-.01-1.04.03-.2.22-.86.26-1.02.02-.09.22-.94.22-1.03,0-.31-.04-.8-.06-1.04l-.09-1.03c-.02-.15-.09-.83-.1-1.03,0-.17.13-.91.15-1.04.02-.12.15-.89.13-1.04-.02-.35-.16-.68-.17-1.02,0-.35.12-.7.09-1.05-.02-.25-.2-.79-.21-1.01,0-.3.04-.82.05-1.05,0-.12.05-.9.03-1.05,0-.16-.26-.89-.27-1.01-.02-.36,0-.75,0-1.05,0-.35-.03-.7-.04-1.06-.02-.35-.03-.71-.05-1.06-.05-.06-.31-1-.35-.98-.04,0,.14,1.09.08,1.05-.05-.05-.28-.8-.35-.98-.1-.24-.25-.67-.35-.97-.09-.22-.3-.66-.39-.96-.06-.19-.06-.82-.13-1.04-.08-.28-.36-.68-.43-.94-.11-.38-.06-.66-.17-1.04l-.46-.92c-.06-.13-.4-.75-.47-.93-.02-.07-.23-1.06-.23-1.06.02-.01.42.82.49.95.15.3.32.64.47.93.15.29.31.62.46.93.16.31.29.63.43.94-.1-.7-.24-1.39-.38-2.09-.12-.33-.35-.6-.47-.94-.08-.21-.16-.89-.23-1.06-.13-.31-.37-.72-.49-.95l-.49-.95-.49-.95c-.1-.2-.38-.68-.49-.95-.09-.23-.14-.81-.23-1.06-.1-.28-.4-.68-.49-.95-.13-.39-.11-.67-.23-1.06-.09-.26-.39-.67-.49-.95-.07-.19-.2-.9-.23-1.06-.03-.14-.18-.92-.23-1.06-.08-.22-.41-.79-.49-.95-.06-.11-.44-.81-.49-.95-.05-.16-.19-.95-.23-1.06-.15-.34-.35-.68-.49-.95l-.49-.95c-.06-.12-.43-.79-.49-.95-.07-.19-.2-.91-.24-1.06-.07-.31-.13-.7-.23-1.06-.06-.23-.14-.81-.23-1.06-.07-.19-.42-.81-.49-.95-.04-.08-.47-.88-.49-.95-.1-.34-.17-.79-.23-1.06-.03-.12-.26-1.07-.23-1.06,0,0,.12.23.24.46.12.23.24.47.25.5-.12-.35-.11-.72-.24-1.06-.07-.19-.42-.8-.49-.95-.09-.18-.4-.71-.49-.95-.11-.29-.13-.76-.23-1.06-.1-.28-.4-.68-.49-.95-.05-.16-.19-.95-.23-1.06-.03-.05-.15-.29-.26-.52-.11-.22-.23-.43-.23-.43,0,0,.21.98.23,1.06-.1-.3-.38-.64-.49-.95-.07-.2-.2-.89-.23-1.04-.06-.23-.13-.74-.24-1.02-.11-.31-.14-.71-.26-1.02-.08-.18-.46-.75-.54-.89-.12-.22-.41-.6-.55-.88-.11-.21-.2-.78-.32-1-.08-.16-.53-.74-.58-.86-.15-.33-.26-.71-.36-.99-.13-.33-.26-.66-.38-.99-.09-.24-.37-.84-.4-.98-.01-.08.62.84.64.83.05-.03-.4-.9-.41-.98-.43-.55-.88-1.09-1.32-1.62l-.69-.78c-.46-.52-.93-1.03-1.41-1.53-.16-.16-.53-.51-.72-.74-.06-.07-.48-.82-.53-.91-.16-.28-.34-.59-.55-.9-.16-.24-.36-.64-.57-.89-.18-.21-.58-.47-.78-.68-.22-.24-.38-.63-.6-.87-.14-.16-.7-.58-.82-.68-.28-.23-.55-.45-.83-.68-.24-.19-.55-.42-.83-.68-.09-.09-.51-.76-.63-.88-.14-.15-.7-.58-.83-.68-.28-.24-.54-.45-.83-.68l-.63-.88c-.16-.22-.57-.75-.63-.89-.03-.07.81.7.83.68.03-.03-.6-.78-.63-.89-.03-.08.8.71.83.68.02-.02-.55-.76-.63-.89-.2-.28-.43-.6-.63-.88l-1.65-1.36.63.88c.07.1.66.88.63.89-.06,0-.72-.64-.83-.68-.21-.22-.63-.46-.83-.68-.16-.18-.52-.73-.63-.88-.07-.1-.66-.88-.63-.89,0,0,.21.16.41.33.2.17.41.34.42.35-.22-.26-.4-.64-.63-.89-.18-.19-.65-.52-.83-.68-.28-.26-.58-.48-.83-.68-.14-.11-.66-.51-.83-.68-.04-.04-.63-.88-.63-.88,0,0,.22.18.43.36s.41.35.39.32c-.05-.08-.53-.78-.63-.89-.14-.15-.7-.57-.83-.68-.07-.06-.79-.63-.83-.68-.23-.28-.46-.64-.63-.89-.07-.1-.66-.88-.63-.88,0,0,.2.16.4.32.2.17.4.34.43.36-.24-.26-.39-.62-.63-.88-.14-.15-.7-.58-.83-.68-.24-.2-.56-.43-.83-.67-.12-.11-.49-.71-.63-.85-.02-.02-.23-.18-.43-.34-.2-.15-.41-.29-.41-.29.01.02.63.82.64.84-.21-.2-.61-.43-.83-.63-.21-.2-.45-.64-.66-.82-.25-.23-.59-.37-.85-.59-.26-.23-.43-.57-.69-.8-.21-.2-.66-.38-.87-.56-.19-.17-.53-.63-.72-.77-.21-.17-.72-.43-.9-.52l-.9-.51c-.21-.12-.65-.32-.91-.49-.17-.11-.58-.58-.77-.71-.23-.17-.71-.29-.93-.45-.33-.22-.48-.45-.8-.68-.01,0-.26-.12-.5-.22-.24-.11-.47-.21-.45-.19-.09-.1-.84-.61-.82-.65.02-.04.87.41.96.4.08,0,.94.44.95.41.02-.04-.73-.57-.83-.66-.14-.15-.67-.49-.83-.65-.3-.17-.67-.21-.97-.38-.19-.1-.69-.54-.86-.62-.3-.14-.75-.25-.99-.34-.26-.09-.67-.2-.99-.33-.25-.1-.74-.18-1-.3-.2-.09-.72-.49-.9-.55-.31-.11-.76-.19-1.01-.25-.18-.04-.78-.17-1-.25-.05-.02-.94-.48-.94-.48,0-.02,1.08.25,1.02.21-.08-.05-.77-.42-.94-.48-.26-.1-.74-.12-1.02-.21-.21-.07-.77-.4-.95-.45-.31-.08-.78-.14-1.03-.17l-1.03-.14c-.08-.01-.97-.12-1.03-.13-.15-.05-.84-.05-1.03-.1-.06-.02-.97-.36-.99-.37.06-.05.98.14,1.04.09.03-.02.86.08,1.03.1.13,0,1.04.16,1.03.13-.02-.05-.83-.34-.98-.41-.2-.1-.7-.26-.99-.37l-1-.37-1.07-.08c-.26-.02-.93-.1-1.07-.08-.08,0,1.03.33,1.03.36,0,.04-.97-.11-1.07-.08-.07.02,1.03.33,1.02.36,0,.03-.92-.07-1.07-.08-.34-.03-.72-.06-1.07-.08l-2.05-.72c.06,0,1.05.08,1.07.08-.12-.05-.86-.33-1.03-.36-.15-.03-.97-.05-1.07-.08-.06-.02-.32-.11-.56-.19-.24-.08-.46-.17-.46-.17,0,0,.27.02.54.04.27.02.52.04.53.04-.22-.07-.76-.3-1.03-.36-.31-.07-.74-.01-1.07-.08-.2-.04-.87-.31-1.03-.36-.35-.12-.67-.24-1.02-.36-.19.01-.92-.11-1.07-.08-.12.02-1.06-.13-1.07-.08,0,0,.97.35,1.02.36.09.02,1.05.08,1.07.08.14.05,1.03.33,1.03.36,0,.05-.99-.11-1.07-.08l-2.14-.17-2.06-.72c-.31-.11-.79-.26-1.02-.36-.14-.06-1.03-.33-1.03-.36,0-.04,1.12.13,1.07.08-.05-.05-.83-.29-1.03-.36-.03,0-1.01-.08-1.07-.08.06.06,1.03.31,1.02.36,0,.03-.92-.07-1.07-.08-.25-.02-.94-.1-1.07-.08-.08.01,1.03.33,1.03.36,0,.03-.92-.07-1.07-.08-.25-.02-.74-.04-1.07-.08-.06,0-.95-.33-1.03-.36-.12-.04-1.05-.34-1.03-.36.03,0,1.05.08,1.07.08-.19-.06-.8-.31-1.02-.36-.2-.04-.91-.07-1.07-.08-.3-.03-.71-.03-1.07-.08-.29-.04-.77-.02-1.07-.08-.29-.06-.74-.31-1.03-.36-.24-.04-.85-.03-1.07-.08-.28-.07-.81-.29-1.03-.36-.14-.05-1.03-.34-1.03-.36,0-.03.92.07,1.07.08.09,0,1,.07,1.07.08-.28-.08-.73-.3-1.03-.36-.35-.07-.72-.01-1.07-.08-.34-.07-.66-.28-1.01-.34-.25-.04-.82-.03-1.04-.05-.37-.03-.73-.02-1.04-.03h-1.04c-.19,0-.79.03-1.04.01-.12,0-.92-.22-1.03-.24-.12-.03-.88-.22-1.03-.22-.18,0-.9.09-1.04.08-.35-.04-.76-.14-1.04-.18-.15-.02-.85-.16-1.05-.16-.17,0-.9.11-1.04.14-.3.04-.66.11-1.03.16-.23.02-.77.16-1.02.18-.35.02-.7-.11-1.05-.08-.34.02-.67.19-1.01.22-.19.01-.9-.04-1.07-.04-.37-.01-.74-.02-1.09-.04.04,0,.95-.23,1.05-.24.23-.02.89.07,1.07.04.32-.05.77-.17,1.02-.22l1.03-.2c-.33,0-.73-.11-1.06-.08-.34.02-.73-.09-1.07-.06-.25.02-.8.19-1.03.24-.38.07-.74.17-1.05.24-.32.07-.66.17-1.05.24-.38.07-.72.17-1.04.24-.12.03-.89.23-1.04.24-.39.03-.7-.06-1.09-.04-.08.02-1.03.24-1.05.24-.37-.01-.73-.02-1.09-.04-.32-.01-.85,0-1.09-.04-.14-.02-1.08,0-1.08-.04,0,0,1.02-.24,1.04-.24-.32.02-.76-.07-1.09-.04-.26.02-.81.2-1.05.24-.37.07-.74.17-1.04.24-.2.05-.78.21-1.04.24-.04,0-1.09-.04-1.09-.04,0,0,.28-.07.55-.13s.53-.11.5-.12c-.1,0-.94-.05-1.09-.04-.26.03-.81.2-1.05.24-.37.07-.74.17-1.04.24-.11.02-.92.23-1.04.24-.27.02-.88-.03-1.09-.04-.33-.01-.7-.04-1.09-.04-.22,0-.84-.06-1.09-.04-.23.02-.85.23-1.04.24-.34.02-.83-.03-1.09-.04l-1.09-.04,2.09-.48-2.18-.07-1.04.24c-.25.06-.71.19-1.04.24-.19.03-.86-.06-1.09-.04-.35.03-.7.2-1.05.24-.27.03-.8-.06-1.09-.04-.36.03-.69.2-1.04.24-.35.04-.69.21-1.05.24-.35.03-.73-.06-1.09-.04l-2.17-.07c.34-.08.71-.16,1.04-.24.15-.04,1.05-.21,1.04-.24,0,0-.29-.01-.56-.02-.28,0-.55-.01-.52-.02.31-.07.7-.16,1.05-.24l1.04-.24c.29-.07.68-.18,1.04-.24.25-.04.77-.21,1.04-.24.15-.01,1,.05,1.09.04.38-.07.72-.17,1.04-.24l1.04-.24,1.04-.24c.29-.07.68-.18,1.05-.24.14-.02.9.05,1.09.04.35-.03.69-.2,1.04-.24.35-.04.69-.21,1.04-.24.27-.03.84.07,1.09.04.3-.04.83-.19,1.05-.24.12-.03.89-.23,1.04-.24.14-.01,1,.05,1.09.04.07-.01.33-.07.57-.12.24-.05.47-.12.47-.12,0,0-1.03-.04-1.09-.04.36-.04.68-.21,1.04-.24.2-.02.92.03,1.09.04.38.01.71.02,1.09.04.37.01.73.02,1.09.04l1.09.04c.06-.05,1.05-.19,1.04-.24,0-.03-.94-.03-1.09-.04-.08,0-1.12-.03-1.09-.04.18-.07.75-.17,1.04-.24.12-.03.89-.23,1.04-.24.36-.03.73.07,1.09.04.36-.04.69-.21,1.04-.24.31-.03.79.07,1.09.04.36-.04.69-.21,1.04-.24.3-.03.8.07,1.09.04.41-.05.64-.19,1.04-.24.35-.04.69-.21,1.04-.24.36-.03.73.06,1.09.04,0-.03,1.12-.23,1.04-.24.13.02,1.08,0,1.1.04,0,.04-.99.18-1.05.24-.06.05-1.05.19-1.04.24,0,.04.95.01,1.09.04.2.04.85,0,1.1.04.71-.16,1.43-.3,2.15-.43.23-.04.77-.17,1.09-.18.1,0,1.01.1,1.11.12.16.01.92.13,1.11.14.19,0,.94-.11,1.09-.12.14-.02.92-.11,1.1-.1.38.02.73.18,1.1.2.31.02.81-.09,1.1-.06.43.04.68.19,1.09.25.34.05.74.22,1.08.27.3.03.81-.04,1.1,0,.32.05.76.26,1.07.31.23.03.92.04,1.1.05.13,0,.94.04,1.1.07.2.04.89.34,1.03.36.36.05.79.06,1.07.08.15.01.88.04,1.07.08.07.01,1.02.36,1.02.36,0,0-.28-.02-.55-.04-.27-.02-.54-.05-.52-.04.14.05.84.32,1.03.36.2.04.9.07,1.07.08.13.01.93.05,1.07.08.25.06.84.3,1.03.36.14.05.84.32,1.02.36.35.08.68.29,1.03.36.26.05.83.05,1.07.08.38.05.75.06,1.07.08.14.01.89.05,1.07.08.19.04.88.31,1.03.36.09.03.94.35,1.02.36.32.05.83.07,1.07.08.35.03.71.06,1.07.08.12,0,.93.05,1.07.08.25.06.83.29,1.03.36.16.05.83.32,1.03.36.14.03.98.06,1.07.08.37.12.7.25,1.03.36.25.09.9.29,1.03.36.07.04-1.06-.11-1.07-.08,0,0,.95.34,1.03.36.06.01,1.07.08,1.07.08,0-.04-1.09-.34-1.03-.36.07-.03.87.08,1.07.08.26,0,.73.06,1.07.08.14.01.9.05,1.07.08.2.04.87.31,1.02.36l1.03.36,2.07.74c.08-.03,1.08.16,1.09.11,0-.04-1.11-.36-1.05-.39.08-.03,1.05.15,1.1.11.04-.04-1.06-.34-1.06-.39,0-.05,1.02.14,1.1.11.04-.02,1.15.16,1.1.14.14.07,1.05.4,1.04.43,0,.04-1.15-.21-1.1-.16.06.06.85.34,1.04.43.25.11.71.32,1.02.45l1.02.47c.33.15.64.33,1,.49.35.18.65.33.99.5.09-.03,1.05.31,1.06.27,0-.03-1.06-.55-.98-.53.15,0,.81.2,1.07.27.29.07.71.16,1.07.28.16.04.78.5.96.57.28.13.79.19,1.06.32.23.11.79.51.94.61.04.03-1.03-.37-1.04-.35,0,0,.2.14.42.28.22.14.45.29.52.33.3.2.63.42.93.61l1.02.39c.12.05,1.03.42,1.02.4,0-.03-.98-.67-.91-.65.18.04.76.29,1.03.4.26.11.69.27,1.01.44.06.03.82.63.88.69.12.1.7.62.86.72.16.11.86.41.99.48l.98.51c.56.49,1.1,1.02,1.63,1.54.24.24.63.58.79.79.1.12.79.78.77.81-.02.03-.95-.65-.93-.58.03.1.69.67.76.81.09.14.65.64.75.81.08.01.87.65.9.61.02-.03-.8-.84-.73-.84.08.01.73.51.91.62.23.14.63.42.9.63.26.19.59.41.89.65.04.02.65.81.69.88.09.12.54.76.67.89.15.15.73.59.85.68.24.2.55.42.83.68.17.16.65.49.83.68.11.12.55.81.63.88.28.26.58.48.83.68l.83.68.83.68,1.27,1.77c-.25-.25-.58-.42-.83-.68-.15-.17-.5-.75-.63-.88-.24-.24-.63-.52-.83-.68l-.83-.68,1.27,1.77.83.68c.1.08.73.57.83.68.11.12.55.8.63.88.28.26.59.49.83.68l.83.68c.11.09.69.54.83.68.13.13.55.76.63.88.07.1.66.88.63.89-.02-.02-.8-.66-.83-.68.09.13.5.74.63.88.2.22.64.47.83.68.09.1.58.83.63.88.05.04.25.22.45.38.19.16.37.31.38.3-.01-.02-.63-.88-.63-.88.17.16.65.49.83.68.2.22.43.68.63.88.23.24.61.49.83.68.29.26.57.47.83.68.11.09.71.55.83.68.05.05.63.88.63.88-.03.03-.74-.66-.83-.68-.08-.02-.79-.72-.83-.68-.01.02.55.77.63.89.11.15.48.72.63.88.18.19.66.54.83.71.29.25.58.51.82.73.14.12.66.55.82.75.04.04.59.95.59.95-.01-.01-.77-.72-.8-.76.26.33.34.61.59.94.17.23.59.53.78.77.17.21.4.78.55.97.2.24.59.62.75.8l.74.82c.18.2.51.56.72.84.12.16.35.82.47,1.01.19.29.52.57.69.86.19.33.26.7.44,1.03.18.32.48.56.66.89.17.33.22.72.39,1.05.18.33.44.58.62.91.01.03.1.29.2.55.08.26.16.51.16.51-.01-.02-.56-.87-.6-.93.17.33.2.72.35,1.06.13.28.47.66.58.93.15.37.16.7.31,1.07.13.31.41.63.54.95.09.2.2.91.27,1.08.14.32.38.73.51.96l.49.95c.05.1.45.83.49.95.08.26.19.86.23,1.06l.23,1.06c.06.26.23.92.23,1.06,0,.08-.46-.96-.49-.95-.04.02.25.98.23,1.06l.49.95c.06.11.48.97.49.95,0-.03-.23-1.04-.23-1.06.08.17.42.74.49.95.1.28.13.79.23,1.06.15.39.34.57.49.96.1.26.13.78.23,1.06.07.19.42.8.49.95.09.18.4.72.49.95.05.14.21.94.23,1.06.03.14.17.88.23,1.06.06.18.42.82.49.96.06.11.44.81.49.95.07.22.2.89.23,1.06.04.17.16.85.23,1.06.12.35.11.72.23,1.06.09.25.39.74.49.96.16.34.35.67.49.95.06.12.44.8.49.95.12.35.11.72.23,1.06.1.29.4.68.49.95.11.32.16.78.23,1.06.1.38.16.73.23,1.06.03.13.18.91.23,1.06.07.2.42.81.49.95l.49.95c.17.32.33.64.49.96-.05-.15-.19-.97-.24-1.06.1.21.4.71.49.95.07.18.2.91.23,1.08.08.35.18.82.23,1.1,0,.03-.11-.22-.23-.48-.12-.26-.25-.52-.25-.52-.02.01.19.94.22,1.09.06.29.19.89.2,1.09.01.23.16.85.18,1.1.12.35.32.66.42,1.01.08.3.06.82.14,1.1.09.33.28.74.37,1.03.12.38.26.72.37,1.03.08.24.26.73.33,1.05.05.22.01.87.06,1.12.04.3.26.77.29,1.06.02.21-.01.94.01,1.11.05.34.19.82.25,1.07.02.12.25.93.24,1.08.01.25-.05.93-.07,1.12-.02.35-.05.72-.08,1.12-.01.23-.11.86-.11,1.11.01.23.17.89.15,1.09-.02.35-.11.84-.15,1.1-.04.37-.11.73-.17,1.1l.09,1.09c.02.13.04,1.11.06,1.1.05-.03.19-1.14.22-1.1.04.05.15-1.1.19-1.1.03,0,.08.95.09,1.1.04.35.04.75.06,1.11-.15.74-.3,1.47-.49,2.2-.05.36-.23.72-.27,1.09-.05.36.03.74-.03,1.1-.06.37-.25.71-.31,1.08-.02.11-.06,1.05-.07,1.1-.05.14-.33,1.07-.35,1.06-.04,0,.11-1.02.08-1.1-.03-.08.12-1.09.07-1.09-.04,0-.31,1.1-.35,1.06-.03-.04-.3,1.01-.35,1.05l-.23,2.17c-.03.26-.06.73-.13,1.07-.04.19-.35.79-.4,1.01-.03.12-.13,1-.13,1.06,0,.14-.16,1.05-.13,1.06-.11.38-.29.62-.4,1.01-.1.35-.31.66-.4,1.01-.07.26-.09.83-.13,1.07-.06.37-.09.75-.13,1.06-.02.13-.08.9-.13,1.06-.02.07-.4,1.01-.4,1.01,0,0,.02-.24.05-.5.03-.26.07-.52.08-.57-.06.27-.33.72-.4,1.01-.05.2-.11.9-.13,1.06-.04.3-.06.7-.13,1.06-.06.29-.05.77-.13,1.07-.03.11-.4.96-.4,1.01-.02.15-.15,1.06-.13,1.06-.1.33-.32.68-.4,1.01-.05.19-.11.9-.13,1.06-.02.15-.08.9-.13,1.06-.06.21-.34.85-.4,1.01-.05.12-.37.86-.41,1.02-.07.28-.07.83-.15,1.09-.11.35-.35.68-.45,1.03-.09.3-.09.81-.2,1.09-.12.34-.37.67-.49,1.01-.12.34-.39.65-.51.99-.07.2-.22.91-.26,1.07-.04.12-.22.95-.28,1.07-.04.09-.57.97-.57.97,0,0,.28-1.01.3-1.06-.15.34-.42.62-.56.96-.1.25-.24.82-.32,1.05-.13.36-.23.74-.34,1.05-.06.16-.26.84-.36,1.04-.07.15-.57.81-.64.92-.07.11-.58.77-.66.91-.08.15-.35.92-.42,1.02-.22.32-.49.62-.69.88-.23.3-.47.58-.71.86-.08.09-.64.75-.72.85-.05.08-.5.98-.5.98.03.02.74-.9.74-.83,0,.08-.42.79-.5.98-.11.25-.36.67-.52.97-.07.12-.43.83-.54.97-.05.07-.79.8-.79.8-.03-.02.63-.98.56-.95-.06.02-.64.65-.79.79-.11.11-.69.62-.81.77-.19.24-.39.7-.58.92-.18.2-.64.54-.8.74-.25.32-.33.58-.58.9l.8-.74c.19-.18.68-.66.8-.74.07-.04-.6.89-.58.91,0,0,.22-.19.42-.39.2-.19.4-.38.38-.35-.05.08-.48.79-.58.9-.23.27-.56.47-.8.74-.08.03-.76.76-.8.74-.03-.02.64-.92.58-.9-.07.02-.65.6-.8.74-.13.12-.64.55-.8.74-.19.22-.39.68-.58.9-.16.19-.65.59-.8.74-.29.29-.51.45-.8.74-.22.28-.35.63-.57.9-.14.17-.68.58-.8.74-.2.27-.44.68-.58.91-.19.3-.38.6-.57.9l-.58.9-1.15,1.81c-.08.03-.76.76-.8.73-.02-.01.5-.77.58-.9.12-.2.55-.81.58-.9.02-.07-.77.76-.8.74-.02-.02.64-.95.58-.9-.06.05-.7.62-.8.73-.21.24-.37.65-.58.9-.13.16-.68.62-.8.74-.28.26-.52.48-.8.74,0,.08-.61.87-.58.9.02.02.83-.81.8-.74-.05.13-.44.68-.58.9-.17.26-.36.6-.58.9-.03.03-.74.68-.8.74-.12.11-.66.57-.8.74-.11.13-.5.79-.58.91l-.58.9c-.1.15-.43.72-.58.9-.03.04-.8.74-.8.74,0,0,.54-.87.58-.9-.24.27-.57.46-.8.73-.23.27-.35.63-.58.9-.23.27-.57.46-.8.74-.23.27-.36.63-.58.9-.22.28-.35.63-.58.9-.19.23-.62.52-.8.74-.23.29-.34.62-.57.9-.13.15-.68.62-.8.74-.13.12-.67.58-.8.74-.13.16-.49.77-.58.9-.08.13-.46.77-.58.9-.23.28-.57.46-.82.74-.15.17-.48.77-.62.91-.24.25-.64.56-.84.74-.09.09-.76.6-.87.71-.17.17-.56.73-.67.87l-.67.88c-.23.29-.47.56-.71.84-.48.56-.97,1.12-1.45,1.68l-1.91,1.19.76-.8c.18-.19.68-.68.76-.8.04-.07-.93.61-.95.59,0,0,.2-.21.4-.41.2-.2.39-.4.36-.38-.09.05-.83.49-.95.59-.28.23-.48.55-.75.79-.28.24-.47.57-.77.78-.12.09-.9.47-.98.54-.05.05-.25.23-.44.4-.19.17-.36.35-.36.35,0,0,.95-.51.98-.54-.27.21-.52.55-.81.75-.16.13-.84.44-1,.51-.07.03-1.01.48-1.01.48-.11.1-.86.69-.84.71.02.04.98-.52,1.01-.48.03.04-.88.67-.85.71.01.02,1.07-.55,1.01-.48-.03.04-.75.65-.85.71-.31.21-.71.27-1.03.45-.09,0-1.02.47-1.04.43-.02-.03.95-.66.88-.66-.04,0-.9.36-1.04.43-.27.14-.76.27-1.03.42-.27.14-.64.49-.91.61-.19.09-.9.29-1.05.37-.3.16-.7.48-.93.6-.13.08-.77.49-.95.56-.18.08-.92.27-1.07.31-.13.05-.93.24-1.08.28-.27.11-.71.42-.97.51-.34.12-.74.13-1.08.25-.29.12-.71.38-1,.47-.31.09-.8.1-1.1.2-.22.07-.84.38-1,.46-.12.05-.87.37-1.02.4-.29.07-.85.06-1.11.14-.35.09-.67.33-1.03.39-.3.06-.84.01-1.12.08-.24.05-.83.31-1.05.35-.3.06-.89.05-1.12.05-.27,0-.97.04-1.12.02-.08-.01,1.06-.26,1.06-.29,0,0-1.04,0-1.12.01-.07,0-1.06.29-1.06.29,0,.03,1.19-.05,1.12-.01-.13.06-.8.22-1.06.29-.23.07-.76.21-1.08.25-.09.01-1.02-.04-1.12-.05-.31-.01-.74-.05-1.12-.05-.27,0-.82-.11-1.11-.1-.21,0-.92.15-1.08.17-.28.04-.74.15-1.09.17-.21.01-.84-.14-1.08-.14-.2,0-.9.12-1.06.14-.13.02-.92.14-1.06.14-.28,0-.86-.11-1.08-.14-.17-.02-.87-.14-1.08-.14-.12,0-1.01.15-1.07.14-.14-.02-1.08-.12-1.08-.14,0-.04,1.12-.1,1.06-.14-.02-.01-1-.14-1.08-.14-.34,0-.73-.14-1.08-.14-.36,0-.71.13-1.07.14-.35,0-.7.14-1.06.14-.18,0-.93-.15-1.08-.14-.37.03-.77.1-1.06.14l-1.06.14-1.06.14c-.35.05-.71.09-1.06.14-.17.02-.84.14-1.06.14-.06,0-1.08-.14-1.08-.14,0-.03,1.14-.12,1.07-.14-.14-.04-.82-.11-1.08-.14-.17-.02-.85-.14-1.08-.14-.15,0-.93.12-1.06.14-.12.02-1.08.12-1.06.14l1.08.14c-.27.02-.78.14-1.06.14-.36,0-.72-.13-1.08-.14-.36,0-.72-.14-1.08-.14-.32,0-.75.15-1.07.14-.37,0-.74-.14-1.11-.15-.31,0-.8.13-1.1.11-.3-.02-.82-.18-1.11-.2-.26,0-.91.06-1.1.06-.13,0-.95.06-1.11.04-.4-.04-.7-.2-1.1-.26-.28-.03-.85.04-1.11,0-.05-.01-.32-.08-.58-.15-.26-.07-.5-.15-.5-.15,0-.03.95.04,1.1.02.23-.02.78,0,1.1,0l1.1-.02c-.37-.05-.72-.22-1.09-.26-.3-.04-.8.05-1.1,0-.21-.03-.89-.28-1.07-.3-.33-.04-.84-.03-1.08-.04-.35-.01-.71-.03-1.07-.04-.2,0-.8,0-1.07-.04-.27-.04-.75-.27-1.04-.32-.35-.06-.72.02-1.07-.04-.35-.06-.69-.26-1.04-.32-.34-.06-.73.02-1.07-.04-.36-.06-.68-.26-1.04-.32-.3-.05-.79.02-1.07-.04-.19-.04-.88-.3-1.04-.32-.34-.04-.81-.03-1.07-.04-.35-.01-.71-.03-1.07-.04-.11,0-.95-.01-1.07-.04-.26-.05-.85-.26-1.04-.32-.25-.08-.91-.25-1.04-.32-.07-.04,1.07.07,1.07.04,0-.04-.91-.26-1.04-.32-.2-.09-.81-.22-1.04-.32-.71-.03-1.43-.05-2.14-.08-.35-.01-.71-.03-1.07-.04-.2,0-.8,0-1.07-.04-.04,0-1.04-.32-1.04-.32,0,0,.28,0,.56.02.28.02.54.03.51.02-.09-.03-.9-.29-1.04-.32-.3-.05-.79.02-1.07-.04-.21-.04-.87-.3-1.04-.32-.32-.04-.83-.03-1.07-.04l-1.07-.04-1.07-.04c-.06-.06-1.05-.27-1.04-.32,0-.04,1.12.08,1.07.04-.04-.03-1.11-.31-1.04-.32.13-.02.82.03,1.07.04.24,0,.96.06,1.07.04.07-.02-1.03-.28-1.04-.32l-1.07-.04c-.31-.01-.84-.05-1.07-.04-.15,0-1.07-.07-1.07-.04,0,.03,1.12.3,1.04.32-.12.02-.82-.03-1.07-.04-.13,0-1.09-.06-1.07-.04.01.03,1.11.31,1.04.32-.06,0-.95-.02-1.07-.04-.35-.06-.69-.25-1.04-.32-.06-.06-1.05-.27-1.04-.32,0,0,1.1.05,1.07.04-.17-.05-.83-.28-1.04-.32-.2-.03-.91-.03-1.07-.04-.09,0-1.01-.02-1.07-.04-.35-.08-.76-.23-1.04-.32l-1.04-.32-1.04-.32c-.31-.1-.66-.22-1.05-.32-.31-.08-.71-.26-1.06-.34-.28-.05-.79-.02-1.09-.08-.22-.05-.86-.33-1.04-.37-.34-.07-.82-.09-1.09-.12-.13,0-1.1-.17-1.09-.15,0,0,.24.11.49.21.25.1.51.2.55.21-.35-.08-.75-.05-1.09-.15-.36-.1-.68-.33-1.03-.44-.35-.12-.66-.35-1.01-.46-.26-.07-.85-.11-1.08-.21-.29-.11-.79-.39-1-.5-.24-.13-.67-.38-.99-.52-.18-.08-.85-.17-1.06-.27-.3-.12-.68-.44-.96-.55-.24-.09-.87-.26-1.05-.32-.13-.04-.91-.26-1.05-.33-.15-.08-.83-.57-.94-.61-.35-.13-.74-.27-1.03-.38-.34-.13-.69-.25-1.03-.39-.13-.05-.87-.33-1.03-.42-.19-.1-.75-.58-.88-.69-.24-.2-.57-.47-.88-.7-.21-.16-.61-.56-.85-.72-.18-.11-.83-.41-.98-.49-.23-.12-.7-.33-.98-.51-.21-.14-.59-.61-.81-.77-.16-.11-.85-.44-.95-.54-.28-.25-.56-.55-.78-.77-.26-.25-.52-.51-.78-.77-.19-.19-.69-.64-.77-.76-.05-.07.91.56.93.53.03-.04-.74-.68-.77-.76-.31-.18-.62-.35-.93-.53-.27-.16-.72-.43-.93-.53-.13-.06-.91-.56-.93-.53-.14-.13-.59-.63-.77-.76-.24-.18-.71-.35-.93-.53-.32-.26-.45-.5-.77-.76-.26-.21-.5-.56-.78-.77-.16-.12-.79-.45-.93-.53-.11-.06-.82-.44-.93-.53-.2-.16-.64-.63-.77-.76-.08-.08-.69-.7-.78-.77-.24-.17-.75-.45-.94-.56l-.93-.58c-.15-.1-.74-.44-.92-.6-.11-.1-.66-.74-.74-.84-.18-.2-.48-.61-.72-.86-.14-.14-.72-.48-.88-.65-.18-.18-.52-.73-.69-.88-.24-.22-.66-.53-.85-.69-.28-.23-.57-.46-.84-.7-.56-.48-1.12-.96-1.65-1.47-.21-.31-.41-.63-.6-.95-.14-.23-.53-.81-.58-.95-.03-.08.77.79.79.77.02-.01-.5-.82-.58-.95-.12-.21-.38-.72-.55-.96-.17-.24-.58-.54-.75-.79-.21-.3-.32-.68-.52-.98-.47-.55-.97-1.09-1.42-1.67-.22-.27-.46-.53-.69-.85-.05-.07-.37-.9-.44-1.03-.04-.05-.65-.87-.66-.88,0,0,.1.27.21.53.11.26.22.51.22.51-.13-.18-.54-.67-.66-.89-.15-.27-.27-.79-.41-1.04-.2-.37-.42-.55-.62-.91,0-.1-.4-1.02-.36-1.04.03-.02.59.97.6.9,0-.06-.3-.85-.36-1.04-.06-.16-.26-.85-.35-1.03-.09-.18-.5-.75-.59-.89-.06-.09-.55-.8-.59-.89-.02-.05-.11-.31-.2-.55-.08-.24-.16-.48-.16-.48,0,0,.55.81.59.89-.13-.25-.22-.77-.35-1.03-.03-.06-.59-.89-.59-.89-.01.03.39,1.08.35,1.03-.13-.16-.43-.64-.59-.89l-.59-.89c-.12-.34-.23-.69-.35-1.03-.04-.12-.37-1.03-.35-1.03.06,0,.56.92.59.89.04-.03-.39-1.01-.35-1.03,0,0,.16.23.31.47s.29.46.29.43c-.04-.13-.26-.84-.35-1.03-.12-.26-.46-.62-.59-.89-.16-.32-.2-.71-.35-1.03l-.59-.89c-.08-.12-.57-.9-.59-.89-.02.01.3.89.35,1.03l.35,1.03-.59-.89c-.1-.15-.48-.68-.59-.89-.07-.13-.31-.91-.35-1.03l-.35-1.03-.35-1.03c-.04-.11-.29-.91-.35-1.03-.04-.08-.59-.89-.59-.89-.03.01.4,1.08.35,1.03-.1-.1-.45-.67-.59-.89-.15-.23-.42-.59-.59-.89-.08-.15-.26-.84-.35-1.03-.13-.27-.47-.63-.59-.89-.17-.38-.18-.65-.35-1.03-.15-.32-.2-.71-.35-1.03-.06-.12-.57-.81-.59-.89-.14-.37-.24-.7-.35-1.03-.08-.25-.33-.89-.35-1.03-.01-.08.57.9.59.89.04-.02-.36-.94-.35-1.03l-.59-.89c-.03-.05-.18-.28-.32-.49-.14-.22-.27-.42-.28-.41,0,0,.08.26.17.52.09.25.18.51.18.53-.16-.3-.44-.58-.6-.91-.16-.33-.2-.73-.35-1.06-.15-.33-.42-.6-.57-.94-.14-.32-.18-.75-.3-1.08-.13-.33-.15-.75-.28-1.08-.09-.21-.46-.78-.52-.97-.1-.33-.19-.82-.24-1.09-.02-.11-.18-.99-.22-1.09-.09-.27-.37-.8-.45-1-.16-.33-.29-.67-.44-1.01-.29-.67-.56-1.36-.82-2.05l-.11-1.11c-.01-.14-.11-1.13-.09-1.12.03.02.35,1.12.36,1.04,0-.19-.06-.82-.09-1.11-.03-.36-.06-.81-.06-1.11,0-.31-.04-.78-.04-1.1-.21-.7-.39-1.4-.57-2.11-.07-.3-.18-.87-.25-1.07-.05-.13-.19-1.08-.23-1.07,0,0-.02.3-.03.58-.01.29-.01.57-.02.54-.04-.11-.22-.91-.23-1.08-.03-.37.07-.74.06-1.1-.03-.35-.19-.69-.21-1.05,0-.07.06-1.08.06-1.08.05.03.17,1.06.21,1.05.05-.01.02-1.08.06-1.09,0,0,.06.26.11.52.05.26.1.52.1.53,0-.29.09-.78.06-1.09-.02-.3-.2-.76-.21-1.05-.01-.3.09-.8.06-1.08-.02-.24-.18-.87-.21-1.05-.03-.13-.21-.9-.21-1.05-.02-.32.09-.77.06-1.08-.03-.36-.19-.69-.21-1.05-.02-.3.09-.8.06-1.09-.04-.38-.18-.66-.21-1.05-.03-.33.09-.75.06-1.08-.02-.29-.2-.78-.21-1.05,0-.05.01-.32.03-.58.02-.26.04-.51.04-.51,0,0,.21.98.21,1.05-.03-.35.09-.73.06-1.09-.01-.2-.18-.89-.21-1.05-.04-.2-.19-.79-.21-1.05-.03-.31.09-.77.06-1.08-.02-.3-.2-.76-.21-1.05-.01-.24.09-.87.06-1.09-.03-.29-.17-.83-.21-1.05-.03-.12-.2-.89-.21-1.05-.01-.18.08-.94.06-1.08-.05-.36-.16-.77-.21-1.05-.03-.17-.2-.83-.21-1.05-.03-.33.09-.75.06-1.09-.02-.22-.21-.86-.21-1.05,0-.34.06-.84.08-1.11,0-.12.08-.98.09-1.11-.01-.26-.14-.89-.17-1.08-.06-.36-.09-.73-.14-1.09-.02-.15-.14-.9-.13-1.1.01-.36.17-.74.18-1.1,0-.23-.1-.9-.08-1.1.04-.35.16-.83.22-1.1.05-.23.21-.78.25-1.09.04-.34.21-.74.26-1.08.04-.3-.04-.81,0-1.1.03-.21.29-.9.31-1.07.04-.33.03-.84.05-1.1,0-.09.05-1.03.07-1.1.08-.34.28-.79.37-1.06.05-.14.35-1.05.39-1.04.01,0-.02.23-.04.49-.03.25-.06.52-.07.6,0,.08-.12,1.11-.1,1.09.09-.21.26-.8.37-1.04.06-.72.15-1.44.24-2.17.04-.36.1-.72.16-1.08l.17-1.08c.05-.25.12-.76.2-1.08.02-.08.44-.92.49-1.01.07-.15.43-.8.51-.99.06-.17.23-.93.27-1.07.03-.12.21-.92.28-1.06.12-.27.47-.71.57-.96.13-.34.16-.71.31-1.03.12-.27.46-.67.57-.93.16-.38.15-.65.31-1.03.11-.27.44-.65.57-.93.08-.18.26-.87.31-1.03.08-.24.19-.73.31-1.03.09-.22.46-.69.57-.92.08-.18.23-.88.31-1.03.03-.05.17-.28.3-.51.13-.22.27-.42.27-.42.04.02-.32.94-.31,1.03.01.08-.35,1.01-.31,1.03.04.01.48-.82.57-.93.13-.16.43-.74.57-.92.21-.68.41-1.37.62-2.05.1-.34.2-.68.31-1.03.1-.34.2-.68.31-1.03.04-.13.24-.88.31-1.03.09-.2.48-.78.57-.92.07-.11.56-.95.57-.93,0,0-.06.24-.14.48-.08.24-.16.49-.17.54.11-.26.45-.65.57-.93.03-.06.31-1.03.31-1.03-.03.01-.58.99-.57.93.04-.2.22-.74.31-1.03l.31-1.03c.16-.32.42-.6.57-.93.12-.27.2-.78.33-1.05.08-.17.54-.87.6-.95.05-.06-.36,1.04-.34,1.05.04.02.59-1.01.6-.94,0,.09-.37.98-.34,1.04.02.05.54-.91.6-.93.25-.69.5-1.37.75-2.05.04-.1.36-.93.41-1.02.03-.04.19-.27.35-.48.16-.21.33-.4.33-.4,0,0-.46,1.04-.42,1.01.09-.12.57-.73.67-.88.11-.18.37-.84.45-1,.05-.12.38-.87.47-.99.15-.22.6-.69.73-.85.11-.14.61-.63.74-.82.22-.3.54-.51.75-.81.12-.17.46-.8.54-.94.11-.18.39-.73.55-.94.2-.25.6-.51.81-.76.2-.23.39-.71.59-.92.13-.14.74-.62.84-.73.22-.28.46-.67.63-.89.21-.29.43-.59.65-.88.21-.3.44-.58.67-.87.3-.22.59-.45.89-.67.06-.05.28-.22.49-.36.21-.15.41-.29.41-.28.02.02-.62.71-.7.84-.16.21-.61.73-.68.86-.03.07.85-.68.88-.66l1.41-1.66c.21-.23.46-.54.74-.8.1-.09.79-.49.93-.6.16-.13.65-.66.77-.78.12-.12.6-.65.78-.77.15-.11.85-.47.97-.54.27-.15.66-.33.98-.52.23-.14.75-.34.99-.5.25-.17.57-.55.82-.7.35-.22.63-.26.98-.47.24-.15.57-.54.81-.69.17-.11.83-.4.98-.47.11-.06.86-.39.98-.47.08-.05.82-.7.82-.7-.02-.03-1.01.53-.98.47.02-.04.68-.59.81-.7.1-.07.84-.38.98-.47.27-.18.55-.53.81-.7.2-.13.82-.39.98-.47.33-.16.65-.31.98-.47.25-.12.68-.3.98-.47.26-.15.73-.31.98-.47.17-.11.69-.59.81-.69.06-.05.81-.7.81-.7.14-.06.97-.49.98-.47.01.02-.7.6-.81.7-.14.12-.8.65-.81.7-.01.06.96-.5.98-.47.02.03-.88.69-.81.69.1,0,.81-.41.98-.47.2-.07.75-.38.98-.47.03-.08.84-.66.81-.7-.02-.03-1,.53-.98.47.03-.07.67-.56.81-.7.19-.18.56-.48.81-.7.24-.2.66-.54.81-.69.1-.1.84-.67.82-.7-.03-.04-.9.47-.98.47l1.63-1.39c.65-.31,1.31-.63,1.96-.94l-.81.69c-.09.08-.84.69-.81.7.04.01.82-.4.98-.47.3-.15.67-.32.98-.47l1.64-1.39c.15-.13.62-.54.84-.69.03-.03,1.01-.44,1.01-.44.02.03-.93.66-.85.67.04,0,.86-.36,1.01-.43.11-.06.71-.58.86-.65.15-.08.91-.33,1.02-.4.05-.04.28-.19.49-.33.21-.14.4-.28.4-.28-.02-.03-1.07.43-1.03.37.04-.08.73-.49.89-.62.22-.16.62-.43.91-.61l.92-.59c.03-.07.97-.54.93-.57.04.03,1.04-.36,1.07-.3.01.03-1.01.54-.94.55.1.01,1.01-.34,1.06-.3.05.02-.95.51-.94.55,0,0,.24-.06.49-.13.25-.07.51-.15.57-.17ZM28.37,31.57s-.21.14-.43.29c-.22.16-.44.32-.48.34-.22.19-.48.62-.7.83-.26.26-.61.41-.88.66-.27.26-.62.4-.87.67-.05.05-.64.88-.64.88.02.01.74-.6.85-.69.19-.16.63-.46.87-.67.17-.15.5-.69.67-.85.26-.23.64-.4.9-.63.07-.06.68-.79.7-.82Z"/><path class="cls-2" d="M79.19,4.77c-.15,0-.91-.04-1.1,0-.07.01-1.04.29-1.04.29.01.04,1.02-.05,1.1-.02-.17.03-.92.28-1.04.29.36-.05.74.03,1.09-.01.34-.1.69-.19,1.04-.27.15-.04,1.05-.23,1.05-.26,0-.02-.95-.02-1.09-.02Z"/><path class="cls-2" d="M76.01,5.37c-.26.01-.76,0-1.1.06-.19.03-.8.31-1.02.35-.24.05-.87.08-1.09.11-.38.04-.76.09-1.09.13-.24.03-.77.08-1.09.15-.22.05-.76.37-.99.44-.35.11-.74.07-1.09.19-.33.11-.65.36-.98.47-.34.11-.73.12-1.08.24-.34.12-.74.12-1.08.25-.3.12-.66.4-.95.53.02-.01,1.07-.28,1.07-.28l-.95.53c.34-.14.72-.14,1.06-.27.32-.13.62-.38.95-.51.34-.12.73-.12,1.07-.23.34-.11.63-.36.97-.47.34-.12.74-.09,1.08-.19-.38.14-.59.3-.98.45-.27.1-.79.11-1.08.21-.18.05-.83.43-.96.49-.18.09-.92.45-.95.5-.04.05,1.05-.28,1.06-.25,0,0-.2.12-.43.23-.22.12-.46.24-.52.27-.05.02-.97.25-1.05.27-.14.03-.89.22-1.05.29-.19.09-.78.46-.92.56-.27.17-.57.39-.9.58-.21.11-.66.48-.89.59-.1.05-.98.33-1.02.37-.29.22-.58.42-.86.63-.21.14-.77.54-.85.64-.05.05.95-.42,1-.41.07,0-.87.6-.84.64.02.03.91-.42.99-.4.56-.42,1.14-.83,1.72-1.23.29-.2.59-.41.88-.59.19-.12.63-.44.89-.58.21-.11.8-.2,1.04-.31.21-.09.73-.48.92-.54.32-.11.79-.2,1.05-.27.08-.02,1.01-.23,1.05-.24.33-.15.68-.36.94-.48.25-.12.81-.37.96-.46.06-.04-1.04.22-1.07.21-.02-.01.85-.41.96-.47.32-.16.65-.3.97-.45.34-.05.74-.14,1.08-.17.17-.02,1.04-.17,1.08-.14.02.02-.87.36-.99.41-.33.13-.65.29-.98.43.71-.12,1.42-.21,2.13-.3.33-.14.66-.26.99-.39l.99-.37c.29-.1.81-.26,1.01-.35.06-.03-1.06.09-1.08.08-.02-.02.89-.31,1.01-.35.33-.12.65-.23,1.02-.33.17-.05.82-.29,1.03-.32-.37.03-.78.03-1.09.05Z"/><path class="cls-2" d="M77.09,207.17c-.08-.03-.9-.29-1.04-.32-.36-.06-.71.02-1.07-.04.05,0,1.04.32,1.04.32,0,0,.29,0,.56.02.28.02.54.03.51.02Z"/><path class="cls-2" d="M7.11,135.32c.02.06.14.3.24.52.11.22.22.42.22.42.02,0-.18-.9-.2-1.05-.02-.04-.4-.86-.44-.95.04.14.14.96.18,1.05Z"/><path class="cls-2" d="M4,106.9s.07-1.02.06-1.09c0-.12-.19-.99-.21-1.05-.03-.07-.04,1.08-.06,1.09.06.1.16,1.01.21,1.05Z"/><path class="cls-2" d="M30.25,31.99s.85-.53.9-.57c.27-.21.46-.53.73-.75-.03.03-.92.54-.92.54.05-.03-.72.74-.72.78Z"/><path class="cls-2" d="M87.88,5.22s1.08-.01,1.09.04c0,.05-1.05.19-1.04.24,0,.05,1.01,0,1.09.04l2.09-.48-2.18-.07c-.06.05-1.05.19-1.04.24Z"/><path class="cls-2" d="M208.53,170.41c.21-.31.41-.64.58-.9.08-.13.6-.89.58-.9,0,0-.75.68-.8.73-.11.13-.5.79-.58.9-.19.3-.38.6-.58.91.09-.11.75-.67.8-.74Z"/><path class="cls-2" d="M196.72,184.27s-.76.68-.8.74c-.23.28-.35.62-.58.9.03-.04.8-.74.8-.74,0,0,.56-.88.58-.9Z"/></svg>