<?xml version="1.0" encoding="UTF-8"?><svg id="Layer_1" xmlns="http://www.w3.org/2000/svg" viewBox="0 0 203.6 213.11"><defs><style>.cls-1{fill:none;}.cls-2{fill:#d71b5a;}</style></defs><path class="cls-2" d="M1.58,12.52c-.92,47.96,3.58,96.01,13.37,142.96,2.42,11.58,5.38,23.57,13.01,32.61,10.17,12.06,26.58,16.57,42.09,19.45,16.85,3.12,34.09,5.07,51.13,3.26,17.04-1.81,33.99-7.58,47.17-18.53,16.1-13.37,25.45-33.47,29.68-53.97,4.23-20.5,3.79-41.63,3.34-62.55-.38-17.49-.75-34.99-1.13-52.48-.1-4.55-.3-9.43-3-13.1-3.94-5.37-11.52-6.13-18.17-6.42C127.16,1.47,74.99-.81,23.31,4.78,14.43,5.74,4.06,8.03.54,16.23"/><path class="cls-1" d="M2.6,79.51c.03-.07.03-.9.04-1.11,0-.03-.22-1.02-.23-1.07-.04.08,0,1.11-.04,1.11.04,0,.2,1.14.23,1.07Z"/><path class="cls-1" d="M1.17,23.48l-.14-1.09c-.03-.26-.13-.74-.14-1.09l-.28,2.21.29,2.18.27-2.21Z"/><path class="cls-1" d="M179.01,183.23c-.09.12-.6.92-.6.94,0,0,.78-.73.82-.78.17-.2.44-.77.6-.94-.13.16-.73.65-.82.78Z"/><path class="cls-1" d="M181.98,179.86s-.68.71-.79.82c-.17.18-.57.56-.78.81-.14.19-.41.75-.58.95.29-.32.55-.49.81-.79.17-.19.62-.6.79-.82.05-.06.55-.97.55-.97Z"/><path class="cls-1" d="M185.44,169.26s.61-.82.65-.89c.03-.06.4-1,.4-1-.03-.01-.67.97-.65.89.06-.06-.42.99-.4,1.01Z"/><path class="cls-1" d="M5.91,87.86s-.04,1.03-.03,1.11c0,.06.25,1.07.25,1.07.04,0-.02-1.16.03-1.11-.02.08-.22-1.07-.25-1.07Z"/><path class="cls-1" d="M198.25,15.78c-.07-.25-.03-.76-.12-1.03,0-.07-.43-.93-.44-.91,0,.01.05.27.11.53.04.26.09.5.07.47.02-.01.36.85.39.94Z"/><path class="cls-1" d="M201.4,27.34c-.04-.24-.12-.98-.16-1.08-.03-.07-.08,1.09-.12,1.11.06.36.11.72.16,1.08.02.13.14,1.1.16,1.08.03-.03.09-1.18.12-1.11-.03,0-.14-.93-.16-1.08Z"/><path class="cls-1" d="M85.38,2.67c-.29.01-.8-.13-1.11-.13-.07,0-1.08.15-1.08.15.02.02,1.17.11,1.11.13,0,0,.25-.04.51-.08.26-.03.53-.07.58-.07Z"/><path class="cls-1" d="M9.22,8.4c-.37.19-.57.37-.91.59.32-.17.72-.19,1.04-.34.33-.14.58-.43.92-.56-.29.1-.79.19-1.06.31Z"/><path class="cls-1" d="M134.59.87c-.37.01-.8.08-1.09.11-.29.03-.72.1-1.09.11-.17,0-.9-.17-1.1-.17-.26,0-.85.09-1.09.11-.39.02-.77.08-1.09.11l-1.09.11c.37.02.74.16,1.1.17.37,0,.73-.12,1.1-.11.37,0,.74.16,1.1.17.36.01.72-.12,1.09-.11.36.01.73-.12,1.09-.11.2,0,.93.15,1.1.17.08.01,1.08.17,1.1.17.07,0,.34-.03.6-.05.26-.02.49-.05.49-.06,0-.03-.95-.15-1.1-.17-.07-.01-1.08-.17-1.1-.17.22-.01.84-.11,1.09-.11-.19,0-.95-.18-1.1-.17Z"/><path class="cls-1" d="M12.41,7.62s1.05-.19,1.07-.19c-.05-.03,1-.37.99-.41,0,0-.24.02-.5.06-.26.04-.53.08-.59.09,0,0-.25.11-.49.22-.24.11-.48.23-.48.23Z"/><path class="cls-1" d="M57.95,2.79c.29,0,.77-.18,1.08-.19-.35,0-.76-.1-1.11-.08-.09,0-1.05.18-1.08.19,0,0,.25.02.52.05.27.02.55.04.59.04Z"/><path class="cls-1" d="M60.14,2.68c.37-.02.74.1,1.11.09.07,0,1.08-.19,1.08-.19,0-.03-.96-.07-1.11-.09-.25-.02-.78-.09-1.11-.08-.23,0-.84.19-1.08.19.37-.02.74.1,1.11.08Z"/><path class="cls-1" d="M75.35.76s.95.1,1.11.12c.35.04.75.08,1.11.11.07-.05,1.09-.12,1.08-.16,0-.03-.96-.1-1.11-.11-.09-.01-1.02-.12-1.11-.11.08.01-1.09.14-1.08.16Z"/><path class="cls-2" d="M198.63,122.72s-.06.23-.13.51-.14.56-.14.56c0,0,0-.29,0-.56s0-.55,0-.52c-.03.12-.24.9-.26,1.07-.02.19.01.94.02,1.08,0,.15,0,1.09.02,1.09.05,0,.21-1,.26-1.07.05-.36.22-.71.26-1.07.02-.15,0-.99-.02-1.09Z"/><path class="cls-2" d="M139.05,3.52c-.37,0-.72.12-1.09.11-.16,0-1-.18-1.1-.17-.07,0-.34.03-.6.05-.26.02-.49.06-.49.06,0,0,.24.05.5.09.26.04.54.08.6.09.27.03.81.16,1.1.17.19,0,.94-.09,1.09-.11.15-.01,1.09-.08,1.09-.11,0-.05-1.03-.12-1.1-.17Z"/><path class="cls-2" d="M82.42,207.67s-.23-.08-.48-.14c-.25-.07-.52-.13-.59-.15-.05,0-.97-.02-1.09-.02-.29-.03-.76-.26-1.06-.3-.36-.06-.73.02-1.09-.03.34.1.73.21,1.06.31.15.05,1.07.28,1.07.3.35,0,.74.01,1.09.02.15,0,1.08.04,1.09.02Z"/><path class="cls-2" d="M199.32,52.78s-.12,1.04-.11,1.11c0,.36.15.72.16,1.08,0-.05.11-1.11.11-1.11,0-.02-.16-1.06-.16-1.08Z"/><path class="cls-2" d="M93.22,208.92s-1.01-.22-1.07-.24c-.37-.04-.72.06-1.08.03.06,0,1.07.25,1.07.25.02,0,.29,0,.56-.01.27-.01.53-.03.53-.03Z"/><path class="cls-2" d="M13.39,7.16c.29-.08.72-.35,1-.42.21-.06.91-.09,1.1-.13.31-.09.79-.29,1.02-.38l1.03-.35c.35-.11.69-.23,1.04-.33.33-.1.67-.21,1.05-.31.38-.1.72-.2,1.06-.3.13-.03.91-.27,1.07-.29.37-.04.75.05,1.11,0,.37-.05.7-.22,1.07-.25.11-.01,1.07.04,1.12.03.36-.08.71-.16,1.07-.25.26-.06.94-.19,1.07-.25.08-.03-1.11,0-1.11-.03,0-.04.98-.19,1.07-.25.06-.04-1.11,0-1.12-.03,0-.03.92-.21,1.07-.25.34-.08.73-.17,1.07-.25l2.23.06c-.07.05-1.08.2-1.07.25,0,.03.96.02,1.12.03.14,0,.91.05,1.12.03.33-.03.73-.21,1.07-.25.2-.02.94.04,1.12.04.09,0,1.07.06,1.11.05.06-.01.33-.07.59-.12.25-.05.49-.11.49-.11,0-.03-.96-.04-1.11-.05-.13,0-.95-.06-1.12-.05.37-.03.7-.2,1.07-.23.21-.02.94.04,1.12.05.31.01.73.06,1.11.05.39-.01.71.07,1.12.05.29-.02.77-.2,1.07-.23.34-.03.79.08,1.12.05.24-.02.9-.19,1.07-.23.32-.07.69-.17,1.07-.23.24-.04.81-.19,1.08-.21.15-.01,1.01.08,1.11.07.39-.06.75-.15,1.08-.21l1.08-.21,2.16-.42c.08.04,1.11.02,1.12.07,0,.04-1.14.18-1.08.21.08.05,1.07.02,1.11.07.03.04-1.08.17-1.08.21,0,.04.97.04,1.11.07.23.04.86.03,1.11.07l1.08-.21c.32-.06.85-.13,1.08-.19.14-.04,1.09-.16,1.08-.19.22.04.8.06,1.11.08.22.02.83.09,1.11.08.36,0,.76.1,1.11.08.21-.01.92-.17,1.08-.19.38-.07.7-.13,1.08-.19.38-.07.72-.13,1.08-.19.15-.03.9-.19,1.09-.19.21,0,.95.09,1.11.1.13.01,1.13.08,1.11.1,0,0-.27.05-.54.09-.27.04-.54.09-.54.09.25,0,.84.11,1.11.1.21,0,.92-.15,1.09-.18.3-.05.71-.14,1.08-.18.29-.03.77-.17,1.08-.18.16,0,1,.11,1.11.1.39-.05.76-.12,1.09-.18.36-.06.72-.12,1.08-.18l2.17-.34,2.22.23c.32.03.89.07,1.11.12.08.01-1.09.14-1.08.16,0,.03.95.1,1.11.12.35.04.75.08,1.11.11.07-.05,1.09-.12,1.08-.16,0-.03-.96-.1-1.11-.11-.09-.01-1.02-.12-1.11-.11.34-.02.74-.16,1.09-.16.21,0,.94.1,1.11.11.13.01.96.12,1.11.12.26-.01.89-.14,1.09-.16.12-.02.95-.17,1.09-.16.26,0,.91.11,1.11.13.13.01.95.13,1.11.13.19,0,.94-.16,1.09-.15.37.02.81.09,1.11.13.15.02.92.13,1.11.13.2,0,.93-.13,1.09-.15l1.09-.15c.18-.03.84-.14,1.09-.15.32,0,.77.13,1.11.13.3,0,.8-.15,1.09-.14.42.01.68.13,1.1.14.29,0,.79-.14,1.09-.14.21,0,.94.12,1.11.14.15.02.92.14,1.11.14.21,0,.93-.12,1.09-.14l1.09-.14c.24-.03.77-.13,1.09-.14.09,0,1.01.13,1.11.14.17.02.89.15,1.1.15.17,0,.96-.11,1.09-.13.36-.04.73-.09,1.09-.13.14-.02.91-.13,1.09-.13.21,0,.94.13,1.1.15.27.04.97.1,1.11.15.08.03-1.09.1-1.09.13,0,0,.24.04.51.08.26.03.54.07.6.07.29.02.8.15,1.11.15.31,0,.8-.14,1.09-.13.21,0,.93.16,1.1.16.34-.01.84-.09,1.09-.12.18-.02.85-.12,1.09-.12.33,0,.77.15,1.1.16.37,0,.73-.13,1.09-.12.37,0,.74.15,1.11.16.36,0,.74-.13,1.09-.12.37,0,.73.15,1.1.16.31,0,.8-.13,1.09-.12.3.01.82.16,1.1.17.25,0,.9-.09,1.09-.11.13-.01.93-.12,1.09-.11.19,0,.95.17,1.1.17.37-.01.8-.08,1.1-.11.2-.02.82-.11,1.09-.11.29,0,.79.16,1.1.17.31,0,.8-.13,1.09-.11.4.02.7.15,1.1.17.34.01.74-.12,1.09-.11.26,0,.86.18,1.1.17.31,0,.85-.08,1.09-.11l1.09-.11,1.09-.11,2.2.35-1.09.11c-.13.01-.93.11-1.09.11-.19,0-.95-.18-1.1-.17-.37.01-.8.08-1.09.11-.29.03-.72.1-1.09.11-.17,0-.9-.17-1.1-.17-.26,0-.85.09-1.09.11-.39.02-.77.08-1.09.11l-1.09.11c.37.02.74.16,1.1.17.37,0,.73-.12,1.1-.11.37,0,.74.16,1.1.17.36.01.72-.12,1.09-.11.36.01.73-.12,1.09-.11.2,0,.93.15,1.1.17.08.01,1.08.17,1.1.17.07,0,.34-.03.6-.05.26-.02.49-.05.49-.06,0-.03-.95-.15-1.1-.17-.07-.01-1.08-.17-1.1-.17.22-.01.84-.11,1.09-.11.21,0,.93.15,1.1.17.12.02.98.17,1.1.17.29,0,.87-.09,1.09-.11.13-.01,1.11-.09,1.09-.11-.04-.05-1.1-.13-1.1-.17,0-.05,1.09-.06,1.09-.11l2.2.36,1.1.18,2.18-.2,1.09-.1c.17-.02.87-.11,1.09-.1.06,0,1.1.18,1.1.18,0,.04-1.15.06-1.09.1.08.05,1.06.13,1.1.18.03.04-1.09.06-1.09.1,0,.04.96.14,1.1.18.22.06.85.12,1.1.18.37,0,.73-.11,1.09-.1.31.01.81.18,1.1.18.33,0,.82-.08,1.09-.1-.02,0-1.08-.18-1.1-.18,0,0,1.04-.1,1.1-.1.13,0,1.03.19,1.1.18.4-.02.74-.07,1.09-.1.37-.03.73-.06,1.09-.1.37-.03.73-.07,1.1-.1l2.19-.19c.07.05,1.1.14,1.1.18,0,.03-.94.08-1.1.09-.19.02-1.05.06-1.09.1-.05.04,1.1.14,1.1.18,0,.04-1.15.06-1.09.1.09.06.96.12,1.1.18.36-.03.73-.06,1.1-.09.13-.01,1.11-.07,1.09-.09-.02-.03-1.17-.17-1.1-.19.18-.04.8-.07,1.09-.09.29-.02.73-.09,1.09-.09.06,0,1.01.17,1.1.19.15.03.9.18,1.1.19.2,0,.95-.08,1.09-.09.37-.03.73-.06,1.1-.1.37.06.73.12,1.1.19.13.02.94.18,1.1.19-.07,0-1.09.09-1.09.09,0,.03.94.16,1.1.19l1.1.19,2.19-.19c.25-.02.76-.09,1.09-.09.22,0,.85.18,1.1.19.31.01.8-.11,1.09-.09.18.01.95.19,1.1.19.36,0,.81-.07,1.09-.09l1.1-.09c.31-.02.72-.08,1.11-.08.27,0,.82-.09,1.11-.07.37.03.75.19,1.12.23.01-.03,1.2,0,1.13-.03.12.04,1.12.23,1.12.27,0,.03-.97,0-1.13,0-.24.01-1.02,0-1.12.03-.08.02,1.11.22,1.11.25,0,.05-1.13-.02-1.12.03.02.05,1.02.19,1.11.25.74,0,1.49-.02,2.24.02.32.02.9.05,1.13.06.15,0,1.13.12,1.14.1,0-.03-1.14-.38-1.1-.38.19.02.92.04,1.15.1.32.08.8.35,1.1.42.43.12.71.09,1.15.21.29.09.77.43,1.07.54.21.06.97.29,1.14.35.4.12.74.27,1.13.43.34.23.66.49.98.77.32.26.63.54.91.84-.04,0-.29-.18-.54-.34-.26-.14-.5-.28-.51-.26-.01.02.23.21.46.39.22.21.44.42.43.44-.01.02-.26-.15-.51-.32-.26-.15-.52-.29-.53-.27,0,.01.19.18.4.36.2.19.41.4.47.46.23.24.6.6.79.89.63.46,1.19,1.01,1.74,1.59.26.3.53.6.76.93.16.19.53.7.68.99.06.1.32,1.05.34,1.17.03.16.2.97.24,1.16.07.18.37.93.43,1.08.06.12.34.95.37,1.1.04.26.04.97.04,1.17,0,.16-.02.95,0,1.16.02.19.2.95.23,1.1.03.13.2.94.2,1.1,0,.34-.11.81-.1,1.13.02.34-.12.78-.11,1.12,0,.37.15.72.16,1.09.02.37.16.72.16,1.09,0,.36-.11.74-.11,1.11.02.35.16.73.16,1.08,0,.08-.11,1.11-.11,1.11-.03,0-.14-.93-.16-1.08-.04-.24-.12-.98-.16-1.08-.03-.07-.08,1.09-.12,1.11.06.36.11.72.16,1.08.02.13.14,1.1.16,1.08.03-.03.09-1.18.12-1.11.04.12.13.84.16,1.09.02.13.14,1.1.16,1.08.02-.02.1-1.17.11-1.11.02.09.16.94.16,1.08,0,.37-.11.74-.12,1.11,0,.37-.12.74-.11,1.11.01.09.16,1.06.16,1.08-.02.15-.09,1.11-.12,1.11-.03,0-.14-.93-.16-1.08-.05-.27-.11-.93-.16-1.08-.04-.13-.13-1.09-.16-1.08-.04,0-.08,1.16-.11,1.11-.05-.07-.11-.93-.16-1.08-.03-.07-.09,1.09-.11,1.11l.16,1.09c.02.13.14,1.1.16,1.08.02-.02.1-1.17.12-1.11.05.22.12.77.16,1.08l.16,1.08c.04.23.15.77.16,1.08,0,.03-.11,1.11-.11,1.11,0,0-.05-.28-.09-.56-.04-.28-.08-.55-.08-.53-.02.15-.12.92-.12,1.11,0,.37.16.72.16,1.08,0,.37-.12.74-.11,1.11,0,.35.16.73.16,1.08,0,.37-.12.74-.12,1.11,0,.3.16.79.16,1.08,0,.18-.13.96-.12,1.11.03.36.12.81.16,1.08.05.36.11.73.16,1.08.06.36.11.73.16,1.08.06.37.11.73.16,1.09.03.18.15.84.16,1.08,0,.06-.11,1.11-.11,1.11-.03,0-.14-1.16-.16-1.08-.04.14-.09.84-.12,1.11-.03.29-.1.74-.11,1.11-.01.28-.12.81-.11,1.11,0,.21.14.92.16,1.08.06.37.1.69.16,1.08.05.39.11.73.16,1.08.05.36.11.73.16,1.08.01.09.17,1.03.16,1.09,0,.06-.03.34-.05.6-.03.26-.06.51-.06.51-.03,0-.14-.94-.17-1.09-.04-.23-.12-.99-.16-1.08-.03-.07-.08,1.1-.11,1.11-.05,0-.12-1.11-.16-1.09-.05.02-.07,1.02-.11,1.11l.16,1.08c.02.15.16.89.16,1.08,0,.2-.1.96-.12,1.11,0,.1-.12,1.02-.11,1.11.02.33.13.84.16,1.09l.16,1.08c.05.31.13.7.16,1.08.01.13-.12.93-.11,1.11,0,.21.14.92.16,1.09.03.24.15.78.16,1.08.01.28-.12.81-.11,1.11,0,.37.16.72.16,1.08,0,.37-.12.75-.12,1.11,0,.26.17.84.16,1.08,0,.32-.09.87-.12,1.11-.02.19-.12.85-.11,1.11,0,.37-.12.74-.12,1.11,0,.21.14.92.16,1.08.02.17.16.88.16,1.08,0,.2-.1.95-.12,1.11-.01.13-.12.95-.12,1.11,0,.19.17.94.16,1.09-.01.37-.09.81-.12,1.11-.01.12-.13.97-.12,1.11.01.26.13.9.16,1.09l.16,1.09c.04.3.1.89.15,1.09.04.14.12,1.09.15,1.09,0,0-.04.25-.07.51-.03.26-.05.54-.06.6-.01.29-.13.8-.13,1.11,0,.37.13.73.14,1.09.01.37.14.73.14,1.09,0,.19-.15.96-.13,1.11.03.38.1.78.14,1.09.04.36.09.73.13,1.09l.14,1.09c.02.15.14.9.13,1.09,0,.19-.13.96-.16,1.11-.04.27-.11.97-.16,1.11-.03.08-.09-1.1-.12-1.09,0,0-.05.24-.08.5-.03.26-.07.54-.08.61-.03.3-.14.76-.16,1.1,0,.3.12.79.11,1.09,0,.26-.17.87-.17,1.11,0,.32.09.85.11,1.1l.11,1.1c.03.33.08.7.09,1.1,0,.23.1.84.09,1.1-.01.31-.18.81-.19,1.11,0,.42.09.69.08,1.1l-.41,2.21c-.05.27-.15.96-.2,1.1-.03.08-.05-1.1-.08-1.1-.04,0-.15.98-.2,1.1-.07.17-.15.89-.22,1.1l.06,1.1c0,.13.04,1.12.06,1.1,0-.03.21-1.06.22-1.1,0,.14.07.92.06,1.1-.03.37-.19.73-.23,1.1-.03.37.07.74.04,1.1-.02.25-.23.88-.24,1.1-.02.33.03.85.04,1.11,0,.11.03.99.02,1.11-.04.29-.21.88-.27,1.09l-.27,1.09c-.04.17-.23.86-.27,1.09-.02.16-.01.97-.01,1.1,0,.13-.03,1.12-.01,1.11,0,0,.08-.25.14-.51.07-.26.13-.53.15-.58-.05.29.03.8-.01,1.11-.03.21-.25.92-.29,1.09-.09.38-.21.69-.31,1.08-.11.38-.22.73-.32,1.08l-.32,1.08-.32,1.07c.03.08-.11,1.1-.07,1.11.03,0,.3-.92.35-1.07.07-.21.27-1.02.32-1.08.06-.07.27-1.09.32-1.08.03,0-.04.96-.04,1.11-.01.35-.03.75-.04,1.11l-.69,2.15c-.07.2-.29.8-.35,1.07-.07.36-.28.71-.36,1.06-.08.37-.03.74-.1,1.11-.07.36-.02.74-.1,1.11-.07.32-.32.75-.38,1.06-.09.37-.04.74-.14,1.1-.08.3-.35.76-.41,1.05-.06.28-.06.85-.14,1.1-.07.27-.34.86-.43,1.05-.05.12-.4.89-.45,1.04-.05.18-.12.95-.17,1.1-.13.35-.33.76-.44,1.03-.04.11-.44.91-.47,1.03,0,.05-.07.32-.12.58-.05.26-.09.51-.09.51.03,0,.48-1.1.48-1.02,0,.15-.16.83-.21,1.09-.05.28-.12.75-.21,1.09-.05.18-.4.82-.49,1.02-.13.35-.13.73-.25,1.08-.07.06-.47,1.02-.52,1.01-.04-.01.3-1.13.25-1.08-.04.03-.44.84-.51,1-.1.22-.42.76-.51,1-.06.2-.22.91-.27,1.08-.04.13-.23.94-.29,1.08-.11.24-.45.81-.55.99-.06.1-.51.87-.55.98-.11.26-.26.86-.33,1.06-.11.36-.22.71-.33,1.07-.09.3-.19.7-.33,1.07-.04.13-.52.8-.6.95-.09.19-.31.89-.37,1.05-.13.37-.24.69-.37,1.06l-.63.94c-.03.06-.2.3-.35.51-.16.22-.3.42-.31.41,0,0,.11-.28.21-.54.11-.26.21-.52.19-.5-.1.16-.53.7-.66.92-.15.26-.26.76-.41,1.04-.17.32-.48.6-.66.91-.21.34-.46.57-.68.91-.18.29-.27.71-.45,1.01-.19.31-.51.57-.7.88-.19.31-.26.7-.46,1.02-.11.21-.63.69-.73.86-.18.3-.38.75-.5.99l-.5,1c-.17.33-.33.67-.51.99-.09.15-.41.79-.55.97-.2.28-.57.54-.78.82.05-.06.55-.97.55-.97-.02-.01-.68.71-.79.82-.17.18-.57.56-.78.81-.14.19-.41.75-.58.95-.13.16-.73.65-.82.78-.09.12-.6.92-.6.94,0,0,.78-.73.82-.78.17-.2.44-.77.6-.94.29-.32.55-.49.81-.79.17-.19.62-.6.79-.82-.19.25-.37.74-.55.98-.24.32-.55.49-.81.8-.23.27-.37.67-.6.95-.24.29-.58.49-.82.78-.24.28-.37.67-.61.95-.25.27-.61.47-.87.74-.25.28-.4.64-.65.91-.26.28-.61.46-.87.74-.25.28-.61.46-.89.72-.15.15-.58.74-.69.88-.07.08-.62.81-.7.88-.25.22-.7.54-.9.69-.27.2-.62.41-.94.65-.2.15-.73.46-.94.64-.07.08-.71.81-.74.84-.12.09-.93.65-.95.62-.02-.02.83-.83.76-.82-.1.02-.79.58-.95.62l-1.56,1.59c-.26.27-.52.53-.8.78-.24.23-.51.5-.82.76-.18.16-.6.61-.82.77-.25.19-.76.36-1.01.53-.35.25-.51.48-.85.73l-1.02.5c-.11.07-1.03.5-1.03.48,0-.05.91-.66.87-.7-.03-.02-1,.52-1.03.48-.03-.03.88-.64.86-.7,0-.04-.95.48-1.02.47l-1.75,1.37c-.23.19-.58.46-.9.66-.14.09-.88.32-1.06.41-.33.18-.59.47-.91.65-.32.19-.6.46-.93.62-.17.08-.94.3-1.07.37-.33.19-.67.44-.93.61-.31.2-.63.39-.95.58-.16.1-.73.48-.96.58-.14.06-.96.29-1.09.33-.12.04-.97.24-1.1.29-.09.04-.98.54-.98.54-.23.07-.85.19-1.09.29-.29.11-.71.41-.99.51-.38.13-.72.11-1.11.25-.33.11-.66.39-1,.5-.36.12-.75.1-1.12.21-.36.11-.75.1-1.11.21-.2.06-.85.41-1.01.47-.12.05-.88.4-1.02.44-.26.07-.92.14-1.12.17-.09.01-1.05.15-1.12.16-.06.02-.32.12-.56.21-.24.09-.47.19-.47.19.01.04,1.17-.19,1.13-.14-.05.06-.85.32-1.04.4-.26.12-.72.28-1.05.4-.27.1-.69.3-1.05.4-.07.02-1.04.09-1.13.1-.27.02-.78.04-1.13.1-.2.03-.82.32-1.06.36-.36.07-.77,0-1.13.06.21-.04.9-.29,1.06-.34.37-.11.69-.24,1.05-.36-.75.08-1.5.11-2.26.15-.36.08-.69.27-1.06.34-.23.04-.93.02-1.12.05-.34.07-.81.23-1.07.3-.27.08-.72.23-1.07.3-.3.06-.76.26-1.07.29-.31.04-.84-.05-1.13,0-.41.06-.67.22-1.08.27-.15.03-1,0-1.13-.02-.37-.01-.75-.02-1.13-.04-.13,0-.96-.05-1.12-.04-.23.03-.91.19-1.09.22l-1.09.21c-.22.04-.79.18-1.09.21-.26.03-.84-.09-1.13-.08-.23,0-.89.19-1.09.19-.35,0-.85-.07-1.12-.09-.19-.01-.87-.11-1.12-.11-.32,0-.76.15-1.1.16-.31,0-.82-.13-1.12-.12-.14.01-1.01.14-1.1.14-.07,0-.35-.04-.61-.07-.26-.03-.51-.07-.51-.07,0-.04,1.16-.1,1.1-.13-.02-.01-1-.14-1.11-.15-.17,0-.95.12-1.1.13-.17.02-.89.12-1.1.11-.12,0-1.05-.17-1.11-.17-.15.01-1.1.09-1.1.11,0,0,1.04.17,1.11.17-.37,0-.73.12-1.1.11-.21,0-.94-.16-1.11-.19-.28-.05-.96-.14-1.11-.19-.08-.03,1.1-.06,1.1-.09,0,0-1.04-.19-1.1-.19-.23,0-.93.08-1.1.09-.13,0-1.12.05-1.11.07.03,0,1.09.21,1.11.21-.21,0-.87.08-1.1.07-.31-.02-.81-.2-1.11-.21-.37-.02-.74.09-1.11.07-.37-.03-.73-.2-1.1-.23-.31-.03-.81.08-1.11.05-.2-.02-.93-.22-1.1-.24-.35-.02-.83.02-1.1.03-.36,0-.74.02-1.11.03-.18,0-.87.05-1.11.02-.33-.03-.75-.23-1.09-.27-.16-.02-1,.03-1.11.01-.14-.03-1.1-.25-1.09-.27.02,0,1.11,0,1.11,0-.26-.05-.81-.23-1.09-.27-.3-.04-.81.04-1.1,0-.42-.07-.66-.22-1.08-.28-.29-.05-.81.04-1.1,0-.21-.03-.92-.25-1.08-.3-.13-.03-.93-.28-1.08-.3-.26-.03-.91-.02-1.11-.03l-1.1-.03c-.14,0-.92,0-1.1-.03-.37-.06-.71-.25-1.07-.32-.3-.05-.81.01-1.11-.05-.34-.07-.78-.25-1.07-.32-.39-.1-.74-.23-1.07-.33-.14-.04-.89-.3-1.07-.33-.2-.04-.94-.05-1.1-.06-.37-.02-.74-.04-1.1-.06-.14,0-.94-.04-1.11-.07-.21-.04-.91-.29-1.07-.35-.1-.03-.98-.35-1.07-.36-.32-.05-.86-.07-1.1-.08l-1.1-.09c-.16-.02-.9-.06-1.1-.11-.18-.04-.93-.33-1.06-.38-.13-.04-.9-.35-1.06-.39-.37-.09-.75-.04-1.1-.13-.36-.09-.7-.32-1.06-.41-.26-.06-.87-.08-1.1-.15-.31-.1-.82-.34-1.05-.43-.12-.05-.89-.39-1.04-.43-.17-.05-.99-.15-1.1-.19-.37-.14-.73-.33-1.03-.46-.35-.16-.69-.3-1.03-.47-.34-.17-.68-.33-1.02-.5-.08.02-1.08-.27-1.09-.23-.01.04,1.08.48,1.02.5-.08.02-.89-.2-1.1-.23-.28-.04-.76-.16-1.09-.25-.25-.06-.77-.16-1.09-.27-.21-.07-.77-.45-1.01-.54-.3-.11-.81-.18-1.08-.31-.39-.18-.61-.4-.99-.58l-1.08-.32c-.14-.05-.9-.28-1.07-.37-.07-.03-.96-.63-.96-.63,0-.03.92.32,1.07.37.34.12.73.25,1.07.37.34.1.72.21,1.08.32l1.08.31-1.95-1.16c-.34-.16-.72-.2-1.06-.36-.21-.1-.77-.55-.95-.62-.33-.13-.8-.28-1.05-.39l-1.04-.42-1.05-.42c-.22-.08-.76-.31-1.03-.47-.23-.13-.65-.58-.89-.73-.27-.17-.78-.31-1.02-.49-.35-.27-.5-.52-.85-.78-.23-.18-.74-.36-1-.55-.18-.12-.71-.67-.82-.81-.1-.11-.67-.73-.8-.84-.19-.15-.8-.51-.96-.61-.13-.06-.8-.55-.93-.66-.13-.12-.64-.81-.74-.9-.3-.26-.66-.48-.91-.69l-.87-.75c-.11-.1-.75-.61-.87-.75-.15-.15-.57-.82-.65-.97-.18-.29-.38-.66-.61-.99-.15-.21-.43-.77-.58-1-.13-.18-.65-.71-.77-.84-.07-.07-.73-.79-.75-.86-.19-.33-.37-.78-.5-1.05-.07-.12-.51-1.05-.48-1.06,0,0,.17.22.33.43.17.22.35.44.37.46-.21-.33-.29-.71-.47-1.05-.11-.19-.57-.76-.68-.9-.13-.17-.54-.67-.66-.92-.16-.29-.24-.78-.4-1.08-.15-.28-.5-.66-.62-.95-.07-.16-.29-.98-.35-1.09-.07-.11-.58-.97-.58-.97,0,0,.06.26.14.52.09.26.18.53.19.58-.14-.31-.45-.65-.58-.97-.08-.2-.26-.94-.31-1.11-.08-.25-.19-.8-.29-1.1-.12-.34-.14-.77-.27-1.11-.08-.2-.44-.84-.51-1-.11-.24-.37-.69-.49-1.01-.09-.24-.15-.85-.22-1.12-.06-.18-.43-.88-.46-1.02-.09-.38-.15-.8-.19-1.12-.06-.37-.12-.75-.18-1.12-.04-.27-.18-.97-.17-1.12,0-.08.4,1.04.43,1.02.04-.01-.2-1.02-.17-1.11l-.83-2.05-.4-1.03-.78-2.08c-.08-.23-.3-.73-.38-1.04-.02-.09-.09-1.02-.1-1.12-.03-.35-.05-.72-.1-1.12-.04-.3-.03-.77-.09-1.12-.05-.29-.3-.74-.36-1.04-.07-.34-.01-.78-.08-1.11-.05-.22-.3-.88-.35-1.04-.12-.35-.23-.69-.35-1.04-.1-.3-.25-.67-.35-1.04-.04-.13-.05-.94-.08-1.11-.04-.21-.3-.88-.35-1.05-.12-.36-.23-.68-.35-1.04l-.08-1.11c-.02-.27-.09-.97-.07-1.12.01-.08.31,1.05.34,1.05.04-.01-.09-1.01-.07-1.12.02-.08.3,1.06.34,1.04.02,0-.06-.96-.07-1.12-.02-.35-.05-.76-.07-1.11l-.68-2.09.07,1.11c0,.13.09,1.12.07,1.12-.06-.03-.27-.96-.34-1.05-.06-.31-.29-.75-.34-1.05-.04-.25-.06-.92-.07-1.11,0-.13-.09-1.12-.07-1.12,0,0,.09.26.17.51.08.26.16.52.17.54-.05-.34,0-.77-.07-1.12-.05-.26-.28-.81-.34-1.05-.1-.38-.24-.74-.34-1.05-.06-.17-.28-.81-.33-1.05-.01-.05-.05-1.11-.05-1.11,0,0,.09.28.17.55s.15.53.16.5c0-.1-.03-.97-.05-1.12-.03-.2-.28-.89-.32-1.05-.03-.09-.32-.99-.32-1.05-.04-.37-.04-.81-.05-1.12,0-.13-.07-1.13-.05-1.11,0,0,.08.25.16.5.07.25.15.52.16.55-.06-.36.01-.75-.05-1.11-.04-.21-.28-.89-.32-1.05-.09-.31-.24-.68-.32-1.05-.04-.17-.01-.91-.04-1.12-.01-.07-.31-1.05-.31-1.05,0,0,0,.28.01.55.01.28.02.55.02.56-.06-.3-.26-.74-.31-1.06-.05-.3.02-.83-.04-1.12-.07-.36-.25-.69-.31-1.05-.06-.36.02-.75-.04-1.11-.05-.3-.27-.77-.31-1.06-.04-.27.01-.87-.04-1.12-.05-.28-.25-.85-.31-1.06l-.31-1.06c-.07-.25-.23-.73-.29-1.06-.04-.21.02-.87-.02-1.12-.04-.3-.26-.77-.29-1.06-.05-.42.02-.71-.02-1.12-.03,0-.28-1.14-.29-1.06.02-.14-.06-1.11-.02-1.12.05,0,.24,1,.29,1.06.06.06.25,1.07.29,1.06.04,0-.04-.98-.02-1.12.03-.21-.04-.87-.02-1.11-.06-.36-.24-.7-.29-1.06-.03-.23.02-.92-.02-1.12-.06-.34-.21-.8-.28-1.06-.07-.28-.21-.7-.28-1.06-.05-.28-.24-.76-.28-1.06-.03-.23.03-.92,0-1.12-.06-.34-.21-.81-.28-1.06-.05-.19-.24-.81-.28-1.06,0-.05,0-1.12,0-1.12.02,0,.27,1.14.28,1.06,0-.1.02-.93,0-1.12-.03-.29-.24-.76-.28-1.07-.03-.23.04-.91.01-1.11-.06-.34-.2-.82-.26-1.07l-.26-1.07c-.02-.08-.26-1-.26-1.07,0-.17-.24-.86-.26-1.07,0-.07.01-1.12.01-1.12.06.04.21,1.03.26,1.07.03.02.22.89.26,1.07.03.13.25,1.09.26,1.07.04-.04,0-.94.01-1.12.02-.23,0-.79.01-1.12v-1.11s-.25-1.07-.25-1.07c-.06-.26-.21-.94-.26-1.07-.03-.07.02,1.11-.01,1.12-.04,0-.21-.98-.26-1.07-.04-.07.02,1.11-.01,1.11-.03,0-.23-.92-.26-1.07-.08-.34-.17-.73-.25-1.07l.05-2.23c.01.06.24,1.05.25,1.07,0-.13.04-.94.03-1.12-.02-.15-.25-.97-.25-1.07,0-.07,0-.35,0-.61,0-.26.02-.51.02-.51,0,0,.07.27.13.54.06.27.12.52.12.53,0-.24.05-.83.03-1.12-.03-.33-.22-.73-.25-1.07-.02-.21.03-.94.03-1.12,0-.39.02-.73.03-1.11-.08-.18-.17-.93-.24-1.07-.05-.11-.19-1.08-.23-1.07,0,0-.05,1.06-.04,1.11,0,.1.24,1.05.24,1.07,0,.16,0,1.11-.03,1.12-.05,0-.2-1-.25-1.07l-.48-2.15.09-2.24c.01-.33.02-.85.04-1.11.02-.15,0-1.11.04-1.12.04,0,.2,1.14.23,1.07.03-.07.03-.9.04-1.11,0-.03-.22-1.02-.23-1.07-.04.08,0,1.11-.04,1.11-.03,0-.2-.93-.23-1.07-.06-.25-.18-.95-.23-1.07-.03-.07-.01,1.11-.04,1.12-.03,0-.2-.93-.23-1.08-.06-.25-.19-.74-.23-1.08,0-.06.05-1.03.06-1.12,0-.13.04-1.13.06-1.12,0,.03.22,1.06.22,1.08,0-.21.08-.88.06-1.11-.02-.21-.19-.91-.22-1.08-.06-.3-.17-.71-.22-1.08-.04-.3-.2-.77-.22-1.08-.02-.31.09-.82.06-1.12-.02-.25-.21-.85-.22-1.08-.01-.3.04-.88.06-1.11,0-.15.05-1.11.07-1.12.03,0,.18.93.2,1.08.01.09.22,1.01.22,1.08,0-.3.08-.8.06-1.12-.02-.37-.18-.71-.2-1.08-.02-.37.1-.75.07-1.12-.02-.26-.17-.84-.2-1.08-.05-.39-.14-.76-.2-1.08l-.2-1.08c-.04-.2-.18-.81-.2-1.08-.01-.13.07-1,.07-1.11,0-.13.09-.96.07-1.11-.01-.19-.19-.94-.19-1.08,0-.37.07-.82.09-1.11.01-.16.1-.91.09-1.11,0-.18-.16-.94-.19-1.08-.06-.32-.14-.69-.19-1.08-.03-.24-.18-.81-.19-1.08-.02-.37.11-.74.09-1.11-.02-.36-.17-.72-.19-1.08-.01-.21.09-.94.1-1.11.04-.38.07-.76.11-1.11,0,.04.17.98.17,1.09,0,.23-.12.92-.1,1.11.03.34.14.82.19,1.08l.19,1.08c0-.35.11-.76.09-1.11-.02-.35.11-.76.09-1.11-.02-.27-.15-.84-.18-1.08-.04-.39-.12-.77-.17-1.09-.05-.33-.13-.69-.17-1.09-.05-.39-.12-.75-.17-1.08-.02-.13-.17-.93-.17-1.09,0-.4.1-.72.11-1.11-.01-.08-.17-1.07-.17-1.09.04-.38.07-.74.11-1.11.03-.33.07-.87.11-1.11.03-.15.09-1.11.12-1.11,0,0,.16,1.06.16,1.09,0-.33.13-.78.12-1.11,0-.27-.14-.85-.16-1.09-.04-.39-.11-.77-.16-1.09-.03-.2-.15-.81-.16-1.09,0-.04.12-1.11.12-1.11,0,0,.05.29.08.57.04.28.07.55.08.52.02-.1.12-.96.12-1.11,0-.27-.14-.84-.16-1.09-.04-.39-.11-.77-.16-1.09-.02-.11-.16-.97-.15-1.09,0-.28.11-.9.14-1.11.04-.34.1-.71.14-1.11.02-.23.14-.85.14-1.11,0-.23-.15-.89-.14-1.09.02-.35.1-.84.14-1.11l.14-1.11.29,2.18.27-2.21-.14-1.09c-.03-.26-.13-.74-.14-1.09,0-.2.15-.87.15-1.1,0-.36-.12-.73-.13-1.09,0-.28.15-.81.15-1.1,0-.37-.12-.72-.13-1.09,0-.37-.13-.73-.13-1.09,0-.36.14-.74.15-1.1l.3-2.21c.04.35.09.74.13,1.09.02.15.1,1.09.13,1.09,0,0,.04-.29.08-.57.03-.28.07-.56.07-.53.04.33.09.73.13,1.09l.13,1.09c.04.3.11.71.13,1.09.02.26.13.8.13,1.09,0,.15-.16,1.01-.15,1.1.03.39.09.75.13,1.09l.13,1.09.14,1.09c.04.3.12.71.14,1.09.01.15-.14.91-.14,1.1,0,.36.13.72.14,1.09.01.36.14.72.14,1.08,0,.27-.15.85-.14,1.1.01.3.11.86.14,1.09.02.13.14.93.14,1.08,0,.15-.14,1.02-.13,1.11,0,.07.04.34.08.6.04.25.08.49.08.49,0,0,.12-1.04.12-1.11,0,.37.15.71.16,1.08,0,.21-.1.93-.12,1.11-.04.38-.08.72-.12,1.1-.04.38-.08.74-.12,1.1l-.12,1.11c.05.07.11,1.08.16,1.08.03,0,.1-.95.12-1.11,0-.08.11-1.13.12-1.1.05.19.11.78.16,1.08.02.13.16.93.16,1.08,0,.37-.13.74-.12,1.1,0,.37.15.72.16,1.08.01.32-.12.8-.11,1.11.02.37.16.71.17,1.08,0,.31-.12.81-.11,1.11.02.42.15.66.17,1.08.02.36.16.72.17,1.08.01.37-.11.74-.11,1.11.03,0,.16,1.15.17,1.08-.03.13-.07,1.1-.1,1.1-.05,0-.13-1.01-.17-1.08-.05-.07-.13-1.08-.17-1.08-.04,0-.07.97-.11,1.11-.05.21-.06.87-.1,1.11l.38,2.16c.04.23.16.76.19,1.08,0,.09-.08,1.01-.09,1.11-.01.15-.1.92-.09,1.11,0,.19.16.93.19,1.08.02.14.18.9.19,1.08.01.37-.11.74-.09,1.11.02.31.19.78.2,1.08.01.42-.08.69-.07,1.11,0,.34-.09.76-.07,1.11.02.3.19.78.2,1.08.01.33-.1.79-.07,1.11.02.23.17.91.2,1.07.02.13.2.92.2,1.07,0,.19-.09.96-.07,1.11.04.37.16.79.21,1.08.03.15.2.88.22,1.07,0,.07-.06,1.11-.06,1.11,0,0-.06-.28-.11-.55s-.1-.54-.11-.52c0,.15-.07.92-.06,1.11.02.21.19.91.22,1.07.03.13.21.93.22,1.07.01.26-.05.91-.06,1.11,0,.15-.07.91-.06,1.11.03.37-.09.75-.06,1.11.02.27.18.83.23,1.07.06.38.17.76.23,1.07.03.14.22.89.23,1.07.02.2-.04.95-.04,1.11,0,.1-.05,1.02-.04,1.11.04.32.18.83.23,1.07.08.35.16.71.23,1.07.03.12.22.92.23,1.07.02.26-.04.9-.04,1.11,0,.17-.05.9-.03,1.11.01.14.25.98.25,1.07,0,.4-.02.76-.03,1.11,0,.27,0,.97-.03,1.11-.02.08-.22-1.07-.25-1.07,0,0-.04,1.03-.03,1.11,0,.06.25,1.07.25,1.07.04,0-.02-1.16.03-1.11.05.06.19.87.25,1.07.08.26.17.73.25,1.06.03.13.23.89.25,1.06.02.21-.03.95-.03,1.11v1.11s-.04,2.22-.04,2.22c.05.06.22,1.07.26,1.06.04,0-.03-1.16.01-1.11.06.07.21,1.04.26,1.06.05.02-.03-1.1.01-1.11.05,0,.21,1,.26,1.06.02.03.26,1.12.26,1.06-.01.16.02,1.1-.01,1.11-.04,0-.23-1.13-.26-1.06-.04.08,0,.91-.01,1.11-.02.26,0,.77-.01,1.11v1.11c-.01.36-.01.72-.01,1.11,0,.4,0,.72,0,1.11.05.06.23,1.07.28,1.06.03,0-.04-1.18,0-1.11.06.13.21.8.28,1.06.08.29.21.7.28,1.06.03.16-.02.91,0,1.11.04.3.25.77.28,1.06.03.25,0,.93,0,1.11,0,.03-.07-.24-.13-.51s-.14-.55-.14-.55c-.03,0,0,.96,0,1.11,0,.36,0,.76,0,1.11l.29,1.06c.04.12.28,1.07.29,1.05.02-.02-.05-1.18-.02-1.11.07.17.22.78.29,1.06.08.28.22.7.29,1.05.01.06.02,1.02.02,1.11,0,.15,0,.92.02,1.11.03.19.25.91.29,1.05l.29,1.05c.02.74.03,1.48.05,2.22.01.34.04.85.04,1.11,0,.15.07,1.1.03,1.11-.04,0-.28-1.12-.31-1.05-.04.1.06.96.03,1.11-.03.16.06.91.04,1.11.06.06.26,1.06.31,1.05.04-.01-.08-1.16-.03-1.11.05.06.24.86.31,1.05.09.26.21.73.31,1.05.09.31.22.68.31,1.05,0,.04.03,1.03.04,1.11,0,.15,0,.93.04,1.11.04.2.28.9.32,1.05.09.31.23.67.32,1.05.06.24.28.78.32,1.05.03.16.02,1,.05,1.11.1.38.23.73.32,1.05.11.35.21.69.32,1.04l.32,1.04.12,2.22c-.08-.36-.27-.68-.34-1.04-.04-.23,0-.92-.05-1.11-.08-.34-.24-.79-.32-1.05l-.32-1.04.1,2.22.32,1.04c.04.12.31.89.34,1.05.03.17.04.99.07,1.11.1.37.24.74.34,1.04l.34,1.04c.05.14.3.84.34,1.04.03.19.06.96.07,1.11,0,.13.09,1.12.07,1.11,0-.03-.33-1.01-.34-1.04.01.16.03.91.07,1.11.06.3.29.75.34,1.04.02.13.06,1.03.08,1.11.02.07.1.32.18.57.08.24.17.47.17.47,0-.02-.08-1.1-.08-1.11.07.23.3.77.35,1.04.06.3.02.82.08,1.11.08.33.27.76.35,1.04.11.38.24.72.35,1.04.05.14.32.86.35,1.04.01.07.08,1.11.08,1.11-.04.01-.29-.97-.35-1.03-.06-.06-.31-1.05-.35-1.04-.01,0,0,.25.03.5.02.26.05.53.05.61.02.19.04.89.08,1.11.05.26.29.8.35,1.04.1.38.25.73.36,1.03.06.17.31.8.36,1.03,0,.05.1,1.1.1,1.1,0,0-.36-.98-.37-1.03.08.41.02.69.1,1.11.05.28.3.73.37,1.03.06.26.04.87.11,1.1.08.3.3.8.38,1.02l.39,1.01c.1.25.29.69.39,1.01.05.18.08.87.14,1.09.09.33.33.68.41,1,.09.36.05.74.16,1.09.1.35.33.64.43.99.1.35.07.74.18,1.08.11.35.34.63.45.98.01.06.2,1.06.2,1.08,0,0-.12-.22-.23-.46-.11-.24-.22-.49-.23-.52.11.35.08.74.21,1.08.1.29.39.69.48.97.12.37.1.7.23,1.07.11.31.39.63.51.95.07.2.18.9.27,1.06.15.31.4.69.54.93.18.31.35.62.55.92.06.09.52.79.57.9.1.25.26.84.34,1.03l.37,1.02c.08.25.35.88.38,1.01,0,.04-.15-.17-.31-.4-.15-.23-.31-.47-.32-.47-.04.03.38.94.39,1.02l.65.85c.07.11.64.87.66.84,0,0-.45-1.01-.43-.99.11.15.53.65.66.83.16.25.3.74.45.97.23.34.45.48.7.8.16.22.33.71.5.95.11.17.61.65.74.76.14.14.61.54.76.73.09.12.49.81.57.9.08.12.49.74.61.88.13.14.7.59.81.68.08.09.73.54.84.64.16.16.56.69.67.83.11.13.52.68.68.84.28.23.46.56.73.78.2.17.71.43.9.56.31.21.63.4.91.54.12.06.81.41.93.5.29.21.49.53.78.74.24.19.72.3.96.46.28.19.6.51.83.69.31.23.57.48.84.69.11.08.73.56.87.64.19.1.85.33.99.39.33.13.66.26,1,.37.34.11.68.23,1.02.34-.14-.07-.81-.56-.9-.6.21.08.78.23,1.01.34.18.09.76.51.9.6.28.19.69.41.92.57.05.04-1.03-.31-1.03-.31-.02.04.8.49.93.57.25.15.78.44.94.56.18.14.74.42.94.56.34.12.72.13,1.05.25.28.11.7.43.97.52.32.11.77.18,1.05.24.38.09.73.15,1.06.21.24.05.75.12,1.05.21.21.07.75.4.99.47.29.09.79.09,1.06.18.19.07.83.41,1,.45.32.08.82.12,1.08.15.12.02.93.11,1.07.15.23.07.84.35,1.01.42.32.12.65.27,1.03.4.21.07.78.34,1.03.4.22.06.89.07,1.08.11.33.09.78.28,1.04.38l1.04.38,1.09.09c.13.01,1.1.1,1.09.08-.03-.05-1.09-.33-1.05-.36.05-.03-1.05-.32-1.04-.36,0-.01.23.01.49.03.25.02.52.05.6.05.34.03.73.05,1.08.08.7.23,1.4.47,2.09.7.35.08.69.27,1.05.34.36.07.73,0,1.09.06.36.06.7.27,1.06.33.11.02,1.04.04,1.09.05.07.02.34.1.58.17.25.08.48.14.47.16,0,.05-1.01-.08-1.09-.05-.08.03-1.09-.1-1.09-.05,0,.04,1.1.3,1.06.33-.04.03,1.02.28,1.06.33l2.18.09c.27.01.75,0,1.09.04.2.02.84.27,1.07.31.12.02,1.02.04,1.09.03.14-.01,1.08.06,1.09.02.4.08.66.23,1.06.3.36.06.71.24,1.07.3.27.04.85,0,1.09.01.38.02.77,0,1.09,0,.14,0,.91-.02,1.09,0,.08.01,1.07.27,1.07.27,0,0-.25.01-.51.01-.26,0-.53,0-.58,0,.28.03.77.24,1.07.27.21.02.92-.01,1.09-.01.31,0,.72-.04,1.09-.01.3.02.78-.05,1.09-.02.11.01,1.02.25,1.08.25.15,0,1.09,0,1.09-.03.34.05.73.21,1.08.24.2.02.92-.04,1.09-.05.15,0,.91-.07,1.08-.05.22.02.91.18,1.08.22.13.03.92.2,1.08.21.29.02.82-.09,1.08-.07.36.04.73.18,1.09.19.3.01.79-.11,1.08-.09.35.03.73.18,1.09.19.35.01.73.16,1.09.17.21,0,.92-.1,1.08-.11.13-.01.95-.12,1.08-.11.05,0,.32.04.58.07.26.03.51.08.51.08,0,0-1.02.14-1.08.13.37.01.72.14,1.09.15.27,0,.84-.12,1.08-.13.38-.03.76-.09,1.08-.13.17-.02.85-.15,1.07-.16.16,0,.96.11,1.09.12.13.01.94.13,1.1.12.17,0,.95-.19,1.07-.19.38.01.78.07,1.09.09l1.1.09c.12,0,.97.08,1.1.07.09,0,1.06-.21,1.06-.21,0-.04-1.15-.03-1.1-.07.06-.05.87-.16,1.06-.21.26-.07.73-.14,1.06-.22.13-.03.88-.22,1.05-.24.08,0,1.1.04,1.1.04,0,.04-1.12.21-1.05.24.06.03.89.03,1.1.04.15,0,.91.06,1.1.03.3-.04.76-.24,1.05-.27.27-.03.85.04,1.1,0,.41-.06.65-.2,1.05-.28-.37.01-.74,0-1.1,0-.27,0-.96.02-1.1,0-.08-.02,1.05-.24,1.05-.27,0,0-.29,0-.57,0s-.55,0-.52,0c.09-.03.9-.25,1.04-.27.36-.04.74.05,1.09,0,.08.04,1.08-.07,1.09-.02,0,.04-1.1.27-1.04.3.07.03.89-.02,1.1-.03.18,0,.85,0,1.1-.03.29-.03.74-.25,1.03-.31.24-.04.88-.04,1.1-.06.42-.04.69-.02,1.1-.06.35-.07.67-.27,1.02-.35.22-.05.91-.04,1.09-.09.33-.09.77-.27,1.02-.36.34-.12.67-.25,1.01-.38.33-.13.67-.26,1-.39.67-.27,1.34-.51,1.99-.81.08.03,1.06-.2,1.08-.16.01.02-.85.36-.99.43-.21.1-.91.36-.99.41-.06.06,1.08-.18,1.09-.15,0,.03-1.07.43-1,.41.08,0,.94-.11,1.09-.15.32-.08.68-.34.99-.43.2-.06.92-.14,1.09-.16.38-.06.71-.12,1.08-.19.05-.07.99-.42.98-.46-.01-.03-1.14.25-1.08.2.11-.08.74-.35.98-.46.28-.13.63-.32.97-.46.04,0,.99-.21,1.07-.23.16-.04.87-.17,1.07-.24.16-.06.84-.43.96-.49.32-.16.63-.35.94-.52.16-.09.72-.43.94-.53.05-.02,1.06-.27,1.06-.27,0,0-.89.51-.94.53.34-.13.72-.14,1.06-.27.33-.14.59-.42.92-.56.33-.15.72-.17,1.05-.31.32-.14.6-.41.92-.56.31-.16.58-.44.9-.6.27-.13.78-.22,1.04-.35.33-.17.56-.43.89-.6.17-.1.86-.33,1.02-.39.16-.07.83-.29,1.02-.4.18-.1.74-.53.87-.64.12-.09.69-.58.84-.67.32-.18.69-.25,1-.44.19-.12.67-.57.83-.67.29-.17.74-.36.98-.48.11-.05.86-.4.98-.48.2-.13.68-.58.8-.71l.78-.74.78-.73c.53-.48,1.01-1,1.51-1.51.61-.38,1.25-.73,1.84-1.14-.23.27-.48.53-.73.78-.18.19-.67.65-.74.77-.05.07.91-.58.93-.56,0,0-.19.21-.39.4-.2.2-.39.39-.36.37.09-.05.82-.47.94-.57.28-.22.47-.54.73-.79.27-.25.44-.58.71-.81.11-.1.84-.54.91-.61.04-.05.22-.25.39-.44.17-.19.31-.37.31-.37,0,0-.88.59-.91.61.24-.23.45-.58.7-.81.16-.13.74-.55.87-.65.06-.05.87-.66.87-.66.09-.12.68-.83.66-.85-.03-.03-.83.69-.87.66-.03-.03.69-.81.66-.84-.02-.02-.9.72-.86.65.02-.05.57-.76.65-.84.25-.25.61-.4.85-.67.08-.02.79-.73.83-.7.03.02-.68.9-.61.88.04-.01.72-.6.83-.7.21-.21.63-.48.83-.71.2-.22.41-.67.61-.88.15-.14.7-.6.8-.74.2-.27.44-.7.57-.92.08-.12.45-.77.57-.91.12-.15.69-.64.79-.75.09-.09.67-.66.76-.79.17-.23.36-.73.53-.94.22-.28.55-.5.76-.79.19-.24.33-.72.5-.96.18-.26.55-.56.72-.82.12-.19.4-.81.48-.96.05-.11.4-.83.47-.96.15-.24.55-.62.68-.85.18-.31.25-.68.44-.98.16-.26.54-.61.69-.85.13-.21.31-.8.42-1,.15-.26.51-.7.65-.88.16-.21.54-.78.65-.88.06-.06-.42.99-.4,1.01,0,0,.61-.82.65-.89.03-.06.4-1,.4-1-.03-.01-.67.97-.65.89.03-.14.3-.76.39-1,.08-.22.23-.74.36-1.02.04-.08.55-.83.61-.91.17-.25.42-.59.61-.91.14-.23.49-.66.6-.92.08-.19.26-.88.31-1.04.09-.27.19-.71.32-1.04.08-.19.48-.71.58-.93.09-.18.24-.89.28-1.04.03-.12.22-.91.27-1.04.11-.26.43-.76.54-.96.08-.15.47-.76.53-.96.04-.11.21-1.01.24-1.06.06-.13.48-.98.5-.97.04,0-.29,1.1-.24,1.06.02-.01.48-.91.51-.98.12-.32.39-.65.51-.98.13-.34.11-.72.22-1.07.1-.34.09-.72.2-1.07.06-.18.44-.85.47-.99.09-.36.15-.77.2-1.06l.16-1.07.16-1.07c.05-.36.11-.72.16-1.07.03-.17.1-.85.15-1.07.01-.06.4-1.02.4-1.02.03,0-.17,1.15-.13,1.08.08-.12.31-.78.4-1.02.06-.16.34-.8.41-1.03.04-.15.11-.95.13-1.07.02-.12.12-1.09.1-1.08,0,.02-.37,1.02-.38,1.03.06-.27.04-.8.1-1.08.08-.35.28-.68.37-1.03.09-.35.29-.68.37-1.03.07-.31.03-.78.09-1.08.08-.36.27-.68.34-1.04.06-.3,0-.8.06-1.08.06-.29.3-.77.34-1.05.05-.25.04-.9.05-1.08,0-.13,0-.93.04-1.08.07-.39.24-.67.31-1.06.04-.27-.01-.83.03-1.08.02-.1.29-1.06.29-1.06.03,0-.02.94,0,1.09.02.23-.02.77-.03,1.08l-.04,1.09c.07-.36.26-.7.32-1.06.05-.3-.02-.8.03-1.09.03-.21.27-.88.29-1.06.03-.33,0-.84.01-1.09,0-.36,0-.72,0-1.09,0-.2-.02-.81,0-1.09.02-.28.23-.77.26-1.07.04-.36-.06-.73-.02-1.09.04-.36.22-.71.26-1.08.04-.35-.07-.74-.04-1.09.04-.37.21-.71.24-1.08.03-.3-.07-.8-.04-1.09.03-.2.23-.92.23-1.08,0-.34-.04-.82-.06-1.09-.02-.36-.04-.72-.06-1.09,0-.11-.07-.96-.06-1.08.03-.27.17-.88.21-1.08.05-.26.15-.95.2-1.09.03-.08.05,1.09.08,1.09.04,0,.16-.95.2-1.09.07-.22.13-.85.2-1.09-.06-.72-.12-1.45-.18-2.18-.03-.36-.06-.72-.1-1.09-.02-.2-.1-.81-.1-1.08,0-.04.17-1.07.17-1.09.02,0,.09,1.16.11,1.09.02-.09.17-.95.17-1.09,0-.31-.13-.8-.11-1.09.01-.22.17-.92.17-1.1,0-.33-.08-.84-.11-1.09l-.12-1.08-.12-1.08c.05-.07.11-1.1.16-1.1.04,0,.09,1.14.12,1.08.03-.04.13-1.16.16-1.1.04.13.09.83.12,1.08.03.24.08.98.12,1.09.03.07.12-1.09.16-1.1l-.12-1.09c-.03-.32-.08-.86-.13-1.09-.03-.15-.1-1.09-.13-1.09-.03,0-.12,1.17-.14,1.1-.04-.12-.1-.83-.14-1.08-.02-.13-.11-1.1-.13-1.08-.02.02-.13,1.17-.14,1.1-.02-.06-.14-.96-.13-1.08,0-.36.13-.73.14-1.1.05-.07.09-1.1.14-1.1,0,0,.14,1.11.14,1.08.02-.18.14-.88.14-1.1,0-.21-.12-.92-.14-1.08-.01-.09-.15-1.02-.14-1.09.02-.37.1-.81.13-1.1l.13-1.11.13-1.1c.04-.33.1-.71.13-1.11.02-.32.12-.75.12-1.11,0-.29-.15-.78-.16-1.08,0-.22.13-.91.12-1.1-.02-.35-.12-.82-.16-1.08-.02-.13-.14-1.1-.16-1.09,0,0-.04.26-.06.53-.03.26-.05.54-.05.58,0-.35-.15-.73-.16-1.08,0-.37.12-.74.12-1.11,0-.37.12-.74.12-1.1,0-.27-.17-.84-.16-1.08,0-.31.09-.87.12-1.11.03-.27.11-.76.12-1.11,0-.2-.16-.85-.16-1.08,0-.32.13-.79.12-1.11-.01-.26-.14-.9-.16-1.08-.02-.13-.16-.93-.16-1.08,0-.17.13-.99.12-1.11-.04-.38-.12-.77-.16-1.08l-.16-1.08c-.02-.14-.16-.91-.16-1.09,0-.22.1-.94.12-1.11.03-.31.1-.73.11-1.11.01-.27.12-.82.11-1.11,0-.21-.14-.92-.16-1.08-.04-.26-.14-.76-.16-1.08-.01-.25.12-.84.11-1.11,0-.19-.17-.94-.16-1.09.02-.38.08-.8.11-1.11.04-.37.08-.74.11-1.11.03-.27.07-.96.12-1.11.02-.08.13,1.09.16,1.08.05,0,.07-1.03.11-1.11-.05-.36-.11-.72-.16-1.09-.05-.32-.11-.85-.16-1.08-.03-.14-.13-1.08-.16-1.08.01-.2.12-.87.11-1.11,0-.31-.16-.79-.16-1.09,0-.43.11-.68.12-1.11,0-.35.12-.76.11-1.11,0-.2-.14-.92-.16-1.08-.02-.13-.16-.94-.16-1.08,0-.26.09-.91.12-1.11.01-.11.12-1,.11-1.11-.02-.29-.13-.87-.16-1.09l-.16-1.08c-.03-.18-.15-.84-.16-1.08,0-.15.1-.98.11-1.11.03-.27.1-.76.12-1.11,0-.2-.16-.85-.16-1.08,0-.25.13-.89.12-1.11-.02-.33-.13-.84-.16-1.08-.05-.36-.11-.73-.16-1.08-.11-.73-.22-1.45-.33-2.17l.11-1.11c.03-.27.07-.96.11-1.11.02-.08.13,1.09.16,1.08.02,0,.1-.96.11-1.11.02-.24.11-.81.12-1.11,0-.3-.16-.78-.16-1.08,0-.37.11-.74.11-1.11l-.33-2.17c-.05-.35-.12-.69-.16-1.08-.01-.09.12-.97.11-1.11,0-.03-.04-.3-.08-.57-.04-.26-.09-.51-.09-.51,0,.03-.11,1.09-.11,1.1-.02-.22-.16-.83-.17-1.07,0-.3.12-.8.1-1.08-.03-.41-.16-.65-.2-1.04.04-.08.02-1.06.06-1.06.05-.01.19,1.09.22,1.03.03-.05.06-.88.05-1.07,0-.17.05-.87.02-1.07-.02-.2-.24-.85-.29-1-.02-.1-.32-.87-.33-.97-.01-.1-.11-.99-.12-1.02.02-.01.36.85.39.94-.07-.25-.03-.76-.12-1.03,0-.07-.43-.93-.44-.91,0,.01.05.27.11.53.04.26.09.5.07.47-.09-.18-.31-.64-.43-.89-.14-.3-.33-.56-.48-.84-.1-.3-.19-.62-.31-.92-.02-.05-.12-.28-.21-.49-.1-.2-.2-.4-.18-.4.07-.01.6.76.63.74.05-.04-.43-.89-.41-.91.03-.02.67.81.64.76-.03-.12-.3-.77-.42-.93-.13-.24-.55-.48-.72-.7-.2-.27-.35-.6-.59-.84-.26-.21-.54-.4-.83-.56-.11-.08-.85-.52-.87-.49,0,0,.63.6.71.71.23.23.44.49.63.76-.25-.19-.51-.38-.8-.53-.14-.08-.66-.36-.83-.46-.11-.07-.64-.59-.74-.64-.27-.19-.52-.41-.81-.59l-.87-.54c-.1-.05-.79-.45-.92-.49-.08-.03-1.02-.17-1.02-.17,0,.03,1.02.43.94.44-.13,0-.77-.13-1.01-.17-.26-.05-.69-.06-1.02-.12-.15-.04-.79-.32-.99-.36-.28-.06-.76,0-1.04-.05-.4-.07-.62-.24-1.02-.3-.34-.05-.69-.23-1.04-.27-.13-.01-.98.05-1.06.03-.38-.08-.72-.15-1.06-.22-.26-.06-.94-.16-1.07-.21-.08-.03,1.08-.05,1.08-.07,0-.05-1-.16-1.08-.21l-1.08.08c-.12,0-1.1.07-1.09.09.02,0,1.05.18,1.09.19-.35,0-.73.1-1.09.09-.37-.02-.73-.17-1.1-.19-.36-.02-.73.11-1.09.09-.35-.02-.75-.16-1.1-.19-.35-.03-.75-.17-1.1-.19-.23,0-.9.11-1.09.09-.35-.03-.83-.14-1.1-.19-.11-.02-.99-.19-1.1-.19-.28,0-.88.07-1.09.09l-1.09.09c-.73.06-1.46.13-2.19.19l-1.1-.19c-.13-.02-1.11-.17-1.1-.19.02-.02,1.17-.07,1.1-.09-.18-.05-.81-.14-1.1-.19-.35-.06-.8-.12-1.1-.19-.32-.05-.77-.13-1.1-.19-.73.06-1.46.13-2.19.19-.3.03-.89.06-1.09.1-.14.03-1.09.06-1.09.1,0,0,.29.05.57.1.28.04.56.08.53.09-.11.01-.93.1-1.09.1-.36-.01-.73-.16-1.1-.18-.36,0-.73.11-1.09.1-.07,0-1.1-.18-1.1-.18.04-.05,1.1-.05,1.09-.1,0-.05-1.1-.14-1.1-.18,0,0,.27-.03.54-.05.27-.02.54-.04.55-.04-.29-.03-.79-.17-1.1-.18-.3-.01-.8.12-1.09.1-.3-.02-.8-.18-1.1-.18-.25,0-.91.08-1.09.1-.13.01-.94.11-1.1.1-.33-.02-.77-.17-1.1-.18-.37,0-.72.11-1.09.1-.31-.01-.81-.18-1.1-.18-.39,0-.69.11-1.09.1-.34,0-.75-.17-1.1-.18-.3-.01-.82.12-1.09.1-.05,0-.32-.05-.59-.09-.26-.04-.51-.09-.51-.09,0,0,1.02-.1,1.09-.1-.36-.01-.74-.17-1.1-.18-.21,0-.93.09-1.09.1-.21.02-.82.11-1.09.1-.32,0-.77-.16-1.1-.17-.31,0-.8.12-1.09.11-.25-.01-.88-.17-1.1-.17-.3,0-.87.08-1.09.11-.13.01-.93.11-1.09.11-.19,0-.95-.18-1.1-.17-.37.01-.8.08-1.09.11-.17.02-.86.11-1.09.11-.34,0-.76-.16-1.1-.17-.23,0-.89.13-1.09.11-.35-.03-.83-.13-1.1-.17-.12-.02-.96-.17-1.1-.17-.26,0-.9.09-1.09.11-.37.04-.73.07-1.09.11-.15.02-.89.12-1.09.11-.36,0-.74-.16-1.1-.17-.23,0-.89.13-1.09.11-.35-.03-.84-.13-1.1-.17-.23-.03-.79-.14-1.1-.16-.35-.02-.75-.15-1.1-.16-.31,0-.8.13-1.09.12-.21,0-.93-.16-1.1-.16-.33.01-.83.09-1.09.12-.09,0-1.02.13-1.09.12-.35-.02-.83-.12-1.1-.16-.15-.02-1.1-.13-1.1-.16,0-.02.94-.1,1.09-.12.08,0,1.12-.11,1.09-.12-.23-.06-.84-.1-1.1-.16-.73.08-1.45.16-2.18.24l-1.09.13-1.09.13c-.25.03-.76.12-1.09.13-.08,0-1.01-.14-1.1-.15-.16-.02-.9-.15-1.1-.15-.18,0-.95.11-1.09.13-.13.02-.93.13-1.09.13-.29,0-.83-.16-1.1-.15-.36,0-.72.13-1.09.13-.31,0-.81-.15-1.1-.14-.42.01-.67.13-1.09.14-.3,0-.79-.14-1.1-.14-.21,0-.92.12-1.09.14-.26.03-.76.13-1.09.14-.24,0-.83-.14-1.1-.14-.2,0-.92.15-1.09.14-.06,0-.34-.04-.6-.07-.26-.03-.5-.07-.5-.07,0-.05,1.02-.09,1.09-.14.07-.05,1.09-.09,1.09-.14,0-.04-.97-.1-1.11-.14-.2-.06-.87-.09-1.1-.14-.72.1-1.45.2-2.17.3-.36.05-.72.1-1.08.15-.36.05-.72.1-1.08.15-.13.02-.92.15-1.08.15-.22,0-.93-.11-1.1-.13-.13-.01-1.12-.11-1.11-.13,0,0,.25-.04.51-.08.26-.03.53-.07.58-.07-.29.01-.8-.13-1.11-.13-.07,0-1.08.15-1.08.15.02.02,1.17.11,1.11.13-.2.05-.78.11-1.08.15l-1.08.15c-.37,0-.74-.13-1.11-.12-.31,0-.79.16-1.08.16-.18,0-1.01-.1-1.11-.12-.07-.02,1.09-.14,1.08-.16,0-.04-1.16-.08-1.1-.12.08-.05,1.04-.11,1.08-.16.03-.04-1.06-.07-1.1-.12-.73.11-1.45.22-2.17.33-.1.02-.98.17-1.08.16-.05,0-.33-.03-.59-.05-.26-.03-.51-.06-.51-.06,0,0,.28-.05.56-.09.28-.04.55-.08.53-.08-.15-.02-.92-.12-1.11-.11-.21,0-.91.14-1.08.16-.13.02-.94.16-1.08.16-.26,0-.91-.09-1.11-.1-.18-.02-.87-.11-1.1-.1-.38,0-.74-.11-1.11-.1-.21,0-.92.15-1.08.18-.21.03-.81.16-1.08.18-.32.02-.78-.11-1.11-.1-.31.01-.79.18-1.08.18-.19,0-.96-.11-1.11-.1-.35.03-.8.13-1.08.18-.36.06-.72.13-1.08.19l-1.08.19c-.37-.03-.74-.06-1.11-.08-.15-.01-1.1-.06-1.11-.08,0-.02.93-.17,1.08-.19.26-.05.95-.14,1.08-.19.07-.03-1.09-.06-1.11-.09l-2.16.39c-.31.06-.7.15-1.08.19-.13.02-.93-.09-1.11-.08-.21.01-.91.17-1.08.19-.17.03-.86.18-1.08.19-.19.01-.96-.06-1.11-.07-.3-.02-.73-.07-1.11-.07-.27,0-.82-.09-1.11-.07-.31.02-.78.2-1.07.21-.42.02-.69-.08-1.11-.07-.29.01-.78.19-1.07.21-.21.01-.94-.06-1.11-.07-.13,0-.97-.08-1.11-.07-.05,0-.32.06-.57.1-.26.05-.5.11-.5.11,0,.04,1.17.03,1.11.07-.03.03-.9.18-1.07.21-.12.02-.94-.06-1.11-.05-.33.03-.75.21-1.07.23-.24.02-.92-.04-1.11-.05-.37-.02-.74-.03-1.11-.05-.28-.01-.76-.06-1.11-.05-.3,0-.8-.07-1.11-.05-.21.02-.91.19-1.07.23-.08.02-1.07.23-1.07.23-.08,0-.35-.01-.61-.02-.26,0-.5-.01-.5-.03,0-.03.92-.2,1.07-.23.19-.04,1.04-.19,1.07-.23.04-.04-1.11,0-1.11-.05,0-.04,1.13-.2,1.07-.23-.09-.04-.93-.02-1.12-.05-.22-.04-.86-.02-1.11-.04-.07.05-1.08.2-1.07.25,0,.04,1.16-.01,1.11.03-.06.05-.87.19-1.07.25-.26.08-.74.17-1.07.25-.31.07-.85.18-1.07.25-.14.05-1.07.21-1.07.25,0,.05,1.03,0,1.11.03l-2.13.49c-.74-.02-1.48-.04-2.22-.06l1.07-.25c.12-.03,1.08-.23,1.07-.25-.03-.03-.93-.02-1.11-.03-.35,0-.76-.02-1.11-.03l-2.13.5c-.2.05-.79.23-1.06.27-.04,0-1.08,0-1.1,0,0-.04,1.12-.26,1.05-.28-.04-.02-.93,0-1.11,0-.13.01-.88.26-1.05.29-.17.03-.98,0-1.1.04-.06.02-.33.09-.57.17-.24.08-.47.16-.47.16,0,.03,1.15-.11,1.1-.06-.06.05-.85.25-1.03.33-.25.1-.71.23-1.02.34l-1.01.37s-1.03.34-.99.39c-.03-.04-1.06.19-1.07.15-.02-.04,1.05-.39.99-.41-.09-.03-1.03.19-1.08.15-.05-.03,1-.37.99-.41,0,0-.24.02-.5.06-.26.04-.53.08-.59.09ZM56.84,2.7s.25.02.52.05c.27.02.55.04.59.04.29,0,.77-.18,1.08-.19.37-.02.74.1,1.11.08.37-.02.74.1,1.11.09.07,0,1.08-.19,1.08-.19,0-.03-.96-.07-1.11-.09-.25-.02-.78-.09-1.11-.08-.23,0-.84.19-1.08.19-.35,0-.76-.1-1.11-.08-.09,0-1.05.18-1.08.19Z"/><path class="cls-2" d="M1.54,15.51c.04-.06.17-.24.3-.42.15-.17.3-.34.35-.42.04-.05.46-.94.46-.94-.05-.03-.62.77-.71.81.09-.14.39-.87.47-.96-.2.3-.51.53-.72.83-.17.32-.31.65-.41,1-.05.15-.37,1-.35,1.01.02.01.52-.78.6-.89Z"/><path class="cls-2" d="M3.21,12.83c.18-.19.58-.46.84-.67.15-.12.49-.69.68-.82.19-.15.75-.43.93-.55.31-.22.67-.34.96-.49.22-.1.69-.31.97-.44.2-.09.64-.51.86-.62.31-.18.7-.18,1.03-.33.32-.13.58-.43.91-.55.33-.13.72-.14,1.06-.25.33-.13.73-.1,1.06-.21.3-.09.67-.35.97-.45-.02,0-1.06.19-1.07.19,0,0,.24-.12.48-.23.24-.12.49-.22.49-.22-.35.1-.73.09-1.08.2-.33.11-.64.35-.97.48-.33.13-.73.13-1.06.26-.34.12-.59.42-.92.56-.32.15-.72.17-1.04.34.34-.22.53-.4.91-.59.26-.12.77-.21,1.06-.31.18-.07.82-.44.95-.51.17-.11.94-.44.98-.48.02-.03-.25.03-.53.1-.28.06-.55.15-.56.13-.01-.03.86-.45.98-.49.05-.02,1.01-.19,1.09-.2.14-.02.93-.11,1.1-.16.2-.06.86-.35,1.02-.4.3-.11.66-.26,1.03-.38.23-.07.78-.3,1.04-.35.11-.02,1.06-.06,1.12-.06.36-.11.7-.21,1.05-.31.25-.08.94-.23,1.06-.3.06-.03-1.08.03-1.12.02-.07-.03,1.07-.26,1.07-.3-.01-.05-1.05.05-1.13.02-.71.21-1.42.41-2.12.65-.35.12-.7.23-1.05.35-.23.08-.74.3-1.04.38-.24.06-.86.06-1.12.14-.23.06-.83.38-1.02.42-.34.09-.84.16-1.11.21-.08,0-1.06.2-1.11.24-.35.16-.71.38-.98.52-.26.14-.81.46-.95.57-.05.05,1.04-.36,1.08-.32-.04.02-.83.5-.94.57-.31.2-.63.37-.92.59-.33.13-.72.28-1.04.4-.18.04-.96.49-1.01.47-.01,0,.17-.16.38-.33.2-.17.42-.34.48-.37.31-.22.61-.43.91-.65-.71.27-1.42.55-2.1.9-.29.25-.58.48-.85.76l-.79.8c-.22.24-.59.68-.72.86-.03.06.87-.69.91-.66-.03.04-.62.75-.7.85-.23.28-.44.55-.64.88-.1.15-.45.75-.58.91.26-.27.57-.53.8-.74Z"/><path class="cls-2" d="M203.32,90.91c.02-.09.13-.96.13-1.11,0-.38-.14-.71-.15-1.09,0,.06-.13,1.11-.13,1.11,0,0,.04.29.08.57.03.28.07.55.07.52Z"/><path class="cls-2" d="M170.78,2.37c.07,0,.34-.02.6-.04.26-.02.49-.05.49-.05,0-.02-.95-.16-1.1-.19-.04,0-.99.08-1.09.09.15,0,1,.19,1.1.19Z"/><path class="cls-2" d="M141.17.8s-1.03-.18-1.1-.18c-.12,0-1.03.09-1.09.11-.08.02,1.1.15,1.1.17.11-.05,1.05-.05,1.09-.1Z"/><path class="cls-2" d="M55.57,1.23s-1.05-.09-1.11-.08c-.36.02-.72.17-1.08.19.04,0,1.11.08,1.11.08-.07-.01,1.07-.17,1.08-.19Z"/><path class="cls-2" d="M.76,20.21s-.11,1.1-.15,1.11c-.05,0-.08-1.09-.13-1.09-.05,0-.1,1.03-.15,1.1l.28,2.18.28-2.21c-.05-.07-.08-1.09-.13-1.09Z"/><path class="cls-2" d="M128.55,211.48c-.36.11-.76.23-1.07.32-.15.04-1.08.28-1.07.3,0,0,1.05-.02,1.13-.03.18-.02.93-.28,1.07-.33.36-.11.71-.22,1.07-.34-.15.03-1.05.04-1.13.06Z"/><path class="cls-2" d="M146.88,206.66s1.03-.26,1.1-.29c.35-.14.63-.4.98-.54-.05.02-1.1.29-1.1.29,0,0-.96.53-.98.54Z"/></svg>