<svg xmlns="http://www.w3.org/2000/svg" xmlns:xlink="http://www.w3.org/1999/xlink" xmlns:inkscape="http://www.inkscape.org/namespaces/inkscape" version="1.1" width="1133.86" height="266.516" viewBox="0 0 1133.86 266.516">
<defs>
<clipPath id="clip_1">
<path transform="matrix(1,0,0,-1,0,266.516)" d="M0 266.516H1133.858V0H0Z"/>
</clipPath>
</defs>
<g inkscape:groupmode="layer" inkscape:label="Layer 1">
<g clip-path="url(#clip_1)">
<path transform="matrix(1,0,0,-1,1085.8975,188.71369)" d="M0 0C0-2.303-1.854-3.411-5.608-3.411H-56.119C-63.65-3.411-70.353-1.781-75.956 1.525-81.4 4.926-84.16 8.973-84.16 13.57V129.054C-84.16 131.357-82.279 132.442-78.602 132.442H-61.7C-57.973 132.442-56.119 131.357-56.119 129.054V81.455H-5.608C-1.854 81.455 0 80.365 0 78.099V68.004C0 65.674-1.854 64.589-5.608 64.589H-56.119V16.98C-56.119 14.737-54.21 13.57-50.483 13.57H-5.608C-1.854 13.57 0 12.485 0 10.218Z" fill="#5b2c86"/>
<path transform="matrix(1,0,0,-1,635.4433,188.26459)" d="M0 0C0-2.33-1.918-3.424-5.677-3.424H-28.165C-35.755-3.424-42.472-1.781-48.153 1.561-53.674 5.004-56.435 9.065-56.435 13.689V130.148C-56.435 132.474-54.558 133.595-50.84 133.595H-33.805C-30.042 133.595-28.165 132.474-28.165 130.148V17.131C-28.165 14.888-26.242 13.689-22.479 13.689H-5.677C-1.918 13.689 0 12.567 0 10.305Z" fill="#5b2c86"/>
<path transform="matrix(1,0,0,-1,866.4718,111.9957)" d="M0 0C-5.659 3.269-12.269 4.944-19.819 4.944H-43.621-44.802-78.662C-86.193 4.944-92.831 3.269-98.499 0-103.961-3.37-106.731-7.353-106.731-11.954V-76.492C-106.731-78.859-104.84-79.939-101.109-79.939H-84.298C-80.557-79.939-78.662-78.859-78.662-76.492V-15.373C-78.662-13.089-76.799-11.954-73.063-11.954H-44.802-43.621-25.441C-21.678-11.954-19.819-13.089-19.819-15.373V-76.492C-19.819-78.859-17.924-79.939-14.192-79.939H2.614C6.382-79.939 8.222-78.859 8.222-76.492V-11.954C8.222-7.353 5.485-3.37 0 0" fill="#5b2c86"/>
<path transform="matrix(1,0,0,-1,638.9369,123.970798)" d="M0 0C0 4.578 2.806 8.598 8.36 11.976 13.885 15.245 20.405 16.948 27.867 16.948H83.812C91.398 16.948 97.977 15.245 103.604 11.976 109.111 8.598 111.863 4.578 111.863 0V-20.309C111.863-24.937 109.111-28.929 103.604-32.221 98.101-35.577 91.444-37.326 83.812-37.326H27.867V-47.503C27.867-49.755 29.753-50.905 33.434-50.905H105.504C109.258-50.905 111.112-51.994 111.112-54.288V-64.373C111.112-66.621 109.258-67.734 105.504-67.734H27.867C20.405-67.734 13.885-66.077 8.36-62.794 2.806-59.585 0-55.602 0-50.905ZM27.867-3.406V-20.309H78.241C81.954-20.309 83.812-19.173 83.812-16.93V-3.406C83.812-1.19 81.954 0 78.241 0H33.434C29.753 0 27.867-1.19 27.867-3.406" fill="#5b2c86"/>
<path transform="matrix(1,0,0,-1,882.1955,123.970798)" d="M0 0C0 4.578 2.783 8.598 8.355 11.976 13.863 15.245 20.405 16.948 27.885 16.948H83.785C91.385 16.948 97.982 15.245 103.567 11.976 109.084 8.598 111.84 4.578 111.84 0V-20.309C111.84-24.937 109.084-28.929 103.567-32.221 98.078-35.577 91.426-37.326 83.785-37.326H27.885V-47.503C27.885-49.755 29.758-50.905 33.439-50.905H105.453C109.249-50.905 111.089-51.994 111.089-54.288V-64.373C111.089-66.621 109.249-67.734 105.453-67.734H27.885C20.405-67.734 13.863-66.077 8.355-62.794 2.783-59.585 0-55.602 0-50.905ZM27.885-3.406V-20.309H78.241C81.889-20.309 83.785-19.173 83.785-16.93V-3.406C83.785-1.19 81.889 0 78.241 0H33.439C29.758 0 27.885-1.19 27.885-3.406" fill="#5b2c86"/>
<path transform="matrix(1,0,0,-1,245.5294,163.9262)" d="M0 0V36.712C0 38.969 1.895 40.132 5.526 40.132H77.604C81.349 40.132 83.222 41.226 83.222 43.506V53.601C83.222 55.854 81.349 56.966 77.604 56.966H0C-7.481 56.966-14.018 55.304-19.503 52.022-25.065 48.78-27.895 44.82-27.895 40.132V0-2.056-10.946C-27.895-15.648-25.065-19.631-19.503-22.836-14.018-26.118-7.481-27.785 0-27.785H77.604C81.349-27.785 83.222-26.668 83.222-24.42V-14.334C83.222-12.036 81.349-10.946 77.604-10.946H5.526C1.895-10.946 0-9.802 0-7.549V-2.056Z" fill="#5b2c86"/>
<path transform="matrix(1,0,0,-1,564.5725,111.9032)" d="M0 0C-5.476 3.283-12.013 4.944-19.498 4.944H-84.284V52.36 53.798C-84.284 56.142-86.184 57.236-89.956 57.236H-107.051C-110.769 57.236-112.691 56.142-112.691 53.798V52.36-75.288-76.794C-112.691-79.111-110.769-80.214-106.982-80.214H-89.901C-88.629-80.214-87.589-80.072-86.742-79.806H-19.498C-12.013-79.806-5.476-78.145 0-74.862 5.558-71.653 8.369-67.67 8.369-62.973V-54.082-52.022-11.889C8.369-7.201 5.558-3.241 0 0M-19.498-52.022V-54.082-59.571C-19.498-61.823-21.353-62.973-25.047-62.973H-84.284V-11.889H-25.047C-21.353-11.889-19.498-13.052-19.498-15.309Z" fill="#5b2c86"/>
<path transform="matrix(1,0,0,-1,444.1001,174.89499)" d="M0 0C0-4.564-2.765-8.547-8.286-11.94-13.748-15.167-20.24-16.811-27.666-16.811H-83.112C-90.661-16.811-97.208-15.167-102.771-11.94-108.228-8.547-110.956-4.564-110.956 0V20.126C-110.956 24.727-108.228 28.687-102.771 31.946-97.309 35.302-90.716 36.964-83.112 36.964H-27.666V47.1C-27.666 49.33-29.511 50.456-33.164 50.456H-69.336C-73.045 50.456-74.885 51.541-74.885 53.848V63.861C-74.885 66.077-73.045 67.166-69.336 67.166H-27.666C-20.24 67.166-13.748 65.532-8.286 62.286-2.765 59.058 0 55.167 0 50.456ZM-27.666 3.392V20.126H-77.632C-81.285 20.126-83.112 18.967-83.112 16.779V3.392C-83.112 1.154-81.285 0-77.632 0H-33.164C-29.511 0-27.666 1.154-27.666 3.392" fill="#5b2c86"/>
<path transform="matrix(1,0,0,-1,64.5109,191.69089)" d="M0 0 70.966 84.797H54.402L-16.55 0Z" fill="#5b2c86"/>
<path transform="matrix(1,0,0,-1,102.7971,191.69089)" d="M0 0 70.966 84.797H54.402L-16.564 0Z" fill="#5b2c86"/>
<path transform="matrix(1,0,0,-1,141.0879,191.69089)" d="M0 0 70.952 84.797H54.398L-16.568 0Z" fill="#5b2c86"/>
</g>
</g>
</svg>
