<svg xmlns="http://www.w3.org/2000/svg" xmlns:xlink="http://www.w3.org/1999/xlink" xmlns:inkscape="http://www.inkscape.org/namespaces/inkscape" version="1.1" width="1200" height="1200" viewBox="0 0 1200 1200">
<defs>
<clipPath id="clip_1">
<path transform="matrix(1,0,0,-1,0,1200)" d="M0 1200H1200V0H0Z"/>
</clipPath>
</defs>
<g clip-path="url(#clip_1)">
<path transform="matrix(1,0,0,-1,126.6627,677.7319)" d="M0 0H-41.457V68.463C-41.411 126.033 5.005 172.691 62.277 172.738H138.19V131.281H62.719C30.255 131.189 .046 100.346 0 67.828Z" fill="#ff5a00"/>
<path transform="matrix(1,0,0,-1,0,1200)" d="M85.206 753.736H264.853V712.27908H85.206Z" fill="#ff5a00"/>
<path transform="matrix(1,0,0,-1,875.2314,647.4554)" d="M0 0C-25.251 0-40.403 18.717-40.403 43.968-40.403 69.222-25.251 87.936 0 87.936 27.628 87.936 40.997 67.736 40.997 43.968 40.997 20.203 27.628 0 0 0M32.205 108.842C22.964 116.212 9.704 119.99-3.778 119.676-5.138 119.696-6.501 119.674-7.861 119.616-47.978 117.877-79.092 83.943-77.353 43.826-77.353-5.802-41.27-32.025-7.677-32.025 9.755-33.363 35.66-11.221 35.66-11.221V-30.277H70.207V197.737H32.205Z" fill="#ff5a00"/>
<path transform="matrix(1,0,0,-1,533.6216,645.692)" d="M0 0C-.756-.014-1.512-.01-2.268 .017-25.85 .35-44.7 19.739-44.367 43.323-44.031 66.908-24.643 85.755-1.06 85.422 22.309 85.091 41.072 66.036 41.043 42.664 41.49 19.548 23.116 .447 0 0M-.582 119.331C-42.891 119.927-77.672 86.117-78.269 43.811-78.868 1.505-45.058-33.276-2.751-33.875-1.396-33.921-.039-33.933 1.319-33.907 42.782-33.102 75.747 1.162 74.942 42.628 74.998 84.554 41.34 118.737-.582 119.331" fill="#ff5a00"/>
<path transform="matrix(1,0,0,-1,704.6667,645.692)" d="M0 0C-.756-.014-1.512-.01-2.268 .017-25.85 .35-44.7 19.739-44.364 43.323-44.031 66.908-24.643 85.755-1.06 85.422 22.311 85.091 41.074 66.036 41.043 42.664 41.49 19.548 23.116 .447 0 0M-.582 119.331C-42.888 119.927-77.67 86.117-78.269 43.811-78.868 1.505-45.058-33.276-2.751-33.875-1.394-33.921-.039-33.933 1.319-33.907 42.784-33.102 75.747 1.162 74.942 42.628 74.998 84.554 41.34 118.737-.582 119.331" fill="#ff5a00"/>
<path transform="matrix(1,0,0,-1,365.0406,518.8134)" d="M0 0V-6.909H-24.183V-38.002H0V-158.919H38.002V-38.002H82.914V-6.909H38.002V2.888C38.034 24.817 53.058 34.548 82.838 34.548H82.914V72.55H68.954C30.254 72.518-1.109 41.155-1.14 2.456" fill="#ff5a00"/>
<path transform="matrix(1,0,0,-1,1080.1742,529.1776)" d="M0 0V-81.735C0-101.201-17.227-117.283-36.763-117.462-36.937-117.464-37.111-117.464-37.285-117.464-37.449-117.464-37.613-117.464-37.775-117.462-57.132-117.278-72.599-101.301-72.55-82.015L-72.464 3.455H-107.097L-107.096-91.806C-107.096-104.706-102.65-117.329-94.067-126.96-84.63-137.549-69.423-148.193-46.419-148.193-30.398-149.464-14.89-142.386-4.976-129.452-4.976-129.452-3.768-127.843-3.455-127.389V-144.12C-3.522-169.43-23.796-189.941-48.837-190.011H-107.097V-224.559H-45.9C-2.378-224.523 33.045-190.162 34.548-147.222L34.62 0Z" fill="#ff5a00"/>
</g>
</svg>
