<svg width="1030" height="308" viewBox="0 0 1030 308" fill="none" xmlns="http://www.w3.org/2000/svg">
<path d="M41.457 231.469H0V163.006C0.046 105.436 46.462 58.7775 103.734 58.7305H179.647V100.188H104.176C71.712 100.28 41.503 131.123 41.457 163.641V231.469Z" fill="#FF5A00"/>
<path d="M0.000305176 0.000549316H179.647V41.4575H0.000305176V0.000549316Z" fill="#FF5A00"/>
<path d="M790.026 201.192C764.775 201.192 749.623 182.475 749.623 157.224C749.623 131.97 764.775 113.256 790.026 113.256C817.654 113.256 831.023 133.456 831.023 157.224C831.023 180.989 817.654 201.192 790.026 201.192ZM822.231 92.3501C812.99 84.9801 799.73 81.2021 786.248 81.5161C784.888 81.4961 783.525 81.5181 782.165 81.5761C742.048 83.3151 710.934 117.249 712.673 157.366C712.673 206.994 748.756 233.217 782.349 233.217C799.781 234.555 825.686 212.413 825.686 212.413V231.469H860.233V3.45511H822.231V92.3501Z" fill="#FF5A00"/>
<path d="M448.416 199.429C447.66 199.443 446.904 199.439 446.148 199.412C422.566 199.079 403.716 179.69 404.049 156.106C404.385 132.521 423.773 113.674 447.356 114.007C470.725 114.338 489.488 133.393 489.459 156.765C489.906 179.881 471.532 198.982 448.416 199.429ZM447.834 80.0976C405.525 79.5016 370.744 113.312 370.147 155.618C369.548 197.924 403.358 232.705 445.665 233.304C447.02 233.35 448.377 233.362 449.735 233.336C491.198 232.531 524.163 198.267 523.358 156.801C523.414 114.875 489.756 80.6916 447.834 80.0976Z" fill="#FF5A00"/>
<path d="M619.461 199.429C618.705 199.443 617.949 199.439 617.193 199.412C593.611 199.079 574.761 179.69 575.097 156.106C575.43 132.521 594.818 113.674 618.401 114.007C641.772 114.338 660.535 133.393 660.504 156.765C660.951 179.881 642.577 198.982 619.461 199.429ZM618.879 80.0976C576.573 79.5016 541.791 113.312 541.192 155.618C540.593 197.924 574.403 232.705 616.71 233.304C618.067 233.35 619.422 233.362 620.78 233.336C662.245 232.531 695.208 198.267 694.403 156.801C694.459 114.875 660.801 80.6916 618.879 80.0976Z" fill="#FF5A00"/>
<path d="M279.835 72.55V79.459H255.652V110.552H279.835V231.469H317.837V110.552H362.749V79.459H317.837V69.662C317.869 47.733 332.893 38.002 362.673 38.002H362.749V-1.52588e-05H348.789C310.089 0.0319847 278.726 31.395 278.695 70.094" fill="#FF5A00"/>
<path d="M994.969 82.9141V164.649C994.969 184.115 977.742 200.197 958.206 200.376C958.032 200.378 957.858 200.378 957.684 200.378C957.52 200.378 957.356 200.378 957.194 200.376C937.837 200.192 922.37 184.215 922.419 164.929L922.505 79.4591H887.872L887.873 174.72C887.873 187.62 892.319 200.243 900.902 209.874C910.339 220.463 925.546 231.107 948.55 231.107C964.571 232.378 980.079 225.3 989.993 212.366C989.993 212.366 991.201 210.757 991.514 210.303V227.034C991.447 252.344 971.173 272.855 946.132 272.925H887.872V307.473H949.069C992.591 307.437 1028.01 273.076 1029.52 230.136L1029.59 82.9141H994.969Z" fill="#FF5A00"/>
</svg>
