<?xml version="1.0" encoding="UTF-8" standalone="no"?>
<!-- Created with Inkscape (http://www.inkscape.org/) -->

<svg
   version="1.1"
   id="svg1"
   width="428.22534"
   height="122.8852"
   viewBox="0 0 428.22534 122.8852"
   sodipodi:docname="G_anco.ai"
   xmlns:inkscape="http://www.inkscape.org/namespaces/inkscape"
   xmlns:sodipodi="http://sodipodi.sourceforge.net/DTD/sodipodi-0.dtd"
   xmlns="http://www.w3.org/2000/svg"
   xmlns:svg="http://www.w3.org/2000/svg">
  <defs
     id="defs1">
    <clipPath
       clipPathUnits="userSpaceOnUse"
       id="clipPath2">
      <path
         d="M 0,92.164 H 321.169 V 0 H 0 Z"
         transform="translate(-78.027902,-35.829401)"
         id="path2" />
    </clipPath>
    <clipPath
       clipPathUnits="userSpaceOnUse"
       id="clipPath4">
      <path
         d="M 0,92.164 H 321.169 V 0 H 0 Z"
         transform="translate(-78.027902,-29.809101)"
         id="path4" />
    </clipPath>
    <clipPath
       clipPathUnits="userSpaceOnUse"
       id="clipPath6">
      <path
         d="M 0,92.164 H 321.169 V 0 H 0 Z"
         transform="translate(-58.626601,-46.397301)"
         id="path6" />
    </clipPath>
    <clipPath
       clipPathUnits="userSpaceOnUse"
       id="clipPath8">
      <path
         d="M 0,92.164 H 321.169 V 0 H 0 Z"
         transform="translate(-78.027902,-18.4272)"
         id="path8" />
    </clipPath>
    <clipPath
       clipPathUnits="userSpaceOnUse"
       id="clipPath10">
      <path
         d="M 0,92.164 H 321.169 V 0 H 0 Z"
         transform="translate(-72.824002,-92.157602)"
         id="path10" />
    </clipPath>
    <clipPath
       clipPathUnits="userSpaceOnUse"
       id="clipPath12">
      <path
         d="M 0,92.164 H 321.169 V 0 H 0 Z"
         transform="translate(-157.56651,-25.538001)"
         id="path12" />
    </clipPath>
    <clipPath
       clipPathUnits="userSpaceOnUse"
       id="clipPath14">
      <path
         d="M 0,92.164 H 321.169 V 0 H 0 Z"
         transform="translate(-206.73691,-26.0563)"
         id="path14" />
    </clipPath>
    <clipPath
       clipPathUnits="userSpaceOnUse"
       id="clipPath16">
      <path
         d="M 0,92.164 H 321.169 V 0 H 0 Z"
         transform="translate(-273.0292,-46.275101)"
         id="path16" />
    </clipPath>
    <clipPath
       clipPathUnits="userSpaceOnUse"
       id="clipPath18">
      <path
         d="M 0,92.164 H 321.169 V 0 H 0 Z"
         transform="translate(-299.39221,-41.262601)"
         id="path18" />
    </clipPath>
    <clipPath
       clipPathUnits="userSpaceOnUse"
       id="clipPath20">
      <path
         d="M 0,92.164 H 321.169 V 0 H 0 Z"
         transform="translate(-139.0336,-2.1357001)"
         id="path20" />
    </clipPath>
    <clipPath
       clipPathUnits="userSpaceOnUse"
       id="clipPath22">
      <path
         d="M 0,92.164 H 321.169 V 0 H 0 Z"
         transform="translate(-146.8168,-3.9648001)"
         id="path22" />
    </clipPath>
    <clipPath
       clipPathUnits="userSpaceOnUse"
       id="clipPath24">
      <path
         d="M 0,92.164 H 321.169 V 0 H 0 Z"
         transform="translate(-159.0957,-2.3477026)"
         id="path24" />
    </clipPath>
    <clipPath
       clipPathUnits="userSpaceOnUse"
       id="clipPath26">
      <path
         d="M 0,92.164 H 321.169 V 0 H 0 Z"
         id="path26" />
    </clipPath>
    <clipPath
       clipPathUnits="userSpaceOnUse"
       id="clipPath28">
      <path
         d="M 0,92.164 H 321.169 V 0 H 0 Z"
         transform="translate(-183.1215,-2.3477026)"
         id="path28" />
    </clipPath>
    <clipPath
       clipPathUnits="userSpaceOnUse"
       id="clipPath30">
      <path
         d="M 0,92.164 H 321.169 V 0 H 0 Z"
         id="path30" />
    </clipPath>
    <clipPath
       clipPathUnits="userSpaceOnUse"
       id="clipPath32">
      <path
         d="M 0,92.164 H 321.169 V 0 H 0 Z"
         transform="translate(-194.9755,-2.3477026)"
         id="path32" />
    </clipPath>
    <clipPath
       clipPathUnits="userSpaceOnUse"
       id="clipPath34">
      <path
         d="M 0,92.164 H 321.169 V 0 H 0 Z"
         transform="translate(-213.22021,-3.7128976)"
         id="path34" />
    </clipPath>
    <clipPath
       clipPathUnits="userSpaceOnUse"
       id="clipPath36">
      <path
         d="M 0,92.164 H 321.169 V 0 H 0 Z"
         id="path36" />
    </clipPath>
    <clipPath
       clipPathUnits="userSpaceOnUse"
       id="clipPath38">
      <path
         d="M 0,92.164 H 321.169 V 0 H 0 Z"
         transform="translate(-242.41741)"
         id="path38" />
    </clipPath>
    <clipPath
       clipPathUnits="userSpaceOnUse"
       id="clipPath40">
      <path
         d="M 0,92.164 H 321.169 V 0 H 0 Z"
         transform="translate(-251.6455,-2.1357001)"
         id="path40" />
    </clipPath>
    <clipPath
       clipPathUnits="userSpaceOnUse"
       id="clipPath42">
      <path
         d="M 0,92.164 H 321.169 V 0 H 0 Z"
         id="path42" />
    </clipPath>
    <clipPath
       clipPathUnits="userSpaceOnUse"
       id="clipPath44">
      <path
         d="M 0,92.164 H 321.169 V 0 H 0 Z"
         transform="translate(-268.25971,-5.6220976)"
         id="path44" />
    </clipPath>
    <clipPath
       clipPathUnits="userSpaceOnUse"
       id="clipPath46">
      <path
         d="M 0,92.164 H 321.169 V 0 H 0 Z"
         transform="translate(-276.29491,-2.3477026)"
         id="path46" />
    </clipPath>
    <clipPath
       clipPathUnits="userSpaceOnUse"
       id="clipPath48">
      <path
         d="M 0,92.164 H 321.169 V 0 H 0 Z"
         id="path48" />
    </clipPath>
    <clipPath
       clipPathUnits="userSpaceOnUse"
       id="clipPath50">
      <path
         d="M 0,92.164 H 321.169 V 0 H 0 Z"
         transform="translate(-300.75871,-2.3477026)"
         id="path50" />
    </clipPath>
    <clipPath
       clipPathUnits="userSpaceOnUse"
       id="clipPath52">
      <path
         d="M 0,92.164 H 321.169 V 0 H 0 Z"
         transform="translate(-314.87981,-2.3477026)"
         id="path52" />
    </clipPath>
  </defs>
  <sodipodi:namedview
     id="namedview1"
     pagecolor="#ffffff"
     bordercolor="#000000"
     borderopacity="0.25"
     inkscape:showpageshadow="2"
     inkscape:pageopacity="0.0"
     inkscape:pagecheckerboard="0"
     inkscape:deskcolor="#d1d1d1">
    <inkscape:page
       x="0"
       y="0"
       inkscape:label="1"
       id="page1"
       width="428.22534"
       height="122.8852"
       margin="0"
       bleed="0" />
  </sodipodi:namedview>
  <g
     id="layer-MC0"
     inkscape:groupmode="layer"
     inkscape:label="Layer 1">
    <path
       id="path1"
       d="m 0,0 c -1.967,-1.271 -4.305,-2.021 -6.822,-2.021 -3.789,0 -7.194,1.694 -9.503,4.358 L -62.844,-4.132 -52.581,-13.833 0,-2.348 Z"
       style="fill:#cc1d2a;fill-opacity:1;fill-rule:nonzero;stroke:none"
       transform="matrix(1.3333333,0,0,-1.3333333,104.0372,75.112667)"
       clip-path="url(#clipPath2)" />
    <path
       id="path3"
       d="m 0,0 -43.159,-14.974 9.28,-6.332 L 0,-7.152 Z"
       style="fill:#cc1d2a;fill-opacity:1;fill-rule:nonzero;stroke:none"
       transform="matrix(1.3333333,0,0,-1.3333333,104.0372,83.139733)"
       clip-path="url(#clipPath4)" />
    <path
       id="path5"
       d="m 0,0 c 0,2.221 0.589,4.31 1.597,6.127 l -54.879,4.058 -5.345,-6.602 4.224,-6.472 54.644,0.455 C 0.088,-1.646 0,-0.835 0,0"
       style="fill:#cc1d2a;fill-opacity:1;fill-rule:nonzero;stroke:none"
       transform="matrix(1.3333333,0,0,-1.3333333,78.1688,61.022133)"
       clip-path="url(#clipPath6)" />
    <path
       id="path7"
       d="m 0,0 -24.459,-13.86 c 0,0 6.884,-5.205 24.179,-2.671 H 0 Z"
       style="fill:#cc1d2a;fill-opacity:1;fill-rule:nonzero;stroke:none"
       transform="matrix(1.3333333,0,0,-1.3333333,104.0372,98.3156)"
       clip-path="url(#clipPath8)" />
    <path
       id="path9"
       d="m 0,0 c -10.399,0.141 -17.428,-2.113 -17.428,-2.113 l 50.749,-30.929 -58.907,27.134 -8.157,-5.761 67.345,-25.729 -79.014,21.37 -11.1,-9.277 48.57,-9.599 c 1.865,1.087 4.018,1.721 6.324,1.721 4.074,0 7.682,-1.94 9.982,-4.934 l 24.82,-4.907 -23.044,1.711 c 0.527,-1.389 0.828,-2.88 0.828,-4.447 0,-0.77 -0.098,-1.501 -0.231,-2.228 l 22.726,0.185 -22.916,-3.18 v -6.525 l 23.201,5.068 -23.201,-8.056 v -6.779 l 23.055,9.63 -23.055,-13.057 v -19.559 h 32.619 v 46.68 C 43.581,-6.611 10.409,-0.14 0,0"
       style="fill:#cc1d2a;fill-opacity:1;fill-rule:nonzero;stroke:none"
       transform="matrix(1.3333333,0,0,-1.3333333,97.098667,0.0084)"
       clip-path="url(#clipPath10)" />
    <path
       id="path11"
       d="m 0,0 c -1.39,-0.262 -2.766,-0.342 -4.153,-0.342 -12.18,0 -21.608,10.712 -21.608,22.551 0,11.841 10.285,21.255 21.87,21.255 11.93,0 22.033,-9.762 22.033,-21.773 V 0.518 H 1.986 v 19.443 c 0,3.453 -2.078,6.736 -5.877,6.736 -3.118,0 -6.049,-2.586 -6.049,-5.785 0,-3.286 2.501,-5.877 5.698,-6.049 1.556,0 2.943,0.429 4.242,1.385 z"
       style="fill:#5a5758;fill-opacity:1;fill-rule:nonzero;stroke:none"
       transform="matrix(1.3333333,0,0,-1.3333333,210.08867,88.834533)"
       clip-path="url(#clipPath12)" />
    <path
       id="path13"
       d="m 0,0 v 23.768 c 0,1.896 -1.03,3.624 -3.107,3.624 -1.987,0 -3.108,-1.817 -3.108,-3.624 V 0 h -15.644 v 23.502 c 0,10.198 7.685,19.444 18.315,19.444 11.753,0 19.19,-9.499 19.19,-20.739 V 0 Z"
       style="fill:#5a5758;fill-opacity:1;fill-rule:nonzero;stroke:none"
       transform="matrix(1.3333333,0,0,-1.3333333,275.6492,88.143467)"
       clip-path="url(#clipPath14)" />
    <path
       id="path15"
       d="m 0,0 c -0.867,-12.011 -10.022,-21.079 -22.212,-21.079 -12.094,0 -21.518,10.538 -21.518,22.29 0,11.492 9.941,21.516 21.518,21.516 10.284,0 19.871,-7.171 21.863,-17.45 l -15.986,-0.52 c -1.293,1.811 -3.112,2.936 -5.355,2.936 -3.455,0 -6.219,-2.855 -6.219,-6.307 0,-3.199 2.936,-6.052 6.129,-6.052 3.114,0 5.099,1.988 6.142,4.666 z"
       style="fill:#5a5758;fill-opacity:1;fill-rule:nonzero;stroke:none"
       transform="matrix(1.3333333,0,0,-1.3333333,364.03893,61.185067)"
       clip-path="url(#clipPath16)" />
    <path
       id="path17"
       d="m 0,0 c 3.201,0 5.963,2.595 5.963,5.795 0,3.28 -2.85,5.878 -6.049,5.878 -3.019,0 -5.62,-2.513 -5.62,-5.533 C -5.706,2.941 -3.281,0 0,0 m -0.178,27.74 c 11.926,0 21.955,-9.939 21.955,-21.866 0,-11.924 -10.029,-21.941 -21.955,-21.941 -12.008,0 -21.605,10.37 -21.605,22.119 0,11.837 9.857,21.688 21.605,21.688"
       style="fill:#5a5758;fill-opacity:1;fill-rule:nonzero;stroke:none"
       transform="matrix(1.3333333,0,0,-1.3333333,399.1896,67.8684)"
       clip-path="url(#clipPath18)" />
    <path
       id="path19"
       d="m 0,0 c -0.743,0 -1.43,0.117 -2.062,0.351 -0.632,0.234 -1.18,0.568 -1.644,1.001 -0.464,0.433 -0.824,0.946 -1.081,1.538 -0.256,0.592 -0.384,1.247 -0.384,1.963 0,0.715 0.128,1.37 0.384,1.961 0.257,0.593 0.617,1.106 1.081,1.539 0.464,0.433 1.012,0.767 1.644,1.001 C -1.43,9.588 -0.743,9.705 0,9.705 0.911,9.705 1.717,9.546 2.42,9.229 3.123,8.91 3.704,8.45 4.164,7.85 L 2.188,6.086 C 1.914,6.431 1.611,6.697 1.28,6.888 0.948,7.078 0.575,7.173 0.159,7.173 -0.168,7.173 -0.464,7.12 -0.729,7.014 -0.995,6.908 -1.222,6.753 -1.412,6.55 -1.602,6.347 -1.75,6.101 -1.856,5.813 -1.962,5.526 -2.015,5.206 -2.015,4.853 c 0,-0.354 0.053,-0.674 0.159,-0.961 0.106,-0.288 0.254,-0.534 0.444,-0.737 0.19,-0.203 0.417,-0.358 0.683,-0.464 0.265,-0.106 0.561,-0.159 0.888,-0.159 0.416,0 0.789,0.095 1.121,0.285 0.331,0.19 0.634,0.457 0.908,0.802 L 4.164,1.855 C 3.704,1.264 3.123,0.806 2.42,0.483 1.717,0.161 0.911,0 0,0"
       style="fill:#5a5758;fill-opacity:1;fill-rule:nonzero;stroke:none"
       transform="matrix(1.3333333,0,0,-1.3333333,185.37813,120.0376)"
       clip-path="url(#clipPath20)" />
    <path
       id="path21"
       d="M 0,0 0.796,2.254 H 5.065 L 5.861,0 Z M -2.413,-1.617 1.645,7.664 H 4.721 L 8.778,-1.617 H 5.542 L 2.546,6.179 h 1.22 L 0.769,-1.617 Z"
       style="fill:#5a5758;fill-opacity:1;fill-rule:nonzero;stroke:none"
       transform="matrix(1.3333333,0,0,-1.3333333,195.75573,117.5988)"
       clip-path="url(#clipPath22)" />
    <path
       id="path23"
       d="M 0,0 V 6.854 H -2.718 V 9.281 H 5.847 V 6.854 H 3.129 L 3.129,0 Z"
       style="fill:#5a5758;fill-opacity:1;fill-rule:nonzero;stroke:none"
       transform="matrix(1.3333333,0,0,-1.3333333,212.1276,119.75493)"
       clip-path="url(#clipPath24)" />
    <path
       id="path25"
       d="m 170.061,8.182 h 4.137 V 5.928 h -4.137 z m 0.212,-3.474 h 4.641 v -2.36 h -7.717 v 9.281 h 7.544 v -2.36 h -4.468 z"
       style="fill:#5a5758;fill-opacity:1;fill-rule:nonzero;stroke:none"
       transform="matrix(1.3333333,0,0,-1.3333333,0,122.8852)"
       clip-path="url(#clipPath26)" />
    <path
       id="path27"
       d="M 0,0 -2.281,3.381 H 1.034 L 3.341,0 Z m -2.426,3.274 -1.393,1.419 h 2.533 c 0.433,0 0.753,0.098 0.961,0.292 0.208,0.195 0.312,0.46 0.312,0.796 0,0.336 -0.104,0.601 -0.312,0.795 -0.208,0.195 -0.528,0.292 -0.961,0.292 h -2.533 l 1.393,1.419 z M -5.556,0 v 9.281 h 4.469 C -0.221,9.281 0.528,9.14 1.16,8.857 1.792,8.574 2.281,8.17 2.625,7.644 2.97,7.118 3.143,6.497 3.143,5.781 3.143,5.064 2.97,4.448 2.625,3.932 2.281,3.414 1.792,3.019 1.16,2.744 0.528,2.471 -0.221,2.333 -1.087,2.333 h -2.732 l 1.393,1.286 V 0 Z"
       style="fill:#5a5758;fill-opacity:1;fill-rule:nonzero;stroke:none"
       transform="matrix(1.3333333,0,0,-1.3333333,244.162,119.75493)"
       clip-path="url(#clipPath28)" />
    <path
       id="path29"
       d="m 188.889,11.629 h 3.129 V 2.348 h -3.129 z"
       style="fill:#5a5758;fill-opacity:1;fill-rule:nonzero;stroke:none"
       transform="matrix(1.3333333,0,0,-1.3333333,0,122.8852)"
       clip-path="url(#clipPath30)" />
    <path
       id="path31"
       d="M 0,0 V 9.281 H 2.572 L 7.292,3.633 H 6.099 v 5.648 h 3.05 L 9.149,0 H 6.577 L 1.856,5.648 H 3.05 V 0 Z"
       style="fill:#5a5758;fill-opacity:1;fill-rule:nonzero;stroke:none"
       transform="matrix(1.3333333,0,0,-1.3333333,259.96733,119.75493)"
       clip-path="url(#clipPath32)" />
    <path
       id="path33"
       d="m 0,0 v 3.527 h 2.718 v -3.924 z m -1.326,-1.577 c -0.752,0 -1.443,0.117 -2.075,0.35 -0.632,0.235 -1.18,0.569 -1.644,1.001 -0.464,0.434 -0.825,0.947 -1.081,1.538 -0.256,0.593 -0.384,1.248 -0.384,1.963 0,0.716 0.128,1.371 0.384,1.962 0.256,0.593 0.619,1.106 1.087,1.538 0.469,0.434 1.023,0.768 1.664,1.002 0.641,0.234 1.346,0.351 2.115,0.351 0.92,0 1.739,-0.154 2.46,-0.464 C 1.92,7.354 2.515,6.913 2.983,6.338 L 0.981,4.575 C 0.689,4.91 0.373,5.165 0.033,5.337 -0.307,5.51 -0.685,5.596 -1.101,5.596 -1.445,5.596 -1.757,5.543 -2.036,5.437 -2.314,5.331 -2.55,5.176 -2.745,4.973 -2.939,4.77 -3.089,4.526 -3.196,4.243 -3.302,3.96 -3.354,3.638 -3.354,3.275 c 0,-0.344 0.052,-0.661 0.158,-0.948 0.107,-0.287 0.257,-0.532 0.451,-0.735 0.195,-0.204 0.427,-0.361 0.696,-0.471 0.27,-0.111 0.572,-0.166 0.908,-0.166 0.354,0 0.699,0.06 1.035,0.179 0.335,0.119 0.694,0.325 1.074,0.617 l 1.75,-2.148 C 2.152,-0.777 1.507,-1.069 0.782,-1.272 0.057,-1.476 -0.646,-1.577 -1.326,-1.577"
       style="fill:#5a5758;fill-opacity:1;fill-rule:nonzero;stroke:none"
       transform="matrix(1.3333333,0,0,-1.3333333,284.2936,117.93467)"
       clip-path="url(#clipPath34)" />
    <path
       id="path35"
       d="m 227.01,8.182 h 4.137 V 5.928 h -4.137 z m 0.212,-3.474 h 4.641 v -2.36 h -7.717 v 9.281 h 7.544 v -2.36 h -4.468 z"
       style="fill:#5a5758;fill-opacity:1;fill-rule:nonzero;stroke:none"
       transform="matrix(1.3333333,0,0,-1.3333333,0,122.8852)"
       clip-path="url(#clipPath36)" />
    <path
       id="path37"
       d="m 0,0 c -0.434,0 -0.835,0.043 -1.207,0.126 -0.371,0.085 -0.731,0.224 -1.081,0.418 -0.349,0.194 -0.713,0.462 -1.093,0.803 -0.381,0.34 -0.805,0.761 -1.273,1.265 l 3.235,0.796 c 0.212,-0.327 0.393,-0.579 0.544,-0.756 0.15,-0.176 0.298,-0.3 0.444,-0.371 0.146,-0.07 0.311,-0.106 0.497,-0.106 0.459,0 0.889,0.199 1.286,0.596 L 2.705,1.181 C 2.042,0.394 1.14,0 0,0 m -3.037,4.668 c 0.292,0 0.564,0.053 0.816,0.159 0.252,0.106 0.472,0.259 0.663,0.457 0.19,0.199 0.338,0.443 0.444,0.73 0.106,0.287 0.159,0.612 0.159,0.974 0,0.363 -0.053,0.688 -0.159,0.975 -0.106,0.287 -0.254,0.53 -0.444,0.729 -0.191,0.199 -0.411,0.352 -0.663,0.457 -0.252,0.107 -0.524,0.16 -0.816,0.16 -0.291,0 -0.563,-0.053 -0.815,-0.16 C -4.104,9.044 -4.325,8.891 -4.515,8.692 -4.705,8.493 -4.853,8.25 -4.959,7.963 -5.065,7.676 -5.118,7.351 -5.118,6.988 c 0,-0.362 0.053,-0.687 0.159,-0.974 0.106,-0.287 0.254,-0.531 0.444,-0.73 0.19,-0.198 0.411,-0.351 0.663,-0.457 0.252,-0.106 0.524,-0.159 0.815,-0.159 m 0,-2.532 c -0.751,0 -1.447,0.119 -2.088,0.357 -0.641,0.239 -1.196,0.577 -1.664,1.015 -0.469,0.437 -0.834,0.952 -1.094,1.545 -0.261,0.592 -0.391,1.237 -0.391,1.935 0,0.707 0.13,1.355 0.391,1.943 0.26,0.588 0.625,1.1 1.094,1.538 0.468,0.437 1.023,0.775 1.664,1.014 0.641,0.239 1.337,0.358 2.088,0.358 0.761,0 1.459,-0.119 2.096,-0.358 0.636,-0.239 1.188,-0.577 1.657,-1.014 C 1.184,10.031 1.549,9.519 1.81,8.931 2.07,8.343 2.201,7.695 2.201,6.988 2.201,6.29 2.07,5.645 1.81,5.053 1.549,4.46 1.184,3.945 0.716,3.508 0.247,3.07 -0.305,2.732 -0.941,2.493 -1.578,2.255 -2.276,2.136 -3.037,2.136"
       style="fill:#5a5758;fill-opacity:1;fill-rule:nonzero;stroke:none"
       transform="matrix(1.3333333,0,0,-1.3333333,323.2232,122.8852)"
       clip-path="url(#clipPath38)" />
    <path
       id="path39"
       d="m 0,0 c -1.423,0 -2.532,0.384 -3.328,1.153 -0.795,0.769 -1.193,1.848 -1.193,3.236 v 5.104 h 3.129 V 4.481 c 0,-0.708 0.128,-1.209 0.385,-1.504 0.256,-0.297 0.601,-0.445 1.034,-0.445 0.442,0 0.789,0.148 1.04,0.445 0.252,0.295 0.378,0.796 0.378,1.504 V 9.493 H 4.521 V 4.389 C 4.521,3.001 4.124,1.922 3.328,1.153 2.533,0.384 1.424,0 0,0"
       style="fill:#5a5758;fill-opacity:1;fill-rule:nonzero;stroke:none"
       transform="matrix(1.3333333,0,0,-1.3333333,335.52733,120.0376)"
       clip-path="url(#clipPath40)" />
    <path
       id="path41"
       d="m 259.045,11.629 h 3.129 V 2.348 h -3.129 z"
       style="fill:#5a5758;fill-opacity:1;fill-rule:nonzero;stroke:none"
       transform="matrix(1.3333333,0,0,-1.3333333,0,122.8852)"
       clip-path="url(#clipPath42)" />
    <path
       id="path43"
       d="m 0,0 -1.392,1.419 h 2.533 c 0.432,0 0.754,0.098 0.961,0.292 0.208,0.194 0.311,0.46 0.311,0.796 0,0.336 -0.103,0.6 -0.311,0.795 C 1.895,3.496 1.573,3.594 1.141,3.594 H -1.392 L 0,5.013 Z M -3.129,-3.274 V 6.007 H 1.34 C 2.206,6.007 2.955,5.865 3.587,5.583 4.219,5.3 4.707,4.896 5.052,4.369 5.396,3.844 5.569,3.223 5.569,2.507 5.569,1.79 5.396,1.172 5.052,0.65 4.707,0.129 4.219,-0.276 3.587,-0.563 2.955,-0.851 2.206,-0.994 1.34,-0.994 H -1.392 L 0,0.345 v -3.619 z"
       style="fill:#5a5758;fill-opacity:1;fill-rule:nonzero;stroke:none"
       transform="matrix(1.3333333,0,0,-1.3333333,357.6796,115.38907)"
       clip-path="url(#clipPath44)" />
    <path
       id="path45"
       d="M 0,0 V 9.281 H 2.572 L 6.285,3.222 H 4.933 l 3.606,6.059 h 2.572 L 11.138,0 H 8.287 L 8.261,4.985 H 8.712 L 6.245,0.835 H 4.866 L 2.294,4.985 H 2.851 L 2.851,0 Z"
       style="fill:#5a5758;fill-opacity:1;fill-rule:nonzero;stroke:none"
       transform="matrix(1.3333333,0,0,-1.3333333,368.3932,119.75493)"
       clip-path="url(#clipPath46)" />
    <path
       id="path47"
       d="m 293.254,8.182 h 4.137 V 5.928 h -4.137 z m 0.212,-3.474 h 4.64 v -2.36 h -7.716 v 9.281 h 7.545 v -2.36 h -4.469 z"
       style="fill:#5a5758;fill-opacity:1;fill-rule:nonzero;stroke:none"
       transform="matrix(1.3333333,0,0,-1.3333333,0,122.8852)"
       clip-path="url(#clipPath48)" />
    <path
       id="path49"
       d="M 0,0 V 9.281 H 2.572 L 7.293,3.633 H 6.1 V 9.281 H 9.149 V 0 H 6.576 L 1.856,5.648 H 3.05 L 3.05,0 Z"
       style="fill:#5a5758;fill-opacity:1;fill-rule:nonzero;stroke:none"
       transform="matrix(1.3333333,0,0,-1.3333333,401.0116,119.75493)"
       clip-path="url(#clipPath50)" />
    <path
       id="path51"
       d="M 0,0 V 6.854 H -2.719 V 9.281 H 5.848 V 6.854 H 3.129 L 3.129,0 Z"
       style="fill:#5a5758;fill-opacity:1;fill-rule:nonzero;stroke:none"
       transform="matrix(1.3333333,0,0,-1.3333333,419.83973,119.75493)"
       clip-path="url(#clipPath52)" />
  </g>
</svg>
