<svg width="307" height="72" viewBox="0 0 307 72" fill="none" xmlns="http://www.w3.org/2000/svg">
<g clip-path="url(#clip0_895_3404)">
<path d="M300.84 46.52H279.86C276.728 46.52 274.19 49.0586 274.19 52.19V52.2C274.19 55.3315 276.728 57.87 279.86 57.87H300.84C303.971 57.87 306.51 55.3315 306.51 52.2V52.19C306.51 49.0586 303.971 46.52 300.84 46.52Z" fill="url(#paint0_linear_895_3404)"/>
<path d="M23.44 16.34H23.34C18.5 16.34 14.35 18.15 11.35 21.29V17.11H0V71.08H11.35V53.75C14.29 56.84 18.33 58.65 23.11 58.64H23.18H23.21C28.98 58.64 33.86 56.5 37.2 52.72C40.55 48.94 42.32 43.65 42.31 37.5C42.31 31.34 40.56 26.05 37.26 22.27C33.97 18.49 29.14 16.33 23.44 16.34ZM28.5 45.54C27.01 47.1 24.67 47.99 20.99 48C17.27 48 14.91 47.1 13.41 45.54C11.91 43.98 11.03 41.42 11.03 37.49C11.03 33.56 11.91 31 13.41 29.44C14.91 27.88 17.27 26.99 20.99 26.98C24.67 26.98 27.01 27.87 28.5 29.44C29.99 31 30.88 33.56 30.88 37.49C30.88 41.42 30 43.98 28.5 45.54Z" fill="black"/>
<path d="M121.75 41.76V41.78L120.61 45.35L119.55 41.86L111.06 17.11H98.5601L115.36 60.59H101.76V71.08H111.48C115.07 71.08 117.91 70.49 120.18 68.95C122.45 67.41 123.93 65.06 125.11 62.08L142.83 17.11H130.32L121.75 41.76Z" fill="black"/>
<path d="M233.79 22.27C230.5 18.49 225.67 16.33 219.97 16.34H219.87C215.03 16.34 210.88 18.15 207.88 21.29V0H196.53V57.86H207.88V53.75C210.82 56.84 214.86 58.65 219.64 58.64H219.71H219.74C225.51 58.64 230.39 56.5 233.73 52.72C237.07 48.94 238.84 43.66 238.84 37.51V37.49C238.84 31.34 237.09 26.05 233.79 22.27ZM225.04 45.54C223.55 47.1 221.21 47.99 217.53 47.99C213.81 47.99 211.45 47.09 209.95 45.53C208.45 43.97 207.57 41.41 207.57 37.48C207.57 33.55 208.45 30.99 209.95 29.43C211.45 27.87 213.81 26.98 217.53 26.97C221.21 26.97 223.55 27.86 225.04 29.43C226.53 30.99 227.42 33.55 227.42 37.48C227.42 41.41 226.53 43.97 225.04 45.53V45.54Z" fill="black"/>
<path d="M256.84 46.52V0H245.49V48.22C245.49 53.54 249.81 57.86 255.13 57.86H263.68V46.51H256.84V46.52Z" fill="black"/>
<path d="M87.1 17.11C83.57 17.11 80.55 19.2 79.16 22.2C76.11 18.47 71.62 16.33 66.31 16.34H66.23H66.2C60.54 16.34 55.73 18.49 52.45 22.27C49.16 26.05 47.41 31.34 47.41 37.49C47.41 43.65 49.18 48.94 52.53 52.72C55.87 56.5 60.75 58.65 66.52 58.64H66.55H66.62C71.34 58.64 75.36 56.88 78.3 53.84V57.86H89.65V28.46H93.82V17.11H87.11H87.1ZM76.3 45.53C74.8 47.09 72.44 47.98 68.72 47.99C65 47.99 62.66 47.1 61.19 45.54C59.71 43.99 58.84 41.42 58.84 37.49C58.84 33.55 59.71 30.99 61.19 29.44H61.2C62.68 27.88 65.01 27 68.73 26.99C72.45 26.99 74.81 27.89 76.31 29.45C77.81 31.01 78.69 33.57 78.69 37.5C78.69 41.43 77.81 43.99 76.31 45.55L76.3 45.53Z" fill="black"/>
<path d="M182.82 17.11C179.29 17.11 176.27 19.2 174.88 22.2C171.83 18.47 167.34 16.33 162.03 16.34H161.95H161.92C156.26 16.34 151.45 18.49 148.17 22.27C144.88 26.05 143.13 31.33 143.13 37.48V37.5C143.13 43.65 144.9 48.94 148.25 52.72C151.59 56.5 156.47 58.65 162.24 58.64H162.27H162.34C167.06 58.64 171.08 56.88 174.02 53.84V57.86H185.37V28.46H189.54V17.11H182.83H182.82ZM172.02 45.53C170.52 47.09 168.16 47.98 164.44 47.99C160.72 47.99 158.38 47.1 156.91 45.54C155.43 43.99 154.56 41.42 154.56 37.49C154.56 33.55 155.43 30.99 156.91 29.44C158.39 27.88 160.72 27 164.44 26.99C168.16 26.99 170.52 27.89 172.02 29.45C173.52 31.01 174.4 33.57 174.4 37.5C174.4 41.43 173.52 43.99 172.02 45.55V45.53Z" fill="black"/>
</g>
<defs>
<linearGradient id="paint0_linear_895_3404" x1="310.74" y1="52.19" x2="278.41" y2="52.19" gradientUnits="userSpaceOnUse">
<stop stop-color="#7CDDAE" stop-opacity="0"/>
<stop offset="0.41" stop-color="#7CDDAE" stop-opacity="0.44"/>
<stop offset="0.82" stop-color="#7CDDAE" stop-opacity="0.84"/>
<stop offset="1" stop-color="#7CDDAE"/>
</linearGradient>
<clipPath id="clip0_895_3404">
<rect width="306.52" height="71.09" fill="white"/>
</clipPath>
</defs>
</svg>
