<?xml version="1.0" encoding="UTF-8" standalone="no"?>
<!-- Created with Inkscape (http://www.inkscape.org/) -->

<svg
   version="1.1"
   id="svg1"
   width="755.90668"
   height="301.41333"
   viewBox="0 0 755.90668 301.41333"
   sodipodi:docname="Cavaway logo 2026-Bl.eps"
   xmlns:inkscape="http://www.inkscape.org/namespaces/inkscape"
   xmlns:sodipodi="http://sodipodi.sourceforge.net/DTD/sodipodi-0.dtd"
   xmlns="http://www.w3.org/2000/svg"
   xmlns:svg="http://www.w3.org/2000/svg">
  <defs
     id="defs1" />
  <sodipodi:namedview
     id="namedview1"
     pagecolor="#ffffff"
     bordercolor="#000000"
     borderopacity="0.25"
     inkscape:showpageshadow="2"
     inkscape:pageopacity="0.0"
     inkscape:pagecheckerboard="0"
     inkscape:deskcolor="#d1d1d1">
    <inkscape:page
       x="0"
       y="0"
       inkscape:label="1"
       id="page1"
       width="755.90668"
       height="301.41333"
       margin="0"
       bleed="0" />
  </sodipodi:namedview>
  <g
     id="g1"
     inkscape:groupmode="layer"
     inkscape:label="1">
    <g
       id="group-R5">
      <path
         id="path2"
         d="M 692.129,541.5 V 404.738 H 671.32 v 106.883 l -50.562,-76.312 -50.051,76.312 V 404.738 H 549.789 V 541.5 h 22.524 l 48.675,-72.461 48.836,72.461 h 22.305"
         style="fill:#231f20;fill-opacity:1;fill-rule:nonzero;stroke:none"
         transform="matrix(0.13333333,0,0,-0.13333333,0,301.41333)" />
      <path
         id="path3"
         d="M 795.27,523.051 V 482.43 h 49.128 V 463.871 H 795.27 V 423.07 h 56.832 V 404.738 H 774.238 V 541.5 h 77.864 V 523.051 H 795.27"
         style="fill:#231f20;fill-opacity:1;fill-rule:nonzero;stroke:none"
         transform="matrix(0.13333333,0,0,-0.13333333,0,301.41333)" />
      <path
         id="path4"
         d="M 1072.13,541.5 V 404.738 h -20.86 v 106.883 l -50.46,-76.312 -50.044,76.312 V 404.738 h -20.86 V 541.5 h 22.465 l 48.679,-72.461 48.89,72.461 h 22.19"
         style="fill:#231f20;fill-opacity:1;fill-rule:nonzero;stroke:none"
         transform="matrix(0.13333333,0,0,-0.13333333,0,301.41333)" />
      <path
         id="path5"
         d="m 1230.09,443.871 c 0,11.09 -9.02,20.629 -20.8,20.629 h -34.08 v -41.43 h 34.08 c 11.78,0 20.8,9.539 20.8,20.801 m -30.51,79.18 h -24.37 v -41.262 h 24.37 c 11.37,0 20.4,9.371 20.4,20.582 0,11.32 -9.03,20.68 -20.4,20.68 m 51.54,-81.77 c 0,-22.293 -17.3,-36.543 -38.84,-36.543 h -57.93 V 541.5 h 47.58 c 21.78,0 39.08,-14.602 39.08,-36.949 0,-14.082 -6.5,-23.84 -16.61,-29.36 15.57,-4.261 26.72,-15.8 26.72,-33.91"
         style="fill:#231f20;fill-opacity:1;fill-rule:nonzero;stroke:none"
         transform="matrix(0.13333333,0,0,-0.13333333,0,301.41333)" />
      <path
         id="path6"
         d="M 1350.3,523.051 V 482.43 h 49.19 V 463.871 H 1350.3 V 423.07 h 56.83 v -18.332 h -77.92 V 541.5 h 77.92 v -18.449 h -56.83"
         style="fill:#231f20;fill-opacity:1;fill-rule:nonzero;stroke:none"
         transform="matrix(0.13333333,0,0,-0.13333333,0,301.41333)" />
      <path
         id="path7"
         d="m 1536.99,481.789 c 11.44,0 20.63,9.082 20.63,20.582 0,11.551 -9.3,20.68 -20.63,20.68 h -31.13 v -41.262 z m 43.74,-77.051 h -23.56 l -31.61,59.871 h -19.7 v -59.871 h -20.92 V 541.5 h 52.52 c 21.78,0 39.25,-17.469 39.25,-39.648 0,-18.043 -12.76,-32.75 -29.89,-36.082 l 33.91,-61.032"
         style="fill:#231f20;fill-opacity:1;fill-rule:nonzero;stroke:none"
         transform="matrix(0.13333333,0,0,-0.13333333,0,301.41333)" />
      <path
         id="path8"
         d="m 1865.97,473.059 c 0,28.273 -18.44,50.39 -46.83,50.39 -28.16,0 -47.12,-22.117 -47.12,-50.39 0,-28.27 18.96,-50.34 47.12,-50.34 28.39,0 46.83,22.07 46.83,50.34 m -113.54,0 c 0,38.793 27.92,70.281 66.71,70.281 38.61,0 66.77,-31.488 66.77,-70.281 0,-38.84 -28.16,-70.161 -66.77,-70.161 -38.79,0 -66.71,31.321 -66.71,70.161"
         style="fill:#231f20;fill-opacity:1;fill-rule:nonzero;stroke:none"
         transform="matrix(0.13333333,0,0,-0.13333333,0,301.41333)" />
      <path
         id="path9"
         d="M 1985.2,523.051 V 482.43 h 49.31 v -18.559 h -49.31 v -59.133 h -20.86 V 541.5 h 77.81 v -18.449 h -56.95"
         style="fill:#231f20;fill-opacity:1;fill-rule:nonzero;stroke:none"
         transform="matrix(0.13333333,0,0,-0.13333333,0,301.41333)" />
      <path
         id="path10"
         d="m 2306.88,449.609 -26.66,70.403 -26.66,-70.403 z m 6.84,-17.41 h -66.71 l -10.69,-27.461 h -22.76 L 2268.5,541.5 h 23.5 l 54.93,-136.762 h -22.81 l -10.4,27.461"
         style="fill:#231f20;fill-opacity:1;fill-rule:nonzero;stroke:none"
         transform="matrix(0.13333333,0,0,-0.13333333,0,301.41333)" />
      <path
         id="path11"
         d="m 2419.28,541.5 h 20.97 V 423.07 h 48.5 v -18.332 h -69.47 V 541.5"
         style="fill:#231f20;fill-opacity:1;fill-rule:nonzero;stroke:none"
         transform="matrix(0.13333333,0,0,-0.13333333,0,301.41333)" />
      <path
         id="path12"
         d="M 2587.53,523.051 V 482.43 h 49.3 v -18.559 h -49.3 V 423.07 h 56.94 v -18.332 h -77.8 V 541.5 h 77.8 v -18.449 h -56.94"
         style="fill:#231f20;fill-opacity:1;fill-rule:nonzero;stroke:none"
         transform="matrix(0.13333333,0,0,-0.13333333,0,301.41333)" />
      <path
         id="path13"
         d="m 2804.68,404.738 -34.19,52.641 -34.19,-52.641 h -24.14 l 46.89,69.821 -44.99,66.941 h 23.74 l 32.69,-49.879 32.53,49.879 h 24.01 l -45.28,-66.941 47.01,-69.821 h -24.08"
         style="fill:#231f20;fill-opacity:1;fill-rule:nonzero;stroke:none"
         transform="matrix(0.13333333,0,0,-0.13333333,0,301.41333)" />
      <path
         id="path14"
         d="m 2984.42,449.609 -26.6,70.403 -26.84,-70.403 z m 6.78,-17.41 h -66.65 l -10.64,-27.461 h -22.81 l 54.94,136.762 h 23.5 l 54.76,-136.762 h -22.58 l -10.52,27.461"
         style="fill:#231f20;fill-opacity:1;fill-rule:nonzero;stroke:none"
         transform="matrix(0.13333333,0,0,-0.13333333,0,301.41333)" />
      <path
         id="path15"
         d="M 3215.77,541.5 V 404.738 h -20.86 l -77.17,104.121 V 404.738 h -20.92 V 541.5 h 20.8 l 77.29,-104.07 V 541.5 h 20.86"
         style="fill:#231f20;fill-opacity:1;fill-rule:nonzero;stroke:none"
         transform="matrix(0.13333333,0,0,-0.13333333,0,301.41333)" />
      <path
         id="path16"
         d="m 3338.28,423.07 c 26.66,0 47.81,22.121 47.81,49.989 0,27.992 -21.15,49.992 -47.81,49.992 h -19.54 V 423.07 Z m -40.34,118.43 h 40.45 c 37.87,0 68.5,-30.629 68.5,-68.441 0,-37.75 -30.63,-68.321 -68.5,-68.321 h -40.45 V 541.5"
         style="fill:#231f20;fill-opacity:1;fill-rule:nonzero;stroke:none"
         transform="matrix(0.13333333,0,0,-0.13333333,0,301.41333)" />
      <path
         id="path17"
         d="m 3537.5,481.789 c 11.32,0 20.63,9.082 20.63,20.582 0,11.551 -9.43,20.68 -20.63,20.68 h -31.08 v -41.262 z m 43.67,-77.051 h -23.56 l -31.49,59.871 h -19.7 v -59.871 h -21.21 V 541.5 h 52.81 c 21.66,0 39.25,-17.469 39.25,-39.648 0,-18.043 -12.7,-32.75 -29.94,-36.082 l 33.84,-61.032"
         style="fill:#231f20;fill-opacity:1;fill-rule:nonzero;stroke:none"
         transform="matrix(0.13333333,0,0,-0.13333333,0,301.41333)" />
      <path
         id="path18"
         d="m 3652.42,541.5 h 20.98 V 404.738 h -20.98 V 541.5"
         style="fill:#231f20;fill-opacity:1;fill-rule:nonzero;stroke:none"
         transform="matrix(0.13333333,0,0,-0.13333333,0,301.41333)" />
      <path
         id="path19"
         d="m 3865.61,473.059 c 0,28.273 -18.61,50.39 -46.89,50.39 -28.15,0 -47.12,-22.117 -47.12,-50.39 0,-28.27 18.97,-50.34 47.12,-50.34 28.28,0 46.89,22.07 46.89,50.34 m -113.77,0 c 0,38.793 27.98,70.281 66.88,70.281 38.67,0 66.78,-31.488 66.78,-70.281 0,-38.84 -28.11,-70.161 -66.78,-70.161 -38.9,0 -66.88,31.321 -66.88,70.161"
         style="fill:#231f20;fill-opacity:1;fill-rule:nonzero;stroke:none"
         transform="matrix(0.13333333,0,0,-0.13333333,0,301.41333)" />
      <path
         id="path20"
         d="M 4082.82,541.5 V 404.738 h -20.97 l -77,104.121 V 404.738 h -21.03 V 541.5 h 20.74 l 77.29,-104.07 V 541.5 h 20.97"
         style="fill:#231f20;fill-opacity:1;fill-rule:nonzero;stroke:none"
         transform="matrix(0.13333333,0,0,-0.13333333,0,301.41333)" />
      <path
         id="path21"
         d="m 4288.48,472.43 c 0,-32.578 22.7,-51.141 50.91,-51.141 7.41,0 14.71,1.723 21.27,4.59 v 35.742 h -28.05 v 18.617 h 46.78 v -67 c -11.61,-7.117 -25.63,-11.828 -40.17,-11.828 -38.67,0 -70.22,27.399 -70.22,71.02 0,43.558 31.6,70.91 69.59,70.91 14.99,0 29.19,-4.719 40.8,-11.781 v -26.547 c -9.37,11.547 -24.6,18.437 -40,18.437 -28.21,0 -50.91,-18.609 -50.91,-51.019"
         style="fill:#231f20;fill-opacity:1;fill-rule:nonzero;stroke:none"
         transform="matrix(0.13333333,0,0,-0.13333333,0,301.41333)" />
      <path
         id="path22"
         d="m 4513.62,481.789 c 11.49,0 20.62,9.082 20.62,20.582 0,11.551 -9.25,20.68 -20.62,20.68 h -31.26 v -41.262 z m 43.9,-77.051 h -23.62 l -31.54,59.871 h -20 v -59.871 h -20.92 V 541.5 h 52.75 c 21.84,0 39.25,-17.469 39.25,-39.648 0,-18.043 -12.82,-32.75 -29.88,-36.082 l 33.96,-61.032"
         style="fill:#231f20;fill-opacity:1;fill-rule:nonzero;stroke:none"
         transform="matrix(0.13333333,0,0,-0.13333333,0,301.41333)" />
      <path
         id="path23"
         d="m 4737.55,473.059 c 0,28.273 -18.68,50.39 -46.89,50.39 -28.1,0 -47.18,-22.117 -47.18,-50.39 0,-28.27 19.08,-50.34 47.18,-50.34 28.21,0 46.89,22.07 46.89,50.34 m -113.83,0 c 0,38.793 28.1,70.281 66.94,70.281 38.56,0 66.77,-31.488 66.77,-70.281 0,-38.84 -28.21,-70.161 -66.77,-70.161 -38.84,0 -66.94,31.321 -66.94,70.161"
         style="fill:#231f20;fill-opacity:1;fill-rule:nonzero;stroke:none"
         transform="matrix(0.13333333,0,0,-0.13333333,0,301.41333)" />
      <path
         id="path24"
         d="M 4836.9,449.211 V 541.5 h 20.92 v -88.668 c 0,-17.523 14.31,-31.543 32.64,-31.543 18.21,0 32.75,14.02 32.75,31.543 V 541.5 h 20.92 v -92.289 c 0,-25.859 -23.79,-46.313 -53.67,-46.313 -29.83,0 -53.56,20.454 -53.56,46.313"
         style="fill:#231f20;fill-opacity:1;fill-rule:nonzero;stroke:none"
         transform="matrix(0.13333333,0,0,-0.13333333,0,301.41333)" />
      <path
         id="path25"
         d="m 5100.31,501.852 c 0,12.636 -9.94,21.199 -21.54,21.199 h -30.17 v -42.403 h 30.17 c 11.6,0 21.54,7.981 21.54,21.204 m 19.19,0.226 c 0,-21.84 -17.41,-38.789 -39.3,-38.789 h -31.6 v -58.551 h -21.15 V 541.5 h 52.75 c 21.89,0 39.3,-17.762 39.3,-39.422"
         style="fill:#231f20;fill-opacity:1;fill-rule:nonzero;stroke:none"
         transform="matrix(0.13333333,0,0,-0.13333333,0,301.41333)" />
      <path
         id="path26"
         d="m 3289.75,776.871 h -910.21 c -5.63,0 -10.23,4.481 -10.23,10.168 0,5.75 4.6,10.172 10.23,10.172 h 910.21 c 5.74,0 10.23,-4.422 10.23,-10.172 0,-5.687 -4.49,-10.168 -10.23,-10.168"
         style="fill:#736843;fill-opacity:1;fill-rule:nonzero;stroke:none"
         transform="matrix(0.13333333,0,0,-0.13333333,0,301.41333)" />
      <path
         id="path27"
         d="m 1227.22,1741.72 c -79.76,73.9 -165.56,110.85 -257.665,110.85 -59.989,0 -116.36,-15.75 -168.543,-47.23 -52.172,-31.73 -93.891,-74.25 -124.629,-127.86 -31.207,-53.5 -46.547,-111.25 -46.547,-172.96 0,-63.68 15.34,-122.05 46.426,-175.55 30.746,-53.5 72.984,-95.8 126.476,-126.53 53.039,-30.86 111.879,-46.38 175.258,-46.38 79.594,0 162.624,36.49 249.224,109.58 v -116.3 c -80.45,-54.76 -164.46,-82.17 -252.263,-82.17 -80.277,0 -154.348,19.65 -221.574,58.72 -67.352,39.25 -120.617,92.57 -159.692,160.38 -39.019,67.58 -58.441,141.82 -58.441,222.21 0,76.54 20.109,148.08 60.047,214.62 40.055,66.66 93.894,119.7 161.246,159.29 67.57,39.47 140.207,58.96 218.414,58.96 49.073,0 92.913,-6.32 131.293,-18.85 38.22,-12.53 78.68,-33.96 120.97,-64.64 z m 442.92,-22.24 -137.85,-324.2 h 272.94 z m 170.43,-408.1 H 1494.3 l -97.05,-229.74 h -98.44 l 372.42,848.79 364.94,-848.79 h -99.75 l -95.85,229.74"
         style="fill:#231f20;fill-opacity:1;fill-rule:nonzero;stroke:none"
         transform="matrix(0.13333333,0,0,-0.13333333,0,301.41333)" />
      <path
         id="path28"
         d="m 2187.76,1307.53 229.45,616.63 h 98.38 l -329.38,-856.99 -327.88,856.99 h 99.75 z m 533.71,446.26 -137.79,-324.15 h 272.95 z m 170.61,-408.04 h -346.44 l -97.06,-229.79 h -98.37 l 372.53,848.95 364.77,-848.95 h -99.7 z m 348.28,-27.81 253.12,648.4 239.05,-648.4 238.58,606.22 h 98.5 l -338.29,-850.1 -240.42,647.96 -254.73,-647.96 -310.93,850.1 h 98.54 z m 1031.23,435.85 -137.74,-324.15 h 272.94 z m 170.54,-408.04 h -346.32 l -97.17,-229.79 h -98.49 l 372.81,848.95 364.72,-848.95 h -99.81 z m 68.56,579.79 h 104 l 205.78,-362.18 209.85,362.18 h 103.72 l -267.55,-461.88 v -347.7 h -91.82 v 347.7 l -263.98,461.88"
         style="fill:#231f20;fill-opacity:1;fill-rule:nonzero;stroke:none"
         transform="matrix(0.13333333,0,0,-0.13333333,0,301.41333)" />
    </g>
  </g>
</svg>
