<svg xmlns="http://www.w3.org/2000/svg" xmlns:xlink="http://www.w3.org/1999/xlink" xmlns:inkscape="http://www.inkscape.org/namespaces/inkscape" version="1.1" width="736.819" height="467.205" viewBox="0 0 736.819 467.205">
<defs>
<clipPath id="clip_1">
<path transform="matrix(1,0,0,-1,0,467.205)" d="M0 467.205H736.819V0H0Z"/>
</clipPath>
</defs>
<g clip-path="url(#clip_1)">
<path transform="matrix(1,0,0,-1,491.9008,325.28388)" d="M0 0C-16.808-13.573-35.925-24.422-56.379-31.878-76.826-39.354-98.597-43.404-120.487-43.883-142.376-44.345-164.459-41.234-185.505-34.548-206.557-27.881-226.552-17.67-244.423-4.466L-244.45-4.446C-250.054-.307-251.24 7.593-247.1 13.196-242.959 18.8-235.061 19.986-229.457 15.847-229.316 15.742-229.141 15.605-229.006 15.497-213.884 3.229-196.686-6.582-178.279-13.343-159.876-20.119-140.278-23.82-120.487-24.302-100.698-24.761-80.787-22.001-61.785-16.014-42.781-10.044-24.704-.869-8.521 11.031L-8.51 11.039C-5.408 13.32-1.045 12.655 1.236 9.554 3.451 6.542 2.875 2.329 0 0" fill="#ec1e24"/>
<path transform="matrix(1,0,0,-1,551.1557,244.70378)" d="M0 0C.043 .183 .064 .274 .107 .458 .311 1.32 1.187 1.853 2.063 1.646 7.771 .298 10.623-.382 16.323-1.756 17.2-1.967 17.741-2.837 17.533-3.699 17.489-3.882 17.467-3.974 17.423-4.156 17.267-4.803 16.608-5.197 15.952-5.039 13.674-4.49 12.535-4.217 10.257-3.672 8.655-10.37 7.854-13.719 6.252-20.417 6.046-21.279 5.173-21.81 4.303-21.602 4.061-21.544 3.939-21.516 3.697-21.457 2.827-21.25 2.287-20.383 2.493-19.521 4.086-12.82 4.884-9.471 6.478-2.771 4.252-2.241 3.14-1.978 .914-1.452 .257-1.297-.152-.647 0 0" fill="#ee3932"/>
<path transform="matrix(1,0,0,-1,589.1957,253.42839)" d="M0 0C-1.521-6.112-3.04-12.224-4.56-18.335-4.773-19.193-5.651-19.718-6.521-19.502-6.905-19.406-7.099-19.358-7.483-19.263-8.135-19.102-8.534-18.447-8.374-17.802-6.892-11.806-6.149-8.808-4.666-2.812-7.592-8.373-9.052-11.154-11.964-16.721-12.121-16.971-12.424-17.093-12.714-17.021-13.568-16.812-13.996-16.706-14.851-16.496-15.141-16.426-15.353-16.178-15.376-15.883-15.379-9.601-15.385-6.459-15.402-.176-16.864-6.178-17.596-9.178-19.058-15.18-19.215-15.824-19.873-16.22-20.524-16.062-20.91-15.968-21.103-15.921-21.488-15.827-22.358-15.615-22.894-14.745-22.686-13.885-21.202-7.765-19.719-1.644-18.235 4.477-18.026 5.339-17.147 5.864-16.271 5.651-15.024 5.349-14.401 5.197-13.155 4.894-12.638 4.767-12.262 4.326-12.222 3.804-12.25-2.021-12.268-4.934-12.309-10.758-9.647-5.577-8.314-2.987-5.642 2.188-5.363 2.633-4.827 2.85-4.31 2.722-3.064 2.414-2.441 2.26-1.196 1.951-.321 1.733 .214 .86 0 0" fill="#ee3932"/>
<path transform="matrix(1,0,0,-1,449.3774,152.95188)" d="M0 0C4.185 10.626 8.415 21.233 12.692 31.822 15.479 20.747 18.217 9.661 20.907-1.438 13.942-.914 6.972-.435 0 0M46.063-31.28C40.185-6.181 34.019 18.841 27.564 43.798 26.833 46.614 24.274 48.67 21.217 48.893 15.366 49.319 12.44 49.52 6.587 49.899 3.528 50.098 .713 48.411-.397 45.723-10.207 21.885-19.739-2.057-28.997-26.114-30.654-30.368-27.618-34.973-23.034-35.207-20.518-35.335-19.26-35.401-16.743-35.539-14.425-35.666-12.285-34.31-11.425-32.166-8.738-25.441-7.384-22.082-4.652-15.368 4.707-15.958 14.06-16.602 23.411-17.299 25.198-24.324 26.08-27.837 27.821-34.867 28.379-37.108 30.313-38.745 32.629-38.937 35.141-39.145 36.396-39.251 38.908-39.469 43.483-39.865 47.123-35.72 46.063-31.28" fill="#046a38"/>
<path transform="matrix(1,0,0,-1,226.8315,114.513889)" d="M0 0C-.16 2.667-.24 4-.401 6.666-.578 9.611-3.248 11.847-6.364 11.65-19.956 10.764-33.533 9.754-47.106 8.622-53.818 7.996-59.183 2.404-58.678-4.475L-52.912-66.847C-52.195-73.477-46.342-78.225-39.724-77.741-26.788-76.667-13.849-75.705-.897-74.855 2.073-74.667 4.337-72.136 4.16-69.19 4-66.524 3.919-65.191 3.759-62.525 3.626-60.316 1.696-58.634-.551-58.775-10.905-59.446-21.251-60.183-31.596-60.987-33.096-61.107-34.408-60.01-34.525-58.537-35.077-51.563-35.353-48.076-35.904-41.102-27.74-40.436-19.571-39.826-11.399-39.271-9.126-39.117-7.401-37.207-7.545-34.999-7.755-31.8-7.86-30.201-8.069-27.003-8.214-24.795-10.19-23.126-12.483-23.281-20.715-23.839-28.943-24.454-37.166-25.125-37.663-18.838-37.912-15.695-38.408-9.408-38.524-7.939-37.371-6.649-35.831-6.526-25.212-5.682-14.586-4.914-3.955-4.256-1.638-4.112 .133-2.208 0 0" fill="#046a38"/>
<path transform="matrix(1,0,0,-1,116.5283,128.53638)" d="M0 0C-5.851-.71-8.775-1.077-14.622-1.835-11.939-22.541-9.256-43.248-6.573-63.954-.926-63.222 1.898-62.868 7.548-62.182 24.104-60.396 27.72-42.168 26.241-28.507 24.724-14.49 16.84 2.281 0 0M-24.083-75.752C-27.856-48.904-31.629-22.056-35.403 4.792-35.916 8.444-33.192 11.847-29.316 12.376-19.492 13.697-9.663 14.96 .177 16.165 26.606 19.413 42.943-2.356 45.3-26.539 47.557-49.701 37.091-74.828 11.48-77.85 2.146-78.993-7.179-80.19-16.499-81.443-20.175-81.945-23.57-79.405-24.083-75.752" fill="#046a38"/>
<path transform="matrix(1,0,0,-1,299.9482,174.2341)" d="M0 0C.055-2.67 .083-4.006 .139-6.676 .2-9.626-2.16-12.066-5.133-12.137-18.528-12.457-31.921-12.921-45.305-13.556-51.936-13.784-57.594-8.811-58.054-2.161-59.293 20.911-60.532 43.982-61.771 67.054-61.929 70-59.53 72.525-56.413 72.683-52.405 72.886-50.4 72.982-46.392 73.163-44.053 73.269-42.081 71.558-41.986 69.347-41.073 48.042-40.16 26.737-39.246 5.432-39.183 3.958-37.916 2.816-36.417 2.877-25.667 3.316-14.914 3.675-4.158 3.917-1.908 3.969-.046 2.212 0 0" fill="#046a38"/>
<path transform="matrix(1,0,0,-1,321.2099,185.94019)" d="M0 0C-2.207-.02-3.311-.031-5.518-.057-9.234-.102-12.294 2.839-12.353 6.526-12.739 30.964-13.125 55.402-13.512 79.84-13.57 83.527-10.456 86.568-6.556 86.615-4.24 86.643-3.082 86.655-.766 86.675 3.134 86.71 6.311 83.734 6.329 80.046 6.451 55.606 6.574 31.165 6.696 6.725 6.715 3.037 3.717 .033 0 0" fill="#046a38"/>
<path transform="matrix(1,0,0,-1,408.6616,116.587589)" d="M0 0C-1.457-2.423-4.618-3.351-7.268-2.149-12.534 .238-17.919 1.815-24.279 2.016-40.38 2.525-49.425-10.343-49.558-25.416-49.691-40.573-41.847-54.997-25.094-55.278-18.599-55.388-13.055-54.057-7.708-51.587-4.975-50.324-1.711-51.548-.479-54.259 .169-55.687 .492-56.4 1.138-57.828 2.632-61.132 1.178-64.995-2.107-66.571-9.842-70.282-18.491-71.866-27.007-71.662-53.669-71.02-70.141-52.448-70.114-26.212-70.085 .667-50.757 19.348-23.848 18.571-15.825 18.34-7.728 16.56-.507 13.035 3.028 11.31 4.268 7.07 2.295 3.807 1.375 2.285 .916 1.523 0 0" fill="#046a38"/>
<path transform="matrix(1,0,0,-1,573.6547,130.5954)" d="M0 0C-1.673-2.281-4.909-2.918-7.442-1.481-12.479 1.375-17.706 3.433-24.029 4.209-40.023 6.174-50.216-5.807-51.713-20.819-53.219-35.916-46.69-50.979-30.025-52.776-23.56-53.473-17.91-52.651-12.354-50.676-9.514-49.667-6.369-51.182-5.387-53.994-4.869-55.474-4.611-56.213-4.097-57.694-2.905-61.121-4.705-64.835-8.124-66.107-16.175-69.101-24.942-69.895-33.415-68.918-59.919-65.865-74.676-45.896-72.272-19.751-69.811 7.038-48.838 23.868-22.102 20.658-14.123 19.7-6.209 17.192 .674 13.027 4.044 10.988 4.896 6.654 2.634 3.583 1.579 2.151 1.052 1.434 0 0" fill="#046a38"/>
<path transform="matrix(1,0,0,-1,654.4887,136.46799)" d="M0 0C-10.279-13.925-20.419-27.944-30.426-42.066-32.137-52.568-33.848-63.07-35.558-73.571-36.15-77.21-39.601-79.677-43.262-79.096-45.809-78.691-47.082-78.491-49.63-78.096-53.292-77.527-55.818-74.121-55.268-70.476-53.676-59.956-52.085-49.435-50.494-38.915-55.687-22.406-61.034-5.955-66.541 10.451-68.13 15.14-64.049 19.74-58.901 19.01-56.184 18.625-54.824 18.429-52.108 18.033-49.86 17.706-48.018 16.137-47.434 14.059-44.003 2.501-40.642-9.074-37.349-20.67-30.657-10.641-23.908-.654-17.098 9.294-15.904 11.094-13.668 12.022-11.427 11.644-8.717 11.188-7.363 10.957-4.655 10.49 .475 9.606 2.953 3.976 0 0" fill="#046a38"/>
<path transform="matrix(1,0,0,-1,271.2192,242.91089)" d="M0 0C.942-11.794 6.753-25.3 20.63-25.032 32.639-24.802 37.846-11.797 37.542-1.554 37.173 10.873 31.288 23.612 16.953 22.955 5.068 22.41-.856 10.708 0 0M-17.115-2.324C-18.658 19.186-3.583 35.964 17.897 37.089 39.063 38.198 54.244 21.807 54.569 1.189 54.911-20.471 43.034-38.241 20.201-39.031-1.712-39.79-15.623-23.146-17.115-2.324" fill="#046a38"/>
<path transform="matrix(1,0,0,-1,351.0663,240.77709)" d="M0 0C.233-11.823 5.215-25.659 19.081-26.225 31.081-26.715 37.054-14.042 37.365-3.803 37.742 8.619 32.636 21.692 18.29 21.896 6.396 22.066-.212 10.735 0 0M-17.211-1.293C-17.459 20.262-1.428 36.114 20.08 35.949 41.27 35.786 55.435 18.509 54.523-2.086 53.565-23.722 40.65-40.755 17.814-40.173-4.103-39.615-16.97-22.157-17.211-1.293" fill="#046a38"/>
<path transform="matrix(1,0,0,-1,533.7358,232.13639)" d="M0 0C-1.162-1.756-3.565-2.357-5.493-1.342-9.431 .73-13.797 2.255-18.073 2.794-24.655 3.623-28.021 1.4-28.484-2.516-29.055-7.325-24.967-9.859-17.851-13.244-8.067-17.898 2.365-25.481 .483-37.902-1.768-52.766-15.406-60.318-29.15-58.033-35.995-56.896-42.929-55.032-49.23-51.515-51.858-50.047-52.788-46.702-51.219-44.129-50.192-42.445-49.677-41.604-48.645-39.923-47.506-38.066-45.062-37.467-43.155-38.57-38.96-40.999-33.336-43.331-27.655-44.03-20.623-44.896-16.759-42.691-16.055-37.33-15.38-32.192-19.262-28.946-25.568-26.128-36.085-21.608-46.862-15.188-45.387-2.091-43.77 12.254-29.543 18.256-16.58 16.571-11.037 15.85-4.825 13.892 .312 11.261 3.207 9.778 4.192 6.309 2.466 3.714 1.478 2.229 .984 1.487 0 0" fill="#046a38"/>
<path transform="matrix(1,0,0,-1,446.9487,223.42989)" d="M0 0C-4.952 .369-7.43 .542-12.386 .864-13.384-14.46-14.383-29.786-15.381-45.111-10.595-45.422-8.201-45.589-3.417-45.946 10.516-47.558 14.453-35.692 15.428-24.359 16.373-13.351 13.382-.609 0 0M-31.77-52.262C-30.674-31.531-29.578-10.799-28.482 9.932-28.327 12.855-25.689 15.094-22.592 14.917-13.79 14.416-4.993 13.829 3.797 13.157 24.122 11.338 33.294-7.16 31.418-25.854 29.624-43.727 17.959-60.753-1.759-59.514-10.08-58.877-18.407-58.322-26.738-57.847-29.672-57.68-31.924-55.185-31.77-52.262" fill="#046a38"/>
<path transform="matrix(1,0,0,-1,247.5566,219.46749)" d="M0 0C-.127 1.737-.191 2.605-.318 4.341-.532 7.262-3.217 9.446-6.314 9.206-18.469 8.229-30.605 7.125-42.736 5.894-45.828 5.571-48.078 2.938-47.762 .027-45.519-20.611-43.277-41.25-41.035-61.889-40.719-64.8-38.091-66.9-35.164-66.595-32.567-66.323-31.269-66.191-28.671-65.933-26.475-65.715-24.865-63.772-25.075-61.587-25.869-53.337-26.663-45.088-27.457-36.839-20.328-36.153-16.762-35.834-9.628-35.245-7.38-35.06-5.699-33.141-5.873-30.952-6.049-28.732-6.138-27.623-6.314-25.403-6.488-23.215-8.47-21.586-10.74-21.773-17.948-22.368-21.55-22.69-28.752-23.384-29.298-17.711-29.571-14.875-30.117-9.203-30.257-7.745-29.129-6.444-27.598-6.3-19.696-5.556-11.787-4.882-3.874-4.277-1.574-4.101 .161-2.19 0 0" fill="#046a38"/>
</g>
</svg>
