<svg xmlns="http://www.w3.org/2000/svg" xmlns:xlink="http://www.w3.org/1999/xlink" xmlns:inkscape="http://www.inkscape.org/namespaces/inkscape" version="1.1" width="1417.32" height="566.929" viewBox="0 0 1417.32 566.929">
<defs>
<clipPath id="clip_1">
<path transform="matrix(1,0,0,-1,0,566.929)" d="M0 566.929H1417.32V0H0Z"/>
</clipPath>
</defs>
<g inkscape:groupmode="layer" inkscape:label="Layer 1">
<path transform="matrix(1,0,0,-1,0,566.929)" d="M0 .001H1417.32V566.92898H0Z" fill="#231f20"/>
<g clip-path="url(#clip_1)">
<path transform="matrix(1,0,0,-1,575.8685,366.6397)" d="M0 0H-127.164V228.654H-66.174V51.883H0ZM148.568 0H93.061C91.23 4.912 90.314 9.61 90.314 14.092V18.258H90.01C86.96 14.2 84.012 10.144 81.164 6.087 73.848-.959 63.784-4.483 50.977-4.483 21.092-4.483 6.15 13.027 6.15 48.042 6.15 66.187 10.114 79.216 18.044 87.115 25.158 94.375 38.88 100.139 59.209 104.405 74.863 107.609 83.403 110.383 84.825 112.732 87.875 115.933 89.4 120.097 89.4 125.221 89.401 134.614 85.437 139.311 77.508 139.311 72.628 139.311 68.969 137.283 66.529 133.227 64.089 129.171 63.174 124.581 63.784 119.456H11.941C11.941 137.602 15.909 151.161 23.839 160.126 34.206 171.868 52.4 177.737 78.425 177.737 100.99 177.738 117.158 174 126.915 166.53 137.692 158.417 143.082 144.328 143.082 124.26V23.702C143.082 19.433 143.586 15.374 144.609 11.531L146.13 6.407C147.147 2.778 147.962 .643 148.568 0M89.401 59.568V83.912C84.724 81.99 77.709 78.468 68.36 73.342 65.107 69.713 63.479 63.84 63.479 55.727 63.48 43.77 67.444 37.793 75.372 37.793 84.724 37.793 89.4 45.051 89.4 59.568ZM304.653 0H245.494V113.373C245.494 125.542 241.734 131.624 234.213 131.624 226.079 131.624 222.012 125.542 222.012 113.373V0H162.856V173.255H220.185V153.08C228.569 169.518 243.358 177.737 264.553 177.737 274.769 177.738 283.507 174.749 290.88 168.771 300.083 161.301 304.653 150.305 304.653 135.788ZM462.976 0H404.727V18.897H403.814C399.596 10.783 396.645 5.766 395.016 3.844 389.583-1.708 381.502-4.483 370.826-4.483 352.43-4.483 339.165 1.922 330.985 14.734 322.799 27.544 318.734 49.641 318.734 81.03 318.734 118.391 322.795 144.328 330.929 158.845 337.84 171.441 349.533 177.737 365.997 177.737 376.575 177.738 385.62 174.429 393.137 167.811 399.444 162.473 402.591 157.564 402.591 153.08H403.814V228.654H462.976ZM404.727 88.395C404.727 103.127 404.319 112.732 403.51 117.217 401.679 126.822 397.409 131.624 390.699 131.624 384.806 131.624 381.044 126.822 379.42 117.217 378.401 112.092 377.89 102.699 377.89 89.036 377.89 72.381 378.197 61.917 378.809 57.644 380.437 46.973 384.602 41.636 391.311 41.636 397.814 41.636 401.882 46.545 403.51 56.365 404.319 61.062 404.727 71.74 404.727 88.395M617.582 0H562.08C560.253 4.912 559.335 9.61 559.335 14.092V18.258H559.032C555.985 14.2 553.034 10.144 550.188 6.087 542.869-.959 532.811-4.483 519.995-4.483 490.113-4.483 475.168 13.027 475.168 48.042 475.174 66.187 479.137 79.216 487.066 87.115 494.181 94.375 507.905 100.139 528.233 104.405 543.887 107.609 552.423 110.383 553.848 112.732 556.897 115.933 558.42 120.097 558.42 125.221 558.42 134.614 554.459 139.311 546.529 139.311 541.65 139.311 537.994 137.283 535.553 133.227 533.109 129.171 532.195 124.581 532.811 119.456H480.969C480.969 137.602 484.931 151.161 492.854 160.126 503.228 171.868 521.421 177.737 547.443 177.737 570.011 177.738 586.171 174 595.928 166.53 606.709 158.417 612.091 144.328 612.091 124.26L612.097 23.702C612.097 19.433 612.603 15.374 613.619 11.531L615.141 6.407C616.157 2.778 616.971 .643 617.582 0M558.42 59.568V83.912C553.744 81.99 546.728 78.468 537.378 73.342 534.126 69.713 532.498 63.84 532.498 55.727 532.498 43.77 536.467 37.793 544.394 37.793 553.744 37.793 558.42 45.051 558.42 59.568M761.77 54.124C761.77 15.057 739.104-4.483 693.768-4.483 671.612-4.483 655.242-.319 644.669 8.008 632.674 17.402 626.682 33.308 626.682 55.727H678.524C678.524 39.925 683.603 32.027 693.768 32.027 697.426 32.027 700.428 33.257 702.768 35.712 705.101 38.167 706.268 41.207 706.268 44.838 706.268 48.893 699.462 54.766 685.842 62.453 666.731 73.342 654.228 81.137 648.329 85.835 634.711 96.935 627.898 108.463 627.898 120.416 627.898 158.631 649.854 177.737 693.768 177.737 717.961 177.738 735.141 172.721 745.305 162.687 754.044 154.149 758.419 141.232 758.419 123.94H708.405C708.405 130.345 707.34 134.827 705.204 137.388 703.068 139.951 699.259 141.232 693.768 141.232 685.633 141.232 681.572 136.855 681.572 128.102 681.572 124.26 686.04 120.309 694.987 116.256 703.324 113.053 711.657 109.85 719.993 106.648 734.019 101.098 743.27 96.402 747.742 92.558 757.097 84.019 761.77 71.206 761.77 54.124" fill="#ffffff" fill-rule="evenodd"/>
<path transform="matrix(1,0,0,-1,1098.3585,163.74771)" d="M0 0 6.472-1.464C5.117-6.198 2.675-9.812-.839-12.313-4.366-14.8-8.664-16.04-13.757-16.04-19.021-16.04-23.298-15.086-26.592-13.175-29.889-11.255-32.398-8.484-34.117-4.857-35.831-1.218-36.698 2.681-36.698 6.846-36.698 11.386-35.733 15.348-33.786 18.731-31.846 22.113-29.081 24.684-25.488 26.441-21.909 28.2-17.965 29.072-13.653 29.072-8.763 29.072-4.658 27.965-1.331 25.739 2.003 23.517 4.322 20.398 5.628 16.363L-.73 15.023C-1.859 18.205-3.499 20.51-5.662 21.962-7.806 23.415-10.514 24.135-13.79 24.135-17.545 24.135-20.667 23.333-23.193 21.729-25.715 20.112-27.49 17.958-28.502 15.247-29.526 12.545-30.038 9.751-30.038 6.876-30.038 3.159-29.436-.07-28.23-2.845-27.011-5.607-25.132-7.681-22.58-9.053-20.02-10.422-17.256-11.104-14.277-11.104-10.662-11.104-7.603-10.168-5.089-8.311-2.578-6.439-.884-3.669 0-.001ZM9.43 5.95C9.43 13.195 11.605 18.862 15.953 22.957 20.309 27.053 25.928 29.103 32.817 29.103 37.317 29.103 41.391 28.139 45.007 26.218 48.618 24.289 51.383 21.606 53.281 18.161 55.18 14.73 56.123 10.818 56.123 6.46 56.127 2.032 55.137-1.931 53.136-5.416 51.131-8.908 48.303-11.55 44.641-13.349 40.97-15.146 37.025-16.04 32.783-16.04 28.182-16.04 24.071-15.055 20.462-13.066 16.829-11.083 14.093-8.371 12.227-4.938 10.364-1.514 9.43 2.123 9.43 5.95M16.092 5.861C16.092 .6 17.673-3.535 20.836-6.561 24.007-9.589 27.974-11.104 32.751-11.104 37.615-11.104 41.617-9.58 44.755-6.521 47.896-3.465 49.476 .874 49.476 6.49 49.476 10.037 48.788 13.135 47.449 15.784 46.109 18.437 44.141 20.489 41.562 21.95 38.971 23.405 36.068 24.135 32.85 24.135 28.267 24.135 24.333 22.734 21.038 19.92 17.743 17.116 16.092 12.422 16.092 5.861M61.154-15.298V28.329H67.62V-10.148H91.67V-15.298ZM94.369 5.95C94.369 13.195 96.535 18.862 100.893 22.957 105.247 27.053 110.868 29.103 117.755 29.103 122.257 29.103 126.328 28.139 129.939 26.218 133.557 24.289 136.321 21.606 138.219 18.161 140.117 14.73 141.06 10.818 141.06 6.46 141.06 2.032 140.075-1.931 138.07-5.416 136.069-8.908 133.239-11.55 129.579-13.349 125.904-15.146 121.963-16.04 117.72-16.04 113.114-16.04 109.011-15.055 105.394-13.066 101.767-11.083 99.026-8.371 97.161-4.938 95.301-1.514 94.369 2.123 94.369 5.95M101.027 5.861C101.027 .6 102.61-3.535 105.774-6.561 108.944-9.589 112.911-11.104 117.688-11.104 122.554-11.104 126.554-9.58 129.694-6.521 132.833-3.465 134.409 .874 134.409 6.49 134.409 10.037 133.726 13.135 132.386 15.784 131.044 18.437 129.077 20.489 126.497 21.95 123.904 23.405 121.001 24.135 117.788 24.135 113.205 24.135 109.271 22.734 105.978 19.92 102.676 17.116 101.027 12.422 101.027 5.861M178.403 28.329H184.875V3.118C184.875-1.261 184.314-4.746 183.202-7.325 182.09-9.906 180.087-11.998 177.188-13.612 174.288-15.236 170.492-16.04 165.782-16.04 161.213-16.04 157.459-15.338 154.561-13.926 151.648-12.526 149.568-10.484 148.326-7.811 147.081-5.14 146.464-1.503 146.464 3.118V28.329H152.924V3.146C152.924-.642 153.321-3.432 154.101-5.22 154.891-7.019 156.25-8.401 158.163-9.377 160.085-10.351 162.438-10.839 165.213-10.839 169.964-10.839 173.353-9.874 175.377-7.945 177.388-6.024 178.403-2.326 178.403 3.146ZM192.694-15.298V28.329H214.345C218.696 28.329 222.007 27.934 224.271 27.154 226.531 26.37 228.341 24.989 229.704 23.007 231.058 21.017 231.73 18.823 231.73 16.425 231.73 13.325 230.614 10.727 228.363 8.603 226.125 6.48 222.656 5.129 217.969 4.551 219.686 3.819 220.983 3.098 221.872 2.377 223.757 .834 225.543-1.108 227.237-3.424L235.732-15.298H227.602L221.14-6.218C219.256-3.607 217.699-1.594 216.467-.215 215.251 1.178 214.163 2.154 213.197 2.702 212.232 3.261 211.25 3.646 210.252 3.869 209.513 4.001 208.316 4.072 206.651 4.072H199.154V-15.298ZM199.154 9.072H213.05C215.995 9.072 218.312 9.345 219.971 9.893 221.642 10.442 222.905 11.314 223.772 12.516 224.634 13.713 225.065 15.013 225.065 16.425 225.065 18.488 224.237 20.185 222.557 21.514 220.886 22.844 218.234 23.506 214.607 23.506H199.154Z" fill="#ffffff" fill-rule="evenodd"/>
<path transform="matrix(1,0,0,-1,305.6661,279.72224)" d="M0 0-51.736 1.015-132.85 141.081 30.059 141.196 58.825 92.647-55.592 93.871Z" fill="#ed1c24" fill-rule="evenodd"/>
<path transform="matrix(1,0,0,-1,105.1736,241.03513)" d="M0 0-25.489-43.939 56.762-184.677 138.298-44.754 110.551 4.67 54.167-94.694Z" fill="#0072bc" fill-rule="evenodd"/>
<path transform="matrix(1,0,0,-1,285.128,432.16673)" d="M0 0 51.246-.115 132.848 141.092-30.059 141.207-58.828 92.65 55.589 93.873Z" fill="#00a650" fill-rule="evenodd"/>
<path transform="matrix(1,0,0,-1,925.118,415.74803)" d="M0 0 4.692 13.927 9.414 0ZM-2.36 23.967-18.405-14.773H-4.923L-2.857-8.377H12.18L14.279-14.773H28.09L12.029 23.967Z" fill="#ffffff"/>
<path transform="matrix(1,0,0,-1,970.6305,391.7809)" d="M0 0H-13.209V-38.74H20.593V-29.197H0Z" fill="#ffffff"/>
<path transform="matrix(1,0,0,-1,1158.3287,413.21205)" d="M0 0-16.076 21.431H-28.409V-17.308H-16.001V3.96L0-17.308H12.441V21.431H0Z" fill="#ffffff"/>
<path transform="matrix(1,0,0,-1,1274.3346,413.21205)" d="M0 0-16.08 21.431H-28.407V-17.308H-16V3.96L0-17.308H12.442V21.431H0Z" fill="#ffffff"/>
<path transform="matrix(1,0,0,-1,0,566.929)" d="M1223.143 136.408H1236.37V175.14801H1223.143Z" fill="#ffffff"/>
<path transform="matrix(1,0,0,-1,0,566.929)" d="M1107.139 136.408H1120.362V175.14801H1107.139Z" fill="#ffffff"/>
<path transform="matrix(1,0,0,-1,1084.8425,405.73384)" d="M0 0C-.554-.649-1.274-1.057-2.144-1.218-3.877-1.57-5.04-1.743-5.638-1.743H-11.206V6.134H-5.406C-3.001 6.134-1.358 5.8-.487 5.122 .39 4.454 .83 3.498 .83 2.247 .83 1.397 .551 .649 0 0M9.322-11.148C8.394-10.114 7.689-9.436 7.21-9.121 6.486-8.643 5.341-8.164 3.771-7.685 5.728-7.288 7.272-6.775 8.403-6.161 10.166-5.186 11.557-3.924 12.569-2.362 13.577-.803 14.084 1.047 14.084 3.203 14.084 5.666 13.424 7.756 12.105 9.472 10.78 11.194 9.042 12.366 6.884 12.998 4.736 13.637 1.614 13.952-2.46 13.952H-24.459V-24.787H-11.206V-9.066H-10.041C-8.838-9.066-7.754-9.362-6.806-9.959-6.103-10.417-5.306-11.419-4.412-12.944L2.636-24.787H17.555L11.168-13.558C10.86-12.988 10.245-12.195 9.322-11.148" fill="#ffffff"/>
<path transform="matrix(1,0,0,-1,1038.9147,407.09593)" d="M0 0C-1.034-.804-2.814-1.199-5.36-1.199H-8.595V7.442H-4.835C-2.368 7.442-.688 7.016 .196 6.168 1.092 5.331 1.542 4.292 1.542 3.078 1.542 1.832 1.022 .803 0 0M10.815 12.221C8.44 14.288 4.862 15.315 .089 15.315H-21.849V-23.425H-8.595V-9.048H-1.373C3.948-9.048 7.906-7.946 10.5-5.746 13.094-3.546 14.39-.487 14.39 3.426 14.39 7.225 13.199 10.165 10.815 12.221" fill="#ffffff"/>
<path transform="matrix(1,0,0,-1,909.0974,391.7809)" d="M0 0H-40.116V-9.571H-26.662V-38.74H-13.464V-9.571H0Z" fill="#ffffff"/>
<path transform="matrix(1,0,0,-1,1176.5359,401.35133)" d="M0 0H13.454V-29.17H26.654V0H40.116V9.571H0Z" fill="#ffffff"/>
<path transform="matrix(1,0,0,-1,754.6683,417.98445)" d="M0 0C-.666-1.379-1.58-2.354-2.745-2.903-3.909-3.462-5.865-3.732-8.63-3.732H-11.861V17.429H-8.572C-5.149 17.429-2.708 16.67-1.225 15.154 .248 13.64 .986 10.834 .986 6.729 .986 3.627 .654 1.382 0 0M9.814 20.684C8.262 22.462 6.293 23.822 3.916 24.781 1.53 25.726-1.589 26.204-5.448 26.204H-25.055V-12.537H-5.448C-3.105-12.537-.477-12.185 2.416-11.481 4.536-10.966 6.513-9.938 8.351-8.397 10.203-6.864 11.643-4.952 12.679-2.668 13.725-.386 14.241 2.824 14.241 6.966 14.241 9.608 13.89 12.106 13.194 14.469 12.49 16.832 11.368 18.898 9.814 20.684" fill="#ffffff"/>
<path transform="matrix(1,0,0,-1,646.0002,407.8891)" d="M0 0C-2.495 1.154-6.622 2.299-12.389 3.427-14.726 3.871-16.198 4.34-16.824 4.852-17.461 5.348-17.779 5.899-17.779 6.511-17.779 7.359-17.392 8.081-16.615 8.667-15.841 9.262-14.686 9.552-13.146 9.552-11.286 9.552-9.824 9.154-8.769 8.369-7.707 7.574-7.01 6.304-6.681 4.562L5.759 5.221C5.21 9.235 3.51 12.166 .647 14.008-2.218 15.846-6.384 16.768-11.842 16.768-16.288 16.768-19.787 16.262-22.343 15.251-24.9 14.233-26.808 12.842-28.08 11.075-29.354 9.307-29.991 7.422-29.991 5.428-29.991 2.398-28.748-.09-26.262-2.049-23.796-4.006-19.668-5.566-13.881-6.747-10.341-7.45-8.094-8.201-7.12-8.993-6.145-9.79-5.668-10.69-5.668-11.691-5.668-12.747-6.176-13.675-7.189-14.477-8.214-15.281-9.666-15.677-11.545-15.677-14.071-15.677-16.019-14.902-17.372-13.333-18.206-12.358-18.764-10.951-19.033-9.104L-31.591-9.814C-31.224-13.729-29.643-16.949-26.839-19.484-24.044-22.026-19.013-23.292-11.753-23.292-7.617-23.292-4.186-22.749-1.471-21.668 1.254-20.583 3.371-18.997 4.883-16.896 6.394-14.803 7.16-12.513 7.16-10.031 7.16-7.911 6.582-5.999 5.449-4.295 4.317-2.58 2.497-1.156 0 0" fill="#ffffff"/>
<path transform="matrix(1,0,0,-1,595.5059,413.21205)" d="M0 0-16.08 21.431H-28.41V-17.308H-16.001V3.96L0-17.308H12.439V21.431H0Z" fill="#ffffff"/>
<path transform="matrix(1,0,0,-1,538.7859,416.4848)" d="M0 0H8.821V-3.655C7.099-4.582 5.558-5.243 4.217-5.631 2.883-6.017 1.471-6.216 0-6.216-3.113-6.216-5.539-5.315-7.269-3.52-9.009-1.725-9.885 1.27-9.885 5.466-9.885 9.417-9.019 12.293-7.3 14.124-5.579 15.946-3.271 16.857-.379 16.857 1.561 16.857 3.161 16.47 4.405 15.692 5.657 14.917 6.553 13.799 7.079 12.338L19.808 14.393C19.032 16.904 17.869 18.968 16.327 20.593 14.776 22.223 12.837 23.424 10.501 24.198 8.155 24.977 4.623 25.364-.09 25.364-4.983 25.364-8.879 24.74-11.774 23.487-15.483 21.864-18.297 19.492-20.225 16.369-22.144 13.239-23.109 9.56-23.109 5.329-23.109 1.315-22.224-2.237-20.464-5.34-18.715-8.443-16.239-10.78-13.037-12.338-9.845-13.91-5.718-14.696-.646-14.696 3.47-14.696 7.029-14.261 10.032-13.386 13.037-12.521 16.487-10.87 20.385-8.463V8.053H0Z" fill="#ffffff"/>
<path transform="matrix(1,0,0,-1,480.2962,407.8891)" d="M0 0C-2.496 1.154-6.624 2.299-12.39 3.427-14.726 3.871-16.199 4.34-16.825 4.852-17.464 5.348-17.779 5.899-17.779 6.511-17.779 7.359-17.392 8.081-16.617 8.667-15.842 9.262-14.688 9.552-13.145 9.552-11.287 9.552-9.825 9.154-8.772 8.369-7.707 7.574-7.011 6.304-6.683 4.562L5.758 5.221C5.211 9.235 3.509 12.166 .646 14.008-2.218 15.846-6.385 16.768-11.843 16.768-16.289 16.768-19.788 16.262-22.345 15.251-24.9 14.233-26.81 12.842-28.081 11.075-29.354 9.307-29.991 7.422-29.991 5.428-29.991 2.398-28.748-.09-26.263-2.049-23.796-4.006-19.67-5.566-13.882-6.747-10.342-7.45-8.095-8.201-7.121-8.993-6.145-9.79-5.67-10.69-5.67-11.691-5.67-12.747-6.176-13.675-7.19-14.477-8.214-15.281-9.666-15.677-11.545-15.677-14.071-15.677-16.02-14.902-17.372-13.333-18.207-12.358-18.764-10.951-19.033-9.104L-31.593-9.814C-31.225-13.729-29.644-16.949-26.839-19.484-24.046-22.026-19.014-23.292-11.753-23.292-7.618-23.292-4.186-22.749-1.473-21.668 1.253-20.583 3.37-18.997 4.882-16.896 6.393-14.803 7.161-12.513 7.161-10.031 7.161-7.911 6.581-5.999 5.449-4.295 4.315-2.58 2.496-1.156 0 0" fill="#ffffff"/>
<path transform="matrix(1,0,0,-1,0,566.929)" d="M494.615 136.408H507.84V175.14801H494.615Z" fill="#ffffff"/>
<path transform="matrix(1,0,0,-1,0,566.929)" d="M849.284 136.408H862.511V175.14801H849.284Z" fill="#ffffff"/>
<path transform="matrix(1,0,0,-1,0,566.929)" d="M776.365 136.408H789.593V175.14801H776.365Z" fill="#ffffff"/>
<path transform="matrix(1,0,0,-1,690.244,402.69483)" d="M0 0C-2.686 0-4.963-.855-6.843-2.561-8.732-4.275-9.678-6.342-9.678-8.777-9.678-11.183-8.732-13.249-6.843-14.972-4.963-16.687-2.686-17.544 0-17.544 2.687-17.544 4.964-16.687 6.844-14.972 8.733-13.249 9.676-11.183 9.676-8.777 9.676-6.342 8.733-4.275 6.844-2.561 4.964-.855 2.687 0 0 0" fill="#ffffff"/>
<path transform="matrix(1,0,0,-1,820.5389,416.4848)" d="M0 0H8.82V-3.655C7.095-4.582 5.556-5.243 4.213-5.631 2.882-6.017 1.472-6.216 0-6.216-3.115-6.216-5.539-5.315-7.272-3.52-9.009-1.725-9.886 1.27-9.886 5.466-9.886 9.417-9.018 12.293-7.3 14.124-5.582 15.946-3.273 16.857-.381 16.857 1.556 16.857 3.161 16.47 4.403 15.692 5.656 14.917 6.552 13.799 7.076 12.338L19.805 14.393C19.031 16.904 17.866 18.968 16.326 20.593 14.773 22.223 12.833 23.424 10.5 24.198 8.152 24.977 4.619 25.364-.09 25.364-4.985 25.364-8.882 24.74-11.774 23.487-15.486 21.864-18.299 19.492-20.228 16.369-22.146 13.239-23.112 9.56-23.112 5.329-23.112 1.315-22.229-2.237-20.466-5.34-18.719-8.443-16.241-10.78-13.038-12.338-9.847-13.91-5.72-14.696-.649-14.696 3.469-14.696 7.028-14.261 10.031-13.386 13.033-12.521 16.485-10.87 20.384-8.463V8.053H0Z" fill="#ffffff"/>
<path transform="matrix(1,0,0,-1,1317.0127,408.4317)" d="M0 0V-8.054H8.822V-11.709C7.101-12.636 5.559-13.296 4.218-13.684 2.885-14.071 1.473-14.269 0-14.269-3.11-14.269-5.539-13.367-7.266-11.573-9.007-9.778-9.884-6.784-9.884-2.587-9.884 1.364-9.018 4.24-7.3 6.071-5.575 7.892-3.271 8.804-.379 8.804 1.562 8.804 3.161 8.416 4.407 7.64 5.657 6.865 6.553 5.747 7.082 4.286L19.812 6.341C19.037 8.85 17.871 10.914 16.328 12.54 14.78 14.17 12.839 15.37 10.5 16.146 8.158 16.924 4.625 17.31-.089 17.31-4.979 17.31-8.879 16.686-11.773 15.435-15.48 13.811-18.297 11.438-20.224 8.317-22.141 5.187-23.106 1.506-23.106-2.725-23.106-6.739-22.223-10.29-20.465-13.393-18.714-16.497-16.236-18.834-13.033-20.392-9.842-21.963-5.713-22.75-.643-22.75 3.471-22.75 7.03-22.315 10.037-21.44 13.038-20.573 16.489-18.924 20.387-16.516V0Z" fill="#ffffff"/>
</g>
</g>
</svg>
