<svg xmlns="http://www.w3.org/2000/svg" xmlns:xlink="http://www.w3.org/1999/xlink" xmlns:inkscape="http://www.inkscape.org/namespaces/inkscape" version="1.1" width="841.89" height="595.276" viewBox="0 0 841.89 595.276">
<defs>
<clipPath id="clip_1">
<path transform="matrix(1,0,0,-1,0,595.276)" d="M0 595.276H841.89V0H0Z"/>
</clipPath>
</defs>
<g inkscape:groupmode="layer" inkscape:label="Layer 1">
<path transform="matrix(1,0,0,-1,748.3232,115.473117)" d="M0 0H-674.442V-405.109L0-283.061Z" fill="#004892"/>
<path transform="matrix(1,0,0,-1,764.2433,91.31329)" d="M0 0H-670.616V-405.725L0-285.243Z" fill="#e11b22"/>
<path transform="matrix(1,0,0,-1,97.3912,95.078189)" d="M0 0V-397.456L663.089-278.332V0ZM-7.528-406.462V7.528H670.617V-284.625L667.52-285.184Z" fill="#ffffff"/>
<g clip-path="url(#clip_1)">
<path transform="matrix(1,0,0,-1,485.1819,91.11719)" d="M0 0C0-19.029-15.426-34.454-34.455-34.454-53.483-34.454-68.909-19.029-68.909 0-68.909 19.029-53.483 34.455-34.455 34.455-15.426 34.455 0 19.029 0 0" fill="#004892"/>
<path transform="matrix(1,0,0,-1,194.9133,131.61692)" d="M0 0C38.536 0 58.343-22.989 58.343-63.219V-70.943L20.887-72.827V-62.314C20.887-43.878 13.685-37.055 1.081-37.375-11.524-37.696-18.726-45.076-18.726-64.015-18.726-118.558 58.7-122.096 58.7-193.918 58.7-234.137 38.536-260.788-.357-267.864-39.251-274.941-59.419-253.706-59.419-210.125V-192.924L-21.967-188.237V-207.644C-21.967-226.624-14.043-232.217-1.438-230.248 11.166-228.278 19.088-220.396 19.088-201.937 19.088-148.776-58.338-146.206-58.338-68.438-58.338-24.886-38.532 0 0 0" fill="#004892"/>
<path transform="matrix(1,0,0,-1,311.5913,200.83692)" d="M0 0V-174.206L-35.652-180.62V66.391L14.043 66.492 54.736-71.889V66.575L90.031 66.647 89.982-158.182 49.285-165.503Z" fill="#004892"/>
<path transform="matrix(1,0,0,-1,535.8994,162.5939)" d="M0 0V-87.404L14.704-85.761C26.61-84.657 33.072-79.623 33.072-65.767V-17.243C33.072-3.387 26.61 .86 14.704 .514ZM70.49-17.361V-60.919C70.49-90.828 52.123-109.317 14.704-113.797L0-115.915V-172.26L-37.418-179.387V28.601L14.704 28.719C52.123 28.8 70.49 12.55 70.49-17.361" fill="#004892"/>
<path transform="matrix(1,0,0,-1,675.4138,210.7662)" d="M0 0C-12.66 10.263-24.619 19.956-24.619 36.729-24.619 48.192-20.618 53.402-11.647 53.617-7.582 53.728-4.562 52.777-2.503 50.744 .029 48.245 1.259 44.043 1.259 37.897V29.022L31.176 30.448V37.275C31.176 66.201 15.679 82.13-12.463 82.13-40.602 82.13-56.099 64.928-56.099 33.691-56.099 3.765-38.822-10.397-23.578-22.892-10.95-33.245-.045-42.185-.045-58.042-.045-68.974-4.385-74.709-13.708-76.094-17.968-76.719-21.077-76.13-23.2-74.274-25.7-72.091-26.966-67.948-26.966-61.963V-47.481L-56.882-51.044V-63.667C-56.882-79.834-52.739-91.565-44.567-98.536-38.993-103.291-31.695-105.681-22.794-105.681-19.566-105.681-16.13-105.367-12.487-104.737 15.837-99.848 31.435-81.306 31.435-52.53 31.435-25.481 14.734-11.943 0 0" fill="#004892"/>
<path transform="matrix(1,0,0,-1,208.0959,131.58469)" d="M0 0C38.535 0 58.342-22.736 58.342-62.526V-70.341L20.887-72.205V-61.63C20.887-43.396 13.685-36.648 1.081-36.965-11.524-37.282-18.726-44.581-18.726-63.312-18.726-117.258 58.7-120.756 58.7-191.791 58.7-231.568 38.535-257.928-.358-264.926-39.251-271.925-59.419-250.923-59.419-207.82V-191.272L-21.967-186.594V-205.365C-21.967-224.138-14.043-229.67-1.438-227.722 11.166-225.774 19.087-217.979 19.087-199.722 19.087-147.144-58.339-144.602-58.339-67.687-58.339-24.613-38.532 0 0 0" fill="#ffffff"/>
<path transform="matrix(1,0,0,-1,324.7737,200.04502)" d="M0 0V-172.682L-35.652-179.025V65.663L14.043 65.763 54.737-71.101V65.844L90.03 65.916V-156.663L49.334-163.904Z" fill="#ffffff"/>
<path transform="matrix(1,0,0,-1,549.082,162.22132)" d="M0 0V-86.275L14.704-84.651C26.61-83.559 33.072-78.581 33.072-64.877V-17.054C33.072-3.35 26.61 .85 14.704 .508ZM70.49-17.17V-60.25C70.49-89.832 52.122-108.118 14.704-112.549L0-114.643V-170.204L-37.419-177.252V28.287L14.704 28.405C52.122 28.484 70.49 12.412 70.49-17.17" fill="#ffffff"/>
<path transform="matrix(1,0,0,-1,688.5956,209.86551)" d="M0 0C-12.659 10.151-24.618 19.737-24.618 36.326-24.618 47.664-20.617 52.816-11.647 53.029-7.581 53.139-4.561 52.198-2.503 50.187 .03 47.716 1.26 43.56 1.26 37.482V28.748L31.177 30.16V36.866C31.177 65.475 15.68 81.23-12.462 81.23-40.601 81.23-56.098 64.216-56.098 33.321-56.098 3.724-38.822-10.283-23.578-22.641-10.95-32.88-.044-41.722-.044-57.405-.044-68.218-4.385-73.889-13.707-75.259-17.967-75.878-21.077-75.295-23.199-73.459-25.699-71.3-26.966-67.203-26.966-61.283V-46.806L-56.881-50.353V-62.968C-56.881-78.958-52.739-90.561-44.567-97.455-38.992-102.158-31.694-104.522-22.793-104.522-19.566-104.522-16.129-104.211-12.486-103.588 15.838-98.752 31.436-80.414 31.436-51.954 31.436-25.201 14.735-11.812 0 0" fill="#ffffff"/>
<path transform="matrix(1,0,0,-1,497.8341,91.11719)" d="M0 0C0-19.029-15.426-34.454-34.454-34.454-53.483-34.454-68.909-19.029-68.909 0-68.909 19.029-53.483 34.455-34.454 34.455-15.426 34.455 0 19.029 0 0" fill="#ffffff"/>
<path transform="matrix(1,0,0,-1,430.0623,135.03699)" d="M0 0V-218.939L13.183-216.593V-7.415C8.434-5.545 4.003-3.043 0 0" fill="#004892"/>
<path transform="matrix(1,0,0,-1,469.6761,145.90369)" d="M0 0C-2.068-.237-4.167-.37-6.296-.37-13.4-.37-20.188 .995-26.431 3.452V-203.398-205.743L13.182-198.695V3.193C9.005 1.61 4.587 .523 0 0" fill="#ffffff"/>
<path transform="matrix(1,0,0,-1,720.9688,126.008609)" d="M0 0V-2.8H1.489C2.137-2.8 2.663-2.779 3.068-2.736 3.473-2.693 3.788-2.615 4.015-2.501 4.242-2.388 4.395-2.24 4.476-2.056 4.557-1.872 4.598-1.641 4.598-1.36 4.598-.453 3.869 0 2.412 0ZM6.427-1.392C6.427-3.162 5.499-4.15 3.642-4.355L6.556-8.823H4.435L1.684-4.387H0V-8.823H-1.797V1.457H2.703C5.186 1.457 6.427 .507 6.427-1.392" fill="#ffffff"/>
<path transform="matrix(1,0,0,-1,723.0961,122.21979)" d="M0 0C-4.126 0-7.482-3.356-7.482-7.482-7.482-11.607-4.126-14.962 0-14.962 4.126-14.962 7.482-11.607 7.482-7.482 7.482-3.356 4.126 0 0 0M0-16.374C-4.903-16.374-8.894-12.386-8.894-7.482-8.894-2.579-4.903 1.411 0 1.411 4.903 1.411 8.893-2.579 8.893-7.482 8.893-12.386 4.903-16.374 0-16.374" fill="#ffffff"/>
<path transform="matrix(1,0,0,-1,566.011,377.1854)" d="M0 0 .077-81.952 66.251-70.014V11.952Z" fill="#092d72"/>
<path transform="matrix(1,0,0,-1,293.6687,426.8484)" d="M0 0-66.098-11.925V-93.89L.077-81.952Z" fill="#092d72"/>
<path transform="matrix(1,0,0,-1,566.0878,459.13789)" d="M0 0-.042 22.68 37.611 26.112Z" fill="#000e4c"/>
<path transform="matrix(1,0,0,-1,256.0891,495.6194)" d="M0 0 37.656-13.181 37.631 8.362Z" fill="#000e4c"/>
<path transform="matrix(1,0,0,-1,603.6217,344.2895)" d="M0 0-347.609-62.594-347.533-151.33 .077-88.737Z" fill="#004892"/>
<path transform="matrix(1,0,0,-1,284.7226,464.7117)" d="M0 0C5.679 1.026 9.435 4.758 9.43 10.221V10.542C9.425 16.165 5.824 18.647 .145 17.622L-.816 17.448-.801-.145ZM-.021 24.502C5.498 25.499 8.855 29.238 8.85 34.863V35.023C8.846 40.486 5.404 42.594 .284 41.669L-.836 41.467-.822 24.357ZM-8.761 47.347-.682 48.806C8.596 50.483 16.6 47.51 16.608 37.709V37.388C16.615 29.837 12.298 25.442 7.9 22.799 13.182 21.905 17.345 18.962 17.351 11.651V11.089C17.36 1.369 9.925-5.518-.794-7.455L-8.712-8.886Z" fill="#ffffff"/>
<path transform="matrix(1,0,0,-1,321.9917,453.3985)" d="M0 0-.006 7.712C-1.208 8.058-2.807 8.331-4.169 8.085-7.048 7.564-8.724 4.852-8.722 .192L-8.72-.771C-8.716-5.512-7.115-7.472-4.634-7.023-1.996-6.547 .002-3.615 0 0M-16.08-2.744V-1.621C-16.089 7.538-12.173 12.745-6.092 13.844-3.853 14.249-1.854 13.967-.012 13.337L-.015 16.71C-.02 21.609-2.341 23.841-6.581 23.075-9.221 22.598-11.541 21.295-13.939 19.737L-13.945 27.047C-11.226 28.744-8.746 29.835-5.307 30.457 2.852 31.931 7.495 27.868 7.504 18.63L7.528-10.531-.069-11.903-.074-6.843C-1.751-10.921-4.07-13.35-7.429-13.956-12.469-14.868-16.073-10.456-16.08-2.744" fill="#ffffff"/>
<path transform="matrix(1,0,0,-1,335.3877,406.146)" d="M0 0 7.599 1.374 7.628-31.081 15.452-11.107 23.772-9.604 15.786-28.401 23.808-52.42 15.408-53.938 10.192-36.884 7.638-42.969 7.649-55.34 .05-56.714Z" fill="#ffffff"/>
<path transform="matrix(1,0,0,-1,377.0091,431.3248)" d="M0 0C-.006 7.953-1.69 12.31-4.57 11.788-7.369 11.283-9.366 6.984-9.598-1.734ZM-17.115-6.708-17.117-5.021C-17.128 9.037-11.375 17.388-4.576 18.616 2.464 19.889 7.189 13.27 7.201-.627L7.204-4.804-9.514-7.825C-9.105-15.946-5.745-18.634-1.824-17.925 .974-17.419 2.815-16.042 5.613-13.69L6.261-20.642C3.061-23.229 .662-24.628-2.858-25.264-10.537-26.651-17.103-20.686-17.115-6.708" fill="#ffffff"/>
<path transform="matrix(1,0,0,-1,406.6056,429.9136)" d="M0 0-.002 2.651C-.01 11.407-2.253 15.822-5.212 15.287-8.251 14.739-10.089 9.504-10.08 .669L-10.079-1.741C-10.071-10.577-8.226-15.064-5.188-14.516-2.228-13.982 .008-8.837 0 0M-17.678-3.436-17.68-.303C-17.693 14.478-13.378 21.043-8.018 22.011-3.858 22.763-1.615 19.552-.172 16.6L-.19 36.603 7.49 37.99 7.539-18.725-.141-20.111-.146-13.926C-1.584-17.401-3.82-21.5-7.98-22.252-13.34-23.22-17.665-18.377-17.678-3.436" fill="#ffffff"/>
<path transform="matrix(1,0,0,-1,432.1364,443.3782)" d="M0 0-.008 8.354C3.514 6.821 6.393 6.216 9.114 6.708 12.474 7.315 15.032 9.705 15.028 13.562V13.723C15.025 16.936 13.984 19.078 8.859 24.338 1.971 31.369-.51 34.455-.516 40.801V40.961C-.523 49.237 5.072 55.71 12.27 57.011 16.031 57.692 18.431 57.402 20.911 56.564L20.919 48.21C17.879 49.509 15.717 50.001 13.158 49.539 9.956 48.961 7.399 46.33 7.403 42.796V42.635C7.406 39.502 8.447 38.002 13.571 32.821 21.02 25.329 22.942 21.901 22.947 15.555V15.395C22.954 7.12 17.119 .522 9.84-.793 6.161-1.458 2.961-.992 0 0" fill="#ffffff"/>
<path transform="matrix(1,0,0,-1,459.3754,397.64253)" d="M0 0 7.601 1.374 7.604-4.089C9.202-.426 11.519 2.806 15.516 3.527 21.037 4.525 24.162 .429 24.167-6.8L24.195-38.452 16.596-39.824 16.569-9.781C16.566-5.443 14.965-3.402 12.325-3.878 9.604-4.37 7.607-7.302 7.611-11.56L7.637-41.443 .036-42.817Z" fill="#ffffff"/>
<path transform="matrix(1,0,0,-1,503.9566,420.5199)" d="M0 0-.006 7.712C-1.208 8.058-2.807 8.331-4.168 8.086-7.048 7.565-8.725 4.852-8.72 .193V-.771C-8.715-5.51-7.114-7.472-4.633-7.024-1.994-6.546 .002-3.615 0 0M-16.078-2.744-16.079-1.619C-16.087 7.538-12.173 12.745-6.091 13.844-3.852 14.248-1.854 13.967-.012 13.337L-.015 16.71C-.02 21.609-2.341 23.842-6.58 23.076-9.221 22.599-11.54 21.295-13.937 19.738L-13.944 27.048C-11.224 28.744-8.746 29.836-5.307 30.457 2.852 31.931 7.497 27.87 7.505 18.632L7.53-10.529-.07-11.903-.074-6.841C-1.75-10.921-4.07-13.349-7.429-13.956-12.469-14.866-16.071-10.456-16.078-2.744" fill="#ffffff"/>
<path transform="matrix(1,0,0,-1,516.3429,409.8452)" d="M0 0-.002 2.008C-.013 16.066 5.899 24.125 13.259 25.454 15.819 25.918 17.179 25.842 18.941 25.276L18.948 17.403C17.346 18.079 15.826 18.527 14.066 18.21 10.705 17.602 7.669 13.277 7.677 3.557L7.679 1.228C7.687-8.493 10.65-11.734 14.33-11.069 15.769-10.809 17.451-9.701 18.969-8.303L18.976-15.933C17.058-17.405 15.457-18.257 13.138-18.676 5.537-20.05 .013-14.137 0 0" fill="#ffffff"/>
<path transform="matrix(1,0,0,-1,540.0677,369.1625)" d="M0 0 7.601 1.374 7.629-31.081 15.452-11.108 23.773-9.604 15.788-28.401 23.809-52.42 15.409-53.938 10.193-36.884 7.639-42.969 7.651-55.34 .05-56.714Z" fill="#ffffff"/>
<path transform="matrix(1,0,0,-1,566.3503,419.851)" d="M0 0-.007 7.632C3.115 6.508 5.836 6.036 8.236 6.47 10.716 6.918 12.555 8.857 12.552 11.347V11.507C12.55 13.677 11.588 15.35 7.185 18.734 2.303 22.672-.26 25.905-.265 30.965V31.125C-.272 37.874 4.444 42.904 11.084 44.104 13.724 44.581 15.723 44.621 18.045 44.155L18.052 36.604C15.89 37.339 13.651 37.657 11.409 37.253 8.849 36.789 7.172 34.961 7.174 32.711V32.551C7.175 30.462 8.137 29.19 12.699 25.434 18.224 21.129 19.987 17.992 19.99 13.173V13.012C19.997 6.023 14.962 .695 8.642-.447 5.682-.982 2.723-.714 0 0" fill="#ffffff"/>
</g>
</g>
</svg>
