<svg xmlns="http://www.w3.org/2000/svg" xmlns:xlink="http://www.w3.org/1999/xlink" xmlns:inkscape="http://www.inkscape.org/namespaces/inkscape" version="1.1" width="639" height="328" viewBox="0 0 639 328">
<defs>
<clipPath id="clip_1">
<path transform="matrix(1,0,0,-1,0,328)" d="M0 328H639V0H0Z"/>
</clipPath>
</defs>
<g inkscape:groupmode="layer" inkscape:label="Layer 1">
<g clip-path="url(#clip_1)">
<path transform="matrix(1,0,0,-1,345.1449,103.662708)" d="M0 0C0 .519-.179 4.411-2.855 10.01-3.415 11.234-4.133 12.495-4.888 13.739-9.468 21.582-16.246 28.115-23.906 32.102-29.563 35.059-35.399 36.459-41.236 36.311-42.222 36.285-43.224 36.24-44.225 36.154-47.214 35.849-51.235 34.88-54.381 33.837-55.457 36.724-56.824 39.421-58.401 41.891-61.719 47.089-66.711 51.681-72.405 54.933-73.795 55.727-75.305 56.46-76.695 57.06-82.71 59.856-89.085 60.658-95.661 59.389-96.849 59.18-98.053 58.875-99.285 58.506-100.489 58.068-101.654 57.581-102.768 57.088-110.375 53.696-122.915 46.1-121.346 33.208L-120.665 27.762-119.171 33.043C-118.924 33.837-118.715 34.618-118.453 35.386-115.868 42.966-109.785 49.196-101.318 52.917-100.489 53.308-99.622 53.639-98.732 53.919-97.656 54.307-96.558 54.621-95.489 54.847-89.466 56.123-83.629 55.331-78.152 52.436L-77.674 52.206C-76.68 51.666-75.678 51.102-74.7 50.457-70.403 47.655-66.808 43.849-64.626 39.857L-64.566 39.797C-63.251 37.774-62.063 35.625-61.054 33.434-60.292 31.814-59.933 30.758-59.933 30.758L-59.522 29.649-59.402 29.694-59.47 29.669C-59.402 29.669-48.94 34.175-42.678 32.999-41.363 32.745-40.025 32.765-38.717 32.556-35.474 31.988-32.291 30.944-29.309 29.374-21.948 25.559-15.678 18.798-11.666 10.354-11.299 9.627-10.948 8.897-10.664 8.157-9.431 5.289-8.071 .904-8.422-3.761-8.519-4.938-8.721-6.102-9.027-7.189-9.834-9.881-11.194-12.289-13.19-14.453-24.863-25.791-42.088-25.629-57.452-30.353-58.558-30.624-59.671-30.918-60.777-31.224-66.203-32.393-71.516-34.058-76.785-35.844-77.659-36.149-78.533-36.442-79.407-36.756-79.99-36.967-80.581-37.144-81.178-37.37-89.018-39.498-96.027-43.42-103.127-47.298-104.008-47.784-104.912-48.281-105.809-48.753-109.904-51.532-115.853-51.819-118.902-47.348-119.343-46.764-119.709-46.125-120.083-45.514-123.46-39.747-124.043-33.449-128.333-28.139-128.886-27.282-129.498-26.497-130.164-25.759-136.134-19.265-146.156-18.449-154.832-19.06-155.654-19.164-156.528-19.306-157.365-19.482-160.683-20.216-163.769-21.623-166.415-23.9-167.132-24.64-167.76-25.41-168.358-26.202-173.619-33.318-174.201-42.594-171.99-50.908-171.788-51.668-171.564-52.441-171.302-53.193-170.51-55.487-169.471-57.68-168.208-59.813-167.386-60.514-166.415-59.871-165.705-59.649-162.91-59.051-163.142-56.255-163.799-54.147-164.001-53.374-164.27-52.639-164.554-51.909-164.86-51.149-165.159-50.418-165.481-49.71-168.948-43.608-170.002-36.117-166.609-30.185-166.191-29.453-165.742-28.745-165.137-28.057-163.597-26.071-161.617-24.545-159.398-23.497-158.658-23.153-157.866-22.865-157.111-22.611-148.45-20.293-139.565-24.05-133.273-30.006-132.57-30.676-131.912-31.347-131.27-32.068-127.533-35.771-125.478-40.565-123.505-45.393-123.162-46.185-122.84-46.992-122.504-47.784-121.48-50.431-120.352-53.743-116.974-54.823-112.176-55.922-107.394-52.897-103.373-50.829-102.536-50.373-101.707-49.921-100.862-49.484-94.174-45.953-87.471-42.614-80.103-40.858-79.355-40.631-78.578-40.44-77.838-40.227-77.039-40.029-76.276-39.852-75.514-39.642-74.55-39.355-73.571-39.071-72.645-38.79-67.787-37.423-62.945-36.201-58.072-35.381-57.011-35.153-55.905-34.975-54.829-34.773-37.387-31.685-18.339-30.006-6.322-17.35-4.529-15.398-2.997-13.257-1.824-11.008-1.046-9.341-.516-7.617-.209-5.863 .127-3.987 .187-2.003 0 0" fill="#b12029"/>
<path transform="matrix(1,0,0,-1,273.4568,221.0961)" d="M0 0C-2.294-2.003-4.783-3.299-7.533-3.869-12.151-4.923-14.654-5.53-15.103-5.749-16.859-6.718-17.741-8.131-17.741-9.986-17.741-12.706-16.209-14.075-13.107-14.075-10.791-14.075-7.936-13.459-4.551-12.196 1.667-9.84 6.322-6.718 9.416-2.881 12.674 1.19 14.281 5.407 14.281 9.765 14.281 13.078 13.145 15.566 10.851 17.186 8.587 18.813 5.104 19.641 .538 19.641-8.168 19.641-16.44 16.898-24.294 11.415-32.343 5.73-36.371-.818-36.371-8.181-36.371-13.745-33.934-19.928-29.062-26.701-25.482-31.665-23.726-35.711-23.726-38.801-23.726-41.325-24.399-43.386-25.737-45.017-27.388-46.943-29.63-47.901-32.507-47.901-35.451-47.901-38.082-46.775-40.376-44.578-42.947-42.067-44.247-38.968-44.247-35.381-44.247-31.085-43.388-27.338-41.706-24.16-41.041-22.979-40.697-22.124-40.697-21.511-40.697-20.015-41.624-19.288-43.485-19.288-45.54-19.288-47.55-20.599-49.47-23.175-50.308-24.287-51.032-25.49-51.623-26.768-51.092-22.766-51.032-18.921-51.75-15.577-51.884-14.217-52.251-12.924-52.863-11.656-53.454-10.031-54.769-7.766-57.676-5.965-61.285-3.142-66.33-1.018-72.166 .013-72.248 1.736-72.218 3.286-72.054 4.743-68.923 7.985-66.92 13.055-66.92 18.748-66.92 24.139-68.751 28.991-71.605 32.233-71.605 34.015-71.635 35.842-71.785 37.731L-71.718 37.709C-71.755 37.917-71.815 38.125-71.83 38.334-71.927 39.153-72.054 39.973-72.181 40.8-72.674 46.812-70.059 51.507-68.556 53.697-68.19 54.18-67.839 54.616-67.473 55.057L-67.495 55.07C-70.455 60.002-67.473 60.971-68.4 64.689-73.264 66.799-70.059 60.895-72.114 60.217-72.188 60.217-72.248 60.23-72.338 60.267-73.877 62.81-75.432 66.384-76.089 71.249-76.141 71.69-76.194 72.147-76.231 72.616-75.753 83.125-69.192 95.556-71.882 106.934V106.967L-71.927 107.164C-72.136 108.006-72.39 108.813-72.689 109.652-72.839 110.076-72.995 110.577-73.152 111.098L-73.175 111.132-73.205 111.201C-73.339 111.642-73.489 112.086-73.646 112.554-73.683 112.666-73.735 112.776-73.765 112.86-74.198 114.063-74.707 115.163-75.207 116.301-75.26 116.413-75.319 116.548-75.432 116.679-75.506 116.92-75.648 117.159-75.805 117.407-75.857 117.56-75.917 117.714-75.947 117.848-75.992 117.966-76.007 118.082-76.029 118.188-76.052 118.283-76.052 118.395-76.052 118.526-76.029 118.79-75.947 119.032-75.88 119.266-75.842 119.371-75.805 119.509-75.708 119.625-75.065 120.816-74.408 122.001-73.474 123.059-73.391 123.197-73.302 123.283-73.205 123.432-65.919 131.505-52.392 133.312-38.104 134.412-39.965 134.619-42.581 134.683-45.629 134.662H-45.742L-45.263 134.731C-45.263 134.731-51.623 134.787-60.516 134.847-64.73 134.864-69.408 134.897-74.221 134.918V134.942H-74.998C-74.961 135.036-74.923 135.14-74.886 135.223-74.707 135.542-74.52 135.82-74.281 136.101-73.84 139.256-75.596 138.64-75.708 140.805-75.648 141.201-75.596 141.621-75.506 142.055-72.674 143.342-71.292 147.127-71.546 153.718-73.72 154.641-77.106 155.181-80.401 155.136H-80.76-80.879-81.036-81.372C-84.623 155.181-88.046 154.641-90.235 153.718-90.474 147.127-89.1 143.342-86.252 142.055-86.178 141.621-86.11 141.201-86.051 140.805-86.178 138.64-87.926 139.256-87.478 136.101-87.246 135.82-87.052 135.542-86.895 135.223-86.843 135.14-86.798 135.036-86.738 134.942H-87.538V134.918C-92.38 134.897-97.051 134.864-101.25 134.847-110.136 134.787-116.503 134.731-116.503 134.731L-115.995 134.662H-116.144C-119.201 134.683-121.794 134.619-123.639 134.412-109.403 133.312-95.84 131.505-88.554 123.432-88.479 123.283-88.382 123.197-88.27 123.059-87.366 122.001-86.656 120.816-86.028 119.625-85.968 119.509-85.924 119.371-85.901 119.266-85.797 119.032-85.729 118.79-85.714 118.526-85.714 118.395-85.729 118.283-85.729 118.188-85.744 118.082-85.782 117.966-85.804 117.848-85.856 117.714-85.901 117.56-85.968 117.407-86.11 117.159-86.222 116.92-86.357 116.679-86.439 116.548-86.484 116.413-86.574 116.301-87.067 115.163-87.583 114.063-88.001 112.86-88.046 112.776-88.068 112.666-88.106 112.554-88.27 112.086-88.419 111.642-88.554 111.201-88.554 111.201-88.576 111.136-88.592 111.132V111.098C-88.778 110.577-88.928 110.076-89.1 109.652-89.376 108.813-89.63 108.006-89.832 107.164L-89.884 106.967V106.934C-92.545 95.556-86.013 83.125-85.528 72.616-85.565 72.147-85.617 71.69-85.692 71.249-86.97 62.13-91.11 57.594-93.135 55.905-93.508 55.61-93.905 55.339-94.278 55.057-93.905 54.616-93.583 54.18-93.247 53.697-91.715 51.507-89.1 46.812-89.563 40.8-89.727 39.973-89.832 39.153-89.929 38.334-89.959 38.125-90.019 37.917-90.041 37.709L-89.989 37.731C-90.131 35.842-90.168 34.015-90.168 32.233-93.023 28.991-94.831 24.139-94.831 18.748-94.831 13.055-92.829 7.985-89.705 4.743-89.533 3.286-89.496 1.736-89.6 .013-95.444-1.018-100.458-3.142-104.098-5.965-106.982-7.766-108.305-10.031-108.918-11.656-109.516-12.924-109.874-14.217-110.002-15.577-110.33-17.031-110.502-18.553-110.539-20.145-120.478-34.581-127.637-41.813-132.032-41.813-134.288-41.813-135.432-40.61-135.432-38.259-135.432-35.808-133.758-31.164-130.455-24.334-126.666-16.463-121.151-7.707-113.887 1.905-110.136 6.922-108.238 10.585-108.238 12.964-108.238 14.791-109.045 16.412-110.614 17.806-112.027 19.041-113.469 19.641-114.941 19.641-118.528 19.641-124.492 16.743-132.786 10.976-139.273 6.429-145.752 .787-152.231-5.965-149.959 .865-143.779 13.64-133.728 32.388-124.35 49.886-114.941 65.952-105.465 80.569-102.685 84.674-101.318 87.981-101.318 90.413-101.318 91.999-101.736 93.383-102.611 94.622-103.732 96.287-105.092 97.112-106.683 97.112-108.342 97.112-109.904 96.331-111.399 94.753-112.893 93.161-114.941 90.111-117.572 85.559-128.602 66.742-138.637 48.593-147.627 31.061-156.655 13.732-166.37-7.441-176.787-32.472-182.392-45.957-185.186-54.14-185.186-57.047-185.186-58.776-184.678-60.288-183.61-61.51-182.534-62.64-181.211-63.215-179.559-63.215-177.19-63.215-175.427-61.51-174.306-58.1-161.946-28.132-146.858-8.678-128.983 .351-135.544-10.78-139.497-17.518-140.812-19.871-146.335-29.853-149.062-38.736-149.062-46.523-149.062-48.967-148.562-51.206-147.515-53.228-145.849-56.469-143.136-58.1-139.348-58.1-135.768-58.1-131.755-56.559-127.294-53.469-120.986-49.039-114.941-42.585-109.179-34.194-109.067-34.021-108.955-33.882-108.828-33.694-107.05-41.411-104.314-49.069-102.887-54.601V-55.972H-102.947V-58.22H-83.861C-82.919-58.242-81.978-58.268-81.036-58.3H-80.879-80.76C-79.781-58.268-78.839-58.242-77.912-58.22H-58.804V-55.972H-58.887V-54.601C-57.698-50.016-55.606-43.933-53.895-37.565V-37.709C-53.895-42.644-52.602-46.943-50.039-50.543-46.295-55.653-40.907-58.198-33.815-58.198-29.324-58.198-25.288-57.069-21.739-54.764-15.97-51.076-13.107-45.957-13.107-39.463-13.107-35.119-15.289-29.783-19.624-23.515-23.547-17.744-25.482-12.951-25.482-9.1-25.482-3.709-22.516 .97-16.515 4.885-11.359 8.36-6.636 10.09-2.324 10.09-.56 10.09 .777 9.728 1.667 8.997 2.541 8.243 2.982 7.099 2.982 5.541 2.982 3.559 1.995 1.711 0 0" fill="#101921"/>
<path transform="matrix(1,0,0,-1,364.2381,253.67801)" d="M0 0C-5.052-8.086-9.468-12.112-13.302-12.112-14.804-12.112-15.895-11.611-16.672-10.569-17.434-9.549-17.815-8.028-17.815-6.081-17.815 2.01-13.922 11.873-6.188 23.482 .882 34.026 7.413 39.291 13.444 39.291 14.684 39.291 15.888 38.859 16.978 38.026 18.099 37.187 19.101 35.92 20.057 34.177 18.413 32.828 17.277 31.679 16.642 30.742 15.379 28.915 13.354 25.186 10.582 19.594 6.367 10.933 2.855 4.424 0 0M22.449-19.845C19.759-18.585 18.137-17.661 17.584-17.122 15.626-14.976 14.61-12.231 14.61-8.911 14.61-4.813 15.835 .676 18.324 7.454 20.618 13.872 22.882 19.013 25.184 22.91 27.388 26.703 28.509 29.439 28.509 31.082 28.509 32.356 27.911 33.839 26.723 35.476 28.076 38.562 28.719 40.994 28.719 42.723 28.719 45.034 27.807 47.091 25.909 48.912 23.667 50.971 20.902 51.983 17.584 51.983 12.293 51.983 6.778 49.917 1.083 45.818-7.63 39.504-15.073 30.417-21.238 18.63-21.462 18.189-21.702 17.731-21.896 17.301-22.247 16.896-22.508 16.457-22.86 15.97-34.069-.813-42.035-9.231-46.758-9.231-49.03-9.231-50.158-8.028-50.158-5.678-50.158-3.227-48.499 1.418-45.167 8.248-41.423 16.119-35.915 24.875-28.629 34.487-24.893 39.504-22.972 43.167-22.972 45.546-22.972 47.373-23.779 48.994-25.371 50.388-26.768 51.623-28.188 52.223-29.705 52.223-33.284 52.223-39.225 49.325-47.558 43.558-54.022 39.011-60.478 33.369-66.957 26.617-64.708 33.447-58.543 46.222-48.447 64.969-39.083 82.467-29.705 98.534-20.214 113.151-17.434 117.256-16.014 120.562-16.014 122.995-16.014 124.581-16.448 125.965-17.337 127.204-18.488 128.869-19.818 129.694-21.395 129.694-23.076 129.694-24.653 128.913-26.14 127.335-27.62 125.743-29.705 122.692-32.283 118.141-43.358 99.324-53.357 81.175-62.376 63.643-71.396 46.314-81.111 25.141-91.521 .123-97.126-13.375-99.95-21.558-99.95-24.465-99.95-26.195-99.405-27.706-98.336-28.928-97.298-30.058-95.937-30.634-94.286-30.634-91.91-30.634-90.176-28.928-89.025-25.518-76.68 4.45-61.607 23.904-43.709 32.933-50.308 21.802-54.254 15.064-55.546 12.711-61.061 2.729-63.841-6.167-63.841-13.941-63.841-16.385-63.288-18.625-62.242-20.646-60.583-23.887-57.863-25.518-54.104-25.518-50.517-25.518-46.489-23.977-42.035-20.887-37.724-17.862-33.583-13.922-29.518-9.061-29.533-9.528-29.57-10.003-29.57-10.447-29.57-14.019-28.801-17.122-27.329-19.714-24.945-23.742-21.604-25.765-17.337-25.765-12.412-25.765-7.443-22.694-2.489-16.515 .052-13.36 2.63-9.47 5.216-4.873 4.895-8.51 4.745-11.144 4.745-12.717 4.745-17.388 6.001-21.283 8.549-24.334 11.65-28.16 15.327-30.045 19.586-30.045 21.171-30.045 22.546-29.535 23.749-28.506 24.847-27.568 25.401-26.312 25.401-24.808 25.401-22.456 24.406-20.795 22.449-19.845" fill="#101921"/>
<path transform="matrix(1,0,0,-1,453.2854,237.3365)" d="M0 0C-2.526-2.831-3.789-4.581-3.789-5.205-3.789-6.09-2.78-7.286-.814-8.887-.777-8.925-1.33-10.253-2.473-12.758-3.654-15.288-5.223-17.709-7.092-20.101-11.426-25.752-15.469-28.573-19.25-28.573-20.835-28.573-22.112-27.882-23.136-26.449-23.846-25.429-24.19-24.274-24.19-22.931-24.19-17.877-22.269-11.555-18.428-3.905-15.125 2.782-10.313 9.276-4.035 15.557 .86 20.463 4.559 22.895 7.077 22.895 8.415 22.895 9.394 22.299 10.021 21.085 10.425 20.481 10.597 19.863 10.597 19.207 10.597 14.335 7.077 7.934 0 0M-16.074 70.447C-6.202 88.388 .882 97.525 5.179 97.865 6.621 97.987 7.466 97.193 7.585 95.478 7.907 91.911 5.179 84.368-.545 72.872-11.568 50.711-24.601 32.04-39.636 16.917-32.133 37.852-24.257 55.692-16.074 70.447M11.441 35.735C7.279 35.735 2.623 33.974-2.473 30.434-11.261 24.392-18.839 15.876-25.258 4.936-27.291 1.487-29.01-1.863-30.445-5.16-33.897-11.892-36.498-16.577-38.366-19.249-42.342-24.883-45.771-27.809-48.536-28.039-50.397-28.196-51.421-27.299-51.593-25.363-51.705-23.885-51.339-21.24-50.479-17.416-49.613-13.59-48.253-8.542-46.422-2.306-41.303 3.107-37.275 7.428-34.323 10.658-23.099 22.895-13.615 35.003-5.844 46.99 11.538 73.909 19.796 92.782 18.884 103.673 18.735 106.017 17.756 107.993 16.045 109.65 14.415 111.313 12.443 112.051 10.126 111.871 2.825 111.264-5.791 103.229-15.708 87.721-28.143 68.411-39.898 44.18-50.995 15.037-55.3 3.594-58.468-6.109-60.493-14.006-62.496-21.911-63.325-28.039-62.989-32.392-62.772-34.945-61.936-37.058-60.471-38.753-58.393-41.086-55.897-42.129-52.945-41.894-47.273-41.437-41.475-37.262-35.601-29.413-35.452-31.745-34.891-33.787-34.002-35.549-31.865-39.799-28.524-41.92-23.943-41.92-14.131-41.92-3.946-33.229 6.591-15.835 16.284 .237 21.096 13.477 21.096 23.956 21.096 31.822 17.905 35.735 11.441 35.735" fill="#101921"/>
<path transform="matrix(1,0,0,-1,559.3188,219.08969)" d="M0 0C4.529 3.01 7.937 4.387 10.201 4.168 11.89 4.03 12.614 3.054 12.465 1.306 12.293-.359 11.464-2.169 9.939-4.133 5.769-9.752 .411-14.643-6.188-18.757-9.939-21.044-14.998-22.946-21.343-24.453-15.207-13.485-8.093-5.323 0 0M35.549-24.259C34.869-23.22 34.047-22.658 33.061-22.553 31.312-22.392 29.032-23.626 26.208-26.275 10.253-41.692-3.243-48.853-14.161-47.806-19.153-47.319-22.598-45.359-24.459-41.914-25.296-40.416-25.624-38.704-25.423-36.78L-25.206-34.433C-6.942-30.803 7.339-22.404 17.524-9.259 22.464-2.909 25.191 2.541 25.61 7.2 25.879 10.176 24.99 12.661 22.89 14.737 21.193 16.321 19.228 17.229 16.919 17.444 8.527 18.282-1.891 13.429-14.303 2.965-17.33 .428-20.08-2.169-22.568-4.79-23.868-5.474-25.714-6.754-28.046-8.635-32.589-12.283-36.296-14.092-39.165-14.092-40.212-14.092-41.572-13.903-43.32-13.563-37.275-2.371-34.241 6.145-34.241 11.927-34.241 15.551-35.758 17.334-38.762 17.334-44.008 17.334-48.2 14.29-51.346 8.179-53.738 3.426-54.941-2.18-54.941-8.635-54.941-9.778-54.889-11.385-54.814-13.563-58.087-20.199-61.218-25.67-64.245-29.978-71.052-39.65-76.321-44.47-80.013-44.47-82.195-44.47-83.256-43.089-83.256-40.337-83.256-36.027-79.766-27.226-72.809-13.944-65.799-.489-62.309 8.179-62.309 12.043-62.309 13.429-62.735 14.621-63.587 15.675-64.387 16.54-65.298 16.938-66.322 16.938-68.28 16.938-69.849 16.045-70.978 14.253-71.762 13.046-72.667 11.284-73.683 8.956-74.131 7.722-75.454 5.188-77.696 1.319-80.722-4.114-84.421-11.548-88.823-20.928-93.733-31.739-96.184-39.948-96.184-45.641-96.184-48.572-95.496-51.386-94.136-54.031-92.133-58.109-89.301-60.14-85.587-60.14-79.459-60.14-71.815-54.69-62.578-43.827-58.782-39.421-54.231-32.696-48.977-23.655-45.727-25.117-42.827-25.832-40.316-25.832-38.934-25.832-37.559-25.74-36.251-25.533-37.902-29.761-38.956-34.082-39.39-38.486-39.875-43.915-39.046-48.339-36.804-51.722-33.494-56.645-28.539-59.397-21.97-60.043-15.596-60.673-8.482-59.313-.665-56.028 7.182-52.709 14.714-48.17 21.881-42.428 31.058-35.11 35.818-29.724 36.169-26.294 36.236-25.683 36.02-25.016 35.549-24.259" fill="#101921"/>
<path transform="matrix(1,0,0,-1,97.4172,221.0961)" d="M0 0C-2.287-2.003-4.813-3.299-7.533-3.869-12.136-4.923-14.647-5.53-15.073-5.749-16.866-6.718-17.756-8.131-17.756-9.986-17.756-12.706-16.201-14.075-13.078-14.075-10.791-14.075-7.959-13.459-4.551-12.196 1.659-9.84 6.33-6.718 9.401-2.881 12.659 1.19 14.296 5.407 14.296 9.765 14.296 13.078 13.137 15.566 10.873 17.186 8.571 18.813 5.141 19.641 .523 19.641-8.168 19.641-16.455 16.898-24.294 11.415-32.365 5.73-36.393-.818-36.393-8.181-36.393-13.745-33.935-19.928-29.07-26.701-25.513-31.665-23.749-35.711-23.749-38.801-23.749-41.325-24.399-43.386-25.722-45.017-27.366-46.943-29.593-47.901-32.5-47.901-35.437-47.901-38.082-46.775-40.354-44.578-42.962-42.067-44.232-38.968-44.232-35.381-44.232-31.085-43.403-27.338-41.706-24.16-41.034-22.979-40.697-22.124-40.697-21.511-40.697-20.015-41.624-19.288-43.463-19.288-45.555-19.288-47.528-20.599-49.471-23.175-52.423-27.091-53.917-31.938-53.917-37.709-53.917-42.644-52.595-46.943-50.016-50.543-46.325-55.653-40.922-58.198-33.838-58.198-29.316-58.198-25.311-57.069-21.746-54.764-15.977-51.076-13.078-45.957-13.078-39.463-13.078-35.119-15.267-29.783-19.639-23.515-23.562-17.744-25.513-12.951-25.513-9.1-25.513-3.709-22.508 .97-16.538 4.885-11.359 8.36-6.643 10.09-2.354 10.09-.575 10.09 .762 9.728 1.659 8.997 2.548 8.243 2.997 7.099 2.997 5.541 2.997 3.559 1.995 1.711 0 0" fill="#101921"/>
<path transform="matrix(1,0,0,-1,191.6581,61.1998)" d="M0 0C.15-1.087-.62-2.074-1.689-2.212L-5.814-2.763C-6.882-2.901-7.869-2.132-8.018-1.067L-8.489 2.375C-8.624 3.443-7.869 4.43-6.793 4.586L-2.675 5.119C-1.592 5.278-.598 4.501-.463 3.443Z" fill="#101921"/>
<path transform="matrix(1,0,0,-1,193.0558,61.1998)" d="M0 0C-.135-1.087 .62-2.074 1.696-2.212L5.814-2.763C6.89-2.901 7.884-2.132 8.026-1.067L8.474 2.375C8.616 3.443 7.862 4.43 6.785 4.586L2.668 5.119C1.584 5.278 .59 4.501 .456 3.443Z" fill="#101921"/>
</g>
</g>
</svg>
